%TF.GenerationSoftware,KiCad,Pcbnew,7.0.9*%
%TF.CreationDate,2023-12-08T14:14:16+01:00*%
%TF.ProjectId,E-paper adapter board,452d7061-7065-4722-9061-646170746572,rev?*%
%TF.SameCoordinates,Original*%
%TF.FileFunction,Legend,Top*%
%TF.FilePolarity,Positive*%
%FSLAX46Y46*%
G04 Gerber Fmt 4.6, Leading zero omitted, Abs format (unit mm)*
G04 Created by KiCad (PCBNEW 7.0.9) date 2023-12-08 14:14:16*
%MOMM*%
%LPD*%
G01*
G04 APERTURE LIST*
G04 Aperture macros list*
%AMRoundRect*
0 Rectangle with rounded corners*
0 $1 Rounding radius*
0 $2 $3 $4 $5 $6 $7 $8 $9 X,Y pos of 4 corners*
0 Add a 4 corners polygon primitive as box body*
4,1,4,$2,$3,$4,$5,$6,$7,$8,$9,$2,$3,0*
0 Add four circle primitives for the rounded corners*
1,1,$1+$1,$2,$3*
1,1,$1+$1,$4,$5*
1,1,$1+$1,$6,$7*
1,1,$1+$1,$8,$9*
0 Add four rect primitives between the rounded corners*
20,1,$1+$1,$2,$3,$4,$5,0*
20,1,$1+$1,$4,$5,$6,$7,0*
20,1,$1+$1,$6,$7,$8,$9,0*
20,1,$1+$1,$8,$9,$2,$3,0*%
G04 Aperture macros list end*
%ADD10C,0.150000*%
%ADD11C,0.120000*%
%ADD12RoundRect,0.250000X0.600000X0.600000X-0.600000X0.600000X-0.600000X-0.600000X0.600000X-0.600000X0*%
%ADD13C,1.700000*%
%ADD14R,1.700000X1.700000*%
%ADD15O,1.700000X1.700000*%
%ADD16C,4.300000*%
%ADD17R,1.524000X1.524000*%
%ADD18C,1.524000*%
%ADD19R,1.800000X2.000000*%
%ADD20R,0.300000X1.200000*%
G04 APERTURE END LIST*
D10*
X134863990Y-111836779D02*
X134863990Y-112170112D01*
X134340180Y-112312969D02*
X134340180Y-111836779D01*
X134340180Y-111836779D02*
X135340180Y-111836779D01*
X135340180Y-111836779D02*
X135340180Y-112312969D01*
X134721133Y-112741541D02*
X134721133Y-113503446D01*
X135006847Y-113979636D02*
X134006847Y-113979636D01*
X134959228Y-113979636D02*
X135006847Y-114074874D01*
X135006847Y-114074874D02*
X135006847Y-114265350D01*
X135006847Y-114265350D02*
X134959228Y-114360588D01*
X134959228Y-114360588D02*
X134911609Y-114408207D01*
X134911609Y-114408207D02*
X134816371Y-114455826D01*
X134816371Y-114455826D02*
X134530657Y-114455826D01*
X134530657Y-114455826D02*
X134435419Y-114408207D01*
X134435419Y-114408207D02*
X134387800Y-114360588D01*
X134387800Y-114360588D02*
X134340180Y-114265350D01*
X134340180Y-114265350D02*
X134340180Y-114074874D01*
X134340180Y-114074874D02*
X134387800Y-113979636D01*
X134340180Y-115312969D02*
X134863990Y-115312969D01*
X134863990Y-115312969D02*
X134959228Y-115265350D01*
X134959228Y-115265350D02*
X135006847Y-115170112D01*
X135006847Y-115170112D02*
X135006847Y-114979636D01*
X135006847Y-114979636D02*
X134959228Y-114884398D01*
X134387800Y-115312969D02*
X134340180Y-115217731D01*
X134340180Y-115217731D02*
X134340180Y-114979636D01*
X134340180Y-114979636D02*
X134387800Y-114884398D01*
X134387800Y-114884398D02*
X134483038Y-114836779D01*
X134483038Y-114836779D02*
X134578276Y-114836779D01*
X134578276Y-114836779D02*
X134673514Y-114884398D01*
X134673514Y-114884398D02*
X134721133Y-114979636D01*
X134721133Y-114979636D02*
X134721133Y-115217731D01*
X134721133Y-115217731D02*
X134768752Y-115312969D01*
X135006847Y-115789160D02*
X134006847Y-115789160D01*
X134959228Y-115789160D02*
X135006847Y-115884398D01*
X135006847Y-115884398D02*
X135006847Y-116074874D01*
X135006847Y-116074874D02*
X134959228Y-116170112D01*
X134959228Y-116170112D02*
X134911609Y-116217731D01*
X134911609Y-116217731D02*
X134816371Y-116265350D01*
X134816371Y-116265350D02*
X134530657Y-116265350D01*
X134530657Y-116265350D02*
X134435419Y-116217731D01*
X134435419Y-116217731D02*
X134387800Y-116170112D01*
X134387800Y-116170112D02*
X134340180Y-116074874D01*
X134340180Y-116074874D02*
X134340180Y-115884398D01*
X134340180Y-115884398D02*
X134387800Y-115789160D01*
X134387800Y-117074874D02*
X134340180Y-116979636D01*
X134340180Y-116979636D02*
X134340180Y-116789160D01*
X134340180Y-116789160D02*
X134387800Y-116693922D01*
X134387800Y-116693922D02*
X134483038Y-116646303D01*
X134483038Y-116646303D02*
X134863990Y-116646303D01*
X134863990Y-116646303D02*
X134959228Y-116693922D01*
X134959228Y-116693922D02*
X135006847Y-116789160D01*
X135006847Y-116789160D02*
X135006847Y-116979636D01*
X135006847Y-116979636D02*
X134959228Y-117074874D01*
X134959228Y-117074874D02*
X134863990Y-117122493D01*
X134863990Y-117122493D02*
X134768752Y-117122493D01*
X134768752Y-117122493D02*
X134673514Y-116646303D01*
X134340180Y-117551065D02*
X135006847Y-117551065D01*
X134816371Y-117551065D02*
X134911609Y-117598684D01*
X134911609Y-117598684D02*
X134959228Y-117646303D01*
X134959228Y-117646303D02*
X135006847Y-117741541D01*
X135006847Y-117741541D02*
X135006847Y-117836779D01*
X134340180Y-119360589D02*
X134863990Y-119360589D01*
X134863990Y-119360589D02*
X134959228Y-119312970D01*
X134959228Y-119312970D02*
X135006847Y-119217732D01*
X135006847Y-119217732D02*
X135006847Y-119027256D01*
X135006847Y-119027256D02*
X134959228Y-118932018D01*
X134387800Y-119360589D02*
X134340180Y-119265351D01*
X134340180Y-119265351D02*
X134340180Y-119027256D01*
X134340180Y-119027256D02*
X134387800Y-118932018D01*
X134387800Y-118932018D02*
X134483038Y-118884399D01*
X134483038Y-118884399D02*
X134578276Y-118884399D01*
X134578276Y-118884399D02*
X134673514Y-118932018D01*
X134673514Y-118932018D02*
X134721133Y-119027256D01*
X134721133Y-119027256D02*
X134721133Y-119265351D01*
X134721133Y-119265351D02*
X134768752Y-119360589D01*
X134340180Y-120265351D02*
X135340180Y-120265351D01*
X134387800Y-120265351D02*
X134340180Y-120170113D01*
X134340180Y-120170113D02*
X134340180Y-119979637D01*
X134340180Y-119979637D02*
X134387800Y-119884399D01*
X134387800Y-119884399D02*
X134435419Y-119836780D01*
X134435419Y-119836780D02*
X134530657Y-119789161D01*
X134530657Y-119789161D02*
X134816371Y-119789161D01*
X134816371Y-119789161D02*
X134911609Y-119836780D01*
X134911609Y-119836780D02*
X134959228Y-119884399D01*
X134959228Y-119884399D02*
X135006847Y-119979637D01*
X135006847Y-119979637D02*
X135006847Y-120170113D01*
X135006847Y-120170113D02*
X134959228Y-120265351D01*
X134340180Y-121170113D02*
X134863990Y-121170113D01*
X134863990Y-121170113D02*
X134959228Y-121122494D01*
X134959228Y-121122494D02*
X135006847Y-121027256D01*
X135006847Y-121027256D02*
X135006847Y-120836780D01*
X135006847Y-120836780D02*
X134959228Y-120741542D01*
X134387800Y-121170113D02*
X134340180Y-121074875D01*
X134340180Y-121074875D02*
X134340180Y-120836780D01*
X134340180Y-120836780D02*
X134387800Y-120741542D01*
X134387800Y-120741542D02*
X134483038Y-120693923D01*
X134483038Y-120693923D02*
X134578276Y-120693923D01*
X134578276Y-120693923D02*
X134673514Y-120741542D01*
X134673514Y-120741542D02*
X134721133Y-120836780D01*
X134721133Y-120836780D02*
X134721133Y-121074875D01*
X134721133Y-121074875D02*
X134768752Y-121170113D01*
X135006847Y-121646304D02*
X134006847Y-121646304D01*
X134959228Y-121646304D02*
X135006847Y-121741542D01*
X135006847Y-121741542D02*
X135006847Y-121932018D01*
X135006847Y-121932018D02*
X134959228Y-122027256D01*
X134959228Y-122027256D02*
X134911609Y-122074875D01*
X134911609Y-122074875D02*
X134816371Y-122122494D01*
X134816371Y-122122494D02*
X134530657Y-122122494D01*
X134530657Y-122122494D02*
X134435419Y-122074875D01*
X134435419Y-122074875D02*
X134387800Y-122027256D01*
X134387800Y-122027256D02*
X134340180Y-121932018D01*
X134340180Y-121932018D02*
X134340180Y-121741542D01*
X134340180Y-121741542D02*
X134387800Y-121646304D01*
X135006847Y-122408209D02*
X135006847Y-122789161D01*
X135340180Y-122551066D02*
X134483038Y-122551066D01*
X134483038Y-122551066D02*
X134387800Y-122598685D01*
X134387800Y-122598685D02*
X134340180Y-122693923D01*
X134340180Y-122693923D02*
X134340180Y-122789161D01*
X134387800Y-123503447D02*
X134340180Y-123408209D01*
X134340180Y-123408209D02*
X134340180Y-123217733D01*
X134340180Y-123217733D02*
X134387800Y-123122495D01*
X134387800Y-123122495D02*
X134483038Y-123074876D01*
X134483038Y-123074876D02*
X134863990Y-123074876D01*
X134863990Y-123074876D02*
X134959228Y-123122495D01*
X134959228Y-123122495D02*
X135006847Y-123217733D01*
X135006847Y-123217733D02*
X135006847Y-123408209D01*
X135006847Y-123408209D02*
X134959228Y-123503447D01*
X134959228Y-123503447D02*
X134863990Y-123551066D01*
X134863990Y-123551066D02*
X134768752Y-123551066D01*
X134768752Y-123551066D02*
X134673514Y-123074876D01*
X134340180Y-123979638D02*
X135006847Y-123979638D01*
X134816371Y-123979638D02*
X134911609Y-124027257D01*
X134911609Y-124027257D02*
X134959228Y-124074876D01*
X134959228Y-124074876D02*
X135006847Y-124170114D01*
X135006847Y-124170114D02*
X135006847Y-124265352D01*
X134340180Y-125360591D02*
X135340180Y-125360591D01*
X134959228Y-125360591D02*
X135006847Y-125455829D01*
X135006847Y-125455829D02*
X135006847Y-125646305D01*
X135006847Y-125646305D02*
X134959228Y-125741543D01*
X134959228Y-125741543D02*
X134911609Y-125789162D01*
X134911609Y-125789162D02*
X134816371Y-125836781D01*
X134816371Y-125836781D02*
X134530657Y-125836781D01*
X134530657Y-125836781D02*
X134435419Y-125789162D01*
X134435419Y-125789162D02*
X134387800Y-125741543D01*
X134387800Y-125741543D02*
X134340180Y-125646305D01*
X134340180Y-125646305D02*
X134340180Y-125455829D01*
X134340180Y-125455829D02*
X134387800Y-125360591D01*
X134340180Y-126408210D02*
X134387800Y-126312972D01*
X134387800Y-126312972D02*
X134435419Y-126265353D01*
X134435419Y-126265353D02*
X134530657Y-126217734D01*
X134530657Y-126217734D02*
X134816371Y-126217734D01*
X134816371Y-126217734D02*
X134911609Y-126265353D01*
X134911609Y-126265353D02*
X134959228Y-126312972D01*
X134959228Y-126312972D02*
X135006847Y-126408210D01*
X135006847Y-126408210D02*
X135006847Y-126551067D01*
X135006847Y-126551067D02*
X134959228Y-126646305D01*
X134959228Y-126646305D02*
X134911609Y-126693924D01*
X134911609Y-126693924D02*
X134816371Y-126741543D01*
X134816371Y-126741543D02*
X134530657Y-126741543D01*
X134530657Y-126741543D02*
X134435419Y-126693924D01*
X134435419Y-126693924D02*
X134387800Y-126646305D01*
X134387800Y-126646305D02*
X134340180Y-126551067D01*
X134340180Y-126551067D02*
X134340180Y-126408210D01*
X134340180Y-127598686D02*
X134863990Y-127598686D01*
X134863990Y-127598686D02*
X134959228Y-127551067D01*
X134959228Y-127551067D02*
X135006847Y-127455829D01*
X135006847Y-127455829D02*
X135006847Y-127265353D01*
X135006847Y-127265353D02*
X134959228Y-127170115D01*
X134387800Y-127598686D02*
X134340180Y-127503448D01*
X134340180Y-127503448D02*
X134340180Y-127265353D01*
X134340180Y-127265353D02*
X134387800Y-127170115D01*
X134387800Y-127170115D02*
X134483038Y-127122496D01*
X134483038Y-127122496D02*
X134578276Y-127122496D01*
X134578276Y-127122496D02*
X134673514Y-127170115D01*
X134673514Y-127170115D02*
X134721133Y-127265353D01*
X134721133Y-127265353D02*
X134721133Y-127503448D01*
X134721133Y-127503448D02*
X134768752Y-127598686D01*
X134340180Y-128074877D02*
X135006847Y-128074877D01*
X134816371Y-128074877D02*
X134911609Y-128122496D01*
X134911609Y-128122496D02*
X134959228Y-128170115D01*
X134959228Y-128170115D02*
X135006847Y-128265353D01*
X135006847Y-128265353D02*
X135006847Y-128360591D01*
X134340180Y-129122496D02*
X135340180Y-129122496D01*
X134387800Y-129122496D02*
X134340180Y-129027258D01*
X134340180Y-129027258D02*
X134340180Y-128836782D01*
X134340180Y-128836782D02*
X134387800Y-128741544D01*
X134387800Y-128741544D02*
X134435419Y-128693925D01*
X134435419Y-128693925D02*
X134530657Y-128646306D01*
X134530657Y-128646306D02*
X134816371Y-128646306D01*
X134816371Y-128646306D02*
X134911609Y-128693925D01*
X134911609Y-128693925D02*
X134959228Y-128741544D01*
X134959228Y-128741544D02*
X135006847Y-128836782D01*
X135006847Y-128836782D02*
X135006847Y-129027258D01*
X135006847Y-129027258D02*
X134959228Y-129122496D01*
X135006847Y-130265354D02*
X134340180Y-130503449D01*
X134340180Y-130503449D02*
X135006847Y-130741544D01*
X134340180Y-131646306D02*
X134340180Y-131074878D01*
X134340180Y-131360592D02*
X135340180Y-131360592D01*
X135340180Y-131360592D02*
X135197323Y-131265354D01*
X135197323Y-131265354D02*
X135102085Y-131170116D01*
X135102085Y-131170116D02*
X135054466Y-131074878D01*
X132349228Y-112122493D02*
X132396847Y-112074874D01*
X132396847Y-112074874D02*
X132539704Y-111979636D01*
X132539704Y-111979636D02*
X132634942Y-111932017D01*
X132634942Y-111932017D02*
X132777800Y-111884398D01*
X132777800Y-111884398D02*
X133015895Y-111836779D01*
X133015895Y-111836779D02*
X133206371Y-111836779D01*
X133206371Y-111836779D02*
X133444466Y-111884398D01*
X133444466Y-111884398D02*
X133587323Y-111932017D01*
X133587323Y-111932017D02*
X133682561Y-111979636D01*
X133682561Y-111979636D02*
X133825419Y-112074874D01*
X133825419Y-112074874D02*
X133873038Y-112122493D01*
X132777800Y-112932017D02*
X132730180Y-112836779D01*
X132730180Y-112836779D02*
X132730180Y-112646303D01*
X132730180Y-112646303D02*
X132777800Y-112551065D01*
X132777800Y-112551065D02*
X132825419Y-112503446D01*
X132825419Y-112503446D02*
X132920657Y-112455827D01*
X132920657Y-112455827D02*
X133206371Y-112455827D01*
X133206371Y-112455827D02*
X133301609Y-112503446D01*
X133301609Y-112503446D02*
X133349228Y-112551065D01*
X133349228Y-112551065D02*
X133396847Y-112646303D01*
X133396847Y-112646303D02*
X133396847Y-112836779D01*
X133396847Y-112836779D02*
X133349228Y-112932017D01*
X132349228Y-113265351D02*
X132396847Y-113312970D01*
X132396847Y-113312970D02*
X132539704Y-113408208D01*
X132539704Y-113408208D02*
X132634942Y-113455827D01*
X132634942Y-113455827D02*
X132777800Y-113503446D01*
X132777800Y-113503446D02*
X133015895Y-113551065D01*
X133015895Y-113551065D02*
X133206371Y-113551065D01*
X133206371Y-113551065D02*
X133444466Y-113503446D01*
X133444466Y-113503446D02*
X133587323Y-113455827D01*
X133587323Y-113455827D02*
X133682561Y-113408208D01*
X133682561Y-113408208D02*
X133825419Y-113312970D01*
X133825419Y-113312970D02*
X133873038Y-113265351D01*
X133634942Y-114741542D02*
X133682561Y-114789161D01*
X133682561Y-114789161D02*
X133730180Y-114884399D01*
X133730180Y-114884399D02*
X133730180Y-115122494D01*
X133730180Y-115122494D02*
X133682561Y-115217732D01*
X133682561Y-115217732D02*
X133634942Y-115265351D01*
X133634942Y-115265351D02*
X133539704Y-115312970D01*
X133539704Y-115312970D02*
X133444466Y-115312970D01*
X133444466Y-115312970D02*
X133301609Y-115265351D01*
X133301609Y-115265351D02*
X132730180Y-114693923D01*
X132730180Y-114693923D02*
X132730180Y-115312970D01*
X133730180Y-115932018D02*
X133730180Y-116027256D01*
X133730180Y-116027256D02*
X133682561Y-116122494D01*
X133682561Y-116122494D02*
X133634942Y-116170113D01*
X133634942Y-116170113D02*
X133539704Y-116217732D01*
X133539704Y-116217732D02*
X133349228Y-116265351D01*
X133349228Y-116265351D02*
X133111133Y-116265351D01*
X133111133Y-116265351D02*
X132920657Y-116217732D01*
X132920657Y-116217732D02*
X132825419Y-116170113D01*
X132825419Y-116170113D02*
X132777800Y-116122494D01*
X132777800Y-116122494D02*
X132730180Y-116027256D01*
X132730180Y-116027256D02*
X132730180Y-115932018D01*
X132730180Y-115932018D02*
X132777800Y-115836780D01*
X132777800Y-115836780D02*
X132825419Y-115789161D01*
X132825419Y-115789161D02*
X132920657Y-115741542D01*
X132920657Y-115741542D02*
X133111133Y-115693923D01*
X133111133Y-115693923D02*
X133349228Y-115693923D01*
X133349228Y-115693923D02*
X133539704Y-115741542D01*
X133539704Y-115741542D02*
X133634942Y-115789161D01*
X133634942Y-115789161D02*
X133682561Y-115836780D01*
X133682561Y-115836780D02*
X133730180Y-115932018D01*
X133634942Y-116646304D02*
X133682561Y-116693923D01*
X133682561Y-116693923D02*
X133730180Y-116789161D01*
X133730180Y-116789161D02*
X133730180Y-117027256D01*
X133730180Y-117027256D02*
X133682561Y-117122494D01*
X133682561Y-117122494D02*
X133634942Y-117170113D01*
X133634942Y-117170113D02*
X133539704Y-117217732D01*
X133539704Y-117217732D02*
X133444466Y-117217732D01*
X133444466Y-117217732D02*
X133301609Y-117170113D01*
X133301609Y-117170113D02*
X132730180Y-116598685D01*
X132730180Y-116598685D02*
X132730180Y-117217732D01*
X133730180Y-117551066D02*
X133730180Y-118170113D01*
X133730180Y-118170113D02*
X133349228Y-117836780D01*
X133349228Y-117836780D02*
X133349228Y-117979637D01*
X133349228Y-117979637D02*
X133301609Y-118074875D01*
X133301609Y-118074875D02*
X133253990Y-118122494D01*
X133253990Y-118122494D02*
X133158752Y-118170113D01*
X133158752Y-118170113D02*
X132920657Y-118170113D01*
X132920657Y-118170113D02*
X132825419Y-118122494D01*
X132825419Y-118122494D02*
X132777800Y-118074875D01*
X132777800Y-118074875D02*
X132730180Y-117979637D01*
X132730180Y-117979637D02*
X132730180Y-117693923D01*
X132730180Y-117693923D02*
X132777800Y-117598685D01*
X132777800Y-117598685D02*
X132825419Y-117551066D01*
X132730180Y-119360590D02*
X133730180Y-119360590D01*
X133730180Y-119360590D02*
X133015895Y-119693923D01*
X133015895Y-119693923D02*
X133730180Y-120027256D01*
X133730180Y-120027256D02*
X132730180Y-120027256D01*
X132730180Y-120932018D02*
X133253990Y-120932018D01*
X133253990Y-120932018D02*
X133349228Y-120884399D01*
X133349228Y-120884399D02*
X133396847Y-120789161D01*
X133396847Y-120789161D02*
X133396847Y-120598685D01*
X133396847Y-120598685D02*
X133349228Y-120503447D01*
X132777800Y-120932018D02*
X132730180Y-120836780D01*
X132730180Y-120836780D02*
X132730180Y-120598685D01*
X132730180Y-120598685D02*
X132777800Y-120503447D01*
X132777800Y-120503447D02*
X132873038Y-120455828D01*
X132873038Y-120455828D02*
X132968276Y-120455828D01*
X132968276Y-120455828D02*
X133063514Y-120503447D01*
X133063514Y-120503447D02*
X133111133Y-120598685D01*
X133111133Y-120598685D02*
X133111133Y-120836780D01*
X133111133Y-120836780D02*
X133158752Y-120932018D01*
X132730180Y-121408209D02*
X133396847Y-121408209D01*
X133206371Y-121408209D02*
X133301609Y-121455828D01*
X133301609Y-121455828D02*
X133349228Y-121503447D01*
X133349228Y-121503447D02*
X133396847Y-121598685D01*
X133396847Y-121598685D02*
X133396847Y-121693923D01*
X133396847Y-121884400D02*
X133396847Y-122265352D01*
X133730180Y-122027257D02*
X132873038Y-122027257D01*
X132873038Y-122027257D02*
X132777800Y-122074876D01*
X132777800Y-122074876D02*
X132730180Y-122170114D01*
X132730180Y-122170114D02*
X132730180Y-122265352D01*
X132730180Y-122598686D02*
X133396847Y-122598686D01*
X133730180Y-122598686D02*
X133682561Y-122551067D01*
X133682561Y-122551067D02*
X133634942Y-122598686D01*
X133634942Y-122598686D02*
X133682561Y-122646305D01*
X133682561Y-122646305D02*
X133730180Y-122598686D01*
X133730180Y-122598686D02*
X133634942Y-122598686D01*
X133396847Y-123074876D02*
X132730180Y-123074876D01*
X133301609Y-123074876D02*
X133349228Y-123122495D01*
X133349228Y-123122495D02*
X133396847Y-123217733D01*
X133396847Y-123217733D02*
X133396847Y-123360590D01*
X133396847Y-123360590D02*
X133349228Y-123455828D01*
X133349228Y-123455828D02*
X133253990Y-123503447D01*
X133253990Y-123503447D02*
X132730180Y-123503447D01*
X132730180Y-124741543D02*
X133730180Y-124741543D01*
X133253990Y-124741543D02*
X133253990Y-125312971D01*
X132730180Y-125312971D02*
X133730180Y-125312971D01*
X132730180Y-126217733D02*
X133253990Y-126217733D01*
X133253990Y-126217733D02*
X133349228Y-126170114D01*
X133349228Y-126170114D02*
X133396847Y-126074876D01*
X133396847Y-126074876D02*
X133396847Y-125884400D01*
X133396847Y-125884400D02*
X133349228Y-125789162D01*
X132777800Y-126217733D02*
X132730180Y-126122495D01*
X132730180Y-126122495D02*
X132730180Y-125884400D01*
X132730180Y-125884400D02*
X132777800Y-125789162D01*
X132777800Y-125789162D02*
X132873038Y-125741543D01*
X132873038Y-125741543D02*
X132968276Y-125741543D01*
X132968276Y-125741543D02*
X133063514Y-125789162D01*
X133063514Y-125789162D02*
X133111133Y-125884400D01*
X133111133Y-125884400D02*
X133111133Y-126122495D01*
X133111133Y-126122495D02*
X133158752Y-126217733D01*
X133396847Y-126693924D02*
X132730180Y-126693924D01*
X133301609Y-126693924D02*
X133349228Y-126741543D01*
X133349228Y-126741543D02*
X133396847Y-126836781D01*
X133396847Y-126836781D02*
X133396847Y-126979638D01*
X133396847Y-126979638D02*
X133349228Y-127074876D01*
X133349228Y-127074876D02*
X133253990Y-127122495D01*
X133253990Y-127122495D02*
X132730180Y-127122495D01*
X132777800Y-127551067D02*
X132730180Y-127646305D01*
X132730180Y-127646305D02*
X132730180Y-127836781D01*
X132730180Y-127836781D02*
X132777800Y-127932019D01*
X132777800Y-127932019D02*
X132873038Y-127979638D01*
X132873038Y-127979638D02*
X132920657Y-127979638D01*
X132920657Y-127979638D02*
X133015895Y-127932019D01*
X133015895Y-127932019D02*
X133063514Y-127836781D01*
X133063514Y-127836781D02*
X133063514Y-127693924D01*
X133063514Y-127693924D02*
X133111133Y-127598686D01*
X133111133Y-127598686D02*
X133206371Y-127551067D01*
X133206371Y-127551067D02*
X133253990Y-127551067D01*
X133253990Y-127551067D02*
X133349228Y-127598686D01*
X133349228Y-127598686D02*
X133396847Y-127693924D01*
X133396847Y-127693924D02*
X133396847Y-127836781D01*
X133396847Y-127836781D02*
X133349228Y-127932019D01*
X156936666Y-135094819D02*
X156936666Y-135809104D01*
X156936666Y-135809104D02*
X156889047Y-135951961D01*
X156889047Y-135951961D02*
X156793809Y-136047200D01*
X156793809Y-136047200D02*
X156650952Y-136094819D01*
X156650952Y-136094819D02*
X156555714Y-136094819D01*
X157317619Y-135094819D02*
X157936666Y-135094819D01*
X157936666Y-135094819D02*
X157603333Y-135475771D01*
X157603333Y-135475771D02*
X157746190Y-135475771D01*
X157746190Y-135475771D02*
X157841428Y-135523390D01*
X157841428Y-135523390D02*
X157889047Y-135571009D01*
X157889047Y-135571009D02*
X157936666Y-135666247D01*
X157936666Y-135666247D02*
X157936666Y-135904342D01*
X157936666Y-135904342D02*
X157889047Y-135999580D01*
X157889047Y-135999580D02*
X157841428Y-136047200D01*
X157841428Y-136047200D02*
X157746190Y-136094819D01*
X157746190Y-136094819D02*
X157460476Y-136094819D01*
X157460476Y-136094819D02*
X157365238Y-136047200D01*
X157365238Y-136047200D02*
X157317619Y-135999580D01*
X143584819Y-110053333D02*
X144299104Y-110053333D01*
X144299104Y-110053333D02*
X144441961Y-110100952D01*
X144441961Y-110100952D02*
X144537200Y-110196190D01*
X144537200Y-110196190D02*
X144584819Y-110339047D01*
X144584819Y-110339047D02*
X144584819Y-110434285D01*
X144584819Y-109577142D02*
X143584819Y-109577142D01*
X143584819Y-109577142D02*
X143584819Y-109196190D01*
X143584819Y-109196190D02*
X143632438Y-109100952D01*
X143632438Y-109100952D02*
X143680057Y-109053333D01*
X143680057Y-109053333D02*
X143775295Y-109005714D01*
X143775295Y-109005714D02*
X143918152Y-109005714D01*
X143918152Y-109005714D02*
X144013390Y-109053333D01*
X144013390Y-109053333D02*
X144061009Y-109100952D01*
X144061009Y-109100952D02*
X144108628Y-109196190D01*
X144108628Y-109196190D02*
X144108628Y-109577142D01*
X144584819Y-108053333D02*
X144584819Y-108624761D01*
X144584819Y-108339047D02*
X143584819Y-108339047D01*
X143584819Y-108339047D02*
X143727676Y-108434285D01*
X143727676Y-108434285D02*
X143822914Y-108529523D01*
X143822914Y-108529523D02*
X143870533Y-108624761D01*
X115254819Y-138433333D02*
X115969104Y-138433333D01*
X115969104Y-138433333D02*
X116111961Y-138480952D01*
X116111961Y-138480952D02*
X116207200Y-138576190D01*
X116207200Y-138576190D02*
X116254819Y-138719047D01*
X116254819Y-138719047D02*
X116254819Y-138814285D01*
X115588152Y-137528571D02*
X116254819Y-137528571D01*
X115207200Y-137766666D02*
X115921485Y-138004761D01*
X115921485Y-138004761D02*
X115921485Y-137385714D01*
X118154397Y-145325180D02*
X117821064Y-144325180D01*
X117821064Y-144325180D02*
X117487731Y-145325180D01*
X117154397Y-144325180D02*
X117154397Y-145325180D01*
X116678207Y-144325180D02*
X116678207Y-145325180D01*
X116678207Y-145325180D02*
X116106779Y-144325180D01*
X116106779Y-144325180D02*
X116106779Y-145325180D01*
X119487731Y-142785180D02*
X119154398Y-141785180D01*
X119154398Y-141785180D02*
X118821065Y-142785180D01*
X118297255Y-142785180D02*
X118106779Y-142785180D01*
X118106779Y-142785180D02*
X118011541Y-142737561D01*
X118011541Y-142737561D02*
X117916303Y-142642323D01*
X117916303Y-142642323D02*
X117868684Y-142451847D01*
X117868684Y-142451847D02*
X117868684Y-142118514D01*
X117868684Y-142118514D02*
X117916303Y-141928038D01*
X117916303Y-141928038D02*
X118011541Y-141832800D01*
X118011541Y-141832800D02*
X118106779Y-141785180D01*
X118106779Y-141785180D02*
X118297255Y-141785180D01*
X118297255Y-141785180D02*
X118392493Y-141832800D01*
X118392493Y-141832800D02*
X118487731Y-141928038D01*
X118487731Y-141928038D02*
X118535350Y-142118514D01*
X118535350Y-142118514D02*
X118535350Y-142451847D01*
X118535350Y-142451847D02*
X118487731Y-142642323D01*
X118487731Y-142642323D02*
X118392493Y-142737561D01*
X118392493Y-142737561D02*
X118297255Y-142785180D01*
X117440112Y-142785180D02*
X117440112Y-141975657D01*
X117440112Y-141975657D02*
X117392493Y-141880419D01*
X117392493Y-141880419D02*
X117344874Y-141832800D01*
X117344874Y-141832800D02*
X117249636Y-141785180D01*
X117249636Y-141785180D02*
X117059160Y-141785180D01*
X117059160Y-141785180D02*
X116963922Y-141832800D01*
X116963922Y-141832800D02*
X116916303Y-141880419D01*
X116916303Y-141880419D02*
X116868684Y-141975657D01*
X116868684Y-141975657D02*
X116868684Y-142785180D01*
X116535350Y-142785180D02*
X115963922Y-142785180D01*
X116249636Y-141785180D02*
X116249636Y-142785180D01*
X118154398Y-147817561D02*
X118249636Y-147865180D01*
X118249636Y-147865180D02*
X118392493Y-147865180D01*
X118392493Y-147865180D02*
X118535350Y-147817561D01*
X118535350Y-147817561D02*
X118630588Y-147722323D01*
X118630588Y-147722323D02*
X118678207Y-147627085D01*
X118678207Y-147627085D02*
X118725826Y-147436609D01*
X118725826Y-147436609D02*
X118725826Y-147293752D01*
X118725826Y-147293752D02*
X118678207Y-147103276D01*
X118678207Y-147103276D02*
X118630588Y-147008038D01*
X118630588Y-147008038D02*
X118535350Y-146912800D01*
X118535350Y-146912800D02*
X118392493Y-146865180D01*
X118392493Y-146865180D02*
X118297255Y-146865180D01*
X118297255Y-146865180D02*
X118154398Y-146912800D01*
X118154398Y-146912800D02*
X118106779Y-146960419D01*
X118106779Y-146960419D02*
X118106779Y-147293752D01*
X118106779Y-147293752D02*
X118297255Y-147293752D01*
X117678207Y-146865180D02*
X117678207Y-147865180D01*
X117678207Y-147865180D02*
X117106779Y-146865180D01*
X117106779Y-146865180D02*
X117106779Y-147865180D01*
X116630588Y-146865180D02*
X116630588Y-147865180D01*
X116630588Y-147865180D02*
X116392493Y-147865180D01*
X116392493Y-147865180D02*
X116249636Y-147817561D01*
X116249636Y-147817561D02*
X116154398Y-147722323D01*
X116154398Y-147722323D02*
X116106779Y-147627085D01*
X116106779Y-147627085D02*
X116059160Y-147436609D01*
X116059160Y-147436609D02*
X116059160Y-147293752D01*
X116059160Y-147293752D02*
X116106779Y-147103276D01*
X116106779Y-147103276D02*
X116154398Y-147008038D01*
X116154398Y-147008038D02*
X116249636Y-146912800D01*
X116249636Y-146912800D02*
X116392493Y-146865180D01*
X116392493Y-146865180D02*
X116630588Y-146865180D01*
X118154398Y-140197561D02*
X118249636Y-140245180D01*
X118249636Y-140245180D02*
X118392493Y-140245180D01*
X118392493Y-140245180D02*
X118535350Y-140197561D01*
X118535350Y-140197561D02*
X118630588Y-140102323D01*
X118630588Y-140102323D02*
X118678207Y-140007085D01*
X118678207Y-140007085D02*
X118725826Y-139816609D01*
X118725826Y-139816609D02*
X118725826Y-139673752D01*
X118725826Y-139673752D02*
X118678207Y-139483276D01*
X118678207Y-139483276D02*
X118630588Y-139388038D01*
X118630588Y-139388038D02*
X118535350Y-139292800D01*
X118535350Y-139292800D02*
X118392493Y-139245180D01*
X118392493Y-139245180D02*
X118297255Y-139245180D01*
X118297255Y-139245180D02*
X118154398Y-139292800D01*
X118154398Y-139292800D02*
X118106779Y-139340419D01*
X118106779Y-139340419D02*
X118106779Y-139673752D01*
X118106779Y-139673752D02*
X118297255Y-139673752D01*
X117678207Y-139245180D02*
X117678207Y-140245180D01*
X117678207Y-140245180D02*
X117106779Y-139245180D01*
X117106779Y-139245180D02*
X117106779Y-140245180D01*
X116630588Y-139245180D02*
X116630588Y-140245180D01*
X116630588Y-140245180D02*
X116392493Y-140245180D01*
X116392493Y-140245180D02*
X116249636Y-140197561D01*
X116249636Y-140197561D02*
X116154398Y-140102323D01*
X116154398Y-140102323D02*
X116106779Y-140007085D01*
X116106779Y-140007085D02*
X116059160Y-139816609D01*
X116059160Y-139816609D02*
X116059160Y-139673752D01*
X116059160Y-139673752D02*
X116106779Y-139483276D01*
X116106779Y-139483276D02*
X116154398Y-139388038D01*
X116154398Y-139388038D02*
X116249636Y-139292800D01*
X116249636Y-139292800D02*
X116392493Y-139245180D01*
X116392493Y-139245180D02*
X116630588Y-139245180D01*
X139156666Y-103854819D02*
X139156666Y-104569104D01*
X139156666Y-104569104D02*
X139109047Y-104711961D01*
X139109047Y-104711961D02*
X139013809Y-104807200D01*
X139013809Y-104807200D02*
X138870952Y-104854819D01*
X138870952Y-104854819D02*
X138775714Y-104854819D01*
X140156666Y-104854819D02*
X139585238Y-104854819D01*
X139870952Y-104854819D02*
X139870952Y-103854819D01*
X139870952Y-103854819D02*
X139775714Y-103997676D01*
X139775714Y-103997676D02*
X139680476Y-104092914D01*
X139680476Y-104092914D02*
X139585238Y-104140533D01*
X157794819Y-147333333D02*
X158509104Y-147333333D01*
X158509104Y-147333333D02*
X158651961Y-147380952D01*
X158651961Y-147380952D02*
X158747200Y-147476190D01*
X158747200Y-147476190D02*
X158794819Y-147619047D01*
X158794819Y-147619047D02*
X158794819Y-147714285D01*
X157794819Y-146380952D02*
X157794819Y-146857142D01*
X157794819Y-146857142D02*
X158271009Y-146904761D01*
X158271009Y-146904761D02*
X158223390Y-146857142D01*
X158223390Y-146857142D02*
X158175771Y-146761904D01*
X158175771Y-146761904D02*
X158175771Y-146523809D01*
X158175771Y-146523809D02*
X158223390Y-146428571D01*
X158223390Y-146428571D02*
X158271009Y-146380952D01*
X158271009Y-146380952D02*
X158366247Y-146333333D01*
X158366247Y-146333333D02*
X158604342Y-146333333D01*
X158604342Y-146333333D02*
X158699580Y-146380952D01*
X158699580Y-146380952D02*
X158747200Y-146428571D01*
X158747200Y-146428571D02*
X158794819Y-146523809D01*
X158794819Y-146523809D02*
X158794819Y-146761904D01*
X158794819Y-146761904D02*
X158747200Y-146857142D01*
X158747200Y-146857142D02*
X158699580Y-146904761D01*
X143584819Y-125293333D02*
X144299104Y-125293333D01*
X144299104Y-125293333D02*
X144441961Y-125340952D01*
X144441961Y-125340952D02*
X144537200Y-125436190D01*
X144537200Y-125436190D02*
X144584819Y-125579047D01*
X144584819Y-125579047D02*
X144584819Y-125674285D01*
X144584819Y-124817142D02*
X143584819Y-124817142D01*
X143584819Y-124817142D02*
X143584819Y-124436190D01*
X143584819Y-124436190D02*
X143632438Y-124340952D01*
X143632438Y-124340952D02*
X143680057Y-124293333D01*
X143680057Y-124293333D02*
X143775295Y-124245714D01*
X143775295Y-124245714D02*
X143918152Y-124245714D01*
X143918152Y-124245714D02*
X144013390Y-124293333D01*
X144013390Y-124293333D02*
X144061009Y-124340952D01*
X144061009Y-124340952D02*
X144108628Y-124436190D01*
X144108628Y-124436190D02*
X144108628Y-124817142D01*
X143680057Y-123864761D02*
X143632438Y-123817142D01*
X143632438Y-123817142D02*
X143584819Y-123721904D01*
X143584819Y-123721904D02*
X143584819Y-123483809D01*
X143584819Y-123483809D02*
X143632438Y-123388571D01*
X143632438Y-123388571D02*
X143680057Y-123340952D01*
X143680057Y-123340952D02*
X143775295Y-123293333D01*
X143775295Y-123293333D02*
X143870533Y-123293333D01*
X143870533Y-123293333D02*
X144013390Y-123340952D01*
X144013390Y-123340952D02*
X144584819Y-123912380D01*
X144584819Y-123912380D02*
X144584819Y-123293333D01*
D11*
%TO.C,J3*%
X163220000Y-130040000D02*
X163220000Y-129040000D01*
X163220000Y-129040000D02*
X162220000Y-129540000D01*
X162220000Y-129540000D02*
X163220000Y-130040000D01*
X161830000Y-134750000D02*
X152710000Y-134750000D01*
X161830000Y-120160000D02*
X160520000Y-120160000D01*
X161830000Y-101470000D02*
X161830000Y-134750000D01*
X160520000Y-133450000D02*
X154020000Y-133450000D01*
X160520000Y-120160000D02*
X160520000Y-133450000D01*
X160520000Y-116060000D02*
X161830000Y-116060000D01*
X160520000Y-116060000D02*
X160520000Y-116060000D01*
X160520000Y-102770000D02*
X160520000Y-116060000D01*
X154020000Y-133450000D02*
X154020000Y-102770000D01*
X154020000Y-102770000D02*
X160520000Y-102770000D01*
X152710000Y-134750000D02*
X152710000Y-101470000D01*
X152710000Y-101470000D02*
X161830000Y-101470000D01*
%TO.C,JP1*%
X145130000Y-110550000D02*
X145130000Y-109220000D01*
X146460000Y-110550000D02*
X145130000Y-110550000D01*
X147730000Y-110550000D02*
X150330000Y-110550000D01*
X147730000Y-110550000D02*
X147730000Y-107890000D01*
X150330000Y-110550000D02*
X150330000Y-107890000D01*
X147730000Y-107890000D02*
X150330000Y-107890000D01*
%TO.C,J1*%
X145950000Y-104240000D02*
X142990000Y-104240000D01*
X145950000Y-101880000D02*
X145950000Y-104240000D01*
X142990000Y-106930000D02*
X135990000Y-106930000D01*
X142990000Y-105370000D02*
X142990000Y-101880000D01*
X142990000Y-105370000D02*
X135990000Y-105370000D01*
X142990000Y-104240000D02*
X142990000Y-106930000D01*
X142990000Y-101880000D02*
X145950000Y-101880000D01*
X135990000Y-105370000D02*
X135990000Y-101880000D01*
X135990000Y-104240000D02*
X135990000Y-106930000D01*
X135990000Y-101880000D02*
X133030000Y-101880000D01*
X133030000Y-104240000D02*
X135990000Y-104240000D01*
X133030000Y-101880000D02*
X133030000Y-104240000D01*
%TO.C,J5*%
X157340000Y-145670000D02*
X157340000Y-147000000D01*
X156010000Y-145670000D02*
X157340000Y-145670000D01*
X154740000Y-145670000D02*
X121660000Y-145670000D01*
X154740000Y-145670000D02*
X154740000Y-148330000D01*
X121660000Y-145670000D02*
X121660000Y-148330000D01*
X154740000Y-148330000D02*
X121660000Y-148330000D01*
%TO.C,JP2*%
X145130000Y-125790000D02*
X145130000Y-124460000D01*
X146460000Y-125790000D02*
X145130000Y-125790000D01*
X147730000Y-125790000D02*
X150330000Y-125790000D01*
X147730000Y-125790000D02*
X147730000Y-123130000D01*
X150330000Y-125790000D02*
X150330000Y-123130000D01*
X147730000Y-123130000D02*
X150330000Y-123130000D01*
%TD*%
%LPC*%
D12*
%TO.C,J3*%
X158540000Y-129540000D03*
D13*
X156000000Y-129540000D03*
X158540000Y-127000000D03*
X156000000Y-127000000D03*
X158540000Y-124460000D03*
X156000000Y-124460000D03*
X158540000Y-121920000D03*
X156000000Y-121920000D03*
X158540000Y-119380000D03*
X156000000Y-119380000D03*
X158540000Y-116840000D03*
X156000000Y-116840000D03*
X158540000Y-114300000D03*
X156000000Y-114300000D03*
X158540000Y-111760000D03*
X156000000Y-111760000D03*
X158540000Y-109220000D03*
X156000000Y-109220000D03*
X158540000Y-106680000D03*
X156000000Y-106680000D03*
%TD*%
D14*
%TO.C,JP1*%
X146460000Y-109220000D03*
D15*
X149000000Y-109220000D03*
%TD*%
D16*
%TO.C,H2*%
X123100000Y-141000000D03*
%TD*%
D17*
%TO.C,J4*%
X114500000Y-147320000D03*
D18*
X114500000Y-144780000D03*
X114500000Y-142240000D03*
X114500000Y-139700000D03*
%TD*%
D19*
%TO.C,J1*%
X144390000Y-103000000D03*
X134590000Y-103000000D03*
D20*
X142740000Y-106150000D03*
X142240000Y-106150000D03*
X141740000Y-106150000D03*
X141240000Y-106150000D03*
X140740000Y-106150000D03*
X140240000Y-106150000D03*
X139740000Y-106150000D03*
X139240000Y-106150000D03*
X138740000Y-106150000D03*
X138240000Y-106150000D03*
X137740000Y-106150000D03*
X137240000Y-106150000D03*
X136740000Y-106150000D03*
X136240000Y-106150000D03*
%TD*%
D14*
%TO.C,J5*%
X156010000Y-147000000D03*
D15*
X153470000Y-147000000D03*
X150930000Y-147000000D03*
X148390000Y-147000000D03*
X145850000Y-147000000D03*
X143310000Y-147000000D03*
X140770000Y-147000000D03*
X138230000Y-147000000D03*
X135690000Y-147000000D03*
X133150000Y-147000000D03*
X130610000Y-147000000D03*
X128070000Y-147000000D03*
X125530000Y-147000000D03*
X122990000Y-147000000D03*
%TD*%
D16*
%TO.C,H1*%
X149700000Y-141000000D03*
%TD*%
D14*
%TO.C,JP2*%
X146460000Y-124460000D03*
D15*
X149000000Y-124460000D03*
%TD*%
%LPD*%
M02*
