M48
; DRILL file {KiCad 7.0.9} date Wed Dec  6 16:13:21 2023
; FORMAT={-:-/ absolute / inch / decimal}
; #@! TF.CreationDate,2023-12-06T16:13:21+01:00
; #@! TF.GenerationSoftware,Kicad,Pcbnew,7.0.9
; #@! TF.FileFunction,Plated,1,2,PTH
FMAT,2
INCH
; #@! TA.AperFunction,Plated,PTH,ViaDrill
T1C0.0118
; #@! TA.AperFunction,Plated,PTH,ComponentDrill
T2C0.0300
; #@! TA.AperFunction,Plated,PTH,ComponentDrill
T3C0.0394
%
G90
G05
T1
X5.5984Y-5.3661
X5.6058Y-4.2175
X5.6142Y-4.1387
X5.6575Y-5.1339
X5.7598Y-5.1969
X5.7598Y-5.2992
X6.1575Y-5.1811
T2
X4.5Y-5.5
X4.5Y-5.6
X4.5Y-5.7
X4.5Y-5.8
T3
X4.8421Y-5.7874
X4.9421Y-5.7874
X5.0421Y-5.7874
X5.1421Y-5.7874
X5.2421Y-5.7874
X5.3421Y-5.7874
X5.4421Y-5.7874
X5.5421Y-5.7874
X5.6421Y-5.7874
X5.7421Y-5.7874
X5.7661Y-4.3
X5.7661Y-4.9
X5.8421Y-5.7874
X5.8661Y-4.3
X5.8661Y-4.9
X5.9421Y-5.7874
X6.0421Y-5.7874
X6.1417Y-4.2
X6.1417Y-4.3
X6.1417Y-4.4
X6.1417Y-4.5
X6.1417Y-4.6
X6.1417Y-4.7
X6.1417Y-4.8
X6.1417Y-4.9
X6.1417Y-5.0
X6.1417Y-5.1
X6.1421Y-5.7874
X6.2417Y-4.2
X6.2417Y-4.3
X6.2417Y-4.4
X6.2417Y-4.5
X6.2417Y-4.6
X6.2417Y-4.7
X6.2417Y-4.8
X6.2417Y-4.9
X6.2417Y-5.0
X6.2417Y-5.1
T0
M30
