%TF.GenerationSoftware,KiCad,Pcbnew,7.0.9*%
%TF.CreationDate,2023-12-06T16:13:21+01:00*%
%TF.ProjectId,E-paper adapter board,452d7061-7065-4722-9061-646170746572,rev?*%
%TF.SameCoordinates,Original*%
%TF.FileFunction,Copper,L1,Top*%
%TF.FilePolarity,Positive*%
%FSLAX46Y46*%
G04 Gerber Fmt 4.6, Leading zero omitted, Abs format (unit mm)*
G04 Created by KiCad (PCBNEW 7.0.9) date 2023-12-06 16:13:21*
%MOMM*%
%LPD*%
G01*
G04 APERTURE LIST*
G04 Aperture macros list*
%AMRoundRect*
0 Rectangle with rounded corners*
0 $1 Rounding radius*
0 $2 $3 $4 $5 $6 $7 $8 $9 X,Y pos of 4 corners*
0 Add a 4 corners polygon primitive as box body*
4,1,4,$2,$3,$4,$5,$6,$7,$8,$9,$2,$3,0*
0 Add four circle primitives for the rounded corners*
1,1,$1+$1,$2,$3*
1,1,$1+$1,$4,$5*
1,1,$1+$1,$6,$7*
1,1,$1+$1,$8,$9*
0 Add four rect primitives between the rounded corners*
20,1,$1+$1,$2,$3,$4,$5,0*
20,1,$1+$1,$4,$5,$6,$7,0*
20,1,$1+$1,$6,$7,$8,$9,0*
20,1,$1+$1,$8,$9,$2,$3,0*%
G04 Aperture macros list end*
%TA.AperFunction,ComponentPad*%
%ADD10RoundRect,0.250000X0.600000X0.600000X-0.600000X0.600000X-0.600000X-0.600000X0.600000X-0.600000X0*%
%TD*%
%TA.AperFunction,ComponentPad*%
%ADD11C,1.700000*%
%TD*%
%TA.AperFunction,ComponentPad*%
%ADD12O,1.700000X1.700000*%
%TD*%
%TA.AperFunction,ComponentPad*%
%ADD13R,1.700000X1.700000*%
%TD*%
%TA.AperFunction,ComponentPad*%
%ADD14R,1.524000X1.524000*%
%TD*%
%TA.AperFunction,ComponentPad*%
%ADD15C,1.524000*%
%TD*%
%TA.AperFunction,SMDPad,CuDef*%
%ADD16R,0.300000X1.200000*%
%TD*%
%TA.AperFunction,SMDPad,CuDef*%
%ADD17R,1.800000X2.000000*%
%TD*%
%TA.AperFunction,ViaPad*%
%ADD18C,0.600000*%
%TD*%
%TA.AperFunction,Conductor*%
%ADD19C,0.500000*%
%TD*%
%TA.AperFunction,Conductor*%
%ADD20C,0.200000*%
%TD*%
%TA.AperFunction,Conductor*%
%ADD21C,0.300000*%
%TD*%
G04 APERTURE END LIST*
D10*
%TO.P,J3,1,Pin_1*%
%TO.N,+3V0*%
X158540000Y-129540000D03*
D11*
%TO.P,J3,2,Pin_2*%
%TO.N,unconnected-(J3-Pin_2-Pad2)*%
X156000000Y-129540000D03*
%TO.P,J3,3,Pin_3*%
%TO.N,unconnected-(J3-Pin_3-Pad3)*%
X158540000Y-127000000D03*
%TO.P,J3,4,Pin_4*%
%TO.N,GND*%
X156000000Y-127000000D03*
%TO.P,J3,5,Pin_5*%
%TO.N,/PG_UART_RXD*%
X158540000Y-124460000D03*
%TO.P,J3,6,Pin_6*%
%TO.N,GND*%
X156000000Y-124460000D03*
%TO.P,J3,7,Pin_7*%
%TO.N,/SWDIO*%
X158540000Y-121920000D03*
%TO.P,J3,8,Pin_8*%
%TO.N,GND*%
X156000000Y-121920000D03*
%TO.P,J3,9,Pin_9*%
%TO.N,/SWDCLK*%
X158540000Y-119380000D03*
%TO.P,J3,10,Pin_10*%
%TO.N,GND*%
X156000000Y-119380000D03*
%TO.P,J3,11,Pin_11*%
%TO.N,unconnected-(J3-Pin_11-Pad11)*%
X158540000Y-116840000D03*
%TO.P,J3,12,Pin_12*%
%TO.N,GND*%
X156000000Y-116840000D03*
%TO.P,J3,13,Pin_13*%
%TO.N,unconnected-(J3-Pin_13-Pad13)*%
X158540000Y-114300000D03*
%TO.P,J3,14,Pin_14*%
%TO.N,unconnected-(J3-Pin_14-Pad14)*%
X156000000Y-114300000D03*
%TO.P,J3,15,Pin_15*%
%TO.N,/NRST*%
X158540000Y-111760000D03*
%TO.P,J3,16,Pin_16*%
%TO.N,unconnected-(J3-Pin_16-Pad16)*%
X156000000Y-111760000D03*
%TO.P,J3,17,Pin_17*%
%TO.N,/PG_UART_TXD*%
X158540000Y-109220000D03*
%TO.P,J3,18,Pin_18*%
%TO.N,unconnected-(J3-Pin_18-Pad18)*%
X156000000Y-109220000D03*
%TO.P,J3,19,Pin_19*%
%TO.N,unconnected-(J3-Pin_19-Pad19)*%
X158540000Y-106680000D03*
%TO.P,J3,20,Pin_20*%
%TO.N,unconnected-(J3-Pin_20-Pad20)*%
X156000000Y-106680000D03*
%TD*%
D12*
%TO.P,JP1,2,B*%
%TO.N,/PG_UART_TXD*%
X149000000Y-109220000D03*
D13*
%TO.P,JP1,1,A*%
%TO.N,/SERIAL_RX*%
X146460000Y-109220000D03*
%TD*%
D14*
%TO.P,J4,1,GND*%
%TO.N,GND*%
X114300000Y-147320000D03*
D15*
%TO.P,J4,2,VIN*%
%TO.N,unconnected-(J4-VIN-Pad2)*%
X114300000Y-144780000D03*
%TO.P,J4,3,VOUT*%
%TO.N,+3V0*%
X114300000Y-142240000D03*
%TO.P,J4,4,GND*%
%TO.N,GND*%
X114300000Y-139700000D03*
%TD*%
D16*
%TO.P,J1,14,Pin_14*%
%TO.N,/~{RES}*%
X136240000Y-106150000D03*
%TO.P,J1,13,Pin_13*%
%TO.N,/D{slash}~{C}*%
X136740000Y-106150000D03*
%TO.P,J1,12,Pin_12*%
%TO.N,/BUSY*%
X137240000Y-106150000D03*
%TO.P,J1,11,Pin_11*%
%TO.N,/SCLK*%
X137740000Y-106150000D03*
%TO.P,J1,10,Pin_10*%
%TO.N,/MOSI*%
X138240000Y-106150000D03*
%TO.P,J1,9,Pin_9*%
%TO.N,/~{CS}*%
X138740000Y-106150000D03*
%TO.P,J1,8,Pin_8*%
%TO.N,/PB8*%
X139240000Y-106150000D03*
%TO.P,J1,7,Pin_7*%
%TO.N,/PB7*%
X139740000Y-106150000D03*
%TO.P,J1,6,Pin_6*%
%TO.N,/PB6*%
X140240000Y-106150000D03*
%TO.P,J1,5,Pin_5*%
%TO.N,/PB5*%
X140740000Y-106150000D03*
%TO.P,J1,4,Pin_4*%
%TO.N,/SERIAL_TX*%
X141240000Y-106150000D03*
%TO.P,J1,3,Pin_3*%
%TO.N,/SERIAL_RX*%
X141740000Y-106150000D03*
%TO.P,J1,2,Pin_2*%
%TO.N,GND*%
X142240000Y-106150000D03*
%TO.P,J1,1,Pin_1*%
%TO.N,+3V0*%
X142740000Y-106150000D03*
D17*
%TO.P,J1,*%
%TO.N,*%
X134590000Y-103000000D03*
X144390000Y-103000000D03*
%TD*%
D13*
%TO.P,J5,1,Pin_1*%
%TO.N,+3V0*%
X156010000Y-147000000D03*
D12*
%TO.P,J5,2,Pin_2*%
%TO.N,GND*%
X153470000Y-147000000D03*
%TO.P,J5,3,Pin_3*%
%TO.N,/SERIAL_RX*%
X150930000Y-147000000D03*
%TO.P,J5,4,Pin_4*%
%TO.N,/SERIAL_TX*%
X148390000Y-147000000D03*
%TO.P,J5,5,Pin_5*%
%TO.N,/PB5*%
X145850000Y-147000000D03*
%TO.P,J5,6,Pin_6*%
%TO.N,/PB6*%
X143310000Y-147000000D03*
%TO.P,J5,7,Pin_7*%
%TO.N,/PB7*%
X140770000Y-147000000D03*
%TO.P,J5,8,Pin_8*%
%TO.N,/PB8*%
X138230000Y-147000000D03*
%TO.P,J5,9,Pin_9*%
%TO.N,/~{CS}*%
X135690000Y-147000000D03*
%TO.P,J5,10,Pin_10*%
%TO.N,/MOSI*%
X133150000Y-147000000D03*
%TO.P,J5,11,Pin_11*%
%TO.N,/SCLK*%
X130610000Y-147000000D03*
%TO.P,J5,12,Pin_12*%
%TO.N,/BUSY*%
X128070000Y-147000000D03*
%TO.P,J5,13,Pin_13*%
%TO.N,/D{slash}~{C}*%
X125530000Y-147000000D03*
%TO.P,J5,14,Pin_14*%
%TO.N,/~{RES}*%
X122990000Y-147000000D03*
%TD*%
D13*
%TO.P,JP2,1,A*%
%TO.N,/SERIAL_TX*%
X146460000Y-124460000D03*
D12*
%TO.P,JP2,2,B*%
%TO.N,/PG_UART_RXD*%
X149000000Y-124460000D03*
%TD*%
D18*
%TO.N,+3V0*%
X156400000Y-131600000D03*
X143700000Y-130400000D03*
%TO.N,/NRST*%
X142200000Y-136300000D03*
%TO.N,/SWDCLK*%
X146300000Y-132000000D03*
%TO.N,/SWDIO*%
X146300000Y-134600000D03*
%TO.N,GND*%
X142600000Y-105123498D03*
X142386520Y-107124832D03*
%TD*%
D19*
%TO.N,+3V0*%
X143700000Y-133700000D02*
X146400000Y-136400000D01*
X143700000Y-130400000D02*
X143700000Y-133700000D01*
X146400000Y-136400000D02*
X151600000Y-136400000D01*
X151600000Y-136400000D02*
X156400000Y-131600000D01*
X120287000Y-148227000D02*
X154783000Y-148227000D01*
X154783000Y-148227000D02*
X156010000Y-147000000D01*
X114300000Y-142240000D02*
X120287000Y-148227000D01*
D20*
%TO.N,/NRST*%
X157463000Y-112837000D02*
X158540000Y-111760000D01*
X155863000Y-112837000D02*
X157463000Y-112837000D01*
X147923000Y-120777000D02*
X155863000Y-112837000D01*
X147923000Y-125151000D02*
X147923000Y-120777000D01*
X142200000Y-130874000D02*
X147923000Y-125151000D01*
X142200000Y-136300000D02*
X142200000Y-130874000D01*
%TO.N,/SWDCLK*%
X158600000Y-122997000D02*
X158093891Y-122997000D01*
X159617000Y-124014000D02*
X158600000Y-122997000D01*
X159617000Y-124906109D02*
X159617000Y-124014000D01*
X155404000Y-125596000D02*
X158927109Y-125596000D01*
X149000000Y-132000000D02*
X155404000Y-125596000D01*
X146300000Y-132000000D02*
X149000000Y-132000000D01*
D19*
%TO.N,+3V0*%
X160748000Y-128182000D02*
X159390000Y-129540000D01*
X144377000Y-105023000D02*
X159797580Y-105023000D01*
D20*
%TO.N,/SERIAL_RX*%
X157077000Y-140853000D02*
X150930000Y-147000000D01*
X157077000Y-129121494D02*
X157077000Y-140853000D01*
%TO.N,/SWDCLK*%
X157463000Y-120457000D02*
X158540000Y-119380000D01*
D19*
%TO.N,+3V0*%
X159797580Y-105023000D02*
X160748000Y-105973420D01*
D20*
%TO.N,/SERIAL_RX*%
X158600109Y-128463000D02*
X157735494Y-128463000D01*
X160271000Y-126792109D02*
X158600109Y-128463000D01*
X160271000Y-106871000D02*
X160271000Y-126792109D01*
%TO.N,/SWDCLK*%
X158927109Y-125596000D02*
X159617000Y-124906109D01*
%TO.N,/SERIAL_RX*%
X157735494Y-128463000D02*
X157077000Y-129121494D01*
X150077000Y-105603000D02*
X159003000Y-105603000D01*
%TO.N,/SWDIO*%
X159927000Y-125058557D02*
X159944000Y-125041557D01*
X159927000Y-125235448D02*
X159927000Y-125058557D01*
X159239448Y-125923000D02*
X159927000Y-125235448D01*
X155553891Y-125923000D02*
X159239448Y-125923000D01*
X146876891Y-134600000D02*
X155553891Y-125923000D01*
X146300000Y-134600000D02*
X146876891Y-134600000D01*
D19*
%TO.N,+3V0*%
X160748000Y-105973420D02*
X160748000Y-128182000D01*
D20*
%TO.N,/SWDIO*%
X159944000Y-125041557D02*
X159944000Y-123324000D01*
D19*
%TO.N,+3V0*%
X143300000Y-106100000D02*
X144377000Y-105023000D01*
D20*
%TO.N,/SWDCLK*%
X158093891Y-122997000D02*
X157463000Y-122366109D01*
D19*
%TO.N,+3V0*%
X159390000Y-129540000D02*
X158540000Y-129540000D01*
D20*
%TO.N,/SWDCLK*%
X157463000Y-122366109D02*
X157463000Y-120457000D01*
%TO.N,/SWDIO*%
X159944000Y-123324000D02*
X158540000Y-121920000D01*
%TO.N,/SERIAL_RX*%
X159003000Y-105603000D02*
X160271000Y-106871000D01*
X146460000Y-109220000D02*
X150077000Y-105603000D01*
X141740000Y-107223603D02*
X143736397Y-109220000D01*
X143736397Y-109220000D02*
X146460000Y-109220000D01*
X141740000Y-106150000D02*
X141740000Y-107223603D01*
D21*
%TO.N,GND*%
X142240000Y-105483498D02*
X142600000Y-105123498D01*
X142240000Y-106150000D02*
X142240000Y-105483498D01*
X142240000Y-106978312D02*
X142386520Y-107124832D01*
X142240000Y-106150000D02*
X142240000Y-106978312D01*
%TO.N,+3V0*%
X143250000Y-106150000D02*
X143300000Y-106100000D01*
X142740000Y-106150000D02*
X143250000Y-106150000D01*
D19*
X158540000Y-144470000D02*
X156010000Y-147000000D01*
X158540000Y-129540000D02*
X158540000Y-144470000D01*
D20*
%TO.N,/SERIAL_TX*%
X141400000Y-140010000D02*
X148390000Y-147000000D01*
X141400000Y-129520000D02*
X141400000Y-140010000D01*
X146460000Y-124460000D02*
X141400000Y-129520000D01*
%TO.N,/PG_UART_TXD*%
X150077000Y-110297000D02*
X157463000Y-110297000D01*
X157463000Y-110297000D02*
X158540000Y-109220000D01*
X149000000Y-109220000D02*
X150077000Y-110297000D01*
%TO.N,/PG_UART_RXD*%
X157463000Y-123383000D02*
X158540000Y-124460000D01*
X150077000Y-123383000D02*
X157463000Y-123383000D01*
X149000000Y-124460000D02*
X150077000Y-123383000D01*
%TO.N,/SERIAL_TX*%
X141240000Y-119240000D02*
X146460000Y-124460000D01*
X141240000Y-106150000D02*
X141240000Y-119240000D01*
%TO.N,/PB5*%
X140740000Y-141890000D02*
X145850000Y-147000000D01*
X140740000Y-106150000D02*
X140740000Y-141890000D01*
%TO.N,/PB6*%
X140240000Y-143930000D02*
X143310000Y-147000000D01*
X140240000Y-106150000D02*
X140240000Y-143930000D01*
%TO.N,/PB7*%
X139740000Y-145970000D02*
X140770000Y-147000000D01*
X139740000Y-106150000D02*
X139740000Y-145970000D01*
%TO.N,/PB8*%
X139240000Y-106150000D02*
X139240000Y-145990000D01*
X139240000Y-145990000D02*
X138230000Y-147000000D01*
%TO.N,/~{CS}*%
X138740000Y-143950000D02*
X135690000Y-147000000D01*
X138740000Y-106150000D02*
X138740000Y-143950000D01*
%TO.N,/MOSI*%
X138240000Y-141910000D02*
X133150000Y-147000000D01*
X138240000Y-106150000D02*
X138240000Y-141910000D01*
%TO.N,/SCLK*%
X137740000Y-139870000D02*
X130610000Y-147000000D01*
X137740000Y-106150000D02*
X137740000Y-139870000D01*
%TO.N,/BUSY*%
X137240000Y-137830000D02*
X128070000Y-147000000D01*
X137240000Y-106150000D02*
X137240000Y-137830000D01*
%TO.N,/D{slash}~{C}*%
X136740000Y-135790000D02*
X125530000Y-147000000D01*
X136740000Y-106150000D02*
X136740000Y-135790000D01*
%TO.N,/~{RES}*%
X136240000Y-106150000D02*
X136240000Y-133750000D01*
X136240000Y-133750000D02*
X122990000Y-147000000D01*
%TD*%
%TA.AperFunction,Conductor*%
%TO.N,+3V0*%
G36*
X154634976Y-124003185D02*
G01*
X154680731Y-124055989D01*
X154690675Y-124125147D01*
X154687712Y-124139593D01*
X154664938Y-124224586D01*
X154664936Y-124224596D01*
X154644341Y-124459999D01*
X154644341Y-124460000D01*
X154664936Y-124695403D01*
X154664938Y-124695413D01*
X154726094Y-124923655D01*
X154726096Y-124923659D01*
X154726097Y-124923663D01*
X154730000Y-124932032D01*
X154825964Y-125137829D01*
X154825966Y-125137833D01*
X154843285Y-125162566D01*
X154865613Y-125228772D01*
X154848603Y-125296539D01*
X154829392Y-125321371D01*
X148787584Y-131363181D01*
X148726261Y-131396666D01*
X148699903Y-131399500D01*
X146882412Y-131399500D01*
X146815373Y-131379815D01*
X146805097Y-131372445D01*
X146802263Y-131370185D01*
X146802262Y-131370184D01*
X146745496Y-131334515D01*
X146649523Y-131274211D01*
X146479254Y-131214631D01*
X146479249Y-131214630D01*
X146300004Y-131194435D01*
X146299996Y-131194435D01*
X146120750Y-131214630D01*
X146120745Y-131214631D01*
X145950476Y-131274211D01*
X145797737Y-131370184D01*
X145670184Y-131497737D01*
X145574211Y-131650476D01*
X145514631Y-131820745D01*
X145514630Y-131820750D01*
X145494435Y-131999996D01*
X145494435Y-132000003D01*
X145514630Y-132179249D01*
X145514631Y-132179254D01*
X145574211Y-132349523D01*
X145670184Y-132502262D01*
X145797738Y-132629816D01*
X145950478Y-132725789D01*
X146120745Y-132785368D01*
X146120750Y-132785369D01*
X146299996Y-132805565D01*
X146300000Y-132805565D01*
X146300004Y-132805565D01*
X146479249Y-132785369D01*
X146479252Y-132785368D01*
X146479255Y-132785368D01*
X146649522Y-132725789D01*
X146802262Y-132629816D01*
X146802267Y-132629810D01*
X146805097Y-132627555D01*
X146807275Y-132626665D01*
X146808158Y-132626111D01*
X146808255Y-132626265D01*
X146869783Y-132601145D01*
X146882412Y-132600500D01*
X147727794Y-132600500D01*
X147794833Y-132620185D01*
X147840588Y-132672989D01*
X147850532Y-132742147D01*
X147821507Y-132805703D01*
X147815475Y-132812181D01*
X146781600Y-133846054D01*
X146720277Y-133879539D01*
X146652965Y-133875415D01*
X146479257Y-133814632D01*
X146479249Y-133814630D01*
X146300004Y-133794435D01*
X146299996Y-133794435D01*
X146120750Y-133814630D01*
X146120745Y-133814631D01*
X145950476Y-133874211D01*
X145797737Y-133970184D01*
X145670184Y-134097737D01*
X145574211Y-134250476D01*
X145514631Y-134420745D01*
X145514630Y-134420750D01*
X145494435Y-134599996D01*
X145494435Y-134600003D01*
X145514630Y-134779249D01*
X145514631Y-134779254D01*
X145574211Y-134949523D01*
X145599802Y-134990250D01*
X145670184Y-135102262D01*
X145797738Y-135229816D01*
X145888080Y-135286582D01*
X145941070Y-135319878D01*
X145950478Y-135325789D01*
X146120745Y-135385368D01*
X146120750Y-135385369D01*
X146299996Y-135405565D01*
X146300000Y-135405565D01*
X146300004Y-135405565D01*
X146479249Y-135385369D01*
X146479252Y-135385368D01*
X146479255Y-135385368D01*
X146649522Y-135325789D01*
X146802262Y-135229816D01*
X146802262Y-135229815D01*
X146808158Y-135226111D01*
X146809520Y-135228279D01*
X146863275Y-135206328D01*
X146875914Y-135205682D01*
X146876892Y-135205682D01*
X146929145Y-135198802D01*
X147033653Y-135185044D01*
X147179732Y-135124536D01*
X147208760Y-135102262D01*
X147305173Y-135028282D01*
X147326874Y-134999999D01*
X147332202Y-134993922D01*
X154648301Y-127677823D01*
X154709622Y-127644340D01*
X154779314Y-127649324D01*
X154835247Y-127691196D01*
X154837550Y-127694375D01*
X154961505Y-127871401D01*
X154961506Y-127871402D01*
X155128597Y-128038493D01*
X155128603Y-128038498D01*
X155314158Y-128168425D01*
X155357783Y-128223002D01*
X155364977Y-128292500D01*
X155333454Y-128354855D01*
X155314158Y-128371575D01*
X155128597Y-128501505D01*
X154961505Y-128668597D01*
X154825965Y-128862169D01*
X154825964Y-128862171D01*
X154726098Y-129076335D01*
X154726094Y-129076344D01*
X154664938Y-129304586D01*
X154664936Y-129304596D01*
X154644341Y-129539999D01*
X154644341Y-129540000D01*
X154664936Y-129775403D01*
X154664938Y-129775413D01*
X154726094Y-130003655D01*
X154726096Y-130003659D01*
X154726097Y-130003663D01*
X154743547Y-130041084D01*
X154825965Y-130217830D01*
X154825967Y-130217834D01*
X154878387Y-130292697D01*
X154961505Y-130411401D01*
X155128599Y-130578495D01*
X155225384Y-130646265D01*
X155322165Y-130714032D01*
X155322167Y-130714033D01*
X155322170Y-130714035D01*
X155536337Y-130813903D01*
X155536343Y-130813904D01*
X155536344Y-130813905D01*
X155575356Y-130824358D01*
X155764592Y-130875063D01*
X155952918Y-130891539D01*
X155999999Y-130895659D01*
X156000000Y-130895659D01*
X156000001Y-130895659D01*
X156039234Y-130892226D01*
X156235408Y-130875063D01*
X156320409Y-130852287D01*
X156390256Y-130853950D01*
X156448118Y-130893112D01*
X156475623Y-130957340D01*
X156476500Y-130972062D01*
X156476500Y-140552902D01*
X156456815Y-140619941D01*
X156440181Y-140640583D01*
X151413530Y-145667233D01*
X151352207Y-145700718D01*
X151293756Y-145699327D01*
X151165413Y-145664938D01*
X151165403Y-145664936D01*
X150930001Y-145644341D01*
X150929999Y-145644341D01*
X150694596Y-145664936D01*
X150694586Y-145664938D01*
X150466344Y-145726094D01*
X150466335Y-145726098D01*
X150252171Y-145825964D01*
X150252169Y-145825965D01*
X150058597Y-145961505D01*
X149891505Y-146128597D01*
X149761575Y-146314158D01*
X149706998Y-146357783D01*
X149637500Y-146364977D01*
X149575145Y-146333454D01*
X149558425Y-146314158D01*
X149428494Y-146128597D01*
X149261402Y-145961506D01*
X149261395Y-145961501D01*
X149067834Y-145825967D01*
X149067830Y-145825965D01*
X148996727Y-145792809D01*
X148853663Y-145726097D01*
X148853659Y-145726096D01*
X148853655Y-145726094D01*
X148625413Y-145664938D01*
X148625403Y-145664936D01*
X148390001Y-145644341D01*
X148389999Y-145644341D01*
X148154596Y-145664936D01*
X148154583Y-145664939D01*
X148026241Y-145699327D01*
X147956392Y-145697664D01*
X147906468Y-145667233D01*
X143162138Y-140922903D01*
X147295793Y-140922903D01*
X147305672Y-141230970D01*
X147305672Y-141230975D01*
X147305673Y-141230978D01*
X147354867Y-141535261D01*
X147399137Y-141684419D01*
X147442571Y-141830763D01*
X147567333Y-142112601D01*
X147567337Y-142112609D01*
X147727123Y-142376193D01*
X147727127Y-142376198D01*
X147727133Y-142376207D01*
X147919297Y-142617174D01*
X147919299Y-142617176D01*
X147919303Y-142617180D01*
X147919304Y-142617181D01*
X148140724Y-142831614D01*
X148283521Y-142938186D01*
X148387741Y-143015968D01*
X148387743Y-143015969D01*
X148387747Y-143015972D01*
X148656318Y-143167228D01*
X148780211Y-143217387D01*
X148942018Y-143282897D01*
X148942023Y-143282898D01*
X148942025Y-143282899D01*
X149240179Y-143361084D01*
X149545883Y-143400500D01*
X149545890Y-143400500D01*
X149776980Y-143400500D01*
X149875814Y-143394154D01*
X150007601Y-143385693D01*
X150310151Y-143326772D01*
X150602683Y-143229644D01*
X150602689Y-143229640D01*
X150602693Y-143229640D01*
X150793571Y-143137717D01*
X150880393Y-143095907D01*
X151138720Y-142927754D01*
X151373424Y-142727948D01*
X151580650Y-142499769D01*
X151715636Y-142306255D01*
X151756994Y-142246966D01*
X151756996Y-142246963D01*
X151899567Y-141973683D01*
X152006020Y-141684415D01*
X152074609Y-141383908D01*
X152104206Y-141077098D01*
X152101294Y-140986303D01*
X152094327Y-140769029D01*
X152094327Y-140769022D01*
X152045133Y-140464739D01*
X151957431Y-140169244D01*
X151957429Y-140169239D01*
X151957428Y-140169236D01*
X151832666Y-139887398D01*
X151832663Y-139887391D01*
X151672877Y-139623807D01*
X151672870Y-139623799D01*
X151672866Y-139623792D01*
X151480702Y-139382825D01*
X151480700Y-139382823D01*
X151360638Y-139266550D01*
X151259276Y-139168386D01*
X151098535Y-139048422D01*
X151012258Y-138984031D01*
X151012253Y-138984028D01*
X150743682Y-138832772D01*
X150706383Y-138817671D01*
X150457981Y-138717102D01*
X150290660Y-138673226D01*
X150159821Y-138638916D01*
X149854117Y-138599500D01*
X149623026Y-138599500D01*
X149623020Y-138599500D01*
X149392406Y-138614306D01*
X149392389Y-138614308D01*
X149089854Y-138673226D01*
X149089849Y-138673228D01*
X148797310Y-138770358D01*
X148797306Y-138770359D01*
X148519613Y-138904089D01*
X148519605Y-138904094D01*
X148261286Y-139072241D01*
X148261276Y-139072248D01*
X148026581Y-139272046D01*
X148026571Y-139272056D01*
X147819354Y-139500225D01*
X147819350Y-139500229D01*
X147643005Y-139753033D01*
X147643003Y-139753037D01*
X147500432Y-140026319D01*
X147500429Y-140026326D01*
X147393981Y-140315580D01*
X147393979Y-140315590D01*
X147325391Y-140616089D01*
X147295794Y-140922902D01*
X147295793Y-140922903D01*
X143162138Y-140922903D01*
X142036819Y-139797584D01*
X142003334Y-139736261D01*
X142000500Y-139709903D01*
X142000500Y-137221842D01*
X142020185Y-137154803D01*
X142072989Y-137109048D01*
X142138382Y-137098622D01*
X142191675Y-137104627D01*
X142199999Y-137105565D01*
X142200000Y-137105565D01*
X142200004Y-137105565D01*
X142379249Y-137085369D01*
X142379252Y-137085368D01*
X142379255Y-137085368D01*
X142549522Y-137025789D01*
X142702262Y-136929816D01*
X142829816Y-136802262D01*
X142925789Y-136649522D01*
X142985368Y-136479255D01*
X142994354Y-136399500D01*
X143005565Y-136300003D01*
X143005565Y-136299996D01*
X142985369Y-136120750D01*
X142985368Y-136120745D01*
X142938836Y-135987765D01*
X142925789Y-135950478D01*
X142829816Y-135797738D01*
X142829814Y-135797736D01*
X142829813Y-135797734D01*
X142827550Y-135794896D01*
X142826659Y-135792715D01*
X142826111Y-135791842D01*
X142826264Y-135791745D01*
X142801144Y-135730209D01*
X142800500Y-135717587D01*
X142800500Y-131174096D01*
X142820185Y-131107057D01*
X142836814Y-131086420D01*
X148238291Y-125684942D01*
X148299612Y-125651459D01*
X148369304Y-125656443D01*
X148378356Y-125660235D01*
X148536337Y-125733903D01*
X148764592Y-125795063D01*
X148952918Y-125811539D01*
X148999999Y-125815659D01*
X149000000Y-125815659D01*
X149000001Y-125815659D01*
X149039234Y-125812226D01*
X149235408Y-125795063D01*
X149463663Y-125733903D01*
X149677830Y-125634035D01*
X149871401Y-125498495D01*
X150038495Y-125331401D01*
X150174035Y-125137830D01*
X150273903Y-124923663D01*
X150335063Y-124695408D01*
X150355659Y-124460000D01*
X150335063Y-124224592D01*
X150312288Y-124139593D01*
X150313951Y-124069743D01*
X150353114Y-124011881D01*
X150417342Y-123984377D01*
X150432063Y-123983500D01*
X154567937Y-123983500D01*
X154634976Y-124003185D01*
G37*
%TD.AperFunction*%
%TA.AperFunction,Conductor*%
G36*
X160601866Y-100500613D02*
G01*
X160681342Y-100505420D01*
X160897539Y-100518497D01*
X160904973Y-100519401D01*
X161194483Y-100572456D01*
X161201753Y-100574247D01*
X161482764Y-100661814D01*
X161489751Y-100664465D01*
X161643864Y-100733825D01*
X161758158Y-100785265D01*
X161764788Y-100788745D01*
X162016665Y-100941010D01*
X162022821Y-100945257D01*
X162254523Y-101126784D01*
X162260123Y-101131745D01*
X162468253Y-101339875D01*
X162473214Y-101345475D01*
X162654739Y-101577175D01*
X162658989Y-101583334D01*
X162811254Y-101835211D01*
X162814737Y-101841846D01*
X162935534Y-102110248D01*
X162938188Y-102117244D01*
X162947904Y-102148422D01*
X163025750Y-102398240D01*
X163027543Y-102405516D01*
X163080598Y-102695026D01*
X163081502Y-102702465D01*
X163099387Y-102998132D01*
X163099500Y-103001877D01*
X163099500Y-146698122D01*
X163099387Y-146701867D01*
X163081502Y-146997534D01*
X163080598Y-147004973D01*
X163027543Y-147294483D01*
X163025750Y-147301759D01*
X162938192Y-147582745D01*
X162935534Y-147589751D01*
X162814737Y-147858153D01*
X162811254Y-147864788D01*
X162658989Y-148116665D01*
X162654733Y-148122832D01*
X162649217Y-148129873D01*
X162473215Y-148354523D01*
X162468246Y-148360132D01*
X162260132Y-148568246D01*
X162254523Y-148573215D01*
X162022833Y-148754733D01*
X162016665Y-148758989D01*
X161764788Y-148911254D01*
X161758153Y-148914737D01*
X161489751Y-149035534D01*
X161482749Y-149038190D01*
X161389363Y-149067290D01*
X161201759Y-149125750D01*
X161194483Y-149127543D01*
X160904973Y-149180598D01*
X160897534Y-149181502D01*
X160601867Y-149199387D01*
X160598122Y-149199500D01*
X115801878Y-149199500D01*
X115798133Y-149199387D01*
X115502465Y-149181502D01*
X115495026Y-149180598D01*
X115205516Y-149127543D01*
X115198240Y-149125750D01*
X115104858Y-149096651D01*
X114917244Y-149038188D01*
X114910248Y-149035534D01*
X114641846Y-148914737D01*
X114635211Y-148911254D01*
X114472043Y-148812616D01*
X114424856Y-148761088D01*
X114413017Y-148692229D01*
X114440286Y-148627900D01*
X114498005Y-148588526D01*
X114536193Y-148582499D01*
X115109871Y-148582499D01*
X115109872Y-148582499D01*
X115169483Y-148576091D01*
X115304331Y-148525796D01*
X115419546Y-148439546D01*
X115505796Y-148324331D01*
X115556091Y-148189483D01*
X115562500Y-148129873D01*
X115562499Y-147000000D01*
X121634341Y-147000000D01*
X121654936Y-147235403D01*
X121654938Y-147235413D01*
X121716094Y-147463655D01*
X121716096Y-147463659D01*
X121716097Y-147463663D01*
X121757093Y-147551578D01*
X121815965Y-147677830D01*
X121815967Y-147677834D01*
X121924281Y-147832521D01*
X121951505Y-147871401D01*
X122118599Y-148038495D01*
X122195135Y-148092086D01*
X122312165Y-148174032D01*
X122312167Y-148174033D01*
X122312170Y-148174035D01*
X122526337Y-148273903D01*
X122754592Y-148335063D01*
X122925319Y-148350000D01*
X122989999Y-148355659D01*
X122990000Y-148355659D01*
X122990001Y-148355659D01*
X123054681Y-148350000D01*
X123225408Y-148335063D01*
X123453663Y-148273903D01*
X123667830Y-148174035D01*
X123861401Y-148038495D01*
X124028495Y-147871401D01*
X124158425Y-147685842D01*
X124213002Y-147642217D01*
X124282500Y-147635023D01*
X124344855Y-147666546D01*
X124361575Y-147685842D01*
X124491500Y-147871395D01*
X124491505Y-147871401D01*
X124658599Y-148038495D01*
X124735135Y-148092086D01*
X124852165Y-148174032D01*
X124852167Y-148174033D01*
X124852170Y-148174035D01*
X125066337Y-148273903D01*
X125294592Y-148335063D01*
X125465319Y-148350000D01*
X125529999Y-148355659D01*
X125530000Y-148355659D01*
X125530001Y-148355659D01*
X125594681Y-148350000D01*
X125765408Y-148335063D01*
X125993663Y-148273903D01*
X126207830Y-148174035D01*
X126401401Y-148038495D01*
X126568495Y-147871401D01*
X126698425Y-147685842D01*
X126753002Y-147642217D01*
X126822500Y-147635023D01*
X126884855Y-147666546D01*
X126901575Y-147685842D01*
X127031500Y-147871395D01*
X127031505Y-147871401D01*
X127198599Y-148038495D01*
X127275135Y-148092086D01*
X127392165Y-148174032D01*
X127392167Y-148174033D01*
X127392170Y-148174035D01*
X127606337Y-148273903D01*
X127834592Y-148335063D01*
X128005319Y-148350000D01*
X128069999Y-148355659D01*
X128070000Y-148355659D01*
X128070001Y-148355659D01*
X128134681Y-148350000D01*
X128305408Y-148335063D01*
X128533663Y-148273903D01*
X128747830Y-148174035D01*
X128941401Y-148038495D01*
X129108495Y-147871401D01*
X129238425Y-147685842D01*
X129293002Y-147642217D01*
X129362500Y-147635023D01*
X129424855Y-147666546D01*
X129441575Y-147685842D01*
X129571500Y-147871395D01*
X129571505Y-147871401D01*
X129738599Y-148038495D01*
X129815135Y-148092086D01*
X129932165Y-148174032D01*
X129932167Y-148174033D01*
X129932170Y-148174035D01*
X130146337Y-148273903D01*
X130374592Y-148335063D01*
X130545319Y-148350000D01*
X130609999Y-148355659D01*
X130610000Y-148355659D01*
X130610001Y-148355659D01*
X130674681Y-148350000D01*
X130845408Y-148335063D01*
X131073663Y-148273903D01*
X131287830Y-148174035D01*
X131481401Y-148038495D01*
X131648495Y-147871401D01*
X131778425Y-147685842D01*
X131833002Y-147642217D01*
X131902500Y-147635023D01*
X131964855Y-147666546D01*
X131981575Y-147685842D01*
X132111500Y-147871395D01*
X132111505Y-147871401D01*
X132278599Y-148038495D01*
X132355135Y-148092086D01*
X132472165Y-148174032D01*
X132472167Y-148174033D01*
X132472170Y-148174035D01*
X132686337Y-148273903D01*
X132914592Y-148335063D01*
X133085319Y-148350000D01*
X133149999Y-148355659D01*
X133150000Y-148355659D01*
X133150001Y-148355659D01*
X133214681Y-148350000D01*
X133385408Y-148335063D01*
X133613663Y-148273903D01*
X133827830Y-148174035D01*
X134021401Y-148038495D01*
X134188495Y-147871401D01*
X134318425Y-147685842D01*
X134373002Y-147642217D01*
X134442500Y-147635023D01*
X134504855Y-147666546D01*
X134521575Y-147685842D01*
X134651500Y-147871395D01*
X134651505Y-147871401D01*
X134818599Y-148038495D01*
X134895135Y-148092086D01*
X135012165Y-148174032D01*
X135012167Y-148174033D01*
X135012170Y-148174035D01*
X135226337Y-148273903D01*
X135454592Y-148335063D01*
X135625319Y-148350000D01*
X135689999Y-148355659D01*
X135690000Y-148355659D01*
X135690001Y-148355659D01*
X135754681Y-148350000D01*
X135925408Y-148335063D01*
X136153663Y-148273903D01*
X136367830Y-148174035D01*
X136561401Y-148038495D01*
X136728495Y-147871401D01*
X136858425Y-147685842D01*
X136913002Y-147642217D01*
X136982500Y-147635023D01*
X137044855Y-147666546D01*
X137061575Y-147685842D01*
X137191500Y-147871395D01*
X137191505Y-147871401D01*
X137358599Y-148038495D01*
X137435135Y-148092086D01*
X137552165Y-148174032D01*
X137552167Y-148174033D01*
X137552170Y-148174035D01*
X137766337Y-148273903D01*
X137994592Y-148335063D01*
X138165319Y-148350000D01*
X138229999Y-148355659D01*
X138230000Y-148355659D01*
X138230001Y-148355659D01*
X138294681Y-148350000D01*
X138465408Y-148335063D01*
X138693663Y-148273903D01*
X138907830Y-148174035D01*
X139101401Y-148038495D01*
X139268495Y-147871401D01*
X139398425Y-147685842D01*
X139453002Y-147642217D01*
X139522500Y-147635023D01*
X139584855Y-147666546D01*
X139601575Y-147685842D01*
X139731500Y-147871395D01*
X139731505Y-147871401D01*
X139898599Y-148038495D01*
X139975135Y-148092086D01*
X140092165Y-148174032D01*
X140092167Y-148174033D01*
X140092170Y-148174035D01*
X140306337Y-148273903D01*
X140534592Y-148335063D01*
X140705319Y-148350000D01*
X140769999Y-148355659D01*
X140770000Y-148355659D01*
X140770001Y-148355659D01*
X140834681Y-148350000D01*
X141005408Y-148335063D01*
X141233663Y-148273903D01*
X141447830Y-148174035D01*
X141641401Y-148038495D01*
X141808495Y-147871401D01*
X141938425Y-147685842D01*
X141993002Y-147642217D01*
X142062500Y-147635023D01*
X142124855Y-147666546D01*
X142141575Y-147685842D01*
X142271500Y-147871395D01*
X142271505Y-147871401D01*
X142438599Y-148038495D01*
X142515135Y-148092086D01*
X142632165Y-148174032D01*
X142632167Y-148174033D01*
X142632170Y-148174035D01*
X142846337Y-148273903D01*
X143074592Y-148335063D01*
X143245319Y-148350000D01*
X143309999Y-148355659D01*
X143310000Y-148355659D01*
X143310001Y-148355659D01*
X143374681Y-148350000D01*
X143545408Y-148335063D01*
X143773663Y-148273903D01*
X143987830Y-148174035D01*
X144181401Y-148038495D01*
X144348495Y-147871401D01*
X144478425Y-147685842D01*
X144533002Y-147642217D01*
X144602500Y-147635023D01*
X144664855Y-147666546D01*
X144681575Y-147685842D01*
X144811500Y-147871395D01*
X144811505Y-147871401D01*
X144978599Y-148038495D01*
X145055135Y-148092086D01*
X145172165Y-148174032D01*
X145172167Y-148174033D01*
X145172170Y-148174035D01*
X145386337Y-148273903D01*
X145614592Y-148335063D01*
X145785319Y-148350000D01*
X145849999Y-148355659D01*
X145850000Y-148355659D01*
X145850001Y-148355659D01*
X145914681Y-148350000D01*
X146085408Y-148335063D01*
X146313663Y-148273903D01*
X146527830Y-148174035D01*
X146721401Y-148038495D01*
X146888495Y-147871401D01*
X147018425Y-147685842D01*
X147073002Y-147642217D01*
X147142500Y-147635023D01*
X147204855Y-147666546D01*
X147221575Y-147685842D01*
X147351500Y-147871395D01*
X147351505Y-147871401D01*
X147518599Y-148038495D01*
X147595135Y-148092086D01*
X147712165Y-148174032D01*
X147712167Y-148174033D01*
X147712170Y-148174035D01*
X147926337Y-148273903D01*
X148154592Y-148335063D01*
X148325319Y-148350000D01*
X148389999Y-148355659D01*
X148390000Y-148355659D01*
X148390001Y-148355659D01*
X148454681Y-148350000D01*
X148625408Y-148335063D01*
X148853663Y-148273903D01*
X149067830Y-148174035D01*
X149261401Y-148038495D01*
X149428495Y-147871401D01*
X149558425Y-147685842D01*
X149613002Y-147642217D01*
X149682500Y-147635023D01*
X149744855Y-147666546D01*
X149761575Y-147685842D01*
X149891500Y-147871395D01*
X149891505Y-147871401D01*
X150058599Y-148038495D01*
X150135135Y-148092086D01*
X150252165Y-148174032D01*
X150252167Y-148174033D01*
X150252170Y-148174035D01*
X150466337Y-148273903D01*
X150694592Y-148335063D01*
X150865319Y-148350000D01*
X150929999Y-148355659D01*
X150930000Y-148355659D01*
X150930001Y-148355659D01*
X150994681Y-148350000D01*
X151165408Y-148335063D01*
X151393663Y-148273903D01*
X151607830Y-148174035D01*
X151801401Y-148038495D01*
X151968495Y-147871401D01*
X152098425Y-147685842D01*
X152153002Y-147642217D01*
X152222500Y-147635023D01*
X152284855Y-147666546D01*
X152301575Y-147685842D01*
X152431500Y-147871395D01*
X152431505Y-147871401D01*
X152598599Y-148038495D01*
X152675135Y-148092086D01*
X152792165Y-148174032D01*
X152792167Y-148174033D01*
X152792170Y-148174035D01*
X153006337Y-148273903D01*
X153234592Y-148335063D01*
X153405319Y-148350000D01*
X153469999Y-148355659D01*
X153470000Y-148355659D01*
X153470001Y-148355659D01*
X153534681Y-148350000D01*
X153705408Y-148335063D01*
X153933663Y-148273903D01*
X154147830Y-148174035D01*
X154341401Y-148038495D01*
X154463717Y-147916178D01*
X154525036Y-147882696D01*
X154594728Y-147887680D01*
X154650662Y-147929551D01*
X154667577Y-147960528D01*
X154716646Y-148092088D01*
X154716649Y-148092093D01*
X154802809Y-148207187D01*
X154802812Y-148207190D01*
X154917906Y-148293350D01*
X154917913Y-148293354D01*
X155052620Y-148343596D01*
X155052627Y-148343598D01*
X155112155Y-148349999D01*
X155112172Y-148350000D01*
X155760000Y-148350000D01*
X155760000Y-147435501D01*
X155867685Y-147484680D01*
X155974237Y-147500000D01*
X156045763Y-147500000D01*
X156152315Y-147484680D01*
X156260000Y-147435501D01*
X156260000Y-148350000D01*
X156907828Y-148350000D01*
X156907844Y-148349999D01*
X156967372Y-148343598D01*
X156967379Y-148343596D01*
X157102086Y-148293354D01*
X157102093Y-148293350D01*
X157217187Y-148207190D01*
X157217190Y-148207187D01*
X157303350Y-148092093D01*
X157303354Y-148092086D01*
X157353596Y-147957379D01*
X157353598Y-147957372D01*
X157359999Y-147897844D01*
X157360000Y-147897827D01*
X157360000Y-147250000D01*
X156443686Y-147250000D01*
X156469493Y-147209844D01*
X156510000Y-147071889D01*
X156510000Y-146928111D01*
X156469493Y-146790156D01*
X156443686Y-146750000D01*
X157360000Y-146750000D01*
X157360000Y-146102172D01*
X157359999Y-146102155D01*
X157353598Y-146042627D01*
X157353596Y-146042620D01*
X157303354Y-145907913D01*
X157303350Y-145907906D01*
X157217190Y-145792812D01*
X157217187Y-145792809D01*
X157102093Y-145706649D01*
X157102086Y-145706645D01*
X156967379Y-145656403D01*
X156967372Y-145656401D01*
X156907844Y-145650000D01*
X156260000Y-145650000D01*
X156260000Y-146564498D01*
X156152315Y-146515320D01*
X156045763Y-146500000D01*
X155974237Y-146500000D01*
X155867685Y-146515320D01*
X155760000Y-146564498D01*
X155760000Y-145650000D01*
X155112155Y-145650000D01*
X155052627Y-145656401D01*
X155052620Y-145656403D01*
X154917913Y-145706645D01*
X154917906Y-145706649D01*
X154802812Y-145792809D01*
X154802809Y-145792812D01*
X154716649Y-145907906D01*
X154716645Y-145907913D01*
X154667578Y-146039470D01*
X154625707Y-146095404D01*
X154560242Y-146119821D01*
X154491969Y-146104969D01*
X154463715Y-146083819D01*
X154407966Y-146028070D01*
X154341401Y-145961505D01*
X154341397Y-145961502D01*
X154341396Y-145961501D01*
X154147834Y-145825967D01*
X154147830Y-145825965D01*
X154076727Y-145792809D01*
X153933663Y-145726097D01*
X153933659Y-145726096D01*
X153933655Y-145726094D01*
X153705413Y-145664938D01*
X153705403Y-145664936D01*
X153470001Y-145644341D01*
X153469998Y-145644341D01*
X153442153Y-145646777D01*
X153373653Y-145633010D01*
X153323470Y-145584395D01*
X153307537Y-145516366D01*
X153330913Y-145450523D01*
X153343659Y-145435574D01*
X157470922Y-141308311D01*
X157476999Y-141302983D01*
X157505282Y-141281282D01*
X157601536Y-141155841D01*
X157662044Y-141009762D01*
X157677500Y-140892361D01*
X157682682Y-140853000D01*
X157678030Y-140817669D01*
X157677500Y-140809571D01*
X157677500Y-131005601D01*
X157697185Y-130938562D01*
X157749989Y-130892807D01*
X157814104Y-130882243D01*
X157890021Y-130889999D01*
X158289999Y-130889999D01*
X158290000Y-130889998D01*
X158290000Y-129975501D01*
X158397685Y-130024680D01*
X158504237Y-130040000D01*
X158575763Y-130040000D01*
X158682315Y-130024680D01*
X158790000Y-129975501D01*
X158790000Y-130889999D01*
X159189972Y-130889999D01*
X159189986Y-130889998D01*
X159292697Y-130879505D01*
X159459119Y-130824358D01*
X159459124Y-130824356D01*
X159608345Y-130732315D01*
X159732315Y-130608345D01*
X159824356Y-130459124D01*
X159824358Y-130459119D01*
X159879505Y-130292697D01*
X159879506Y-130292690D01*
X159889999Y-130189986D01*
X159890000Y-130189973D01*
X159890000Y-129790000D01*
X158973686Y-129790000D01*
X158999493Y-129749844D01*
X159040000Y-129611889D01*
X159040000Y-129468111D01*
X158999493Y-129330156D01*
X158973686Y-129290000D01*
X159889999Y-129290000D01*
X159889999Y-128890028D01*
X159889998Y-128890013D01*
X159879505Y-128787302D01*
X159824358Y-128620880D01*
X159824356Y-128620875D01*
X159732315Y-128471654D01*
X159674182Y-128413521D01*
X159640697Y-128352198D01*
X159645681Y-128282506D01*
X159674178Y-128238164D01*
X160664922Y-127247420D01*
X160670999Y-127242092D01*
X160699282Y-127220391D01*
X160795536Y-127094950D01*
X160856044Y-126948871D01*
X160871500Y-126831470D01*
X160876682Y-126792109D01*
X160872030Y-126756778D01*
X160871500Y-126748680D01*
X160871500Y-106914428D01*
X160872031Y-106906326D01*
X160876682Y-106870999D01*
X160876682Y-106870998D01*
X160856044Y-106714239D01*
X160856042Y-106714234D01*
X160795538Y-106568163D01*
X160795535Y-106568158D01*
X160752548Y-106512136D01*
X160740730Y-106496734D01*
X160699282Y-106442718D01*
X160671005Y-106421020D01*
X160664904Y-106415669D01*
X160098522Y-105849287D01*
X159458320Y-105209085D01*
X159452980Y-105202995D01*
X159431282Y-105174718D01*
X159305841Y-105078464D01*
X159305836Y-105078462D01*
X159159762Y-105017956D01*
X159159760Y-105017955D01*
X159042361Y-105002500D01*
X159003000Y-104997318D01*
X158967670Y-105001969D01*
X158959572Y-105002500D01*
X150120428Y-105002500D01*
X150112329Y-105001969D01*
X150077000Y-104997318D01*
X150076999Y-104997318D01*
X149920239Y-105017955D01*
X149920234Y-105017957D01*
X149774163Y-105078461D01*
X149774162Y-105078462D01*
X149774159Y-105078463D01*
X149774159Y-105078464D01*
X149715466Y-105123501D01*
X149681277Y-105149735D01*
X149648718Y-105174717D01*
X149627022Y-105202990D01*
X149621671Y-105209092D01*
X146997582Y-107833181D01*
X146936259Y-107866666D01*
X146909901Y-107869500D01*
X145562129Y-107869500D01*
X145562123Y-107869501D01*
X145502516Y-107875908D01*
X145367671Y-107926202D01*
X145367664Y-107926206D01*
X145252455Y-108012452D01*
X145252452Y-108012455D01*
X145166206Y-108127664D01*
X145166202Y-108127671D01*
X145115908Y-108262517D01*
X145109501Y-108322116D01*
X145109500Y-108322135D01*
X145109500Y-108495500D01*
X145089815Y-108562539D01*
X145037011Y-108608294D01*
X144985500Y-108619500D01*
X144036494Y-108619500D01*
X143969455Y-108599815D01*
X143948813Y-108583181D01*
X143077149Y-107711517D01*
X143043664Y-107650194D01*
X143048648Y-107580502D01*
X143059836Y-107557864D01*
X143063901Y-107551395D01*
X143112309Y-107474354D01*
X143171888Y-107304087D01*
X143183179Y-107203876D01*
X143210245Y-107139462D01*
X143232091Y-107118490D01*
X143247189Y-107107187D01*
X143247190Y-107107186D01*
X143333352Y-106992088D01*
X143333354Y-106992084D01*
X143343296Y-106965428D01*
X143343295Y-106965426D01*
X143053092Y-106675224D01*
X143035781Y-106653517D01*
X143016336Y-106622570D01*
X142926819Y-106533053D01*
X142893334Y-106471730D01*
X142890500Y-106445372D01*
X142890500Y-106387730D01*
X142910185Y-106320691D01*
X142962989Y-106274936D01*
X143032147Y-106264992D01*
X143095703Y-106294017D01*
X143102181Y-106300049D01*
X143389999Y-106587868D01*
X143390000Y-106587867D01*
X143390000Y-105712132D01*
X143355501Y-105697842D01*
X143301098Y-105654001D01*
X143279033Y-105587707D01*
X143296312Y-105520007D01*
X143297961Y-105517308D01*
X143325788Y-105473022D01*
X143383647Y-105307671D01*
X143385368Y-105302753D01*
X143396245Y-105206216D01*
X143405565Y-105123501D01*
X143405565Y-105123494D01*
X143385369Y-104944248D01*
X143385368Y-104944243D01*
X143325788Y-104773973D01*
X143289671Y-104716495D01*
X143269177Y-104683879D01*
X143250177Y-104616644D01*
X143270544Y-104549809D01*
X143323812Y-104504595D01*
X143387426Y-104494619D01*
X143398449Y-104495803D01*
X143442127Y-104500500D01*
X145337872Y-104500499D01*
X145397483Y-104494091D01*
X145532331Y-104443796D01*
X145647546Y-104357546D01*
X145733796Y-104242331D01*
X145784091Y-104107483D01*
X145790500Y-104047873D01*
X145790499Y-101952128D01*
X145784091Y-101892517D01*
X145762717Y-101835211D01*
X145733797Y-101757671D01*
X145733793Y-101757664D01*
X145647547Y-101642455D01*
X145647544Y-101642452D01*
X145532335Y-101556206D01*
X145532328Y-101556202D01*
X145397482Y-101505908D01*
X145397483Y-101505908D01*
X145337883Y-101499501D01*
X145337881Y-101499500D01*
X145337873Y-101499500D01*
X145337864Y-101499500D01*
X143442129Y-101499500D01*
X143442123Y-101499501D01*
X143382516Y-101505908D01*
X143247671Y-101556202D01*
X143247664Y-101556206D01*
X143132455Y-101642452D01*
X143132452Y-101642455D01*
X143046206Y-101757664D01*
X143046202Y-101757671D01*
X142995908Y-101892517D01*
X142989501Y-101952116D01*
X142989501Y-101952123D01*
X142989500Y-101952135D01*
X142989500Y-104047870D01*
X142989501Y-104047876D01*
X142995909Y-104107484D01*
X143034985Y-104212255D01*
X143039969Y-104281946D01*
X143006483Y-104343269D01*
X142945160Y-104376753D01*
X142877849Y-104372629D01*
X142779257Y-104338130D01*
X142779249Y-104338128D01*
X142600004Y-104317933D01*
X142599996Y-104317933D01*
X142420750Y-104338128D01*
X142420745Y-104338129D01*
X142250476Y-104397709D01*
X142097737Y-104493682D01*
X141970184Y-104621235D01*
X141874210Y-104773976D01*
X141814629Y-104944251D01*
X141813080Y-104951039D01*
X141810534Y-104950457D01*
X141788082Y-105003834D01*
X141730473Y-105043367D01*
X141691959Y-105049500D01*
X141542131Y-105049500D01*
X141542118Y-105049501D01*
X141503253Y-105053679D01*
X141476748Y-105053679D01*
X141437874Y-105049500D01*
X141042130Y-105049500D01*
X141042119Y-105049501D01*
X141003253Y-105053679D01*
X140976748Y-105053679D01*
X140937874Y-105049500D01*
X140542130Y-105049500D01*
X140542119Y-105049501D01*
X140503253Y-105053679D01*
X140476748Y-105053679D01*
X140437874Y-105049500D01*
X140042130Y-105049500D01*
X140042119Y-105049501D01*
X140003253Y-105053679D01*
X139976748Y-105053679D01*
X139937874Y-105049500D01*
X139542130Y-105049500D01*
X139542119Y-105049501D01*
X139503253Y-105053679D01*
X139476748Y-105053679D01*
X139437874Y-105049500D01*
X139042130Y-105049500D01*
X139042119Y-105049501D01*
X139003253Y-105053679D01*
X138976748Y-105053679D01*
X138937874Y-105049500D01*
X138542130Y-105049500D01*
X138542119Y-105049501D01*
X138503253Y-105053679D01*
X138476748Y-105053679D01*
X138437874Y-105049500D01*
X138042130Y-105049500D01*
X138042119Y-105049501D01*
X138003253Y-105053679D01*
X137976748Y-105053679D01*
X137937874Y-105049500D01*
X137542130Y-105049500D01*
X137542119Y-105049501D01*
X137503253Y-105053679D01*
X137476748Y-105053679D01*
X137437874Y-105049500D01*
X137042130Y-105049500D01*
X137042119Y-105049501D01*
X137003253Y-105053679D01*
X136976748Y-105053679D01*
X136937874Y-105049500D01*
X136542130Y-105049500D01*
X136542119Y-105049501D01*
X136503253Y-105053679D01*
X136476748Y-105053679D01*
X136437874Y-105049500D01*
X136042129Y-105049500D01*
X136042123Y-105049501D01*
X135982516Y-105055908D01*
X135847671Y-105106202D01*
X135847664Y-105106206D01*
X135732455Y-105192452D01*
X135732452Y-105192455D01*
X135646206Y-105307664D01*
X135646202Y-105307671D01*
X135595908Y-105442517D01*
X135589501Y-105502116D01*
X135589500Y-105502135D01*
X135589500Y-106797870D01*
X135589501Y-106797876D01*
X135595908Y-106857483D01*
X135631682Y-106953395D01*
X135639500Y-106996728D01*
X135639500Y-133449902D01*
X135619815Y-133516941D01*
X135603181Y-133537583D01*
X123473530Y-145667233D01*
X123412207Y-145700718D01*
X123353756Y-145699327D01*
X123225413Y-145664938D01*
X123225403Y-145664936D01*
X122990001Y-145644341D01*
X122989999Y-145644341D01*
X122754596Y-145664936D01*
X122754586Y-145664938D01*
X122526344Y-145726094D01*
X122526335Y-145726098D01*
X122312171Y-145825964D01*
X122312169Y-145825965D01*
X122118597Y-145961505D01*
X121951505Y-146128597D01*
X121815965Y-146322169D01*
X121815964Y-146322171D01*
X121716098Y-146536335D01*
X121716094Y-146536344D01*
X121654938Y-146764586D01*
X121654936Y-146764596D01*
X121634341Y-146999999D01*
X121634341Y-147000000D01*
X115562499Y-147000000D01*
X115562499Y-146510128D01*
X115556091Y-146450517D01*
X115521503Y-146357783D01*
X115505797Y-146315671D01*
X115505793Y-146315664D01*
X115419547Y-146200455D01*
X115419544Y-146200452D01*
X115304335Y-146114206D01*
X115304328Y-146114202D01*
X115169482Y-146063908D01*
X115169483Y-146063908D01*
X115109883Y-146057501D01*
X115109881Y-146057500D01*
X115109873Y-146057500D01*
X115109865Y-146057500D01*
X115069921Y-146057500D01*
X115002882Y-146037815D01*
X114957127Y-145985011D01*
X114947183Y-145915853D01*
X114976208Y-145852297D01*
X114998798Y-145831925D01*
X115007310Y-145825965D01*
X115114620Y-145750826D01*
X115270826Y-145594620D01*
X115397534Y-145413662D01*
X115490894Y-145213450D01*
X115548070Y-145000068D01*
X115567323Y-144780000D01*
X115548070Y-144559932D01*
X115490894Y-144346550D01*
X115397534Y-144146339D01*
X115270826Y-143965380D01*
X115114620Y-143809174D01*
X115114616Y-143809171D01*
X115114615Y-143809170D01*
X114933666Y-143682468D01*
X114933658Y-143682464D01*
X114804219Y-143622106D01*
X114751779Y-143575934D01*
X114732627Y-143508741D01*
X114752843Y-143441859D01*
X114804219Y-143397342D01*
X114933408Y-143337100D01*
X114933420Y-143337093D01*
X114998186Y-143291742D01*
X114998187Y-143291741D01*
X114327446Y-142621000D01*
X114331569Y-142621000D01*
X114425421Y-142605339D01*
X114537251Y-142544820D01*
X114623371Y-142451269D01*
X114674448Y-142334823D01*
X114680105Y-142266552D01*
X115351740Y-142938187D01*
X115351742Y-142938186D01*
X115397093Y-142873420D01*
X115397100Y-142873408D01*
X115490419Y-142673284D01*
X115490424Y-142673270D01*
X115547573Y-142459986D01*
X115547575Y-142459976D01*
X115566821Y-142240000D01*
X115566821Y-142239999D01*
X115547575Y-142020023D01*
X115547573Y-142020013D01*
X115490424Y-141806729D01*
X115490420Y-141806720D01*
X115397098Y-141606590D01*
X115351740Y-141541811D01*
X114684903Y-142208648D01*
X114684949Y-142208102D01*
X114653734Y-142084838D01*
X114584187Y-141978388D01*
X114483843Y-141900287D01*
X114363578Y-141859000D01*
X114327447Y-141859000D01*
X114998187Y-141188258D01*
X114933409Y-141142900D01*
X114933407Y-141142899D01*
X114804219Y-141082658D01*
X114751779Y-141036486D01*
X114732627Y-140969293D01*
X114746649Y-140922903D01*
X120695793Y-140922903D01*
X120705672Y-141230970D01*
X120705672Y-141230975D01*
X120705673Y-141230978D01*
X120754867Y-141535261D01*
X120799137Y-141684419D01*
X120842571Y-141830763D01*
X120967333Y-142112601D01*
X120967337Y-142112609D01*
X121127123Y-142376193D01*
X121127127Y-142376198D01*
X121127133Y-142376207D01*
X121319297Y-142617174D01*
X121319299Y-142617176D01*
X121319303Y-142617180D01*
X121319304Y-142617181D01*
X121540724Y-142831614D01*
X121683521Y-142938186D01*
X121787741Y-143015968D01*
X121787743Y-143015969D01*
X121787747Y-143015972D01*
X122056318Y-143167228D01*
X122180211Y-143217387D01*
X122342018Y-143282897D01*
X122342023Y-143282898D01*
X122342025Y-143282899D01*
X122640179Y-143361084D01*
X122945883Y-143400500D01*
X122945890Y-143400500D01*
X123176980Y-143400500D01*
X123275814Y-143394154D01*
X123407601Y-143385693D01*
X123710151Y-143326772D01*
X124002683Y-143229644D01*
X124002689Y-143229640D01*
X124002693Y-143229640D01*
X124193571Y-143137717D01*
X124280393Y-143095907D01*
X124538720Y-142927754D01*
X124773424Y-142727948D01*
X124980650Y-142499769D01*
X125115636Y-142306255D01*
X125156994Y-142246966D01*
X125156996Y-142246963D01*
X125299567Y-141973683D01*
X125406020Y-141684415D01*
X125474609Y-141383908D01*
X125504206Y-141077098D01*
X125501294Y-140986303D01*
X125494327Y-140769029D01*
X125494327Y-140769022D01*
X125445133Y-140464739D01*
X125357431Y-140169244D01*
X125357429Y-140169239D01*
X125357428Y-140169236D01*
X125232666Y-139887398D01*
X125232663Y-139887391D01*
X125072877Y-139623807D01*
X125072870Y-139623799D01*
X125072866Y-139623792D01*
X124880702Y-139382825D01*
X124880700Y-139382823D01*
X124760638Y-139266550D01*
X124659276Y-139168386D01*
X124498535Y-139048422D01*
X124412258Y-138984031D01*
X124412253Y-138984028D01*
X124143682Y-138832772D01*
X124106383Y-138817671D01*
X123857981Y-138717102D01*
X123690660Y-138673226D01*
X123559821Y-138638916D01*
X123254117Y-138599500D01*
X123023026Y-138599500D01*
X123023020Y-138599500D01*
X122792406Y-138614306D01*
X122792389Y-138614308D01*
X122489854Y-138673226D01*
X122489849Y-138673228D01*
X122197310Y-138770358D01*
X122197306Y-138770359D01*
X121919613Y-138904089D01*
X121919605Y-138904094D01*
X121661286Y-139072241D01*
X121661276Y-139072248D01*
X121426581Y-139272046D01*
X121426571Y-139272056D01*
X121219354Y-139500225D01*
X121219350Y-139500229D01*
X121043005Y-139753033D01*
X121043003Y-139753037D01*
X120900432Y-140026319D01*
X120900429Y-140026326D01*
X120793981Y-140315580D01*
X120793979Y-140315590D01*
X120725391Y-140616089D01*
X120695794Y-140922902D01*
X120695793Y-140922903D01*
X114746649Y-140922903D01*
X114752843Y-140902411D01*
X114804219Y-140857894D01*
X114814716Y-140852999D01*
X114933662Y-140797534D01*
X115114620Y-140670826D01*
X115270826Y-140514620D01*
X115397534Y-140333662D01*
X115490894Y-140133450D01*
X115548070Y-139920068D01*
X115567323Y-139700000D01*
X115548070Y-139479932D01*
X115490894Y-139266550D01*
X115397534Y-139066339D01*
X115270826Y-138885380D01*
X115114620Y-138729174D01*
X115114616Y-138729171D01*
X115114615Y-138729170D01*
X114933666Y-138602468D01*
X114933662Y-138602466D01*
X114927301Y-138599500D01*
X114733450Y-138509106D01*
X114733447Y-138509105D01*
X114733445Y-138509104D01*
X114520070Y-138451930D01*
X114520062Y-138451929D01*
X114300002Y-138432677D01*
X114299998Y-138432677D01*
X114079937Y-138451929D01*
X114079923Y-138451932D01*
X114040138Y-138462592D01*
X113970288Y-138460929D01*
X113912426Y-138421765D01*
X113884923Y-138357537D01*
X113896510Y-138288634D01*
X113910432Y-138266348D01*
X113926793Y-138245465D01*
X113931737Y-138239884D01*
X114139884Y-138031737D01*
X114145465Y-138026793D01*
X114377186Y-137845252D01*
X114383334Y-137841010D01*
X114635215Y-137688742D01*
X114641834Y-137685268D01*
X114910248Y-137564465D01*
X114917230Y-137561816D01*
X115198250Y-137474246D01*
X115205516Y-137472456D01*
X115495026Y-137419401D01*
X115502458Y-137418497D01*
X115727572Y-137404880D01*
X115798134Y-137400613D01*
X115801878Y-137400500D01*
X128571966Y-137400500D01*
X128571969Y-137400500D01*
X128914250Y-137366789D01*
X129251578Y-137299690D01*
X129580705Y-137199850D01*
X129898462Y-137068231D01*
X130201787Y-136906100D01*
X130487760Y-136715019D01*
X130753627Y-136496828D01*
X130996828Y-136253627D01*
X131215019Y-135987760D01*
X131406100Y-135701787D01*
X131568231Y-135398462D01*
X131699850Y-135080705D01*
X131799690Y-134751578D01*
X131866789Y-134414250D01*
X131900500Y-134071969D01*
X131900500Y-133900000D01*
X131900500Y-133834108D01*
X131900500Y-104047870D01*
X133189500Y-104047870D01*
X133189501Y-104047876D01*
X133195908Y-104107483D01*
X133246202Y-104242328D01*
X133246206Y-104242335D01*
X133332452Y-104357544D01*
X133332455Y-104357547D01*
X133447664Y-104443793D01*
X133447671Y-104443797D01*
X133582517Y-104494091D01*
X133582516Y-104494091D01*
X133587428Y-104494619D01*
X133642127Y-104500500D01*
X135537872Y-104500499D01*
X135597483Y-104494091D01*
X135732331Y-104443796D01*
X135847546Y-104357546D01*
X135933796Y-104242331D01*
X135984091Y-104107483D01*
X135990500Y-104047873D01*
X135990499Y-101952128D01*
X135984091Y-101892517D01*
X135962717Y-101835211D01*
X135933797Y-101757671D01*
X135933793Y-101757664D01*
X135847547Y-101642455D01*
X135847544Y-101642452D01*
X135732335Y-101556206D01*
X135732328Y-101556202D01*
X135597482Y-101505908D01*
X135597483Y-101505908D01*
X135537883Y-101499501D01*
X135537881Y-101499500D01*
X135537873Y-101499500D01*
X135537864Y-101499500D01*
X133642129Y-101499500D01*
X133642123Y-101499501D01*
X133582516Y-101505908D01*
X133447671Y-101556202D01*
X133447664Y-101556206D01*
X133332455Y-101642452D01*
X133332452Y-101642455D01*
X133246206Y-101757664D01*
X133246202Y-101757671D01*
X133195908Y-101892517D01*
X133189501Y-101952116D01*
X133189501Y-101952123D01*
X133189500Y-101952135D01*
X133189500Y-104047870D01*
X131900500Y-104047870D01*
X131900500Y-103001877D01*
X131900613Y-102998133D01*
X131918497Y-102702465D01*
X131919401Y-102695026D01*
X131972456Y-102405516D01*
X131974246Y-102398250D01*
X132061816Y-102117230D01*
X132064465Y-102110248D01*
X132080205Y-102075272D01*
X132185268Y-101841834D01*
X132188745Y-101835211D01*
X132341010Y-101583334D01*
X132345252Y-101577186D01*
X132526793Y-101345465D01*
X132531737Y-101339884D01*
X132739884Y-101131737D01*
X132745465Y-101126793D01*
X132977186Y-100945252D01*
X132983334Y-100941010D01*
X133235215Y-100788742D01*
X133241834Y-100785268D01*
X133510248Y-100664465D01*
X133517230Y-100661816D01*
X133798250Y-100574246D01*
X133805516Y-100572456D01*
X134095026Y-100519401D01*
X134102458Y-100518497D01*
X134327572Y-100504880D01*
X134398134Y-100500613D01*
X134401878Y-100500500D01*
X134465892Y-100500500D01*
X160534108Y-100500500D01*
X160598122Y-100500500D01*
X160601866Y-100500613D01*
G37*
%TD.AperFunction*%
%TD*%
M02*
