%TF.GenerationSoftware,KiCad,Pcbnew,7.0.9*%
%TF.CreationDate,2023-12-06T16:13:21+01:00*%
%TF.ProjectId,E-paper adapter board,452d7061-7065-4722-9061-646170746572,rev?*%
%TF.SameCoordinates,Original*%
%TF.FileFunction,Copper,L2,Bot*%
%TF.FilePolarity,Positive*%
%FSLAX46Y46*%
G04 Gerber Fmt 4.6, Leading zero omitted, Abs format (unit mm)*
G04 Created by KiCad (PCBNEW 7.0.9) date 2023-12-06 16:13:21*
%MOMM*%
%LPD*%
G01*
G04 APERTURE LIST*
G04 Aperture macros list*
%AMRoundRect*
0 Rectangle with rounded corners*
0 $1 Rounding radius*
0 $2 $3 $4 $5 $6 $7 $8 $9 X,Y pos of 4 corners*
0 Add a 4 corners polygon primitive as box body*
4,1,4,$2,$3,$4,$5,$6,$7,$8,$9,$2,$3,0*
0 Add four circle primitives for the rounded corners*
1,1,$1+$1,$2,$3*
1,1,$1+$1,$4,$5*
1,1,$1+$1,$6,$7*
1,1,$1+$1,$8,$9*
0 Add four rect primitives between the rounded corners*
20,1,$1+$1,$2,$3,$4,$5,0*
20,1,$1+$1,$4,$5,$6,$7,0*
20,1,$1+$1,$6,$7,$8,$9,0*
20,1,$1+$1,$8,$9,$2,$3,0*%
G04 Aperture macros list end*
%TA.AperFunction,ComponentPad*%
%ADD10RoundRect,0.250000X0.600000X0.600000X-0.600000X0.600000X-0.600000X-0.600000X0.600000X-0.600000X0*%
%TD*%
%TA.AperFunction,ComponentPad*%
%ADD11C,1.700000*%
%TD*%
%TA.AperFunction,ComponentPad*%
%ADD12O,1.700000X1.700000*%
%TD*%
%TA.AperFunction,ComponentPad*%
%ADD13R,1.700000X1.700000*%
%TD*%
%TA.AperFunction,SMDPad,CuDef*%
%ADD14C,2.000000*%
%TD*%
%TA.AperFunction,ComponentPad*%
%ADD15R,1.524000X1.524000*%
%TD*%
%TA.AperFunction,ComponentPad*%
%ADD16C,1.524000*%
%TD*%
%TA.AperFunction,ViaPad*%
%ADD17C,0.600000*%
%TD*%
%TA.AperFunction,Conductor*%
%ADD18C,0.500000*%
%TD*%
%TA.AperFunction,Conductor*%
%ADD19C,0.200000*%
%TD*%
G04 APERTURE END LIST*
D10*
%TO.P,J3,1,Pin_1*%
%TO.N,+3V0*%
X158540000Y-129540000D03*
D11*
%TO.P,J3,2,Pin_2*%
%TO.N,unconnected-(J3-Pin_2-Pad2)*%
X156000000Y-129540000D03*
%TO.P,J3,3,Pin_3*%
%TO.N,unconnected-(J3-Pin_3-Pad3)*%
X158540000Y-127000000D03*
%TO.P,J3,4,Pin_4*%
%TO.N,GND*%
X156000000Y-127000000D03*
%TO.P,J3,5,Pin_5*%
%TO.N,/PG_UART_RXD*%
X158540000Y-124460000D03*
%TO.P,J3,6,Pin_6*%
%TO.N,GND*%
X156000000Y-124460000D03*
%TO.P,J3,7,Pin_7*%
%TO.N,/SWDIO*%
X158540000Y-121920000D03*
%TO.P,J3,8,Pin_8*%
%TO.N,GND*%
X156000000Y-121920000D03*
%TO.P,J3,9,Pin_9*%
%TO.N,/SWDCLK*%
X158540000Y-119380000D03*
%TO.P,J3,10,Pin_10*%
%TO.N,GND*%
X156000000Y-119380000D03*
%TO.P,J3,11,Pin_11*%
%TO.N,unconnected-(J3-Pin_11-Pad11)*%
X158540000Y-116840000D03*
%TO.P,J3,12,Pin_12*%
%TO.N,GND*%
X156000000Y-116840000D03*
%TO.P,J3,13,Pin_13*%
%TO.N,unconnected-(J3-Pin_13-Pad13)*%
X158540000Y-114300000D03*
%TO.P,J3,14,Pin_14*%
%TO.N,unconnected-(J3-Pin_14-Pad14)*%
X156000000Y-114300000D03*
%TO.P,J3,15,Pin_15*%
%TO.N,/NRST*%
X158540000Y-111760000D03*
%TO.P,J3,16,Pin_16*%
%TO.N,unconnected-(J3-Pin_16-Pad16)*%
X156000000Y-111760000D03*
%TO.P,J3,17,Pin_17*%
%TO.N,/PG_UART_TXD*%
X158540000Y-109220000D03*
%TO.P,J3,18,Pin_18*%
%TO.N,unconnected-(J3-Pin_18-Pad18)*%
X156000000Y-109220000D03*
%TO.P,J3,19,Pin_19*%
%TO.N,unconnected-(J3-Pin_19-Pad19)*%
X158540000Y-106680000D03*
%TO.P,J3,20,Pin_20*%
%TO.N,unconnected-(J3-Pin_20-Pad20)*%
X156000000Y-106680000D03*
%TD*%
D12*
%TO.P,JP1,2,B*%
%TO.N,/PG_UART_TXD*%
X149000000Y-109220000D03*
D13*
%TO.P,JP1,1,A*%
%TO.N,/SERIAL_RX*%
X146460000Y-109220000D03*
%TD*%
D14*
%TO.P,J2,6,Pin_6*%
%TO.N,/NRST*%
X139700000Y-134620000D03*
%TO.P,J2,5,Pin_5*%
%TO.N,unconnected-(J2-Pin_5-Pad5)*%
X142240000Y-134620000D03*
%TO.P,J2,4,Pin_4*%
%TO.N,/SWDIO*%
X144780000Y-134620000D03*
%TO.P,J2,3,Pin_3*%
%TO.N,/SWDCLK*%
X144780000Y-132080000D03*
%TO.P,J2,2,Pin_2*%
%TO.N,GND*%
X142240000Y-132080000D03*
%TO.P,J2,1,Pin_1*%
%TO.N,+3V0*%
X139700000Y-132080000D03*
%TD*%
D15*
%TO.P,J4,1,GND*%
%TO.N,GND*%
X114300000Y-147320000D03*
D16*
%TO.P,J4,2,VIN*%
%TO.N,unconnected-(J4-VIN-Pad2)*%
X114300000Y-144780000D03*
%TO.P,J4,3,VOUT*%
%TO.N,+3V0*%
X114300000Y-142240000D03*
%TO.P,J4,4,GND*%
%TO.N,GND*%
X114300000Y-139700000D03*
%TD*%
D13*
%TO.P,J5,1,Pin_1*%
%TO.N,+3V0*%
X156010000Y-147000000D03*
D12*
%TO.P,J5,2,Pin_2*%
%TO.N,GND*%
X153470000Y-147000000D03*
%TO.P,J5,3,Pin_3*%
%TO.N,/SERIAL_RX*%
X150930000Y-147000000D03*
%TO.P,J5,4,Pin_4*%
%TO.N,/SERIAL_TX*%
X148390000Y-147000000D03*
%TO.P,J5,5,Pin_5*%
%TO.N,/PB5*%
X145850000Y-147000000D03*
%TO.P,J5,6,Pin_6*%
%TO.N,/PB6*%
X143310000Y-147000000D03*
%TO.P,J5,7,Pin_7*%
%TO.N,/PB7*%
X140770000Y-147000000D03*
%TO.P,J5,8,Pin_8*%
%TO.N,/PB8*%
X138230000Y-147000000D03*
%TO.P,J5,9,Pin_9*%
%TO.N,/~{CS}*%
X135690000Y-147000000D03*
%TO.P,J5,10,Pin_10*%
%TO.N,/MOSI*%
X133150000Y-147000000D03*
%TO.P,J5,11,Pin_11*%
%TO.N,/SCLK*%
X130610000Y-147000000D03*
%TO.P,J5,12,Pin_12*%
%TO.N,/BUSY*%
X128070000Y-147000000D03*
%TO.P,J5,13,Pin_13*%
%TO.N,/D{slash}~{C}*%
X125530000Y-147000000D03*
%TO.P,J5,14,Pin_14*%
%TO.N,/~{RES}*%
X122990000Y-147000000D03*
%TD*%
D13*
%TO.P,JP2,1,A*%
%TO.N,/SERIAL_TX*%
X146460000Y-124460000D03*
D12*
%TO.P,JP2,2,B*%
%TO.N,/PG_UART_RXD*%
X149000000Y-124460000D03*
%TD*%
D17*
%TO.N,+3V0*%
X156400000Y-131600000D03*
X143700000Y-130400000D03*
%TO.N,/NRST*%
X142200000Y-136300000D03*
%TO.N,/SWDCLK*%
X146300000Y-132000000D03*
%TO.N,/SWDIO*%
X146300000Y-134600000D03*
%TO.N,GND*%
X142600000Y-105123498D03*
X142386520Y-107124832D03*
%TD*%
D18*
%TO.N,GND*%
X115500000Y-146100000D02*
X115500000Y-146120000D01*
X114300000Y-147320000D02*
X115500000Y-146120000D01*
X114300000Y-147500000D02*
X115600000Y-148800000D01*
X114300000Y-147320000D02*
X114300000Y-147500000D01*
%TO.N,+3V0*%
X156480000Y-131600000D02*
X158540000Y-129540000D01*
X156400000Y-131600000D02*
X156480000Y-131600000D01*
X141380000Y-130400000D02*
X143700000Y-130400000D01*
X139700000Y-132080000D02*
X141380000Y-130400000D01*
D19*
%TO.N,/NRST*%
X141380000Y-136300000D02*
X142200000Y-136300000D01*
X139700000Y-134620000D02*
X141380000Y-136300000D01*
%TO.N,/SWDCLK*%
X146220000Y-132080000D02*
X146300000Y-132000000D01*
X144780000Y-132080000D02*
X146220000Y-132080000D01*
%TO.N,/SWDIO*%
X146280000Y-134620000D02*
X146300000Y-134600000D01*
X144780000Y-134620000D02*
X146280000Y-134620000D01*
%TD*%
%TA.AperFunction,Conductor*%
%TO.N,GND*%
G36*
X142283333Y-131785627D02*
G01*
X142327680Y-131814128D01*
X143463434Y-132949882D01*
X143474861Y-132948697D01*
X143543573Y-132961360D01*
X143588092Y-133001194D01*
X143588683Y-133000735D01*
X143591218Y-133003992D01*
X143591456Y-133004205D01*
X143591831Y-133004780D01*
X143591836Y-133004785D01*
X143760256Y-133187738D01*
X143843008Y-133252147D01*
X143883821Y-133308857D01*
X143887496Y-133378630D01*
X143852864Y-133439313D01*
X143843014Y-133447848D01*
X143784400Y-133493469D01*
X143760257Y-133512261D01*
X143601230Y-133685010D01*
X143541342Y-133721001D01*
X143471504Y-133718900D01*
X143418770Y-133685010D01*
X143379108Y-133641926D01*
X143259744Y-133512262D01*
X143156253Y-133431712D01*
X143115442Y-133375003D01*
X143108655Y-133326176D01*
X143110056Y-133303609D01*
X142240000Y-132433553D01*
X141369942Y-133303609D01*
X141371343Y-133326177D01*
X141355850Y-133394307D01*
X141323744Y-133431713D01*
X141220258Y-133512260D01*
X141061230Y-133685010D01*
X141001342Y-133721001D01*
X140931504Y-133718900D01*
X140878770Y-133685010D01*
X140839108Y-133641926D01*
X140719744Y-133512262D01*
X140636991Y-133447852D01*
X140596179Y-133391143D01*
X140592504Y-133321370D01*
X140627136Y-133260687D01*
X140636985Y-133252151D01*
X140719744Y-133187738D01*
X140888164Y-133004785D01*
X140888533Y-133004219D01*
X140888745Y-133004038D01*
X140891322Y-133000729D01*
X140892002Y-133001258D01*
X140941676Y-132958860D01*
X141005138Y-132948697D01*
X141016564Y-132949882D01*
X142152318Y-131814128D01*
X142213641Y-131780643D01*
X142283333Y-131785627D01*
G37*
%TD.AperFunction*%
%TA.AperFunction,Conductor*%
G36*
X157114925Y-127761373D02*
G01*
X157168119Y-127685405D01*
X157222696Y-127641781D01*
X157292195Y-127634588D01*
X157354549Y-127666110D01*
X157371269Y-127685405D01*
X157501505Y-127871401D01*
X157668599Y-128038495D01*
X157668604Y-128038499D01*
X157669968Y-128039643D01*
X157670407Y-128040303D01*
X157672427Y-128042323D01*
X157672021Y-128042728D01*
X157708669Y-128097815D01*
X157709776Y-128167676D01*
X157672937Y-128227046D01*
X157629267Y-128252336D01*
X157620669Y-128255184D01*
X157620663Y-128255187D01*
X157471342Y-128347289D01*
X157347289Y-128471342D01*
X157255187Y-128620663D01*
X157255183Y-128620673D01*
X157252335Y-128629268D01*
X157212560Y-128686711D01*
X157148044Y-128713531D01*
X157079268Y-128701214D01*
X157042517Y-128672233D01*
X157042324Y-128672427D01*
X157040682Y-128670785D01*
X157039642Y-128669965D01*
X157038494Y-128668597D01*
X156871402Y-128501506D01*
X156871401Y-128501505D01*
X156685405Y-128371269D01*
X156641781Y-128316692D01*
X156634588Y-128247193D01*
X156666110Y-128184839D01*
X156685405Y-128168119D01*
X156761373Y-128114925D01*
X156132533Y-127486086D01*
X156142315Y-127484680D01*
X156273100Y-127424952D01*
X156381761Y-127330798D01*
X156459493Y-127209844D01*
X156483076Y-127129524D01*
X157114925Y-127761373D01*
G37*
%TD.AperFunction*%
%TA.AperFunction,Conductor*%
G36*
X157114925Y-125221373D02*
G01*
X157168119Y-125145405D01*
X157222696Y-125101781D01*
X157292195Y-125094588D01*
X157354549Y-125126110D01*
X157371269Y-125145405D01*
X157501505Y-125331401D01*
X157501506Y-125331402D01*
X157668597Y-125498493D01*
X157668603Y-125498498D01*
X157854158Y-125628425D01*
X157897783Y-125683002D01*
X157904977Y-125752500D01*
X157873454Y-125814855D01*
X157854158Y-125831575D01*
X157668597Y-125961505D01*
X157501505Y-126128597D01*
X157371269Y-126314595D01*
X157316692Y-126358220D01*
X157247194Y-126365414D01*
X157184839Y-126333891D01*
X157168119Y-126314595D01*
X157114925Y-126238626D01*
X157114925Y-126238625D01*
X156483076Y-126870475D01*
X156459493Y-126790156D01*
X156381761Y-126669202D01*
X156273100Y-126575048D01*
X156142315Y-126515320D01*
X156132533Y-126513913D01*
X156761373Y-125885073D01*
X156684969Y-125831576D01*
X156641344Y-125776999D01*
X156634150Y-125707501D01*
X156665672Y-125645146D01*
X156684968Y-125628425D01*
X156761373Y-125574925D01*
X156132533Y-124946086D01*
X156142315Y-124944680D01*
X156273100Y-124884952D01*
X156381761Y-124790798D01*
X156459493Y-124669844D01*
X156483076Y-124589524D01*
X157114925Y-125221373D01*
G37*
%TD.AperFunction*%
%TA.AperFunction,Conductor*%
G36*
X157114925Y-122681373D02*
G01*
X157168119Y-122605405D01*
X157222696Y-122561781D01*
X157292195Y-122554588D01*
X157354549Y-122586110D01*
X157371269Y-122605405D01*
X157501505Y-122791401D01*
X157501506Y-122791402D01*
X157668597Y-122958493D01*
X157668603Y-122958498D01*
X157854158Y-123088425D01*
X157897783Y-123143002D01*
X157904977Y-123212500D01*
X157873454Y-123274855D01*
X157854158Y-123291575D01*
X157668597Y-123421505D01*
X157501505Y-123588597D01*
X157371269Y-123774595D01*
X157316692Y-123818220D01*
X157247194Y-123825414D01*
X157184839Y-123793891D01*
X157168119Y-123774595D01*
X157114925Y-123698626D01*
X157114925Y-123698625D01*
X156483076Y-124330475D01*
X156459493Y-124250156D01*
X156381761Y-124129202D01*
X156273100Y-124035048D01*
X156142315Y-123975320D01*
X156132533Y-123973913D01*
X156761373Y-123345073D01*
X156684969Y-123291576D01*
X156641344Y-123236999D01*
X156634150Y-123167501D01*
X156665672Y-123105146D01*
X156684968Y-123088425D01*
X156761373Y-123034925D01*
X156132533Y-122406086D01*
X156142315Y-122404680D01*
X156273100Y-122344952D01*
X156381761Y-122250798D01*
X156459493Y-122129844D01*
X156483076Y-122049524D01*
X157114925Y-122681373D01*
G37*
%TD.AperFunction*%
%TA.AperFunction,Conductor*%
G36*
X157114925Y-120141373D02*
G01*
X157168119Y-120065405D01*
X157222696Y-120021781D01*
X157292195Y-120014588D01*
X157354549Y-120046110D01*
X157371269Y-120065405D01*
X157501505Y-120251401D01*
X157501506Y-120251402D01*
X157668597Y-120418493D01*
X157668603Y-120418498D01*
X157854158Y-120548425D01*
X157897783Y-120603002D01*
X157904977Y-120672500D01*
X157873454Y-120734855D01*
X157854158Y-120751575D01*
X157668597Y-120881505D01*
X157501505Y-121048597D01*
X157371269Y-121234595D01*
X157316692Y-121278220D01*
X157247194Y-121285414D01*
X157184839Y-121253891D01*
X157168119Y-121234595D01*
X157114925Y-121158626D01*
X157114925Y-121158625D01*
X156483076Y-121790475D01*
X156459493Y-121710156D01*
X156381761Y-121589202D01*
X156273100Y-121495048D01*
X156142315Y-121435320D01*
X156132533Y-121433913D01*
X156761373Y-120805073D01*
X156684969Y-120751576D01*
X156641344Y-120696999D01*
X156634150Y-120627501D01*
X156665672Y-120565146D01*
X156684968Y-120548425D01*
X156761373Y-120494925D01*
X156132533Y-119866086D01*
X156142315Y-119864680D01*
X156273100Y-119804952D01*
X156381761Y-119710798D01*
X156459493Y-119589844D01*
X156483076Y-119509524D01*
X157114925Y-120141373D01*
G37*
%TD.AperFunction*%
%TA.AperFunction,Conductor*%
G36*
X157114925Y-117601373D02*
G01*
X157168119Y-117525405D01*
X157222696Y-117481781D01*
X157292195Y-117474588D01*
X157354549Y-117506110D01*
X157371269Y-117525405D01*
X157501505Y-117711401D01*
X157501506Y-117711402D01*
X157668597Y-117878493D01*
X157668603Y-117878498D01*
X157854158Y-118008425D01*
X157897783Y-118063002D01*
X157904977Y-118132500D01*
X157873454Y-118194855D01*
X157854158Y-118211575D01*
X157668597Y-118341505D01*
X157501505Y-118508597D01*
X157371269Y-118694595D01*
X157316692Y-118738220D01*
X157247194Y-118745414D01*
X157184839Y-118713891D01*
X157168119Y-118694595D01*
X157114925Y-118618626D01*
X157114925Y-118618625D01*
X156483076Y-119250475D01*
X156459493Y-119170156D01*
X156381761Y-119049202D01*
X156273100Y-118955048D01*
X156142315Y-118895320D01*
X156132533Y-118893913D01*
X156761373Y-118265073D01*
X156684969Y-118211576D01*
X156641344Y-118156999D01*
X156634150Y-118087501D01*
X156665672Y-118025146D01*
X156684968Y-118008425D01*
X156761373Y-117954925D01*
X156132533Y-117326086D01*
X156142315Y-117324680D01*
X156273100Y-117264952D01*
X156381761Y-117170798D01*
X156459493Y-117049844D01*
X156483076Y-116969524D01*
X157114925Y-117601373D01*
G37*
%TD.AperFunction*%
%TA.AperFunction,Conductor*%
G36*
X157354855Y-114966546D02*
G01*
X157371575Y-114985842D01*
X157501501Y-115171396D01*
X157501506Y-115171402D01*
X157668597Y-115338493D01*
X157668603Y-115338498D01*
X157854158Y-115468425D01*
X157897783Y-115523002D01*
X157904977Y-115592500D01*
X157873454Y-115654855D01*
X157854158Y-115671575D01*
X157668597Y-115801505D01*
X157501505Y-115968597D01*
X157371269Y-116154595D01*
X157316692Y-116198220D01*
X157247194Y-116205414D01*
X157184839Y-116173891D01*
X157168119Y-116154595D01*
X157114925Y-116078626D01*
X157114925Y-116078625D01*
X156483076Y-116710475D01*
X156459493Y-116630156D01*
X156381761Y-116509202D01*
X156273100Y-116415048D01*
X156142315Y-116355320D01*
X156132533Y-116353913D01*
X156761373Y-115725073D01*
X156761373Y-115725072D01*
X156685405Y-115671880D01*
X156641780Y-115617304D01*
X156634586Y-115547805D01*
X156666108Y-115485451D01*
X156685399Y-115468734D01*
X156871401Y-115338495D01*
X157038495Y-115171401D01*
X157168425Y-114985842D01*
X157223002Y-114942217D01*
X157292500Y-114935023D01*
X157354855Y-114966546D01*
G37*
%TD.AperFunction*%
%TA.AperFunction,Conductor*%
G36*
X160601866Y-100500613D02*
G01*
X160681342Y-100505420D01*
X160897539Y-100518497D01*
X160904973Y-100519401D01*
X161194483Y-100572456D01*
X161201753Y-100574247D01*
X161482764Y-100661814D01*
X161489751Y-100664465D01*
X161643864Y-100733825D01*
X161758158Y-100785265D01*
X161764788Y-100788745D01*
X162016665Y-100941010D01*
X162022821Y-100945257D01*
X162254523Y-101126784D01*
X162260123Y-101131745D01*
X162468253Y-101339875D01*
X162473214Y-101345475D01*
X162654739Y-101577175D01*
X162658989Y-101583334D01*
X162811254Y-101835211D01*
X162814737Y-101841846D01*
X162935534Y-102110248D01*
X162938188Y-102117244D01*
X162947904Y-102148422D01*
X163025750Y-102398240D01*
X163027543Y-102405516D01*
X163080598Y-102695026D01*
X163081502Y-102702465D01*
X163099387Y-102998132D01*
X163099500Y-103001877D01*
X163099500Y-146698122D01*
X163099387Y-146701867D01*
X163081502Y-146997534D01*
X163080598Y-147004973D01*
X163027543Y-147294483D01*
X163025750Y-147301759D01*
X162990518Y-147414823D01*
X162948298Y-147550315D01*
X162938192Y-147582745D01*
X162935534Y-147589751D01*
X162814737Y-147858153D01*
X162811254Y-147864788D01*
X162658989Y-148116665D01*
X162654733Y-148122832D01*
X162649240Y-148129844D01*
X162473215Y-148354523D01*
X162468246Y-148360132D01*
X162260132Y-148568246D01*
X162254523Y-148573215D01*
X162022833Y-148754733D01*
X162016665Y-148758989D01*
X161764788Y-148911254D01*
X161758153Y-148914737D01*
X161489751Y-149035534D01*
X161482749Y-149038190D01*
X161389363Y-149067290D01*
X161201759Y-149125750D01*
X161194483Y-149127543D01*
X160904973Y-149180598D01*
X160897534Y-149181502D01*
X160601867Y-149199387D01*
X160598122Y-149199500D01*
X115801878Y-149199500D01*
X115798133Y-149199387D01*
X115502465Y-149181502D01*
X115495026Y-149180598D01*
X115205516Y-149127543D01*
X115198240Y-149125750D01*
X115104858Y-149096651D01*
X114917244Y-149038188D01*
X114910248Y-149035534D01*
X114641846Y-148914737D01*
X114635211Y-148911254D01*
X114471217Y-148812117D01*
X114424030Y-148760589D01*
X114412191Y-148691730D01*
X114439460Y-148627401D01*
X114497178Y-148588027D01*
X114535367Y-148582000D01*
X115109828Y-148582000D01*
X115109844Y-148581999D01*
X115169372Y-148575598D01*
X115169379Y-148575596D01*
X115304086Y-148525354D01*
X115304093Y-148525350D01*
X115419187Y-148439190D01*
X115419190Y-148439187D01*
X115505350Y-148324093D01*
X115505354Y-148324086D01*
X115555596Y-148189379D01*
X115555598Y-148189372D01*
X115561999Y-148129844D01*
X115562000Y-148129827D01*
X115562000Y-147570000D01*
X114587717Y-147570000D01*
X114623371Y-147531269D01*
X114674448Y-147414823D01*
X114684949Y-147288102D01*
X114653734Y-147164838D01*
X114591773Y-147070000D01*
X115562000Y-147070000D01*
X115562000Y-147000000D01*
X121634341Y-147000000D01*
X121654936Y-147235403D01*
X121654938Y-147235413D01*
X121716094Y-147463655D01*
X121716096Y-147463659D01*
X121716097Y-147463663D01*
X121796004Y-147635023D01*
X121815965Y-147677830D01*
X121815967Y-147677834D01*
X121924281Y-147832521D01*
X121951505Y-147871401D01*
X122118599Y-148038495D01*
X122215384Y-148106265D01*
X122312165Y-148174032D01*
X122312167Y-148174033D01*
X122312170Y-148174035D01*
X122526337Y-148273903D01*
X122754592Y-148335063D01*
X122931034Y-148350500D01*
X122989999Y-148355659D01*
X122990000Y-148355659D01*
X122990001Y-148355659D01*
X123048966Y-148350500D01*
X123225408Y-148335063D01*
X123453663Y-148273903D01*
X123667830Y-148174035D01*
X123861401Y-148038495D01*
X124028495Y-147871401D01*
X124158425Y-147685842D01*
X124213002Y-147642217D01*
X124282500Y-147635023D01*
X124344855Y-147666546D01*
X124361575Y-147685842D01*
X124491500Y-147871395D01*
X124491505Y-147871401D01*
X124658599Y-148038495D01*
X124755384Y-148106265D01*
X124852165Y-148174032D01*
X124852167Y-148174033D01*
X124852170Y-148174035D01*
X125066337Y-148273903D01*
X125294592Y-148335063D01*
X125471034Y-148350500D01*
X125529999Y-148355659D01*
X125530000Y-148355659D01*
X125530001Y-148355659D01*
X125588966Y-148350500D01*
X125765408Y-148335063D01*
X125993663Y-148273903D01*
X126207830Y-148174035D01*
X126401401Y-148038495D01*
X126568495Y-147871401D01*
X126698425Y-147685842D01*
X126753002Y-147642217D01*
X126822500Y-147635023D01*
X126884855Y-147666546D01*
X126901575Y-147685842D01*
X127031500Y-147871395D01*
X127031505Y-147871401D01*
X127198599Y-148038495D01*
X127295384Y-148106265D01*
X127392165Y-148174032D01*
X127392167Y-148174033D01*
X127392170Y-148174035D01*
X127606337Y-148273903D01*
X127834592Y-148335063D01*
X128011034Y-148350500D01*
X128069999Y-148355659D01*
X128070000Y-148355659D01*
X128070001Y-148355659D01*
X128128966Y-148350500D01*
X128305408Y-148335063D01*
X128533663Y-148273903D01*
X128747830Y-148174035D01*
X128941401Y-148038495D01*
X129108495Y-147871401D01*
X129238425Y-147685842D01*
X129293002Y-147642217D01*
X129362500Y-147635023D01*
X129424855Y-147666546D01*
X129441575Y-147685842D01*
X129571500Y-147871395D01*
X129571505Y-147871401D01*
X129738599Y-148038495D01*
X129835384Y-148106265D01*
X129932165Y-148174032D01*
X129932167Y-148174033D01*
X129932170Y-148174035D01*
X130146337Y-148273903D01*
X130374592Y-148335063D01*
X130551034Y-148350500D01*
X130609999Y-148355659D01*
X130610000Y-148355659D01*
X130610001Y-148355659D01*
X130668966Y-148350500D01*
X130845408Y-148335063D01*
X131073663Y-148273903D01*
X131287830Y-148174035D01*
X131481401Y-148038495D01*
X131648495Y-147871401D01*
X131778425Y-147685842D01*
X131833002Y-147642217D01*
X131902500Y-147635023D01*
X131964855Y-147666546D01*
X131981575Y-147685842D01*
X132111500Y-147871395D01*
X132111505Y-147871401D01*
X132278599Y-148038495D01*
X132375384Y-148106265D01*
X132472165Y-148174032D01*
X132472167Y-148174033D01*
X132472170Y-148174035D01*
X132686337Y-148273903D01*
X132914592Y-148335063D01*
X133091034Y-148350500D01*
X133149999Y-148355659D01*
X133150000Y-148355659D01*
X133150001Y-148355659D01*
X133208966Y-148350500D01*
X133385408Y-148335063D01*
X133613663Y-148273903D01*
X133827830Y-148174035D01*
X134021401Y-148038495D01*
X134188495Y-147871401D01*
X134318425Y-147685842D01*
X134373002Y-147642217D01*
X134442500Y-147635023D01*
X134504855Y-147666546D01*
X134521575Y-147685842D01*
X134651500Y-147871395D01*
X134651505Y-147871401D01*
X134818599Y-148038495D01*
X134915384Y-148106265D01*
X135012165Y-148174032D01*
X135012167Y-148174033D01*
X135012170Y-148174035D01*
X135226337Y-148273903D01*
X135454592Y-148335063D01*
X135631034Y-148350500D01*
X135689999Y-148355659D01*
X135690000Y-148355659D01*
X135690001Y-148355659D01*
X135748966Y-148350500D01*
X135925408Y-148335063D01*
X136153663Y-148273903D01*
X136367830Y-148174035D01*
X136561401Y-148038495D01*
X136728495Y-147871401D01*
X136858425Y-147685842D01*
X136913002Y-147642217D01*
X136982500Y-147635023D01*
X137044855Y-147666546D01*
X137061575Y-147685842D01*
X137191500Y-147871395D01*
X137191505Y-147871401D01*
X137358599Y-148038495D01*
X137455384Y-148106265D01*
X137552165Y-148174032D01*
X137552167Y-148174033D01*
X137552170Y-148174035D01*
X137766337Y-148273903D01*
X137994592Y-148335063D01*
X138171034Y-148350500D01*
X138229999Y-148355659D01*
X138230000Y-148355659D01*
X138230001Y-148355659D01*
X138288966Y-148350500D01*
X138465408Y-148335063D01*
X138693663Y-148273903D01*
X138907830Y-148174035D01*
X139101401Y-148038495D01*
X139268495Y-147871401D01*
X139398425Y-147685842D01*
X139453002Y-147642217D01*
X139522500Y-147635023D01*
X139584855Y-147666546D01*
X139601575Y-147685842D01*
X139731500Y-147871395D01*
X139731505Y-147871401D01*
X139898599Y-148038495D01*
X139995384Y-148106265D01*
X140092165Y-148174032D01*
X140092167Y-148174033D01*
X140092170Y-148174035D01*
X140306337Y-148273903D01*
X140534592Y-148335063D01*
X140711034Y-148350500D01*
X140769999Y-148355659D01*
X140770000Y-148355659D01*
X140770001Y-148355659D01*
X140828966Y-148350500D01*
X141005408Y-148335063D01*
X141233663Y-148273903D01*
X141447830Y-148174035D01*
X141641401Y-148038495D01*
X141808495Y-147871401D01*
X141938425Y-147685842D01*
X141993002Y-147642217D01*
X142062500Y-147635023D01*
X142124855Y-147666546D01*
X142141575Y-147685842D01*
X142271500Y-147871395D01*
X142271505Y-147871401D01*
X142438599Y-148038495D01*
X142535384Y-148106265D01*
X142632165Y-148174032D01*
X142632167Y-148174033D01*
X142632170Y-148174035D01*
X142846337Y-148273903D01*
X143074592Y-148335063D01*
X143251034Y-148350500D01*
X143309999Y-148355659D01*
X143310000Y-148355659D01*
X143310001Y-148355659D01*
X143368966Y-148350500D01*
X143545408Y-148335063D01*
X143773663Y-148273903D01*
X143987830Y-148174035D01*
X144181401Y-148038495D01*
X144348495Y-147871401D01*
X144478425Y-147685842D01*
X144533002Y-147642217D01*
X144602500Y-147635023D01*
X144664855Y-147666546D01*
X144681575Y-147685842D01*
X144811500Y-147871395D01*
X144811505Y-147871401D01*
X144978599Y-148038495D01*
X145075384Y-148106265D01*
X145172165Y-148174032D01*
X145172167Y-148174033D01*
X145172170Y-148174035D01*
X145386337Y-148273903D01*
X145614592Y-148335063D01*
X145791034Y-148350500D01*
X145849999Y-148355659D01*
X145850000Y-148355659D01*
X145850001Y-148355659D01*
X145908966Y-148350500D01*
X146085408Y-148335063D01*
X146313663Y-148273903D01*
X146527830Y-148174035D01*
X146721401Y-148038495D01*
X146888495Y-147871401D01*
X147018425Y-147685842D01*
X147073002Y-147642217D01*
X147142500Y-147635023D01*
X147204855Y-147666546D01*
X147221575Y-147685842D01*
X147351500Y-147871395D01*
X147351505Y-147871401D01*
X147518599Y-148038495D01*
X147615384Y-148106265D01*
X147712165Y-148174032D01*
X147712167Y-148174033D01*
X147712170Y-148174035D01*
X147926337Y-148273903D01*
X148154592Y-148335063D01*
X148331034Y-148350500D01*
X148389999Y-148355659D01*
X148390000Y-148355659D01*
X148390001Y-148355659D01*
X148448966Y-148350500D01*
X148625408Y-148335063D01*
X148853663Y-148273903D01*
X149067830Y-148174035D01*
X149261401Y-148038495D01*
X149428495Y-147871401D01*
X149558425Y-147685842D01*
X149613002Y-147642217D01*
X149682500Y-147635023D01*
X149744855Y-147666546D01*
X149761575Y-147685842D01*
X149891500Y-147871395D01*
X149891505Y-147871401D01*
X150058599Y-148038495D01*
X150155384Y-148106265D01*
X150252165Y-148174032D01*
X150252167Y-148174033D01*
X150252170Y-148174035D01*
X150466337Y-148273903D01*
X150694592Y-148335063D01*
X150871034Y-148350500D01*
X150929999Y-148355659D01*
X150930000Y-148355659D01*
X150930001Y-148355659D01*
X150988966Y-148350500D01*
X151165408Y-148335063D01*
X151393663Y-148273903D01*
X151607830Y-148174035D01*
X151801401Y-148038495D01*
X151968495Y-147871401D01*
X152098730Y-147685405D01*
X152153307Y-147641781D01*
X152222805Y-147634587D01*
X152285160Y-147666110D01*
X152301879Y-147685405D01*
X152431890Y-147871078D01*
X152598917Y-148038105D01*
X152792421Y-148173600D01*
X153006507Y-148273429D01*
X153006516Y-148273433D01*
X153220000Y-148330634D01*
X153220000Y-147435501D01*
X153327685Y-147484680D01*
X153434237Y-147500000D01*
X153505763Y-147500000D01*
X153612315Y-147484680D01*
X153720000Y-147435501D01*
X153720000Y-148330633D01*
X153933483Y-148273433D01*
X153933492Y-148273429D01*
X154147578Y-148173600D01*
X154341078Y-148038108D01*
X154463133Y-147916053D01*
X154524456Y-147882568D01*
X154594148Y-147887552D01*
X154650082Y-147929423D01*
X154666997Y-147960401D01*
X154716202Y-148092328D01*
X154716206Y-148092335D01*
X154802452Y-148207544D01*
X154802455Y-148207547D01*
X154917664Y-148293793D01*
X154917671Y-148293797D01*
X155052517Y-148344091D01*
X155052516Y-148344091D01*
X155059444Y-148344835D01*
X155112127Y-148350500D01*
X156907872Y-148350499D01*
X156967483Y-148344091D01*
X157102331Y-148293796D01*
X157217546Y-148207546D01*
X157303796Y-148092331D01*
X157354091Y-147957483D01*
X157360500Y-147897873D01*
X157360499Y-146102128D01*
X157354091Y-146042517D01*
X157353002Y-146039598D01*
X157303797Y-145907671D01*
X157303793Y-145907664D01*
X157217547Y-145792455D01*
X157217544Y-145792452D01*
X157102335Y-145706206D01*
X157102328Y-145706202D01*
X156967482Y-145655908D01*
X156967483Y-145655908D01*
X156907883Y-145649501D01*
X156907881Y-145649500D01*
X156907873Y-145649500D01*
X156907864Y-145649500D01*
X155112129Y-145649500D01*
X155112123Y-145649501D01*
X155052516Y-145655908D01*
X154917671Y-145706202D01*
X154917664Y-145706206D01*
X154802455Y-145792452D01*
X154802452Y-145792455D01*
X154716206Y-145907664D01*
X154716202Y-145907671D01*
X154666997Y-146039598D01*
X154625126Y-146095532D01*
X154559661Y-146119949D01*
X154491388Y-146105097D01*
X154463134Y-146083946D01*
X154341082Y-145961894D01*
X154147578Y-145826399D01*
X153933492Y-145726570D01*
X153933486Y-145726567D01*
X153720000Y-145669364D01*
X153720000Y-146564498D01*
X153612315Y-146515320D01*
X153505763Y-146500000D01*
X153434237Y-146500000D01*
X153327685Y-146515320D01*
X153220000Y-146564498D01*
X153220000Y-145669364D01*
X153219999Y-145669364D01*
X153006513Y-145726567D01*
X153006507Y-145726570D01*
X152792422Y-145826399D01*
X152792420Y-145826400D01*
X152598926Y-145961886D01*
X152598920Y-145961891D01*
X152431891Y-146128920D01*
X152431890Y-146128922D01*
X152301880Y-146314595D01*
X152247303Y-146358219D01*
X152177804Y-146365412D01*
X152115450Y-146333890D01*
X152098730Y-146314594D01*
X151968494Y-146128597D01*
X151801402Y-145961506D01*
X151801395Y-145961501D01*
X151607834Y-145825967D01*
X151607830Y-145825965D01*
X151607828Y-145825964D01*
X151393663Y-145726097D01*
X151393659Y-145726096D01*
X151393655Y-145726094D01*
X151165413Y-145664938D01*
X151165403Y-145664936D01*
X150930001Y-145644341D01*
X150929999Y-145644341D01*
X150694596Y-145664936D01*
X150694586Y-145664938D01*
X150466344Y-145726094D01*
X150466335Y-145726098D01*
X150252171Y-145825964D01*
X150252169Y-145825965D01*
X150058597Y-145961505D01*
X149891505Y-146128597D01*
X149761575Y-146314158D01*
X149706998Y-146357783D01*
X149637500Y-146364977D01*
X149575145Y-146333454D01*
X149558425Y-146314158D01*
X149428494Y-146128597D01*
X149261402Y-145961506D01*
X149261395Y-145961501D01*
X149067834Y-145825967D01*
X149067830Y-145825965D01*
X149067828Y-145825964D01*
X148853663Y-145726097D01*
X148853659Y-145726096D01*
X148853655Y-145726094D01*
X148625413Y-145664938D01*
X148625403Y-145664936D01*
X148390001Y-145644341D01*
X148389999Y-145644341D01*
X148154596Y-145664936D01*
X148154586Y-145664938D01*
X147926344Y-145726094D01*
X147926335Y-145726098D01*
X147712171Y-145825964D01*
X147712169Y-145825965D01*
X147518597Y-145961505D01*
X147351505Y-146128597D01*
X147221575Y-146314158D01*
X147166998Y-146357783D01*
X147097500Y-146364977D01*
X147035145Y-146333454D01*
X147018425Y-146314158D01*
X146888494Y-146128597D01*
X146721402Y-145961506D01*
X146721395Y-145961501D01*
X146527834Y-145825967D01*
X146527830Y-145825965D01*
X146527828Y-145825964D01*
X146313663Y-145726097D01*
X146313659Y-145726096D01*
X146313655Y-145726094D01*
X146085413Y-145664938D01*
X146085403Y-145664936D01*
X145850001Y-145644341D01*
X145849999Y-145644341D01*
X145614596Y-145664936D01*
X145614586Y-145664938D01*
X145386344Y-145726094D01*
X145386335Y-145726098D01*
X145172171Y-145825964D01*
X145172169Y-145825965D01*
X144978597Y-145961505D01*
X144811505Y-146128597D01*
X144681575Y-146314158D01*
X144626998Y-146357783D01*
X144557500Y-146364977D01*
X144495145Y-146333454D01*
X144478425Y-146314158D01*
X144348494Y-146128597D01*
X144181402Y-145961506D01*
X144181395Y-145961501D01*
X143987834Y-145825967D01*
X143987830Y-145825965D01*
X143987828Y-145825964D01*
X143773663Y-145726097D01*
X143773659Y-145726096D01*
X143773655Y-145726094D01*
X143545413Y-145664938D01*
X143545403Y-145664936D01*
X143310001Y-145644341D01*
X143309999Y-145644341D01*
X143074596Y-145664936D01*
X143074586Y-145664938D01*
X142846344Y-145726094D01*
X142846335Y-145726098D01*
X142632171Y-145825964D01*
X142632169Y-145825965D01*
X142438597Y-145961505D01*
X142271505Y-146128597D01*
X142141575Y-146314158D01*
X142086998Y-146357783D01*
X142017500Y-146364977D01*
X141955145Y-146333454D01*
X141938425Y-146314158D01*
X141808494Y-146128597D01*
X141641402Y-145961506D01*
X141641395Y-145961501D01*
X141447834Y-145825967D01*
X141447830Y-145825965D01*
X141447828Y-145825964D01*
X141233663Y-145726097D01*
X141233659Y-145726096D01*
X141233655Y-145726094D01*
X141005413Y-145664938D01*
X141005403Y-145664936D01*
X140770001Y-145644341D01*
X140769999Y-145644341D01*
X140534596Y-145664936D01*
X140534586Y-145664938D01*
X140306344Y-145726094D01*
X140306335Y-145726098D01*
X140092171Y-145825964D01*
X140092169Y-145825965D01*
X139898597Y-145961505D01*
X139731505Y-146128597D01*
X139601575Y-146314158D01*
X139546998Y-146357783D01*
X139477500Y-146364977D01*
X139415145Y-146333454D01*
X139398425Y-146314158D01*
X139268494Y-146128597D01*
X139101402Y-145961506D01*
X139101395Y-145961501D01*
X138907834Y-145825967D01*
X138907830Y-145825965D01*
X138907828Y-145825964D01*
X138693663Y-145726097D01*
X138693659Y-145726096D01*
X138693655Y-145726094D01*
X138465413Y-145664938D01*
X138465403Y-145664936D01*
X138230001Y-145644341D01*
X138229999Y-145644341D01*
X137994596Y-145664936D01*
X137994586Y-145664938D01*
X137766344Y-145726094D01*
X137766335Y-145726098D01*
X137552171Y-145825964D01*
X137552169Y-145825965D01*
X137358597Y-145961505D01*
X137191505Y-146128597D01*
X137061575Y-146314158D01*
X137006998Y-146357783D01*
X136937500Y-146364977D01*
X136875145Y-146333454D01*
X136858425Y-146314158D01*
X136728494Y-146128597D01*
X136561402Y-145961506D01*
X136561395Y-145961501D01*
X136367834Y-145825967D01*
X136367830Y-145825965D01*
X136367828Y-145825964D01*
X136153663Y-145726097D01*
X136153659Y-145726096D01*
X136153655Y-145726094D01*
X135925413Y-145664938D01*
X135925403Y-145664936D01*
X135690001Y-145644341D01*
X135689999Y-145644341D01*
X135454596Y-145664936D01*
X135454586Y-145664938D01*
X135226344Y-145726094D01*
X135226335Y-145726098D01*
X135012171Y-145825964D01*
X135012169Y-145825965D01*
X134818597Y-145961505D01*
X134651505Y-146128597D01*
X134521575Y-146314158D01*
X134466998Y-146357783D01*
X134397500Y-146364977D01*
X134335145Y-146333454D01*
X134318425Y-146314158D01*
X134188494Y-146128597D01*
X134021402Y-145961506D01*
X134021395Y-145961501D01*
X133827834Y-145825967D01*
X133827830Y-145825965D01*
X133827828Y-145825964D01*
X133613663Y-145726097D01*
X133613659Y-145726096D01*
X133613655Y-145726094D01*
X133385413Y-145664938D01*
X133385403Y-145664936D01*
X133150001Y-145644341D01*
X133149999Y-145644341D01*
X132914596Y-145664936D01*
X132914586Y-145664938D01*
X132686344Y-145726094D01*
X132686335Y-145726098D01*
X132472171Y-145825964D01*
X132472169Y-145825965D01*
X132278597Y-145961505D01*
X132111505Y-146128597D01*
X131981575Y-146314158D01*
X131926998Y-146357783D01*
X131857500Y-146364977D01*
X131795145Y-146333454D01*
X131778425Y-146314158D01*
X131648494Y-146128597D01*
X131481402Y-145961506D01*
X131481395Y-145961501D01*
X131287834Y-145825967D01*
X131287830Y-145825965D01*
X131287828Y-145825964D01*
X131073663Y-145726097D01*
X131073659Y-145726096D01*
X131073655Y-145726094D01*
X130845413Y-145664938D01*
X130845403Y-145664936D01*
X130610001Y-145644341D01*
X130609999Y-145644341D01*
X130374596Y-145664936D01*
X130374586Y-145664938D01*
X130146344Y-145726094D01*
X130146335Y-145726098D01*
X129932171Y-145825964D01*
X129932169Y-145825965D01*
X129738597Y-145961505D01*
X129571505Y-146128597D01*
X129441575Y-146314158D01*
X129386998Y-146357783D01*
X129317500Y-146364977D01*
X129255145Y-146333454D01*
X129238425Y-146314158D01*
X129108494Y-146128597D01*
X128941402Y-145961506D01*
X128941395Y-145961501D01*
X128747834Y-145825967D01*
X128747830Y-145825965D01*
X128747828Y-145825964D01*
X128533663Y-145726097D01*
X128533659Y-145726096D01*
X128533655Y-145726094D01*
X128305413Y-145664938D01*
X128305403Y-145664936D01*
X128070001Y-145644341D01*
X128069999Y-145644341D01*
X127834596Y-145664936D01*
X127834586Y-145664938D01*
X127606344Y-145726094D01*
X127606335Y-145726098D01*
X127392171Y-145825964D01*
X127392169Y-145825965D01*
X127198597Y-145961505D01*
X127031505Y-146128597D01*
X126901575Y-146314158D01*
X126846998Y-146357783D01*
X126777500Y-146364977D01*
X126715145Y-146333454D01*
X126698425Y-146314158D01*
X126568494Y-146128597D01*
X126401402Y-145961506D01*
X126401395Y-145961501D01*
X126207834Y-145825967D01*
X126207830Y-145825965D01*
X126207828Y-145825964D01*
X125993663Y-145726097D01*
X125993659Y-145726096D01*
X125993655Y-145726094D01*
X125765413Y-145664938D01*
X125765403Y-145664936D01*
X125530001Y-145644341D01*
X125529999Y-145644341D01*
X125294596Y-145664936D01*
X125294586Y-145664938D01*
X125066344Y-145726094D01*
X125066335Y-145726098D01*
X124852171Y-145825964D01*
X124852169Y-145825965D01*
X124658597Y-145961505D01*
X124491505Y-146128597D01*
X124361575Y-146314158D01*
X124306998Y-146357783D01*
X124237500Y-146364977D01*
X124175145Y-146333454D01*
X124158425Y-146314158D01*
X124028494Y-146128597D01*
X123861402Y-145961506D01*
X123861395Y-145961501D01*
X123667834Y-145825967D01*
X123667830Y-145825965D01*
X123667828Y-145825964D01*
X123453663Y-145726097D01*
X123453659Y-145726096D01*
X123453655Y-145726094D01*
X123225413Y-145664938D01*
X123225403Y-145664936D01*
X122990001Y-145644341D01*
X122989999Y-145644341D01*
X122754596Y-145664936D01*
X122754586Y-145664938D01*
X122526344Y-145726094D01*
X122526335Y-145726098D01*
X122312171Y-145825964D01*
X122312169Y-145825965D01*
X122118597Y-145961505D01*
X121951505Y-146128597D01*
X121815965Y-146322169D01*
X121815964Y-146322171D01*
X121716098Y-146536335D01*
X121716094Y-146536344D01*
X121654938Y-146764586D01*
X121654936Y-146764596D01*
X121634341Y-146999999D01*
X121634341Y-147000000D01*
X115562000Y-147000000D01*
X115562000Y-146510172D01*
X115561999Y-146510155D01*
X115555598Y-146450627D01*
X115555596Y-146450620D01*
X115505354Y-146315913D01*
X115505350Y-146315906D01*
X115419190Y-146200812D01*
X115419187Y-146200809D01*
X115304093Y-146114649D01*
X115304086Y-146114645D01*
X115169379Y-146064403D01*
X115169372Y-146064401D01*
X115109844Y-146058000D01*
X115069208Y-146058000D01*
X115002169Y-146038315D01*
X114956414Y-145985511D01*
X114946470Y-145916353D01*
X114975495Y-145852797D01*
X114998085Y-145832425D01*
X115055172Y-145792452D01*
X115114620Y-145750826D01*
X115270826Y-145594620D01*
X115397534Y-145413662D01*
X115490894Y-145213450D01*
X115548070Y-145000068D01*
X115567323Y-144780000D01*
X115548070Y-144559932D01*
X115490894Y-144346550D01*
X115397534Y-144146339D01*
X115270826Y-143965380D01*
X115114620Y-143809174D01*
X115114616Y-143809171D01*
X115114615Y-143809170D01*
X114933666Y-143682468D01*
X114933658Y-143682464D01*
X114804811Y-143622382D01*
X114752371Y-143576210D01*
X114733219Y-143509017D01*
X114753435Y-143442135D01*
X114804811Y-143397618D01*
X114830384Y-143385693D01*
X114933662Y-143337534D01*
X115114620Y-143210826D01*
X115270826Y-143054620D01*
X115397534Y-142873662D01*
X115490894Y-142673450D01*
X115548070Y-142460068D01*
X115567323Y-142240000D01*
X115548070Y-142019932D01*
X115490894Y-141806550D01*
X115397534Y-141606339D01*
X115270826Y-141425380D01*
X115114620Y-141269174D01*
X115114616Y-141269171D01*
X115114615Y-141269170D01*
X114933666Y-141142468D01*
X114933658Y-141142464D01*
X114804219Y-141082106D01*
X114751779Y-141035934D01*
X114732627Y-140968741D01*
X114746482Y-140922903D01*
X120695793Y-140922903D01*
X120705672Y-141230970D01*
X120705672Y-141230975D01*
X120705673Y-141230978D01*
X120754867Y-141535261D01*
X120799137Y-141684419D01*
X120842571Y-141830763D01*
X120967333Y-142112601D01*
X120967337Y-142112609D01*
X121127123Y-142376193D01*
X121127127Y-142376198D01*
X121127133Y-142376207D01*
X121319297Y-142617174D01*
X121319299Y-142617176D01*
X121319303Y-142617180D01*
X121319304Y-142617181D01*
X121540724Y-142831614D01*
X121707862Y-142956352D01*
X121787741Y-143015968D01*
X121787743Y-143015969D01*
X121787747Y-143015972D01*
X122056318Y-143167228D01*
X122181720Y-143217998D01*
X122342018Y-143282897D01*
X122342023Y-143282898D01*
X122342025Y-143282899D01*
X122640179Y-143361084D01*
X122945883Y-143400500D01*
X122945890Y-143400500D01*
X123176980Y-143400500D01*
X123275814Y-143394154D01*
X123407601Y-143385693D01*
X123710151Y-143326772D01*
X124002683Y-143229644D01*
X124002689Y-143229640D01*
X124002693Y-143229640D01*
X124193571Y-143137717D01*
X124280393Y-143095907D01*
X124538720Y-142927754D01*
X124773424Y-142727948D01*
X124980650Y-142499769D01*
X125156996Y-142246963D01*
X125299567Y-141973683D01*
X125406020Y-141684415D01*
X125474609Y-141383908D01*
X125504206Y-141077098D01*
X125499261Y-140922903D01*
X147295793Y-140922903D01*
X147305672Y-141230970D01*
X147305672Y-141230975D01*
X147305673Y-141230978D01*
X147354867Y-141535261D01*
X147399137Y-141684419D01*
X147442571Y-141830763D01*
X147567333Y-142112601D01*
X147567337Y-142112609D01*
X147727123Y-142376193D01*
X147727127Y-142376198D01*
X147727133Y-142376207D01*
X147919297Y-142617174D01*
X147919299Y-142617176D01*
X147919303Y-142617180D01*
X147919304Y-142617181D01*
X148140724Y-142831614D01*
X148307862Y-142956352D01*
X148387741Y-143015968D01*
X148387743Y-143015969D01*
X148387747Y-143015972D01*
X148656318Y-143167228D01*
X148781720Y-143217998D01*
X148942018Y-143282897D01*
X148942023Y-143282898D01*
X148942025Y-143282899D01*
X149240179Y-143361084D01*
X149545883Y-143400500D01*
X149545890Y-143400500D01*
X149776980Y-143400500D01*
X149875814Y-143394154D01*
X150007601Y-143385693D01*
X150310151Y-143326772D01*
X150602683Y-143229644D01*
X150602689Y-143229640D01*
X150602693Y-143229640D01*
X150793571Y-143137717D01*
X150880393Y-143095907D01*
X151138720Y-142927754D01*
X151373424Y-142727948D01*
X151580650Y-142499769D01*
X151756996Y-142246963D01*
X151899567Y-141973683D01*
X152006020Y-141684415D01*
X152074609Y-141383908D01*
X152104206Y-141077098D01*
X152094327Y-140769022D01*
X152045133Y-140464739D01*
X151957431Y-140169244D01*
X151957429Y-140169239D01*
X151957428Y-140169236D01*
X151832666Y-139887398D01*
X151832663Y-139887391D01*
X151672877Y-139623807D01*
X151672870Y-139623799D01*
X151672866Y-139623792D01*
X151480702Y-139382825D01*
X151480700Y-139382823D01*
X151414797Y-139319000D01*
X151259276Y-139168386D01*
X151098535Y-139048422D01*
X151012258Y-138984031D01*
X151012253Y-138984028D01*
X150743682Y-138832772D01*
X150706383Y-138817671D01*
X150457981Y-138717102D01*
X150290660Y-138673226D01*
X150159821Y-138638916D01*
X149854117Y-138599500D01*
X149623026Y-138599500D01*
X149623020Y-138599500D01*
X149392406Y-138614306D01*
X149392389Y-138614308D01*
X149089854Y-138673226D01*
X149089849Y-138673228D01*
X148797310Y-138770358D01*
X148797306Y-138770359D01*
X148519613Y-138904089D01*
X148519605Y-138904094D01*
X148261286Y-139072241D01*
X148261276Y-139072248D01*
X148026581Y-139272046D01*
X148026571Y-139272056D01*
X147819354Y-139500225D01*
X147819350Y-139500229D01*
X147643005Y-139753033D01*
X147643003Y-139753037D01*
X147500432Y-140026319D01*
X147500429Y-140026326D01*
X147393981Y-140315580D01*
X147393979Y-140315590D01*
X147325391Y-140616089D01*
X147295794Y-140922902D01*
X147295793Y-140922903D01*
X125499261Y-140922903D01*
X125494327Y-140769022D01*
X125445133Y-140464739D01*
X125357431Y-140169244D01*
X125357429Y-140169239D01*
X125357428Y-140169236D01*
X125232666Y-139887398D01*
X125232663Y-139887391D01*
X125072877Y-139623807D01*
X125072870Y-139623799D01*
X125072866Y-139623792D01*
X124880702Y-139382825D01*
X124880700Y-139382823D01*
X124814797Y-139319000D01*
X124659276Y-139168386D01*
X124498535Y-139048422D01*
X124412258Y-138984031D01*
X124412253Y-138984028D01*
X124143682Y-138832772D01*
X124106383Y-138817671D01*
X123857981Y-138717102D01*
X123690660Y-138673226D01*
X123559821Y-138638916D01*
X123254117Y-138599500D01*
X123023026Y-138599500D01*
X123023020Y-138599500D01*
X122792406Y-138614306D01*
X122792389Y-138614308D01*
X122489854Y-138673226D01*
X122489849Y-138673228D01*
X122197310Y-138770358D01*
X122197306Y-138770359D01*
X121919613Y-138904089D01*
X121919605Y-138904094D01*
X121661286Y-139072241D01*
X121661276Y-139072248D01*
X121426581Y-139272046D01*
X121426571Y-139272056D01*
X121219354Y-139500225D01*
X121219350Y-139500229D01*
X121043005Y-139753033D01*
X121043003Y-139753037D01*
X120900432Y-140026319D01*
X120900429Y-140026326D01*
X120793981Y-140315580D01*
X120793979Y-140315590D01*
X120725391Y-140616089D01*
X120695794Y-140922902D01*
X120695793Y-140922903D01*
X114746482Y-140922903D01*
X114752843Y-140901859D01*
X114804219Y-140857342D01*
X114933408Y-140797100D01*
X114933420Y-140797093D01*
X114998186Y-140751742D01*
X114998187Y-140751741D01*
X114327446Y-140081000D01*
X114331569Y-140081000D01*
X114425421Y-140065339D01*
X114537251Y-140004820D01*
X114623371Y-139911269D01*
X114674448Y-139794823D01*
X114680105Y-139726552D01*
X115351740Y-140398187D01*
X115351742Y-140398186D01*
X115397093Y-140333420D01*
X115397100Y-140333408D01*
X115490419Y-140133284D01*
X115490424Y-140133270D01*
X115547573Y-139919986D01*
X115547575Y-139919976D01*
X115566821Y-139700000D01*
X115566821Y-139699999D01*
X115547575Y-139480023D01*
X115547573Y-139480013D01*
X115490424Y-139266729D01*
X115490420Y-139266720D01*
X115397098Y-139066590D01*
X115351740Y-139001811D01*
X114684903Y-139668648D01*
X114684949Y-139668102D01*
X114653734Y-139544838D01*
X114584187Y-139438388D01*
X114483843Y-139360287D01*
X114363578Y-139319000D01*
X114327447Y-139319000D01*
X114998187Y-138648258D01*
X114933409Y-138602900D01*
X114933407Y-138602899D01*
X114733284Y-138509580D01*
X114733270Y-138509575D01*
X114519986Y-138452426D01*
X114519976Y-138452424D01*
X114300001Y-138433179D01*
X114299999Y-138433179D01*
X114080023Y-138452424D01*
X114080010Y-138452427D01*
X114039624Y-138463248D01*
X113969774Y-138461585D01*
X113911912Y-138422421D01*
X113884409Y-138358193D01*
X113895996Y-138289290D01*
X113909918Y-138267004D01*
X113926793Y-138245465D01*
X113931737Y-138239884D01*
X114139884Y-138031737D01*
X114145465Y-138026793D01*
X114377186Y-137845252D01*
X114383334Y-137841010D01*
X114635215Y-137688742D01*
X114641834Y-137685268D01*
X114910248Y-137564465D01*
X114917230Y-137561816D01*
X115198250Y-137474246D01*
X115205516Y-137472456D01*
X115495026Y-137419401D01*
X115502458Y-137418497D01*
X115727572Y-137404880D01*
X115798134Y-137400613D01*
X115801878Y-137400500D01*
X128571966Y-137400500D01*
X128571969Y-137400500D01*
X128914250Y-137366789D01*
X129251578Y-137299690D01*
X129580705Y-137199850D01*
X129898462Y-137068231D01*
X130201787Y-136906100D01*
X130487760Y-136715019D01*
X130753627Y-136496828D01*
X130996828Y-136253627D01*
X131215019Y-135987760D01*
X131406100Y-135701787D01*
X131568231Y-135398462D01*
X131699850Y-135080705D01*
X131799690Y-134751578D01*
X131825862Y-134620005D01*
X138194357Y-134620005D01*
X138214890Y-134867812D01*
X138214892Y-134867824D01*
X138275936Y-135108881D01*
X138375826Y-135336606D01*
X138511833Y-135544782D01*
X138511836Y-135544785D01*
X138680256Y-135727738D01*
X138876491Y-135880474D01*
X138876493Y-135880475D01*
X139074721Y-135987751D01*
X139095190Y-135998828D01*
X139330386Y-136079571D01*
X139575665Y-136120500D01*
X139824335Y-136120500D01*
X140069608Y-136079572D01*
X140069607Y-136079572D01*
X140069614Y-136079571D01*
X140175607Y-136043182D01*
X140245402Y-136040033D01*
X140303548Y-136072783D01*
X140924669Y-136693904D01*
X140930020Y-136700005D01*
X140951718Y-136728282D01*
X141048131Y-136802262D01*
X141077159Y-136824536D01*
X141077162Y-136824537D01*
X141077163Y-136824538D01*
X141150198Y-136854790D01*
X141223238Y-136885044D01*
X141290506Y-136893900D01*
X141379999Y-136905682D01*
X141380000Y-136905682D01*
X141415329Y-136901030D01*
X141423428Y-136900500D01*
X141617588Y-136900500D01*
X141684627Y-136920185D01*
X141694903Y-136927555D01*
X141697736Y-136929814D01*
X141697738Y-136929816D01*
X141850478Y-137025789D01*
X142019639Y-137084981D01*
X142020745Y-137085368D01*
X142020750Y-137085369D01*
X142199996Y-137105565D01*
X142200000Y-137105565D01*
X142200004Y-137105565D01*
X142379249Y-137085369D01*
X142379252Y-137085368D01*
X142379255Y-137085368D01*
X142549522Y-137025789D01*
X142702262Y-136929816D01*
X142829816Y-136802262D01*
X142925789Y-136649522D01*
X142985368Y-136479255D01*
X142994354Y-136399500D01*
X143005565Y-136300003D01*
X143005565Y-136299996D01*
X142985369Y-136120753D01*
X142985368Y-136120746D01*
X142985282Y-136120500D01*
X142962014Y-136054006D01*
X142958452Y-135984230D01*
X142993181Y-135923602D01*
X143020035Y-135904000D01*
X143063509Y-135880474D01*
X143259744Y-135727738D01*
X143418771Y-135554988D01*
X143478657Y-135518999D01*
X143548495Y-135521099D01*
X143601228Y-135554988D01*
X143760256Y-135727738D01*
X143956491Y-135880474D01*
X143956493Y-135880475D01*
X144154721Y-135987751D01*
X144175190Y-135998828D01*
X144410386Y-136079571D01*
X144655665Y-136120500D01*
X144904335Y-136120500D01*
X145149614Y-136079571D01*
X145384810Y-135998828D01*
X145603509Y-135880474D01*
X145799744Y-135727738D01*
X145968164Y-135544785D01*
X146033854Y-135444237D01*
X146087000Y-135398881D01*
X146151546Y-135388839D01*
X146299996Y-135405565D01*
X146300000Y-135405565D01*
X146300004Y-135405565D01*
X146479249Y-135385369D01*
X146479252Y-135385368D01*
X146479255Y-135385368D01*
X146649522Y-135325789D01*
X146802262Y-135229816D01*
X146929816Y-135102262D01*
X147025789Y-134949522D01*
X147085368Y-134779255D01*
X147085369Y-134779249D01*
X147105565Y-134600003D01*
X147105565Y-134599996D01*
X147085369Y-134420750D01*
X147085368Y-134420745D01*
X147025788Y-134250476D01*
X146986582Y-134188080D01*
X146929816Y-134097738D01*
X146802262Y-133970184D01*
X146649523Y-133874211D01*
X146479254Y-133814631D01*
X146479249Y-133814630D01*
X146300004Y-133794435D01*
X146299996Y-133794435D01*
X146127205Y-133813903D01*
X146058383Y-133801848D01*
X146009513Y-133758504D01*
X145968166Y-133695217D01*
X145946557Y-133671744D01*
X145799744Y-133512262D01*
X145716991Y-133447852D01*
X145676179Y-133391143D01*
X145672504Y-133321370D01*
X145707136Y-133260687D01*
X145716985Y-133252151D01*
X145799744Y-133187738D01*
X145968164Y-133004785D01*
X146070366Y-132848351D01*
X146123512Y-132802995D01*
X146188058Y-132792953D01*
X146299996Y-132805565D01*
X146300000Y-132805565D01*
X146300004Y-132805565D01*
X146479249Y-132785369D01*
X146479252Y-132785368D01*
X146479255Y-132785368D01*
X146649522Y-132725789D01*
X146802262Y-132629816D01*
X146929816Y-132502262D01*
X147025789Y-132349522D01*
X147085368Y-132179255D01*
X147085416Y-132178830D01*
X147105565Y-132000003D01*
X147105565Y-131999996D01*
X147085369Y-131820750D01*
X147085368Y-131820745D01*
X147070848Y-131779249D01*
X147025789Y-131650478D01*
X146929816Y-131497738D01*
X146802262Y-131370184D01*
X146791454Y-131363393D01*
X146649523Y-131274211D01*
X146479254Y-131214631D01*
X146479249Y-131214630D01*
X146300004Y-131194435D01*
X146299996Y-131194435D01*
X146120746Y-131214631D01*
X146119795Y-131214964D01*
X146119142Y-131214997D01*
X146113956Y-131216181D01*
X146113748Y-131215272D01*
X146050016Y-131218520D01*
X145989391Y-131183787D01*
X145975038Y-131165737D01*
X145968165Y-131155216D01*
X145956620Y-131142675D01*
X145799744Y-130972262D01*
X145603509Y-130819526D01*
X145603507Y-130819525D01*
X145603506Y-130819524D01*
X145384811Y-130701172D01*
X145384802Y-130701169D01*
X145149616Y-130620429D01*
X144904335Y-130579500D01*
X144655665Y-130579500D01*
X144655662Y-130579500D01*
X144644094Y-130581430D01*
X144574729Y-130573046D01*
X144520908Y-130528492D01*
X144499719Y-130461913D01*
X144500468Y-130445237D01*
X144505565Y-130400002D01*
X144505565Y-130399996D01*
X144485369Y-130220750D01*
X144485368Y-130220745D01*
X144425788Y-130050476D01*
X144329815Y-129897737D01*
X144202262Y-129770184D01*
X144049523Y-129674211D01*
X143879254Y-129614631D01*
X143879249Y-129614630D01*
X143700004Y-129594435D01*
X143699996Y-129594435D01*
X143520750Y-129614630D01*
X143520745Y-129614631D01*
X143440983Y-129642542D01*
X143400028Y-129649500D01*
X141443705Y-129649500D01*
X141425735Y-129648191D01*
X141401972Y-129644710D01*
X141356533Y-129648686D01*
X141349931Y-129649264D01*
X141344530Y-129649500D01*
X141336289Y-129649500D01*
X141314579Y-129652037D01*
X141303724Y-129653306D01*
X141288419Y-129654645D01*
X141227199Y-129660001D01*
X141220132Y-129661460D01*
X141220120Y-129661404D01*
X141212763Y-129663035D01*
X141212777Y-129663092D01*
X141205743Y-129664759D01*
X141133575Y-129691025D01*
X141060675Y-129715181D01*
X141054126Y-129718236D01*
X141054101Y-129718183D01*
X141047308Y-129721471D01*
X141047334Y-129721523D01*
X141040880Y-129724764D01*
X140976708Y-129766971D01*
X140911347Y-129807285D01*
X140905683Y-129811765D01*
X140905647Y-129811719D01*
X140899798Y-129816484D01*
X140899835Y-129816528D01*
X140894310Y-129821164D01*
X140841598Y-129877034D01*
X140139248Y-130579383D01*
X140077925Y-130612868D01*
X140031158Y-130614011D01*
X139824335Y-130579500D01*
X139575665Y-130579500D01*
X139330383Y-130620429D01*
X139095197Y-130701169D01*
X139095188Y-130701172D01*
X138876493Y-130819524D01*
X138680257Y-130972261D01*
X138511833Y-131155217D01*
X138375826Y-131363393D01*
X138275936Y-131591118D01*
X138214892Y-131832175D01*
X138214890Y-131832187D01*
X138194357Y-132079994D01*
X138194357Y-132080005D01*
X138214890Y-132327812D01*
X138214892Y-132327824D01*
X138275936Y-132568881D01*
X138375826Y-132796606D01*
X138511833Y-133004782D01*
X138511836Y-133004785D01*
X138680256Y-133187738D01*
X138763008Y-133252147D01*
X138803821Y-133308857D01*
X138807496Y-133378630D01*
X138772864Y-133439313D01*
X138763014Y-133447848D01*
X138704400Y-133493469D01*
X138680257Y-133512261D01*
X138511833Y-133695217D01*
X138375826Y-133903393D01*
X138275936Y-134131118D01*
X138214892Y-134372175D01*
X138214890Y-134372187D01*
X138194357Y-134619994D01*
X138194357Y-134620005D01*
X131825862Y-134620005D01*
X131866789Y-134414250D01*
X131900500Y-134071969D01*
X131900500Y-133900000D01*
X131900500Y-133834108D01*
X131900500Y-129540000D01*
X154644341Y-129540000D01*
X154664936Y-129775403D01*
X154664938Y-129775413D01*
X154726094Y-130003655D01*
X154726096Y-130003659D01*
X154726097Y-130003663D01*
X154812992Y-130190009D01*
X154825965Y-130217830D01*
X154825967Y-130217834D01*
X154934281Y-130372521D01*
X154961505Y-130411401D01*
X155128599Y-130578495D01*
X155171675Y-130608657D01*
X155322165Y-130714032D01*
X155322167Y-130714033D01*
X155322170Y-130714035D01*
X155536337Y-130813903D01*
X155536343Y-130813904D01*
X155536344Y-130813905D01*
X155563998Y-130821314D01*
X155737166Y-130867714D01*
X155796824Y-130904077D01*
X155827354Y-130966924D01*
X155819060Y-131036300D01*
X155792754Y-131075168D01*
X155770183Y-131097739D01*
X155674211Y-131250476D01*
X155614631Y-131420745D01*
X155614630Y-131420750D01*
X155594435Y-131599996D01*
X155594435Y-131600003D01*
X155614630Y-131779249D01*
X155614631Y-131779254D01*
X155674211Y-131949523D01*
X155705926Y-131999996D01*
X155770184Y-132102262D01*
X155897738Y-132229816D01*
X155897740Y-132229817D01*
X156050474Y-132325787D01*
X156050478Y-132325789D01*
X156118306Y-132349523D01*
X156220745Y-132385368D01*
X156220750Y-132385369D01*
X156399996Y-132405565D01*
X156400000Y-132405565D01*
X156400004Y-132405565D01*
X156579249Y-132385369D01*
X156579252Y-132385368D01*
X156579255Y-132385368D01*
X156749522Y-132325789D01*
X156749524Y-132325787D01*
X156749526Y-132325787D01*
X156902260Y-132229817D01*
X156902263Y-132229815D01*
X156914159Y-132217918D01*
X156936749Y-132200055D01*
X156948656Y-132192712D01*
X156948660Y-132192707D01*
X156954324Y-132188230D01*
X156954362Y-132188278D01*
X156960200Y-132183522D01*
X156960161Y-132183475D01*
X156965696Y-132178830D01*
X157018385Y-132122983D01*
X158214549Y-130926818D01*
X158275872Y-130893333D01*
X158302230Y-130890499D01*
X159190002Y-130890499D01*
X159190008Y-130890499D01*
X159292797Y-130879999D01*
X159459334Y-130824814D01*
X159608656Y-130732712D01*
X159732712Y-130608656D01*
X159824814Y-130459334D01*
X159879999Y-130292797D01*
X159890500Y-130190009D01*
X159890499Y-128889992D01*
X159879999Y-128787203D01*
X159824814Y-128620666D01*
X159732712Y-128471344D01*
X159608656Y-128347288D01*
X159459334Y-128255186D01*
X159450733Y-128252336D01*
X159393290Y-128212564D01*
X159366467Y-128148048D01*
X159378782Y-128079272D01*
X159407767Y-128042517D01*
X159407573Y-128042323D01*
X159409219Y-128040676D01*
X159410040Y-128039636D01*
X159411388Y-128038504D01*
X159411401Y-128038495D01*
X159578495Y-127871401D01*
X159714035Y-127677830D01*
X159813903Y-127463663D01*
X159875063Y-127235408D01*
X159895659Y-127000000D01*
X159875063Y-126764592D01*
X159813903Y-126536337D01*
X159714035Y-126322171D01*
X159708731Y-126314595D01*
X159578494Y-126128597D01*
X159411402Y-125961506D01*
X159411396Y-125961501D01*
X159225842Y-125831575D01*
X159182217Y-125776998D01*
X159175023Y-125707500D01*
X159206546Y-125645145D01*
X159225842Y-125628425D01*
X159302248Y-125574925D01*
X159411401Y-125498495D01*
X159578495Y-125331401D01*
X159714035Y-125137830D01*
X159813903Y-124923663D01*
X159875063Y-124695408D01*
X159895659Y-124460000D01*
X159875063Y-124224592D01*
X159813903Y-123996337D01*
X159714035Y-123782171D01*
X159708731Y-123774595D01*
X159578494Y-123588597D01*
X159411402Y-123421506D01*
X159411396Y-123421501D01*
X159225842Y-123291575D01*
X159182217Y-123236998D01*
X159175023Y-123167500D01*
X159206546Y-123105145D01*
X159225842Y-123088425D01*
X159302248Y-123034925D01*
X159411401Y-122958495D01*
X159578495Y-122791401D01*
X159714035Y-122597830D01*
X159813903Y-122383663D01*
X159875063Y-122155408D01*
X159895659Y-121920000D01*
X159875063Y-121684592D01*
X159813903Y-121456337D01*
X159714035Y-121242171D01*
X159708731Y-121234595D01*
X159578494Y-121048597D01*
X159411402Y-120881506D01*
X159411396Y-120881501D01*
X159225842Y-120751575D01*
X159182217Y-120696998D01*
X159175023Y-120627500D01*
X159206546Y-120565145D01*
X159225842Y-120548425D01*
X159302248Y-120494925D01*
X159411401Y-120418495D01*
X159578495Y-120251401D01*
X159714035Y-120057830D01*
X159813903Y-119843663D01*
X159875063Y-119615408D01*
X159895659Y-119380000D01*
X159875063Y-119144592D01*
X159813903Y-118916337D01*
X159714035Y-118702171D01*
X159708731Y-118694595D01*
X159578494Y-118508597D01*
X159411402Y-118341506D01*
X159411396Y-118341501D01*
X159225842Y-118211575D01*
X159182217Y-118156998D01*
X159175023Y-118087500D01*
X159206546Y-118025145D01*
X159225842Y-118008425D01*
X159302248Y-117954925D01*
X159411401Y-117878495D01*
X159578495Y-117711401D01*
X159714035Y-117517830D01*
X159813903Y-117303663D01*
X159875063Y-117075408D01*
X159895659Y-116840000D01*
X159875063Y-116604592D01*
X159813903Y-116376337D01*
X159714035Y-116162171D01*
X159708731Y-116154595D01*
X159578494Y-115968597D01*
X159411402Y-115801506D01*
X159411396Y-115801501D01*
X159225842Y-115671575D01*
X159182217Y-115616998D01*
X159175023Y-115547500D01*
X159206546Y-115485145D01*
X159225842Y-115468425D01*
X159248026Y-115452891D01*
X159411401Y-115338495D01*
X159578495Y-115171401D01*
X159714035Y-114977830D01*
X159813903Y-114763663D01*
X159875063Y-114535408D01*
X159895659Y-114300000D01*
X159875063Y-114064592D01*
X159813903Y-113836337D01*
X159714035Y-113622171D01*
X159708425Y-113614158D01*
X159578494Y-113428597D01*
X159411402Y-113261506D01*
X159411396Y-113261501D01*
X159225842Y-113131575D01*
X159182217Y-113076998D01*
X159175023Y-113007500D01*
X159206546Y-112945145D01*
X159225842Y-112928425D01*
X159248026Y-112912891D01*
X159411401Y-112798495D01*
X159578495Y-112631401D01*
X159714035Y-112437830D01*
X159813903Y-112223663D01*
X159875063Y-111995408D01*
X159895659Y-111760000D01*
X159875063Y-111524592D01*
X159813903Y-111296337D01*
X159714035Y-111082171D01*
X159708425Y-111074158D01*
X159578494Y-110888597D01*
X159411402Y-110721506D01*
X159411396Y-110721501D01*
X159225842Y-110591575D01*
X159182217Y-110536998D01*
X159175023Y-110467500D01*
X159206546Y-110405145D01*
X159225842Y-110388425D01*
X159248026Y-110372891D01*
X159411401Y-110258495D01*
X159578495Y-110091401D01*
X159714035Y-109897830D01*
X159813903Y-109683663D01*
X159875063Y-109455408D01*
X159895659Y-109220000D01*
X159875063Y-108984592D01*
X159813903Y-108756337D01*
X159714035Y-108542171D01*
X159708425Y-108534158D01*
X159578494Y-108348597D01*
X159411402Y-108181506D01*
X159411396Y-108181501D01*
X159225842Y-108051575D01*
X159182217Y-107996998D01*
X159175023Y-107927500D01*
X159206546Y-107865145D01*
X159225842Y-107848425D01*
X159248026Y-107832891D01*
X159411401Y-107718495D01*
X159578495Y-107551401D01*
X159714035Y-107357830D01*
X159813903Y-107143663D01*
X159875063Y-106915408D01*
X159895659Y-106680000D01*
X159875063Y-106444592D01*
X159813903Y-106216337D01*
X159714035Y-106002171D01*
X159708425Y-105994158D01*
X159578494Y-105808597D01*
X159411402Y-105641506D01*
X159411395Y-105641501D01*
X159217834Y-105505967D01*
X159217830Y-105505965D01*
X159217828Y-105505964D01*
X159003663Y-105406097D01*
X159003659Y-105406096D01*
X159003655Y-105406094D01*
X158775413Y-105344938D01*
X158775403Y-105344936D01*
X158540001Y-105324341D01*
X158539999Y-105324341D01*
X158304596Y-105344936D01*
X158304586Y-105344938D01*
X158076344Y-105406094D01*
X158076335Y-105406098D01*
X157862171Y-105505964D01*
X157862169Y-105505965D01*
X157668597Y-105641505D01*
X157501505Y-105808597D01*
X157371575Y-105994158D01*
X157316998Y-106037783D01*
X157247500Y-106044977D01*
X157185145Y-106013454D01*
X157168425Y-105994158D01*
X157038494Y-105808597D01*
X156871402Y-105641506D01*
X156871395Y-105641501D01*
X156677834Y-105505967D01*
X156677830Y-105505965D01*
X156677828Y-105505964D01*
X156463663Y-105406097D01*
X156463659Y-105406096D01*
X156463655Y-105406094D01*
X156235413Y-105344938D01*
X156235403Y-105344936D01*
X156000001Y-105324341D01*
X155999999Y-105324341D01*
X155764596Y-105344936D01*
X155764586Y-105344938D01*
X155536344Y-105406094D01*
X155536335Y-105406098D01*
X155322171Y-105505964D01*
X155322169Y-105505965D01*
X155128597Y-105641505D01*
X154961505Y-105808597D01*
X154825965Y-106002169D01*
X154825964Y-106002171D01*
X154726098Y-106216335D01*
X154726094Y-106216344D01*
X154664938Y-106444586D01*
X154664936Y-106444596D01*
X154644341Y-106679999D01*
X154644341Y-106680000D01*
X154664936Y-106915403D01*
X154664938Y-106915413D01*
X154726094Y-107143655D01*
X154726096Y-107143659D01*
X154726097Y-107143663D01*
X154730000Y-107152032D01*
X154825965Y-107357830D01*
X154825967Y-107357834D01*
X154934281Y-107512521D01*
X154961501Y-107551396D01*
X154961506Y-107551402D01*
X155128597Y-107718493D01*
X155128603Y-107718498D01*
X155314158Y-107848425D01*
X155357783Y-107903002D01*
X155364977Y-107972500D01*
X155333454Y-108034855D01*
X155314158Y-108051575D01*
X155128597Y-108181505D01*
X154961505Y-108348597D01*
X154825965Y-108542169D01*
X154825964Y-108542171D01*
X154726098Y-108756335D01*
X154726094Y-108756344D01*
X154664938Y-108984586D01*
X154664936Y-108984596D01*
X154644341Y-109219999D01*
X154644341Y-109220000D01*
X154664936Y-109455403D01*
X154664938Y-109455413D01*
X154726094Y-109683655D01*
X154726096Y-109683659D01*
X154726097Y-109683663D01*
X154730000Y-109692032D01*
X154825965Y-109897830D01*
X154825967Y-109897834D01*
X154934281Y-110052521D01*
X154961501Y-110091396D01*
X154961506Y-110091402D01*
X155128597Y-110258493D01*
X155128603Y-110258498D01*
X155314158Y-110388425D01*
X155357783Y-110443002D01*
X155364977Y-110512500D01*
X155333454Y-110574855D01*
X155314158Y-110591575D01*
X155128597Y-110721505D01*
X154961505Y-110888597D01*
X154825965Y-111082169D01*
X154825964Y-111082171D01*
X154726098Y-111296335D01*
X154726094Y-111296344D01*
X154664938Y-111524586D01*
X154664936Y-111524596D01*
X154644341Y-111759999D01*
X154644341Y-111760000D01*
X154664936Y-111995403D01*
X154664938Y-111995413D01*
X154726094Y-112223655D01*
X154726096Y-112223659D01*
X154726097Y-112223663D01*
X154730000Y-112232032D01*
X154825965Y-112437830D01*
X154825967Y-112437834D01*
X154934281Y-112592521D01*
X154961501Y-112631396D01*
X154961506Y-112631402D01*
X155128597Y-112798493D01*
X155128603Y-112798498D01*
X155314158Y-112928425D01*
X155357783Y-112983002D01*
X155364977Y-113052500D01*
X155333454Y-113114855D01*
X155314158Y-113131575D01*
X155128597Y-113261505D01*
X154961505Y-113428597D01*
X154825965Y-113622169D01*
X154825964Y-113622171D01*
X154726098Y-113836335D01*
X154726094Y-113836344D01*
X154664938Y-114064586D01*
X154664936Y-114064596D01*
X154644341Y-114299999D01*
X154644341Y-114300000D01*
X154664936Y-114535403D01*
X154664938Y-114535413D01*
X154726094Y-114763655D01*
X154726096Y-114763659D01*
X154726097Y-114763663D01*
X154730000Y-114772032D01*
X154825965Y-114977830D01*
X154825967Y-114977834D01*
X154934281Y-115132521D01*
X154961505Y-115171401D01*
X155128599Y-115338495D01*
X155314158Y-115468425D01*
X155314594Y-115468730D01*
X155358218Y-115523307D01*
X155365411Y-115592806D01*
X155333889Y-115655160D01*
X155314593Y-115671880D01*
X155238626Y-115725072D01*
X155238625Y-115725072D01*
X155867466Y-116353913D01*
X155857685Y-116355320D01*
X155726900Y-116415048D01*
X155618239Y-116509202D01*
X155540507Y-116630156D01*
X155516923Y-116710476D01*
X154885072Y-116078625D01*
X154826401Y-116162419D01*
X154726570Y-116376507D01*
X154726566Y-116376516D01*
X154665432Y-116604673D01*
X154665430Y-116604684D01*
X154644843Y-116839998D01*
X154644843Y-116840001D01*
X154665430Y-117075315D01*
X154665432Y-117075326D01*
X154726566Y-117303483D01*
X154726570Y-117303492D01*
X154826400Y-117517579D01*
X154826402Y-117517583D01*
X154885072Y-117601373D01*
X154885073Y-117601373D01*
X155516923Y-116969523D01*
X155540507Y-117049844D01*
X155618239Y-117170798D01*
X155726900Y-117264952D01*
X155857685Y-117324680D01*
X155867466Y-117326086D01*
X155238625Y-117954925D01*
X155315031Y-118008425D01*
X155358655Y-118063002D01*
X155365848Y-118132501D01*
X155334326Y-118194855D01*
X155315029Y-118211576D01*
X155238625Y-118265072D01*
X155867466Y-118893913D01*
X155857685Y-118895320D01*
X155726900Y-118955048D01*
X155618239Y-119049202D01*
X155540507Y-119170156D01*
X155516923Y-119250476D01*
X154885072Y-118618625D01*
X154826401Y-118702419D01*
X154726570Y-118916507D01*
X154726566Y-118916516D01*
X154665432Y-119144673D01*
X154665430Y-119144684D01*
X154644843Y-119379998D01*
X154644843Y-119380001D01*
X154665430Y-119615315D01*
X154665432Y-119615326D01*
X154726566Y-119843483D01*
X154726570Y-119843492D01*
X154826400Y-120057579D01*
X154826402Y-120057583D01*
X154885072Y-120141373D01*
X154885073Y-120141373D01*
X155516923Y-119509523D01*
X155540507Y-119589844D01*
X155618239Y-119710798D01*
X155726900Y-119804952D01*
X155857685Y-119864680D01*
X155867466Y-119866086D01*
X155238625Y-120494925D01*
X155315031Y-120548425D01*
X155358655Y-120603002D01*
X155365848Y-120672501D01*
X155334326Y-120734855D01*
X155315029Y-120751576D01*
X155238625Y-120805072D01*
X155867466Y-121433913D01*
X155857685Y-121435320D01*
X155726900Y-121495048D01*
X155618239Y-121589202D01*
X155540507Y-121710156D01*
X155516923Y-121790476D01*
X154885072Y-121158625D01*
X154826401Y-121242419D01*
X154726570Y-121456507D01*
X154726566Y-121456516D01*
X154665432Y-121684673D01*
X154665430Y-121684684D01*
X154644843Y-121919998D01*
X154644843Y-121920001D01*
X154665430Y-122155315D01*
X154665432Y-122155326D01*
X154726566Y-122383483D01*
X154726570Y-122383492D01*
X154826400Y-122597579D01*
X154826402Y-122597583D01*
X154885072Y-122681373D01*
X154885073Y-122681373D01*
X155516923Y-122049523D01*
X155540507Y-122129844D01*
X155618239Y-122250798D01*
X155726900Y-122344952D01*
X155857685Y-122404680D01*
X155867466Y-122406086D01*
X155238625Y-123034925D01*
X155315031Y-123088425D01*
X155358655Y-123143002D01*
X155365848Y-123212501D01*
X155334326Y-123274855D01*
X155315029Y-123291576D01*
X155238625Y-123345072D01*
X155867466Y-123973913D01*
X155857685Y-123975320D01*
X155726900Y-124035048D01*
X155618239Y-124129202D01*
X155540507Y-124250156D01*
X155516923Y-124330476D01*
X154885072Y-123698625D01*
X154826401Y-123782419D01*
X154726570Y-123996507D01*
X154726566Y-123996516D01*
X154665432Y-124224673D01*
X154665430Y-124224684D01*
X154644843Y-124459998D01*
X154644843Y-124460001D01*
X154665430Y-124695315D01*
X154665432Y-124695326D01*
X154726566Y-124923483D01*
X154726570Y-124923492D01*
X154826400Y-125137579D01*
X154826402Y-125137583D01*
X154885072Y-125221373D01*
X154885073Y-125221373D01*
X155516923Y-124589523D01*
X155540507Y-124669844D01*
X155618239Y-124790798D01*
X155726900Y-124884952D01*
X155857685Y-124944680D01*
X155867466Y-124946086D01*
X155238625Y-125574925D01*
X155315031Y-125628425D01*
X155358655Y-125683002D01*
X155365848Y-125752501D01*
X155334326Y-125814855D01*
X155315029Y-125831576D01*
X155238625Y-125885072D01*
X155867466Y-126513913D01*
X155857685Y-126515320D01*
X155726900Y-126575048D01*
X155618239Y-126669202D01*
X155540507Y-126790156D01*
X155516923Y-126870476D01*
X154885072Y-126238625D01*
X154826401Y-126322419D01*
X154726570Y-126536507D01*
X154726566Y-126536516D01*
X154665432Y-126764673D01*
X154665430Y-126764684D01*
X154644843Y-126999998D01*
X154644843Y-127000001D01*
X154665430Y-127235315D01*
X154665432Y-127235326D01*
X154726566Y-127463483D01*
X154726570Y-127463492D01*
X154826400Y-127677579D01*
X154826402Y-127677583D01*
X154885072Y-127761373D01*
X154885073Y-127761373D01*
X155516923Y-127129523D01*
X155540507Y-127209844D01*
X155618239Y-127330798D01*
X155726900Y-127424952D01*
X155857685Y-127484680D01*
X155867466Y-127486086D01*
X155238625Y-128114925D01*
X155314594Y-128168119D01*
X155358219Y-128222696D01*
X155365413Y-128292194D01*
X155333890Y-128354549D01*
X155314595Y-128371269D01*
X155128594Y-128501508D01*
X154961505Y-128668597D01*
X154825965Y-128862169D01*
X154825964Y-128862171D01*
X154726098Y-129076335D01*
X154726094Y-129076344D01*
X154664938Y-129304586D01*
X154664936Y-129304596D01*
X154644341Y-129539999D01*
X154644341Y-129540000D01*
X131900500Y-129540000D01*
X131900500Y-125357870D01*
X145109500Y-125357870D01*
X145109501Y-125357876D01*
X145115908Y-125417483D01*
X145166202Y-125552328D01*
X145166206Y-125552335D01*
X145252452Y-125667544D01*
X145252455Y-125667547D01*
X145367664Y-125753793D01*
X145367671Y-125753797D01*
X145502517Y-125804091D01*
X145502516Y-125804091D01*
X145509444Y-125804835D01*
X145562127Y-125810500D01*
X147357872Y-125810499D01*
X147417483Y-125804091D01*
X147552331Y-125753796D01*
X147667546Y-125667546D01*
X147753796Y-125552331D01*
X147802810Y-125420916D01*
X147844681Y-125364984D01*
X147910145Y-125340566D01*
X147978418Y-125355417D01*
X148006673Y-125376569D01*
X148128599Y-125498495D01*
X148225384Y-125566265D01*
X148322165Y-125634032D01*
X148322167Y-125634033D01*
X148322170Y-125634035D01*
X148536337Y-125733903D01*
X148764592Y-125795063D01*
X148941034Y-125810500D01*
X148999999Y-125815659D01*
X149000000Y-125815659D01*
X149000001Y-125815659D01*
X149058966Y-125810500D01*
X149235408Y-125795063D01*
X149463663Y-125733903D01*
X149677830Y-125634035D01*
X149871401Y-125498495D01*
X150038495Y-125331401D01*
X150174035Y-125137830D01*
X150273903Y-124923663D01*
X150335063Y-124695408D01*
X150355659Y-124460000D01*
X150335063Y-124224592D01*
X150273903Y-123996337D01*
X150174035Y-123782171D01*
X150168731Y-123774595D01*
X150038494Y-123588597D01*
X149871402Y-123421506D01*
X149871395Y-123421501D01*
X149677834Y-123285967D01*
X149677830Y-123285965D01*
X149677828Y-123285964D01*
X149463663Y-123186097D01*
X149463659Y-123186096D01*
X149463655Y-123186094D01*
X149235413Y-123124938D01*
X149235403Y-123124936D01*
X149000001Y-123104341D01*
X148999999Y-123104341D01*
X148764596Y-123124936D01*
X148764586Y-123124938D01*
X148536344Y-123186094D01*
X148536335Y-123186098D01*
X148322171Y-123285964D01*
X148322169Y-123285965D01*
X148128600Y-123421503D01*
X148006673Y-123543430D01*
X147945350Y-123576914D01*
X147875658Y-123571930D01*
X147819725Y-123530058D01*
X147802810Y-123499081D01*
X147753797Y-123367671D01*
X147753793Y-123367664D01*
X147667547Y-123252455D01*
X147667544Y-123252452D01*
X147552335Y-123166206D01*
X147552328Y-123166202D01*
X147417482Y-123115908D01*
X147417483Y-123115908D01*
X147357883Y-123109501D01*
X147357881Y-123109500D01*
X147357873Y-123109500D01*
X147357864Y-123109500D01*
X145562129Y-123109500D01*
X145562123Y-123109501D01*
X145502516Y-123115908D01*
X145367671Y-123166202D01*
X145367664Y-123166206D01*
X145252455Y-123252452D01*
X145252452Y-123252455D01*
X145166206Y-123367664D01*
X145166202Y-123367671D01*
X145115908Y-123502517D01*
X145109501Y-123562116D01*
X145109500Y-123562135D01*
X145109500Y-125357870D01*
X131900500Y-125357870D01*
X131900500Y-110117870D01*
X145109500Y-110117870D01*
X145109501Y-110117876D01*
X145115908Y-110177483D01*
X145166202Y-110312328D01*
X145166206Y-110312335D01*
X145252452Y-110427544D01*
X145252455Y-110427547D01*
X145367664Y-110513793D01*
X145367671Y-110513797D01*
X145502517Y-110564091D01*
X145502516Y-110564091D01*
X145509444Y-110564835D01*
X145562127Y-110570500D01*
X147357872Y-110570499D01*
X147417483Y-110564091D01*
X147552331Y-110513796D01*
X147667546Y-110427546D01*
X147753796Y-110312331D01*
X147802810Y-110180916D01*
X147844681Y-110124984D01*
X147910145Y-110100566D01*
X147978418Y-110115417D01*
X148006673Y-110136569D01*
X148128599Y-110258495D01*
X148225384Y-110326265D01*
X148322165Y-110394032D01*
X148322167Y-110394033D01*
X148322170Y-110394035D01*
X148536337Y-110493903D01*
X148764592Y-110555063D01*
X148941034Y-110570500D01*
X148999999Y-110575659D01*
X149000000Y-110575659D01*
X149000001Y-110575659D01*
X149058966Y-110570500D01*
X149235408Y-110555063D01*
X149463663Y-110493903D01*
X149677830Y-110394035D01*
X149871401Y-110258495D01*
X150038495Y-110091401D01*
X150174035Y-109897830D01*
X150273903Y-109683663D01*
X150335063Y-109455408D01*
X150355659Y-109220000D01*
X150335063Y-108984592D01*
X150273903Y-108756337D01*
X150174035Y-108542171D01*
X150168425Y-108534158D01*
X150038494Y-108348597D01*
X149871402Y-108181506D01*
X149871395Y-108181501D01*
X149677834Y-108045967D01*
X149677830Y-108045965D01*
X149677828Y-108045964D01*
X149463663Y-107946097D01*
X149463659Y-107946096D01*
X149463655Y-107946094D01*
X149235413Y-107884938D01*
X149235403Y-107884936D01*
X149000001Y-107864341D01*
X148999999Y-107864341D01*
X148764596Y-107884936D01*
X148764586Y-107884938D01*
X148536344Y-107946094D01*
X148536335Y-107946098D01*
X148322171Y-108045964D01*
X148322169Y-108045965D01*
X148128600Y-108181503D01*
X148006673Y-108303430D01*
X147945350Y-108336914D01*
X147875658Y-108331930D01*
X147819725Y-108290058D01*
X147802810Y-108259081D01*
X147753797Y-108127671D01*
X147753793Y-108127664D01*
X147667547Y-108012455D01*
X147667544Y-108012452D01*
X147552335Y-107926206D01*
X147552328Y-107926202D01*
X147417482Y-107875908D01*
X147417483Y-107875908D01*
X147357883Y-107869501D01*
X147357881Y-107869500D01*
X147357873Y-107869500D01*
X147357864Y-107869500D01*
X145562129Y-107869500D01*
X145562123Y-107869501D01*
X145502516Y-107875908D01*
X145367671Y-107926202D01*
X145367664Y-107926206D01*
X145252455Y-108012452D01*
X145252452Y-108012455D01*
X145166206Y-108127664D01*
X145166202Y-108127671D01*
X145115908Y-108262517D01*
X145109501Y-108322116D01*
X145109500Y-108322135D01*
X145109500Y-110117870D01*
X131900500Y-110117870D01*
X131900500Y-103001877D01*
X131900613Y-102998133D01*
X131918497Y-102702465D01*
X131919401Y-102695026D01*
X131972456Y-102405516D01*
X131974246Y-102398250D01*
X132061816Y-102117230D01*
X132064465Y-102110248D01*
X132080205Y-102075272D01*
X132185268Y-101841834D01*
X132188745Y-101835211D01*
X132341010Y-101583334D01*
X132345252Y-101577186D01*
X132526793Y-101345465D01*
X132531737Y-101339884D01*
X132739884Y-101131737D01*
X132745465Y-101126793D01*
X132977186Y-100945252D01*
X132983334Y-100941010D01*
X133235215Y-100788742D01*
X133241834Y-100785268D01*
X133510248Y-100664465D01*
X133517230Y-100661816D01*
X133798250Y-100574246D01*
X133805516Y-100572456D01*
X134095026Y-100519401D01*
X134102458Y-100518497D01*
X134327572Y-100504880D01*
X134398134Y-100500613D01*
X134401878Y-100500500D01*
X134465892Y-100500500D01*
X160534108Y-100500500D01*
X160598122Y-100500500D01*
X160601866Y-100500613D01*
G37*
%TD.AperFunction*%
%TD*%
M02*
