%TF.GenerationSoftware,KiCad,Pcbnew,7.0.9*%
%TF.CreationDate,2023-12-06T16:13:21+01:00*%
%TF.ProjectId,E-paper adapter board,452d7061-7065-4722-9061-646170746572,rev?*%
%TF.SameCoordinates,Original*%
%TF.FileFunction,Soldermask,Bot*%
%TF.FilePolarity,Negative*%
%FSLAX46Y46*%
G04 Gerber Fmt 4.6, Leading zero omitted, Abs format (unit mm)*
G04 Created by KiCad (PCBNEW 7.0.9) date 2023-12-06 16:13:21*
%MOMM*%
%LPD*%
G01*
G04 APERTURE LIST*
G04 Aperture macros list*
%AMRoundRect*
0 Rectangle with rounded corners*
0 $1 Rounding radius*
0 $2 $3 $4 $5 $6 $7 $8 $9 X,Y pos of 4 corners*
0 Add a 4 corners polygon primitive as box body*
4,1,4,$2,$3,$4,$5,$6,$7,$8,$9,$2,$3,0*
0 Add four circle primitives for the rounded corners*
1,1,$1+$1,$2,$3*
1,1,$1+$1,$4,$5*
1,1,$1+$1,$6,$7*
1,1,$1+$1,$8,$9*
0 Add four rect primitives between the rounded corners*
20,1,$1+$1,$2,$3,$4,$5,0*
20,1,$1+$1,$4,$5,$6,$7,0*
20,1,$1+$1,$6,$7,$8,$9,0*
20,1,$1+$1,$8,$9,$2,$3,0*%
G04 Aperture macros list end*
%ADD10C,4.300000*%
%ADD11RoundRect,0.250000X0.600000X0.600000X-0.600000X0.600000X-0.600000X-0.600000X0.600000X-0.600000X0*%
%ADD12C,1.700000*%
%ADD13O,1.700000X1.700000*%
%ADD14R,1.700000X1.700000*%
%ADD15C,2.000000*%
%ADD16R,1.524000X1.524000*%
%ADD17C,1.524000*%
G04 APERTURE END LIST*
D10*
%TO.C,H2*%
X123100000Y-141000000D03*
%TD*%
%TO.C,H1*%
X149700000Y-141000000D03*
%TD*%
D11*
%TO.C,J3*%
X158540000Y-129540000D03*
D12*
X156000000Y-129540000D03*
X158540000Y-127000000D03*
X156000000Y-127000000D03*
X158540000Y-124460000D03*
X156000000Y-124460000D03*
X158540000Y-121920000D03*
X156000000Y-121920000D03*
X158540000Y-119380000D03*
X156000000Y-119380000D03*
X158540000Y-116840000D03*
X156000000Y-116840000D03*
X158540000Y-114300000D03*
X156000000Y-114300000D03*
X158540000Y-111760000D03*
X156000000Y-111760000D03*
X158540000Y-109220000D03*
X156000000Y-109220000D03*
X158540000Y-106680000D03*
X156000000Y-106680000D03*
%TD*%
D13*
%TO.C,JP1*%
X149000000Y-109220000D03*
D14*
X146460000Y-109220000D03*
%TD*%
D15*
%TO.C,J2*%
X139700000Y-134620000D03*
X142240000Y-134620000D03*
X144780000Y-134620000D03*
X144780000Y-132080000D03*
X142240000Y-132080000D03*
X139700000Y-132080000D03*
%TD*%
D16*
%TO.C,J4*%
X114300000Y-147320000D03*
D17*
X114300000Y-144780000D03*
X114300000Y-142240000D03*
X114300000Y-139700000D03*
%TD*%
D14*
%TO.C,J5*%
X156010000Y-147000000D03*
D13*
X153470000Y-147000000D03*
X150930000Y-147000000D03*
X148390000Y-147000000D03*
X145850000Y-147000000D03*
X143310000Y-147000000D03*
X140770000Y-147000000D03*
X138230000Y-147000000D03*
X135690000Y-147000000D03*
X133150000Y-147000000D03*
X130610000Y-147000000D03*
X128070000Y-147000000D03*
X125530000Y-147000000D03*
X122990000Y-147000000D03*
%TD*%
D14*
%TO.C,JP2*%
X146460000Y-124460000D03*
D13*
X149000000Y-124460000D03*
%TD*%
M02*
