%TF.GenerationSoftware,KiCad,Pcbnew,7.0.9*%
%TF.CreationDate,2023-12-05T10:32:21+01:00*%
%TF.ProjectId,USB E-Paper thing,55534220-452d-4506-9170-657220746869,rev?*%
%TF.SameCoordinates,Original*%
%TF.FileFunction,Copper,L1,Top*%
%TF.FilePolarity,Positive*%
%FSLAX46Y46*%
G04 Gerber Fmt 4.6, Leading zero omitted, Abs format (unit mm)*
G04 Created by KiCad (PCBNEW 7.0.9) date 2023-12-05 10:32:21*
%MOMM*%
%LPD*%
G01*
G04 APERTURE LIST*
G04 Aperture macros list*
%AMRoundRect*
0 Rectangle with rounded corners*
0 $1 Rounding radius*
0 $2 $3 $4 $5 $6 $7 $8 $9 X,Y pos of 4 corners*
0 Add a 4 corners polygon primitive as box body*
4,1,4,$2,$3,$4,$5,$6,$7,$8,$9,$2,$3,0*
0 Add four circle primitives for the rounded corners*
1,1,$1+$1,$2,$3*
1,1,$1+$1,$4,$5*
1,1,$1+$1,$6,$7*
1,1,$1+$1,$8,$9*
0 Add four rect primitives between the rounded corners*
20,1,$1+$1,$2,$3,$4,$5,0*
20,1,$1+$1,$4,$5,$6,$7,0*
20,1,$1+$1,$6,$7,$8,$9,0*
20,1,$1+$1,$8,$9,$2,$3,0*%
%AMRotRect*
0 Rectangle, with rotation*
0 The origin of the aperture is its center*
0 $1 length*
0 $2 width*
0 $3 Rotation angle, in degrees counterclockwise*
0 Add horizontal line*
21,1,$1,$2,0,0,$3*%
G04 Aperture macros list end*
%TA.AperFunction,SMDPad,CuDef*%
%ADD10RoundRect,0.250000X-0.475000X0.250000X-0.475000X-0.250000X0.475000X-0.250000X0.475000X0.250000X0*%
%TD*%
%TA.AperFunction,SMDPad,CuDef*%
%ADD11RoundRect,0.135000X0.135000X0.185000X-0.135000X0.185000X-0.135000X-0.185000X0.135000X-0.185000X0*%
%TD*%
%TA.AperFunction,SMDPad,CuDef*%
%ADD12RoundRect,0.135000X-0.135000X-0.185000X0.135000X-0.185000X0.135000X0.185000X-0.135000X0.185000X0*%
%TD*%
%TA.AperFunction,ComponentPad*%
%ADD13C,1.600000*%
%TD*%
%TA.AperFunction,SMDPad,CuDef*%
%ADD14RoundRect,0.300000X-0.300000X-0.300000X0.300000X-0.300000X0.300000X0.300000X-0.300000X0.300000X0*%
%TD*%
%TA.AperFunction,SMDPad,CuDef*%
%ADD15RoundRect,0.300000X0.300000X0.300000X-0.300000X0.300000X-0.300000X-0.300000X0.300000X-0.300000X0*%
%TD*%
%TA.AperFunction,SMDPad,CuDef*%
%ADD16RoundRect,0.140000X-0.219203X-0.021213X-0.021213X-0.219203X0.219203X0.021213X0.021213X0.219203X0*%
%TD*%
%TA.AperFunction,SMDPad,CuDef*%
%ADD17RoundRect,0.140000X-0.140000X-0.170000X0.140000X-0.170000X0.140000X0.170000X-0.140000X0.170000X0*%
%TD*%
%TA.AperFunction,SMDPad,CuDef*%
%ADD18RoundRect,0.140000X0.140000X0.170000X-0.140000X0.170000X-0.140000X-0.170000X0.140000X-0.170000X0*%
%TD*%
%TA.AperFunction,ComponentPad*%
%ADD19C,1.400000*%
%TD*%
%TA.AperFunction,ComponentPad*%
%ADD20O,1.400000X1.400000*%
%TD*%
%TA.AperFunction,SMDPad,CuDef*%
%ADD21RoundRect,0.225000X0.375000X-0.225000X0.375000X0.225000X-0.375000X0.225000X-0.375000X-0.225000X0*%
%TD*%
%TA.AperFunction,SMDPad,CuDef*%
%ADD22RoundRect,0.140000X0.219203X0.021213X0.021213X0.219203X-0.219203X-0.021213X-0.021213X-0.219203X0*%
%TD*%
%TA.AperFunction,SMDPad,CuDef*%
%ADD23RoundRect,0.075000X-0.521491X0.415425X0.415425X-0.521491X0.521491X-0.415425X-0.415425X0.521491X0*%
%TD*%
%TA.AperFunction,SMDPad,CuDef*%
%ADD24RoundRect,0.075000X-0.521491X-0.415425X-0.415425X-0.521491X0.521491X0.415425X0.415425X0.521491X0*%
%TD*%
%TA.AperFunction,SMDPad,CuDef*%
%ADD25RoundRect,0.140000X-0.170000X0.140000X-0.170000X-0.140000X0.170000X-0.140000X0.170000X0.140000X0*%
%TD*%
%TA.AperFunction,SMDPad,CuDef*%
%ADD26C,2.000000*%
%TD*%
%TA.AperFunction,SMDPad,CuDef*%
%ADD27R,1.000000X1.800000*%
%TD*%
%TA.AperFunction,SMDPad,CuDef*%
%ADD28RoundRect,0.175000X-0.175000X1.250000X-0.175000X-1.250000X0.175000X-1.250000X0.175000X1.250000X0*%
%TD*%
%TA.AperFunction,SMDPad,CuDef*%
%ADD29R,4.450000X4.570000*%
%TD*%
%TA.AperFunction,SMDPad,CuDef*%
%ADD30RoundRect,0.200000X-0.335876X-0.053033X-0.053033X-0.335876X0.335876X0.053033X0.053033X0.335876X0*%
%TD*%
%TA.AperFunction,SMDPad,CuDef*%
%ADD31RoundRect,0.218750X-0.256250X0.218750X-0.256250X-0.218750X0.256250X-0.218750X0.256250X0.218750X0*%
%TD*%
%TA.AperFunction,SMDPad,CuDef*%
%ADD32RoundRect,0.150000X0.587500X0.150000X-0.587500X0.150000X-0.587500X-0.150000X0.587500X-0.150000X0*%
%TD*%
%TA.AperFunction,SMDPad,CuDef*%
%ADD33RoundRect,0.135000X0.226274X0.035355X0.035355X0.226274X-0.226274X-0.035355X-0.035355X-0.226274X0*%
%TD*%
%TA.AperFunction,SMDPad,CuDef*%
%ADD34RoundRect,0.150000X-0.150000X0.587500X-0.150000X-0.587500X0.150000X-0.587500X0.150000X0.587500X0*%
%TD*%
%TA.AperFunction,SMDPad,CuDef*%
%ADD35RoundRect,0.112500X-0.112500X0.187500X-0.112500X-0.187500X0.112500X-0.187500X0.112500X0.187500X0*%
%TD*%
%TA.AperFunction,SMDPad,CuDef*%
%ADD36RoundRect,0.140000X0.170000X-0.140000X0.170000X0.140000X-0.170000X0.140000X-0.170000X-0.140000X0*%
%TD*%
%TA.AperFunction,SMDPad,CuDef*%
%ADD37RoundRect,0.250000X0.262500X0.450000X-0.262500X0.450000X-0.262500X-0.450000X0.262500X-0.450000X0*%
%TD*%
%TA.AperFunction,SMDPad,CuDef*%
%ADD38RoundRect,0.135000X-0.185000X0.135000X-0.185000X-0.135000X0.185000X-0.135000X0.185000X0.135000X0*%
%TD*%
%TA.AperFunction,SMDPad,CuDef*%
%ADD39RoundRect,0.135000X0.185000X-0.135000X0.185000X0.135000X-0.185000X0.135000X-0.185000X-0.135000X0*%
%TD*%
%TA.AperFunction,SMDPad,CuDef*%
%ADD40R,1.800000X2.000000*%
%TD*%
%TA.AperFunction,SMDPad,CuDef*%
%ADD41R,0.300000X1.200000*%
%TD*%
%TA.AperFunction,SMDPad,CuDef*%
%ADD42R,1.000000X1.500000*%
%TD*%
%TA.AperFunction,SMDPad,CuDef*%
%ADD43RoundRect,0.140000X0.021213X-0.219203X0.219203X-0.021213X-0.021213X0.219203X-0.219203X0.021213X0*%
%TD*%
%TA.AperFunction,SMDPad,CuDef*%
%ADD44RoundRect,0.250000X0.650000X-0.325000X0.650000X0.325000X-0.650000X0.325000X-0.650000X-0.325000X0*%
%TD*%
%TA.AperFunction,SMDPad,CuDef*%
%ADD45RoundRect,0.225000X0.250000X-0.225000X0.250000X0.225000X-0.250000X0.225000X-0.250000X-0.225000X0*%
%TD*%
%TA.AperFunction,SMDPad,CuDef*%
%ADD46R,1.240000X0.600000*%
%TD*%
%TA.AperFunction,SMDPad,CuDef*%
%ADD47R,1.240000X0.300000*%
%TD*%
%TA.AperFunction,ComponentPad*%
%ADD48O,2.300000X1.200000*%
%TD*%
%TA.AperFunction,ComponentPad*%
%ADD49O,2.000000X1.200000*%
%TD*%
%TA.AperFunction,ComponentPad*%
%ADD50R,1.700000X1.700000*%
%TD*%
%TA.AperFunction,ComponentPad*%
%ADD51O,1.700000X1.700000*%
%TD*%
%TA.AperFunction,SMDPad,CuDef*%
%ADD52RoundRect,0.250000X-0.503814X-0.132583X-0.132583X-0.503814X0.503814X0.132583X0.132583X0.503814X0*%
%TD*%
%TA.AperFunction,SMDPad,CuDef*%
%ADD53RoundRect,0.218750X-0.218750X-0.256250X0.218750X-0.256250X0.218750X0.256250X-0.218750X0.256250X0*%
%TD*%
%TA.AperFunction,SMDPad,CuDef*%
%ADD54RoundRect,0.200000X0.200000X0.275000X-0.200000X0.275000X-0.200000X-0.275000X0.200000X-0.275000X0*%
%TD*%
%TA.AperFunction,SMDPad,CuDef*%
%ADD55RoundRect,0.225000X-0.375000X0.225000X-0.375000X-0.225000X0.375000X-0.225000X0.375000X0.225000X0*%
%TD*%
%TA.AperFunction,SMDPad,CuDef*%
%ADD56RoundRect,0.150000X0.512500X0.150000X-0.512500X0.150000X-0.512500X-0.150000X0.512500X-0.150000X0*%
%TD*%
%TA.AperFunction,SMDPad,CuDef*%
%ADD57RoundRect,0.218750X0.256250X-0.218750X0.256250X0.218750X-0.256250X0.218750X-0.256250X-0.218750X0*%
%TD*%
%TA.AperFunction,SMDPad,CuDef*%
%ADD58RoundRect,0.140000X-0.021213X0.219203X-0.219203X0.021213X0.021213X-0.219203X0.219203X-0.021213X0*%
%TD*%
%TA.AperFunction,SMDPad,CuDef*%
%ADD59R,2.000000X1.800000*%
%TD*%
%TA.AperFunction,SMDPad,CuDef*%
%ADD60R,1.200000X0.300000*%
%TD*%
%TA.AperFunction,SMDPad,CuDef*%
%ADD61RoundRect,0.218750X0.381250X-0.218750X0.381250X0.218750X-0.381250X0.218750X-0.381250X-0.218750X0*%
%TD*%
%TA.AperFunction,SMDPad,CuDef*%
%ADD62RoundRect,0.250001X0.499999X1.449999X-0.499999X1.449999X-0.499999X-1.449999X0.499999X-1.449999X0*%
%TD*%
%TA.AperFunction,SMDPad,CuDef*%
%ADD63RoundRect,0.250000X0.250000X1.500000X-0.250000X1.500000X-0.250000X-1.500000X0.250000X-1.500000X0*%
%TD*%
%TA.AperFunction,SMDPad,CuDef*%
%ADD64RoundRect,0.250000X-0.325000X-0.650000X0.325000X-0.650000X0.325000X0.650000X-0.325000X0.650000X0*%
%TD*%
%TA.AperFunction,SMDPad,CuDef*%
%ADD65RoundRect,0.112500X-0.187500X-0.112500X0.187500X-0.112500X0.187500X0.112500X-0.187500X0.112500X0*%
%TD*%
%TA.AperFunction,SMDPad,CuDef*%
%ADD66RotRect,1.400000X1.200000X7.000000*%
%TD*%
%TA.AperFunction,ViaPad*%
%ADD67C,0.600000*%
%TD*%
%TA.AperFunction,Conductor*%
%ADD68C,0.300000*%
%TD*%
%TA.AperFunction,Conductor*%
%ADD69C,0.200000*%
%TD*%
%TA.AperFunction,Conductor*%
%ADD70C,0.500000*%
%TD*%
%TA.AperFunction,Conductor*%
%ADD71C,0.250000*%
%TD*%
%TA.AperFunction,Conductor*%
%ADD72C,0.127000*%
%TD*%
G04 APERTURE END LIST*
%TA.AperFunction,EtchedComponent*%
%TO.C,JP1*%
G36*
X56620000Y7310000D02*
G01*
X56120000Y7310000D01*
X56120000Y7710000D01*
X56620000Y7710000D01*
X56620000Y7310000D01*
G37*
%TD.AperFunction*%
%TA.AperFunction,EtchedComponent*%
G36*
X56620000Y8110000D02*
G01*
X56120000Y8110000D01*
X56120000Y8510000D01*
X56620000Y8510000D01*
X56620000Y8110000D01*
G37*
%TD.AperFunction*%
%TD*%
D10*
%TO.P,C29,2*%
%TO.N,GND*%
X19550000Y21080000D03*
%TO.P,C29,1*%
%TO.N,/E-Ink display/VCC*%
X19550000Y22980000D03*
%TD*%
%TO.P,C28,2*%
%TO.N,GND*%
X21620000Y21080000D03*
%TO.P,C28,1*%
%TO.N,/E-Ink display/VCC*%
X21620000Y22980000D03*
%TD*%
%TO.P,C27,2*%
%TO.N,GND*%
X23660000Y21080000D03*
%TO.P,C27,1*%
%TO.N,/E-Ink display/VCC*%
X23660000Y22980000D03*
%TD*%
D11*
%TO.P,R24,1*%
%TO.N,Net-(U1-PA5)*%
X48420000Y18400000D03*
%TO.P,R24,2*%
%TO.N,/SCLK*%
X47400000Y18400000D03*
%TD*%
%TO.P,R26,1*%
%TO.N,Net-(U1-PA7)*%
X48420000Y19570000D03*
%TO.P,R26,2*%
%TO.N,/MOSI*%
X47400000Y19570000D03*
%TD*%
D12*
%TO.P,R11,1*%
%TO.N,Net-(Q1-G)*%
X44200000Y18425000D03*
%TO.P,R11,2*%
%TO.N,/VBAT_MEAS_EN*%
X45220000Y18425000D03*
%TD*%
D13*
%TO.P,SW3,*%
%TO.N,*%
X77700000Y35400000D03*
X77700000Y27900000D03*
D14*
%TO.P,SW3,1,1*%
%TO.N,+3V0*%
X76100000Y29550000D03*
D15*
%TO.P,SW3,2,2*%
%TO.N,Net-(R29-Pad2)*%
X76100000Y33750000D03*
%TD*%
D12*
%TO.P,R3,1*%
%TO.N,/BUTTON1*%
X45050000Y7230000D03*
%TO.P,R3,2*%
%TO.N,GND*%
X46070000Y7230000D03*
%TD*%
D11*
%TO.P,R15,1*%
%TO.N,/Power/CC1*%
X74570000Y12200000D03*
%TO.P,R15,2*%
%TO.N,GND*%
X73550000Y12200000D03*
%TD*%
D16*
%TO.P,C5,1*%
%TO.N,+3V0*%
X57560589Y24399411D03*
%TO.P,C5,2*%
%TO.N,GND*%
X58239411Y23720589D03*
%TD*%
D17*
%TO.P,C16,1*%
%TO.N,/E-Ink display/VDD*%
X12600000Y20100000D03*
%TO.P,C16,2*%
%TO.N,GND*%
X13560000Y20100000D03*
%TD*%
D18*
%TO.P,C6,1*%
%TO.N,+3V0*%
X49640000Y21170000D03*
%TO.P,C6,2*%
%TO.N,GND*%
X48680000Y21170000D03*
%TD*%
D19*
%TO.P,TH1,1*%
%TO.N,GND*%
X36576000Y24130000D03*
D20*
%TO.P,TH1,2*%
%TO.N,Net-(U3-TEMP)*%
X36576000Y19050000D03*
%TD*%
D21*
%TO.P,D11,2,A*%
%TO.N,/E-Ink display/PREVGL*%
X26175000Y24270000D03*
%TO.P,D11,1,K*%
%TO.N,Net-(D10-A)*%
X26175000Y20970000D03*
%TD*%
D22*
%TO.P,C2,1*%
%TO.N,Net-(U1-PH1)*%
X46449411Y25140589D03*
%TO.P,C2,2*%
%TO.N,GND*%
X45770589Y25819411D03*
%TD*%
D23*
%TO.P,U1,1,VLCD*%
%TO.N,+3V0*%
X54511212Y23127876D03*
%TO.P,U1,2,PC13*%
%TO.N,/VBUS_PRESENT*%
X54157658Y22774322D03*
%TO.P,U1,3,PC14*%
%TO.N,Net-(U1-PC14)*%
X53804105Y22420769D03*
%TO.P,U1,4,PC15*%
%TO.N,Net-(U1-PC15)*%
X53450551Y22067215D03*
%TO.P,U1,5,PH0*%
%TO.N,Net-(U1-PH0)*%
X53096998Y21713662D03*
%TO.P,U1,6,PH1*%
%TO.N,Net-(U1-PH1)*%
X52743445Y21360109D03*
%TO.P,U1,7,NRST*%
%TO.N,/NRST*%
X52389891Y21006555D03*
%TO.P,U1,8,VSSA*%
%TO.N,GND*%
X52036338Y20653002D03*
%TO.P,U1,9,VDDA*%
%TO.N,+3V0*%
X51682785Y20299449D03*
%TO.P,U1,10,PA0*%
%TO.N,/WAKEUP*%
X51329231Y19945895D03*
%TO.P,U1,11,PA1*%
%TO.N,/VBAT_MEAS*%
X50975678Y19592342D03*
%TO.P,U1,12,PA2*%
%TO.N,/VBAT_MEAS_EN*%
X50622124Y19238788D03*
D24*
%TO.P,U1,13,PA3*%
%TO.N,Net-(U1-PA3)*%
X50622124Y17241212D03*
%TO.P,U1,14,PA4*%
%TO.N,Net-(U1-PA4)*%
X50975678Y16887658D03*
%TO.P,U1,15,PA5*%
%TO.N,Net-(U1-PA5)*%
X51329231Y16534105D03*
%TO.P,U1,16,PA6*%
%TO.N,Net-(U1-PA6)*%
X51682785Y16180551D03*
%TO.P,U1,17,PA7*%
%TO.N,Net-(U1-PA7)*%
X52036338Y15826998D03*
%TO.P,U1,18,PB0*%
%TO.N,Net-(U1-PB0)*%
X52389891Y15473445D03*
%TO.P,U1,19,PB1*%
%TO.N,/LED0*%
X52743445Y15119891D03*
%TO.P,U1,20,PB2*%
%TO.N,/LED1*%
X53096998Y14766338D03*
%TO.P,U1,21,PB10*%
%TO.N,/SERIAL_TX*%
X53450551Y14412785D03*
%TO.P,U1,22,PB11*%
%TO.N,/SERIAL_RX*%
X53804105Y14059231D03*
%TO.P,U1,23,VSS*%
%TO.N,GND*%
X54157658Y13705678D03*
%TO.P,U1,24,VDD*%
%TO.N,+3V0*%
X54511212Y13352124D03*
D23*
%TO.P,U1,25,PB12*%
%TO.N,/BUTTON2*%
X56508788Y13352124D03*
%TO.P,U1,26,PB13*%
%TO.N,/BUTTON0*%
X56862342Y13705678D03*
%TO.P,U1,27,PB14*%
%TO.N,/BUTTON3*%
X57215895Y14059231D03*
%TO.P,U1,28,PB15*%
%TO.N,/BUTTON1*%
X57569449Y14412785D03*
%TO.P,U1,29,PA8*%
%TO.N,unconnected-(U1-PA8-Pad29)*%
X57923002Y14766338D03*
%TO.P,U1,30,PA9*%
%TO.N,unconnected-(U1-PA9-Pad30)*%
X58276555Y15119891D03*
%TO.P,U1,31,PA10*%
%TO.N,unconnected-(U1-PA10-Pad31)*%
X58630109Y15473445D03*
%TO.P,U1,32,PA11*%
%TO.N,/USB_D-*%
X58983662Y15826998D03*
%TO.P,U1,33,PA12*%
%TO.N,/USB_D+*%
X59337215Y16180551D03*
%TO.P,U1,34,PA13*%
%TO.N,Net-(U1-PA13)*%
X59690769Y16534105D03*
%TO.P,U1,35,VSS*%
%TO.N,GND*%
X60044322Y16887658D03*
%TO.P,U1,36,VDD*%
%TO.N,+3V0*%
X60397876Y17241212D03*
D24*
%TO.P,U1,37,PA14*%
%TO.N,Net-(U1-PA14)*%
X60397876Y19238788D03*
%TO.P,U1,38,PA15*%
%TO.N,unconnected-(U1-PA15-Pad38)*%
X60044322Y19592342D03*
%TO.P,U1,39,PB3*%
%TO.N,/VBUS_PRESENT*%
X59690769Y19945895D03*
%TO.P,U1,40,PB4*%
%TO.N,unconnected-(U1-PB4-Pad40)*%
X59337215Y20299449D03*
%TO.P,U1,41,PB5*%
%TO.N,/PB5*%
X58983662Y20653002D03*
%TO.P,U1,42,PB6*%
%TO.N,/PB6*%
X58630109Y21006555D03*
%TO.P,U1,43,PB7*%
%TO.N,/PB7*%
X58276555Y21360109D03*
%TO.P,U1,44,BOOT0*%
%TO.N,GND*%
X57923002Y21713662D03*
%TO.P,U1,45,PB8*%
%TO.N,/PB8*%
X57569449Y22067215D03*
%TO.P,U1,46,PB9*%
%TO.N,unconnected-(U1-PB9-Pad46)*%
X57215895Y22420769D03*
%TO.P,U1,47,VSS*%
%TO.N,GND*%
X56862342Y22774322D03*
%TO.P,U1,48,VDD*%
%TO.N,+3V0*%
X56508788Y23127876D03*
%TD*%
D25*
%TO.P,C25,1*%
%TO.N,/E-Ink display/VCC*%
X18040000Y22810000D03*
%TO.P,C25,2*%
%TO.N,GND*%
X18040000Y21850000D03*
%TD*%
D26*
%TO.P,J5,1,Pin_1*%
%TO.N,+3V0*%
X39700000Y4620000D03*
%TO.P,J5,2,Pin_2*%
%TO.N,GND*%
X42240000Y4620000D03*
%TO.P,J5,3,Pin_3*%
%TO.N,/SWDCLK*%
X44780000Y4620000D03*
%TO.P,J5,4,Pin_4*%
%TO.N,/SWDIO*%
X44780000Y2080000D03*
%TO.P,J5,5,Pin_5*%
%TO.N,unconnected-(J5-Pin_5-Pad5)*%
X42240000Y2080000D03*
%TO.P,J5,6,Pin_6*%
%TO.N,/NRST*%
X39700000Y2080000D03*
%TD*%
D27*
%TO.P,Y2,2,2*%
%TO.N,Net-(U1-PC14)*%
X55550000Y27560589D03*
%TO.P,Y2,1,1*%
%TO.N,Net-(U1-PC15)*%
X53050000Y27560589D03*
%TD*%
D22*
%TO.P,C7,1*%
%TO.N,+3V0*%
X53709411Y11910589D03*
%TO.P,C7,2*%
%TO.N,GND*%
X53030589Y12589411D03*
%TD*%
D28*
%TO.P,U3,1,TEMP*%
%TO.N,Net-(U3-TEMP)*%
X71005000Y12400000D03*
%TO.P,U3,2,PROG*%
%TO.N,Net-(U3-PROG)*%
X69735000Y12400000D03*
%TO.P,U3,3,GND*%
%TO.N,GND*%
X68465000Y12400000D03*
%TO.P,U3,4,VCC*%
%TO.N,/VBUS*%
X67195000Y12400000D03*
%TO.P,U3,5,BAT*%
%TO.N,+BATT*%
X67195000Y4100000D03*
%TO.P,U3,6,~{STDBY}*%
%TO.N,Net-(U3-~{STDBY})*%
X68465000Y4100000D03*
%TO.P,U3,7,~{CHRG}*%
%TO.N,Net-(U3-~{CHRG})*%
X69735000Y4100000D03*
%TO.P,U3,8,CE*%
%TO.N,/VBUS*%
X71005000Y4100000D03*
D29*
%TO.P,U3,9,THERMAL*%
%TO.N,GND*%
X69100000Y8250000D03*
%TD*%
D30*
%TO.P,R14,1*%
%TO.N,/VBUS_PRESENT*%
X61686637Y22243363D03*
%TO.P,R14,2*%
%TO.N,GND*%
X62853363Y21076637D03*
%TD*%
D31*
%TO.P,D8,1,K*%
%TO.N,Net-(D8-K)*%
X72900000Y6127500D03*
%TO.P,D8,2,A*%
%TO.N,/VBUS*%
X72900000Y4552500D03*
%TD*%
D32*
%TO.P,Q1,1,G*%
%TO.N,Net-(Q1-G)*%
X44710000Y19750000D03*
%TO.P,Q1,2,S*%
%TO.N,/VBAT_MEAS*%
X44710000Y21650000D03*
%TO.P,Q1,3,D*%
%TO.N,Net-(Q1-D)*%
X42835000Y20700000D03*
%TD*%
D13*
%TO.P,SW4,*%
%TO.N,*%
X77700000Y8800000D03*
X77700000Y1300000D03*
D14*
%TO.P,SW4,1,1*%
%TO.N,/BUTTON3*%
X76100000Y2950000D03*
D15*
%TO.P,SW4,2,2*%
%TO.N,+3V0*%
X76100000Y7150000D03*
%TD*%
D33*
%TO.P,R13,1*%
%TO.N,/VBUS*%
X61740624Y20449376D03*
%TO.P,R13,2*%
%TO.N,/VBUS_PRESENT*%
X61019376Y21170624D03*
%TD*%
D34*
%TO.P,U4,1,IN*%
%TO.N,Net-(D9-K)*%
X62090000Y4117500D03*
%TO.P,U4,2,OUT*%
%TO.N,Net-(J8-Pin_1)*%
X60190000Y4117500D03*
%TO.P,U4,3,GND*%
%TO.N,GND*%
X61140000Y2242500D03*
%TD*%
D35*
%TO.P,D6,1,K*%
%TO.N,Net-(D1-K)*%
X43570000Y10480000D03*
%TO.P,D6,2,A*%
%TO.N,/BUTTON3*%
X43570000Y8380000D03*
%TD*%
D36*
%TO.P,C12,1*%
%TO.N,Net-(J8-Pin_1)*%
X59970000Y6370000D03*
%TO.P,C12,2*%
%TO.N,GND*%
X59970000Y7330000D03*
%TD*%
D11*
%TO.P,R27,1*%
%TO.N,Net-(U1-PA4)*%
X48420000Y16060000D03*
%TO.P,R27,2*%
%TO.N,/D{slash}~{C}*%
X47400000Y16060000D03*
%TD*%
%TO.P,R5,1*%
%TO.N,/LED0*%
X48420000Y12620000D03*
%TO.P,R5,2*%
%TO.N,Net-(D4-A)*%
X47400000Y12620000D03*
%TD*%
D36*
%TO.P,C4,1*%
%TO.N,Net-(U1-PC15)*%
X53050000Y29300000D03*
%TO.P,C4,2*%
%TO.N,GND*%
X53050000Y30260000D03*
%TD*%
D37*
%TO.P,R23,1*%
%TO.N,GND*%
X14825000Y11900000D03*
%TO.P,R23,2*%
%TO.N,/E-Ink display/RESE*%
X13000000Y11900000D03*
%TD*%
D38*
%TO.P,R17,1*%
%TO.N,Net-(D7-K)*%
X65980000Y4140000D03*
%TO.P,R17,2*%
%TO.N,Net-(U3-~{STDBY})*%
X65980000Y3120000D03*
%TD*%
D39*
%TO.P,R29,1*%
%TO.N,/BUTTON2*%
X4540000Y34320000D03*
%TO.P,R29,2*%
%TO.N,Net-(R29-Pad2)*%
X4540000Y35340000D03*
%TD*%
D40*
%TO.P,J3,*%
%TO.N,*%
X44390000Y32850000D03*
X34590000Y32850000D03*
D41*
%TO.P,J3,1,Pin_1*%
%TO.N,+3V0*%
X42740000Y29700000D03*
%TO.P,J3,2,Pin_2*%
%TO.N,GND*%
X42240000Y29700000D03*
%TO.P,J3,3,Pin_3*%
%TO.N,/SERIAL_RX*%
X41740000Y29700000D03*
%TO.P,J3,4,Pin_4*%
%TO.N,/SERIAL_TX*%
X41240000Y29700000D03*
%TO.P,J3,5,Pin_5*%
%TO.N,/PB5*%
X40740000Y29700000D03*
%TO.P,J3,6,Pin_6*%
%TO.N,/PB6*%
X40240000Y29700000D03*
%TO.P,J3,7,Pin_7*%
%TO.N,/PB7*%
X39740000Y29700000D03*
%TO.P,J3,8,Pin_8*%
%TO.N,/PB8*%
X39240000Y29700000D03*
%TO.P,J3,9,Pin_9*%
%TO.N,/~{CS}*%
X38740000Y29700000D03*
%TO.P,J3,10,Pin_10*%
%TO.N,/MOSI*%
X38240000Y29700000D03*
%TO.P,J3,11,Pin_11*%
%TO.N,/SCLK*%
X37740000Y29700000D03*
%TO.P,J3,12,Pin_12*%
%TO.N,/BUSY_DBG*%
X37240000Y29700000D03*
%TO.P,J3,13,Pin_13*%
%TO.N,/D{slash}~{C}*%
X36740000Y29700000D03*
%TO.P,J3,14,Pin_14*%
%TO.N,/~{RES}*%
X36240000Y29700000D03*
%TD*%
D12*
%TO.P,R6,1*%
%TO.N,/BUTTON2*%
X39080000Y7230000D03*
%TO.P,R6,2*%
%TO.N,GND*%
X40100000Y7230000D03*
%TD*%
D25*
%TO.P,C24,1*%
%TO.N,/E-Ink display/VCC*%
X17000000Y22810000D03*
%TO.P,C24,2*%
%TO.N,GND*%
X17000000Y21850000D03*
%TD*%
D36*
%TO.P,C3,1*%
%TO.N,Net-(U1-PC14)*%
X55550000Y29300000D03*
%TO.P,C3,2*%
%TO.N,GND*%
X55550000Y30260000D03*
%TD*%
D12*
%TO.P,R28,1*%
%TO.N,/BUSY_DBG*%
X12570000Y16050000D03*
%TO.P,R28,2*%
%TO.N,/BUSY*%
X13590000Y16050000D03*
%TD*%
D18*
%TO.P,C11,1*%
%TO.N,Net-(D9-K)*%
X62210000Y11020000D03*
%TO.P,C11,2*%
%TO.N,GND*%
X61250000Y11020000D03*
%TD*%
D13*
%TO.P,SW1,*%
%TO.N,*%
X1300000Y27900000D03*
X1300000Y35400000D03*
D15*
%TO.P,SW1,1,1*%
%TO.N,+3V0*%
X2900000Y33750000D03*
D14*
%TO.P,SW1,2,2*%
%TO.N,/BUTTON0*%
X2900000Y29550000D03*
%TD*%
D17*
%TO.P,C20,1*%
%TO.N,/E-Ink display/VGL*%
X12600000Y13500000D03*
%TO.P,C20,2*%
%TO.N,GND*%
X13560000Y13500000D03*
%TD*%
D11*
%TO.P,R16,1*%
%TO.N,/Power/CC2*%
X74360000Y24430000D03*
%TO.P,R16,2*%
%TO.N,GND*%
X73340000Y24430000D03*
%TD*%
D42*
%TO.P,JP1,1,A*%
%TO.N,Net-(J8-Pin_1)*%
X57020000Y7910000D03*
%TO.P,JP1,2,B*%
%TO.N,+3V0*%
X55720000Y7910000D03*
%TD*%
D39*
%TO.P,R12,1*%
%TO.N,+3V0*%
X37050000Y2060000D03*
%TO.P,R12,2*%
%TO.N,/NRST*%
X37050000Y3080000D03*
%TD*%
D43*
%TO.P,C26,1*%
%TO.N,+3V0*%
X55030000Y23980000D03*
%TO.P,C26,2*%
%TO.N,GND*%
X55708822Y24658822D03*
%TD*%
D17*
%TO.P,C15,1*%
%TO.N,/E-Ink display/VSH*%
X12600000Y21194000D03*
%TO.P,C15,2*%
%TO.N,GND*%
X13560000Y21194000D03*
%TD*%
D11*
%TO.P,R25,1*%
%TO.N,Net-(U1-PA6)*%
X48420000Y14890000D03*
%TO.P,R25,2*%
%TO.N,/~{RES}*%
X47400000Y14890000D03*
%TD*%
D13*
%TO.P,SW2,*%
%TO.N,*%
X1300000Y1300000D03*
X1300000Y8800000D03*
D15*
%TO.P,SW2,1,1*%
%TO.N,/BUTTON1*%
X2900000Y7150000D03*
D14*
%TO.P,SW2,2,2*%
%TO.N,+3V0*%
X2900000Y2950000D03*
%TD*%
D39*
%TO.P,R20,1*%
%TO.N,/VBUS*%
X66060000Y21040000D03*
%TO.P,R20,2*%
%TO.N,Net-(U3-TEMP)*%
X66060000Y22060000D03*
%TD*%
D12*
%TO.P,R10,1*%
%TO.N,GND*%
X42225000Y18425000D03*
%TO.P,R10,2*%
%TO.N,Net-(Q1-G)*%
X43245000Y18425000D03*
%TD*%
D11*
%TO.P,R22,1*%
%TO.N,/VBUS*%
X65990000Y12990000D03*
%TO.P,R22,2*%
%TO.N,GND*%
X64970000Y12990000D03*
%TD*%
D12*
%TO.P,R7,1*%
%TO.N,+BATT*%
X40150000Y20530000D03*
%TO.P,R7,2*%
%TO.N,Net-(Q1-D)*%
X41170000Y20530000D03*
%TD*%
D44*
%TO.P,C21,1*%
%TO.N,Net-(D12-A)*%
X17640000Y15840000D03*
%TO.P,C21,2*%
%TO.N,Net-(D10-A)*%
X17640000Y18790000D03*
%TD*%
D38*
%TO.P,R32,1*%
%TO.N,Net-(U1-PA13)*%
X50470000Y4840000D03*
%TO.P,R32,2*%
%TO.N,/SWDIO*%
X50470000Y3820000D03*
%TD*%
%TO.P,R33,1*%
%TO.N,Net-(U1-PA14)*%
X51130000Y8850000D03*
%TO.P,R33,2*%
%TO.N,/SWDCLK*%
X51130000Y7830000D03*
%TD*%
D31*
%TO.P,D7,1,K*%
%TO.N,Net-(D7-K)*%
X64710000Y4127500D03*
%TO.P,D7,2,A*%
%TO.N,/VBUS*%
X64710000Y2552500D03*
%TD*%
D45*
%TO.P,C10,1*%
%TO.N,+BATT*%
X65260000Y5620000D03*
%TO.P,C10,2*%
%TO.N,GND*%
X65260000Y7170000D03*
%TD*%
D46*
%TO.P,J6,A1,GND*%
%TO.N,GND*%
X72700000Y15150000D03*
%TO.P,J6,A4,VBUS*%
%TO.N,/VBUS*%
X72700000Y15950000D03*
D47*
%TO.P,J6,A5,CC1*%
%TO.N,/Power/CC1*%
X72700000Y17100000D03*
%TO.P,J6,A6,D+*%
%TO.N,/Power/USB_IN_D+*%
X72700000Y18100000D03*
%TO.P,J6,A7,D-*%
%TO.N,/Power/USB_IN_D-*%
X72700000Y18600000D03*
%TO.P,J6,A8,SBU1*%
%TO.N,unconnected-(J6-SBU1-PadA8)*%
X72700000Y19600000D03*
D46*
%TO.P,J6,A9,VBUS*%
%TO.N,/VBUS*%
X72700000Y20750000D03*
%TO.P,J6,A12,GND*%
%TO.N,GND*%
X72700000Y21550000D03*
%TO.P,J6,B1,GND*%
X72700000Y21550000D03*
%TO.P,J6,B4,VBUS*%
%TO.N,/VBUS*%
X72700000Y20750000D03*
D47*
%TO.P,J6,B5,CC2*%
%TO.N,/Power/CC2*%
X72700000Y20100000D03*
%TO.P,J6,B6,D+*%
%TO.N,/Power/USB_IN_D+*%
X72700000Y19100000D03*
%TO.P,J6,B7,D-*%
%TO.N,/Power/USB_IN_D-*%
X72700000Y17600000D03*
%TO.P,J6,B8,SBU2*%
%TO.N,unconnected-(J6-SBU2-PadB8)*%
X72700000Y16600000D03*
D46*
%TO.P,J6,B9,VBUS*%
%TO.N,/VBUS*%
X72700000Y15950000D03*
%TO.P,J6,B12,GND*%
%TO.N,GND*%
X72700000Y15150000D03*
D48*
%TO.P,J6,S1,SHIELD*%
X73320000Y14030000D03*
D49*
X77500000Y14030000D03*
D48*
X73320000Y22670000D03*
D49*
X77500000Y22670000D03*
%TD*%
D12*
%TO.P,R1,1*%
%TO.N,/BUTTON0*%
X41070000Y7230000D03*
%TO.P,R1,2*%
%TO.N,GND*%
X42090000Y7230000D03*
%TD*%
D17*
%TO.P,C13,1*%
%TO.N,/E-Ink display/VCOM*%
X12590000Y25570000D03*
%TO.P,C13,2*%
%TO.N,GND*%
X13550000Y25570000D03*
%TD*%
D11*
%TO.P,R2,1*%
%TO.N,/LED1*%
X48400000Y11470000D03*
%TO.P,R2,2*%
%TO.N,Net-(D2-A)*%
X47380000Y11470000D03*
%TD*%
D34*
%TO.P,Q3,1,G*%
%TO.N,/E-Ink display/GDR*%
X14750000Y9837500D03*
%TO.P,Q3,2,S*%
%TO.N,/E-Ink display/RESE*%
X12850000Y9837500D03*
%TO.P,Q3,3,D*%
%TO.N,Net-(D12-A)*%
X13800000Y7962500D03*
%TD*%
D35*
%TO.P,D1,1,K*%
%TO.N,Net-(D1-K)*%
X41580000Y10480000D03*
%TO.P,D1,2,A*%
%TO.N,/BUTTON0*%
X41580000Y8380000D03*
%TD*%
D39*
%TO.P,R21,1*%
%TO.N,Net-(U3-TEMP)*%
X66060000Y22980000D03*
%TO.P,R21,2*%
%TO.N,GND*%
X66060000Y24000000D03*
%TD*%
D12*
%TO.P,R18,1*%
%TO.N,Net-(D8-K)*%
X72620000Y7500000D03*
%TO.P,R18,2*%
%TO.N,Net-(U3-~{CHRG})*%
X73640000Y7500000D03*
%TD*%
D17*
%TO.P,C14,1*%
%TO.N,/E-Ink display/VSL*%
X12600000Y23382000D03*
%TO.P,C14,2*%
%TO.N,GND*%
X13560000Y23382000D03*
%TD*%
D50*
%TO.P,J8,1,Pin_1*%
%TO.N,Net-(J8-Pin_1)*%
X57480000Y4620000D03*
D51*
%TO.P,J8,2,Pin_2*%
%TO.N,+3V0*%
X54940000Y4620000D03*
%TD*%
D52*
%TO.P,R30,1*%
%TO.N,/WAKEUP*%
X50284765Y12505235D03*
%TO.P,R30,2*%
%TO.N,Net-(D1-K)*%
X51575235Y11214765D03*
%TD*%
D53*
%TO.P,L1,1,1*%
%TO.N,Net-(D12-A)*%
X15412500Y13900000D03*
%TO.P,L1,2,2*%
%TO.N,/E-Ink display/VCI*%
X16987500Y13900000D03*
%TD*%
D35*
%TO.P,D5,1,K*%
%TO.N,Net-(D1-K)*%
X39590000Y10480000D03*
%TO.P,D5,2,A*%
%TO.N,/BUTTON2*%
X39590000Y8380000D03*
%TD*%
D54*
%TO.P,R19,1*%
%TO.N,Net-(U3-PROG)*%
X70005000Y14820000D03*
%TO.P,R19,2*%
%TO.N,GND*%
X68355000Y14820000D03*
%TD*%
D55*
%TO.P,D10,1,K*%
%TO.N,GND*%
X28685000Y24225000D03*
%TO.P,D10,2,A*%
%TO.N,Net-(D10-A)*%
X28685000Y20925000D03*
%TD*%
D17*
%TO.P,C19,1*%
%TO.N,/E-Ink display/PREVGL*%
X12600000Y24476000D03*
%TO.P,C19,2*%
%TO.N,GND*%
X13560000Y24476000D03*
%TD*%
D12*
%TO.P,R9,1*%
%TO.N,/BUTTON3*%
X43060000Y7230000D03*
%TO.P,R9,2*%
%TO.N,GND*%
X44080000Y7230000D03*
%TD*%
D56*
%TO.P,U2,1,I/O1*%
%TO.N,/Power/USB_IN_D+*%
X70040000Y17400000D03*
%TO.P,U2,2,GND*%
%TO.N,GND*%
X70040000Y18350000D03*
%TO.P,U2,3,I/O2*%
%TO.N,/Power/USB_IN_D-*%
X70040000Y19300000D03*
%TO.P,U2,4,I/O2*%
%TO.N,/USB_D-*%
X67765000Y19300000D03*
%TO.P,U2,5,VBUS*%
%TO.N,/VBUS*%
X67765000Y18350000D03*
%TO.P,U2,6,I/O1*%
%TO.N,/USB_D+*%
X67765000Y17400000D03*
%TD*%
D57*
%TO.P,D2,1,K*%
%TO.N,GND*%
X22895000Y3825000D03*
%TO.P,D2,2,A*%
%TO.N,Net-(D2-A)*%
X22895000Y5400000D03*
%TD*%
D58*
%TO.P,C8,1*%
%TO.N,+3V0*%
X61670000Y16210000D03*
%TO.P,C8,2*%
%TO.N,GND*%
X60991178Y15531178D03*
%TD*%
D22*
%TO.P,C1,1*%
%TO.N,Net-(U1-PH0)*%
X48649411Y27540589D03*
%TO.P,C1,2*%
%TO.N,GND*%
X47970589Y28219411D03*
%TD*%
D59*
%TO.P,DS1,*%
%TO.N,*%
X6550000Y25750000D03*
X6550000Y10950000D03*
D60*
%TO.P,DS1,1,NC*%
%TO.N,unconnected-(DS1-NC-Pad1)*%
X9700000Y12600000D03*
%TO.P,DS1,2,GDR*%
%TO.N,/E-Ink display/GDR*%
X9700000Y13100000D03*
%TO.P,DS1,3,RESE*%
%TO.N,/E-Ink display/RESE*%
X9700000Y13600000D03*
%TO.P,DS1,4,VGL*%
%TO.N,/E-Ink display/VGL*%
X9700000Y14100000D03*
%TO.P,DS1,5,VGH*%
%TO.N,/E-Ink display/VGH*%
X9700000Y14600000D03*
%TO.P,DS1,6,TSCL*%
%TO.N,/E-Ink display/TSCL*%
X9700000Y15100000D03*
%TO.P,DS1,7,TSDA*%
%TO.N,/E-Ink display/TSDA*%
X9700000Y15600000D03*
%TO.P,DS1,8,BS1*%
%TO.N,GND*%
X9700000Y16100000D03*
%TO.P,DS1,9,BUSY*%
%TO.N,/BUSY_DBG*%
X9700000Y16600000D03*
%TO.P,DS1,10,RES#*%
%TO.N,/~{RES}*%
X9700000Y17100000D03*
%TO.P,DS1,11,D/C#*%
%TO.N,/D{slash}~{C}*%
X9700000Y17600000D03*
%TO.P,DS1,12,CS#*%
%TO.N,/~{CS}*%
X9700000Y18100000D03*
%TO.P,DS1,13,D0*%
%TO.N,/SCLK*%
X9700000Y18600000D03*
%TO.P,DS1,14,D1*%
%TO.N,/MOSI*%
X9700000Y19100000D03*
%TO.P,DS1,15,VDDIO*%
%TO.N,/E-Ink display/VCC*%
X9700000Y19600000D03*
%TO.P,DS1,16,VCI*%
X9700000Y20100000D03*
%TO.P,DS1,17,VSS*%
%TO.N,GND*%
X9700000Y20600000D03*
%TO.P,DS1,18,VDD*%
%TO.N,/E-Ink display/VDD*%
X9700000Y21100000D03*
%TO.P,DS1,19,VPP*%
%TO.N,/E-Ink display/VPP*%
X9700000Y21600000D03*
%TO.P,DS1,20,VSH*%
%TO.N,/E-Ink display/VSH*%
X9700000Y22100000D03*
%TO.P,DS1,21,PREVGH*%
%TO.N,/E-Ink display/PREVGH*%
X9700000Y22600000D03*
%TO.P,DS1,22,VSL*%
%TO.N,/E-Ink display/VSL*%
X9700000Y23100000D03*
%TO.P,DS1,23,PREVGL*%
%TO.N,/E-Ink display/PREVGL*%
X9700000Y23600000D03*
%TO.P,DS1,24,VCOM*%
%TO.N,/E-Ink display/VCOM*%
X9700000Y24100000D03*
%TD*%
D61*
%TO.P,FB1,1*%
%TO.N,/E-Ink display/VCC*%
X15540000Y23025000D03*
%TO.P,FB1,2*%
%TO.N,+3V0*%
X15540000Y25150000D03*
%TD*%
D35*
%TO.P,D3,1,K*%
%TO.N,Net-(D1-K)*%
X45560000Y10480000D03*
%TO.P,D3,2,A*%
%TO.N,/BUTTON1*%
X45560000Y8380000D03*
%TD*%
D17*
%TO.P,C17,1*%
%TO.N,/E-Ink display/VCI*%
X19880000Y11900000D03*
%TO.P,C17,2*%
%TO.N,GND*%
X20840000Y11900000D03*
%TD*%
%TO.P,C18,1*%
%TO.N,/E-Ink display/VGH*%
X12600000Y14500000D03*
%TO.P,C18,2*%
%TO.N,GND*%
X13560000Y14500000D03*
%TD*%
D62*
%TO.P,BT1,*%
%TO.N,*%
X73780000Y33300000D03*
X67080000Y33300000D03*
D63*
%TO.P,BT1,1,+*%
%TO.N,+BATT*%
X71430000Y27550000D03*
%TO.P,BT1,2,-*%
%TO.N,GND*%
X69430000Y27550000D03*
%TD*%
D55*
%TO.P,D12,1,K*%
%TO.N,/E-Ink display/PREVGH*%
X15220000Y18990000D03*
%TO.P,D12,2,A*%
%TO.N,Net-(D12-A)*%
X15220000Y15690000D03*
%TD*%
D11*
%TO.P,R31,1*%
%TO.N,Net-(U1-PB0)*%
X48420000Y13850000D03*
%TO.P,R31,2*%
%TO.N,/BUSY*%
X47400000Y13850000D03*
%TD*%
D34*
%TO.P,Q2,1,G*%
%TO.N,/VBUS*%
X63280709Y8758500D03*
%TO.P,Q2,2,S*%
%TO.N,Net-(D9-K)*%
X61380709Y8758500D03*
%TO.P,Q2,3,D*%
%TO.N,+BATT*%
X62330709Y6883500D03*
%TD*%
D64*
%TO.P,C22,1*%
%TO.N,/E-Ink display/VCI*%
X18895000Y13840000D03*
%TO.P,C22,2*%
%TO.N,GND*%
X21845000Y13840000D03*
%TD*%
D65*
%TO.P,D9,1,K*%
%TO.N,Net-(D9-K)*%
X63350000Y11000000D03*
%TO.P,D9,2,A*%
%TO.N,/VBUS*%
X65450000Y11000000D03*
%TD*%
D11*
%TO.P,R34,1*%
%TO.N,Net-(U1-PA3)*%
X48420000Y17230000D03*
%TO.P,R34,2*%
%TO.N,/~{CS}*%
X47400000Y17230000D03*
%TD*%
D38*
%TO.P,R4,1*%
%TO.N,Net-(D1-K)*%
X37840000Y10330000D03*
%TO.P,R4,2*%
%TO.N,GND*%
X37840000Y9310000D03*
%TD*%
D57*
%TO.P,D4,1,K*%
%TO.N,GND*%
X19320000Y3825000D03*
%TO.P,D4,2,A*%
%TO.N,Net-(D4-A)*%
X19320000Y5400000D03*
%TD*%
D66*
%TO.P,Y1,1,1*%
%TO.N,Net-(U1-PH1)*%
X48271788Y24222279D03*
%TO.P,Y1,2,2*%
%TO.N,GND*%
X50455390Y24490392D03*
%TO.P,Y1,3,3*%
%TO.N,Net-(U1-PH0)*%
X50248212Y26177721D03*
%TO.P,Y1,4,4*%
%TO.N,GND*%
X48064610Y25909608D03*
%TD*%
D17*
%TO.P,C23,1*%
%TO.N,/E-Ink display/PREVGH*%
X12600000Y22288000D03*
%TO.P,C23,2*%
%TO.N,GND*%
X13560000Y22288000D03*
%TD*%
D39*
%TO.P,R8,1*%
%TO.N,/VBAT_MEAS*%
X46335000Y19740000D03*
%TO.P,R8,2*%
%TO.N,GND*%
X46335000Y20760000D03*
%TD*%
D18*
%TO.P,C9,1*%
%TO.N,/VBUS*%
X67280000Y16080000D03*
%TO.P,C9,2*%
%TO.N,GND*%
X66320000Y16080000D03*
%TD*%
D67*
%TO.N,GND*%
X18790000Y21840000D03*
X20530000Y21050000D03*
X22700000Y21050000D03*
X45050000Y22920000D03*
X44810000Y24400000D03*
X47600000Y22500000D03*
X47650000Y21320000D03*
X50000000Y29850000D03*
X51540000Y27630000D03*
X52370000Y25620000D03*
X58620000Y27210000D03*
X57010000Y26970000D03*
X57500000Y28810000D03*
X63940000Y20190000D03*
X63160000Y23000000D03*
X61580000Y24870000D03*
X61650000Y23790000D03*
%TO.N,/BUTTON3*%
X34015000Y3285000D03*
X74970000Y970000D03*
%TO.N,GND*%
X68490000Y26170000D03*
X68480000Y26850000D03*
X68490000Y27540000D03*
X68490000Y28520000D03*
X70812646Y24417354D03*
X48660000Y21680000D03*
X58423000Y24266752D03*
X71020000Y14470000D03*
X40470000Y8090000D03*
X71800000Y9540000D03*
X56250000Y25220000D03*
X17580000Y21140000D03*
X52510000Y12040000D03*
X14300000Y22840000D03*
X58668790Y22613499D03*
X60450000Y2250000D03*
X15787009Y11920000D03*
X11150000Y20500000D03*
X42090000Y31310000D03*
X71010000Y15190000D03*
X14170000Y14080000D03*
X42100524Y30670923D03*
X66220000Y8360000D03*
X54700589Y30270000D03*
X41570000Y18440000D03*
X71690000Y15220000D03*
X60510000Y11020000D03*
X46340000Y21410000D03*
X77550000Y23700000D03*
X69130000Y15400000D03*
X71790000Y8590000D03*
X65620000Y16080000D03*
X70970000Y22280000D03*
X56189110Y21980599D03*
X59970000Y8130000D03*
X72810000Y12200000D03*
X71610000Y21550000D03*
X65270013Y8180013D03*
X46259411Y26310589D03*
X66110000Y24324981D03*
X65270000Y13700000D03*
X21860000Y12000000D03*
X11180000Y15480000D03*
X63944000Y20998000D03*
X72562646Y24417354D03*
X70980000Y21540000D03*
X66230000Y9330000D03*
X66320000Y15450000D03*
X77600000Y12970000D03*
X61433000Y15070000D03*
X70900026Y18360026D03*
X21110000Y3760000D03*
X29805000Y24205000D03*
X14310000Y25100000D03*
X52817764Y19980233D03*
X14217354Y20577354D03*
X47429411Y27690589D03*
X37870000Y8630000D03*
X51102057Y21413334D03*
X46850000Y7220000D03*
X53890589Y30270000D03*
X44550000Y8230000D03*
X68410000Y15570000D03*
X43240000Y3780000D03*
X42550000Y8260000D03*
%TO.N,+3V0*%
X18270000Y35230000D03*
X18320000Y32232000D03*
X54700002Y12454066D03*
X57470000Y10410000D03*
%TO.N,/VBUS*%
X71810000Y4562500D03*
X72520000Y2980000D03*
X64054648Y4855574D03*
X64110000Y6300000D03*
%TO.N,/WAKEUP*%
X51810000Y18720000D03*
X49113663Y18641379D03*
%TO.N,+BATT*%
X47300000Y30740002D03*
X47280000Y33101000D03*
%TO.N,/SCLK*%
X31900000Y20400000D03*
X31860000Y19170000D03*
%TO.N,/NRST*%
X55506309Y20362659D03*
X54315380Y21199038D03*
X53580000Y11080000D03*
X52610000Y7700000D03*
%TO.N,Net-(U3-TEMP)*%
X48460000Y30687341D03*
X48230000Y32930000D03*
%TO.N,/VBUS_PRESENT*%
X56053964Y20851960D03*
X55080000Y21519998D03*
%TO.N,/Power/USB_IN_D+*%
X73693000Y18048724D03*
X73692418Y19127000D03*
%TO.N,Net-(U1-PA14)*%
X52083000Y8801574D03*
X52790000Y10550000D03*
%TO.N,/~{CS}*%
X34150000Y17450000D03*
X33633709Y15953768D03*
%TD*%
D68*
%TO.N,/E-Ink display/VCC*%
X21620000Y22980000D02*
X23660000Y22980000D01*
X19550000Y22980000D02*
X21620000Y22980000D01*
X19380000Y22810000D02*
X19550000Y22980000D01*
X18040000Y22810000D02*
X19380000Y22810000D01*
%TO.N,GND*%
X18790000Y21840000D02*
X19550000Y21080000D01*
X20560000Y21080000D02*
X21620000Y21080000D01*
X20530000Y21050000D02*
X20560000Y21080000D01*
X20500000Y21080000D02*
X20530000Y21050000D01*
X22730000Y21080000D02*
X23660000Y21080000D01*
X22700000Y21050000D02*
X22730000Y21080000D01*
X22670000Y21080000D02*
X22700000Y21050000D01*
X21620000Y21080000D02*
X22670000Y21080000D01*
X19550000Y21080000D02*
X20500000Y21080000D01*
X18780000Y21850000D02*
X18790000Y21840000D01*
X18040000Y21850000D02*
X18780000Y21850000D01*
%TO.N,Net-(D10-A)*%
X19153000Y20303000D02*
X17640000Y18790000D01*
X26175000Y20970000D02*
X25508000Y20303000D01*
X25508000Y20303000D02*
X19153000Y20303000D01*
D69*
%TO.N,/E-Ink display/PREVGL*%
X16071000Y23939000D02*
X16402000Y24270000D01*
X13137000Y23939000D02*
X16071000Y23939000D01*
X12600000Y24476000D02*
X13137000Y23939000D01*
X16402000Y24270000D02*
X26175000Y24270000D01*
%TO.N,/VBUS*%
X64780624Y19180000D02*
X66050000Y20449376D01*
X62240000Y19180000D02*
X64780624Y19180000D01*
X61740624Y19679376D02*
X62240000Y19180000D01*
X61740624Y20449376D02*
X61740624Y19679376D01*
%TO.N,Net-(U1-PH0)*%
X48885344Y27540589D02*
X48649411Y27540589D01*
X50248212Y26177721D02*
X48885344Y27540589D01*
%TO.N,Net-(U1-PH1)*%
X47367721Y24222279D02*
X46449411Y25140589D01*
X48271788Y24222279D02*
X47367721Y24222279D01*
D70*
%TO.N,GND*%
X46869411Y27104807D02*
X46869411Y27130589D01*
X48064610Y25909608D02*
X46869411Y27104807D01*
X46869411Y27130589D02*
X47429411Y27690589D01*
X46259411Y26520589D02*
X46869411Y27130589D01*
X46259411Y26310589D02*
X46259411Y26520589D01*
D69*
%TO.N,/Power/CC1*%
X74720000Y12350000D02*
X74720000Y15965000D01*
X73585000Y17100000D02*
X72765000Y17100000D01*
X74570000Y12200000D02*
X74720000Y12350000D01*
X74720000Y15965000D02*
X73585000Y17100000D01*
D68*
%TO.N,+3V0*%
X76171000Y25459000D02*
X75890000Y25740000D01*
X76171000Y12850000D02*
X76171000Y25459000D01*
D70*
%TO.N,+BATT*%
X72830000Y27550000D02*
X71430000Y27550000D01*
X75544000Y24836000D02*
X72830000Y27550000D01*
X75544000Y11663732D02*
X75544000Y24836000D01*
X74677000Y4081026D02*
X74677000Y10796732D01*
X73630000Y3034026D02*
X74677000Y4081026D01*
X74677000Y10796732D02*
X75544000Y11663732D01*
D69*
%TO.N,/Power/CC2*%
X73730000Y20100000D02*
X74740000Y21110000D01*
X72765000Y20100000D02*
X73730000Y20100000D01*
%TO.N,Net-(U3-TEMP)*%
X69406839Y30004667D02*
X66394667Y30004667D01*
X70157000Y26391494D02*
X70157000Y29254506D01*
X71348494Y25200000D02*
X70157000Y26391494D01*
X74425688Y25200000D02*
X71348494Y25200000D01*
X75067000Y11861312D02*
X75067000Y24558688D01*
X75067000Y24558688D02*
X74425688Y25200000D01*
X74858688Y11653000D02*
X75067000Y11861312D01*
X72052000Y11653000D02*
X74858688Y11653000D01*
X70157000Y29254506D02*
X69406839Y30004667D01*
X71315000Y12390000D02*
X72052000Y11653000D01*
%TO.N,/Power/CC2*%
X74740000Y24050000D02*
X74360000Y24430000D01*
X74740000Y21110000D02*
X74740000Y24050000D01*
%TO.N,/BUTTON3*%
X36904000Y6174000D02*
X34015000Y3285000D01*
%TO.N,+3V0*%
X36503500Y1449500D02*
X37100000Y853000D01*
X35660761Y1449500D02*
X36503500Y1449500D01*
X34856261Y645000D02*
X35660761Y1449500D01*
%TO.N,/BUTTON3*%
X74970000Y1220001D02*
X74970000Y970000D01*
%TO.N,+3V0*%
X5055000Y645000D02*
X34856261Y645000D01*
%TO.N,/BUTTON3*%
X76100000Y2350001D02*
X74970000Y1220001D01*
%TO.N,+3V0*%
X2800000Y2900000D02*
X5055000Y645000D01*
%TO.N,/BUTTON3*%
X76100000Y2950000D02*
X76100000Y2350001D01*
X42324000Y6174000D02*
X36904000Y6174000D01*
X43060000Y6910000D02*
X42324000Y6174000D01*
X43060000Y7230000D02*
X43060000Y6910000D01*
%TO.N,/BUTTON1*%
X43667000Y5847000D02*
X37581708Y5847000D01*
X45050000Y7230000D02*
X43667000Y5847000D01*
X34552354Y2817646D02*
X32706709Y972000D01*
X37581708Y5847000D02*
X34552354Y2817646D01*
%TO.N,+3V0*%
X37050000Y903000D02*
X37100000Y853000D01*
X37100000Y853000D02*
X37710000Y853000D01*
X37050000Y2060000D02*
X37050000Y903000D01*
X36503000Y3368688D02*
X36503000Y2607000D01*
X36503000Y2607000D02*
X37050000Y2060000D01*
X37754312Y4620000D02*
X36503000Y3368688D01*
X39700000Y4620000D02*
X37754312Y4620000D01*
%TO.N,/NRST*%
X38700000Y3080000D02*
X39700000Y2080000D01*
X37050000Y3080000D02*
X38700000Y3080000D01*
D70*
%TO.N,GND*%
X69060000Y26170000D02*
X69430000Y25800000D01*
X68490000Y26170000D02*
X69060000Y26170000D01*
X68840000Y27540000D02*
X68840000Y27210000D01*
X68840000Y27210000D02*
X68480000Y26850000D01*
X68840000Y28170000D02*
X68840000Y27540000D01*
X68490000Y28520000D02*
X68840000Y28170000D01*
X68490000Y27540000D02*
X68840000Y27540000D01*
X68840000Y27540000D02*
X69420000Y27540000D01*
X69420000Y27540000D02*
X69430000Y27550000D01*
X68490000Y26610000D02*
X69430000Y27550000D01*
X68490000Y26170000D02*
X68490000Y26610000D01*
X68480000Y26180000D02*
X68490000Y26170000D01*
X68480000Y26850000D02*
X68480000Y26180000D01*
X68490000Y26860000D02*
X68480000Y26850000D01*
X68490000Y27540000D02*
X68490000Y26860000D01*
X68490000Y28520000D02*
X68490000Y27540000D01*
X69430000Y27580000D02*
X68490000Y28520000D01*
X69430000Y27550000D02*
X69430000Y27580000D01*
X69430000Y25800000D02*
X70812646Y24417354D01*
X69430000Y27550000D02*
X69430000Y25800000D01*
X72562646Y24417354D02*
X70812646Y24417354D01*
D69*
X48680000Y21660000D02*
X48660000Y21680000D01*
X48680000Y21170000D02*
X48680000Y21660000D01*
%TO.N,+3V0*%
X49870000Y20940000D02*
X49640000Y21170000D01*
X50868284Y20940000D02*
X49870000Y20940000D01*
X51508835Y20299449D02*
X50868284Y20940000D01*
X51682785Y20299449D02*
X51508835Y20299449D01*
%TO.N,/BUTTON0*%
X40523000Y6683000D02*
X41070000Y7230000D01*
X36323000Y6683000D02*
X40523000Y6683000D01*
X31436000Y1796000D02*
X36323000Y6683000D01*
X11864000Y1796000D02*
X31436000Y1796000D01*
X2800000Y29600000D02*
X2800000Y10860000D01*
X2800000Y10860000D02*
X11864000Y1796000D01*
%TO.N,Net-(U3-TEMP)*%
X63469334Y32930000D02*
X48230000Y32930000D01*
X66060000Y22980000D02*
X67270000Y24190000D01*
%TO.N,+BATT*%
X48699000Y34520000D02*
X47280000Y33101000D01*
X63322448Y34520000D02*
X48699000Y34520000D01*
X65476000Y32366448D02*
X63322448Y34520000D01*
X66115782Y30746000D02*
X65476000Y31385782D01*
X69984000Y30746000D02*
X66115782Y30746000D01*
X71430000Y27550000D02*
X71430000Y29300000D01*
D70*
%TO.N,+3V0*%
X65894000Y33096000D02*
X63694000Y35296000D01*
X65894000Y32623028D02*
X65894000Y33096000D01*
X65953000Y32564028D02*
X65894000Y32623028D01*
X65953000Y31583362D02*
X65953000Y32564028D01*
D69*
%TO.N,+BATT*%
X71430000Y29300000D02*
X69984000Y30746000D01*
D70*
%TO.N,+3V0*%
X66313362Y31223000D02*
X65953000Y31583362D01*
X74427000Y31223000D02*
X66313362Y31223000D01*
X63694000Y35296000D02*
X46166000Y35296000D01*
X76100000Y29550000D02*
X74427000Y31223000D01*
D69*
%TO.N,+BATT*%
X65476000Y31385782D02*
X65476000Y32366448D01*
%TO.N,GND*%
X66060000Y24000000D02*
X66060000Y24274981D01*
%TO.N,Net-(U3-TEMP)*%
X67270000Y29129334D02*
X63469334Y32930000D01*
%TO.N,GND*%
X66060000Y24274981D02*
X66110000Y24324981D01*
%TO.N,Net-(U3-TEMP)*%
X67270000Y24190000D02*
X67270000Y29129334D01*
%TO.N,/PB8*%
X39240000Y28900000D02*
X39240000Y29700000D01*
X40311000Y27829000D02*
X39240000Y28900000D01*
X47569239Y31470000D02*
X47101344Y31470000D01*
X47701898Y31337341D02*
X47569239Y31470000D01*
X56472659Y31337341D02*
X47701898Y31337341D01*
X59640000Y28170000D02*
X56472659Y31337341D01*
X59640000Y24400000D02*
X59640000Y28170000D01*
X57569449Y22067215D02*
X58039385Y22537151D01*
X43460344Y27829000D02*
X40311000Y27829000D01*
%TO.N,/PB5*%
X40740000Y28900000D02*
X40740000Y29700000D01*
X40767000Y28873000D02*
X40740000Y28900000D01*
%TO.N,/PB8*%
X58039385Y22537151D02*
X58039385Y22799385D01*
%TO.N,/PB5*%
X43117000Y28873000D02*
X40767000Y28873000D01*
X46695000Y32451000D02*
X43117000Y28873000D01*
X48108242Y32318341D02*
X47975583Y32451000D01*
X60621000Y22290340D02*
X60621000Y28989000D01*
X58983662Y20653002D02*
X60621000Y22290340D01*
%TO.N,/PB6*%
X40240000Y28900000D02*
X40240000Y29700000D01*
%TO.N,/PB8*%
X47101344Y31470000D02*
X43460344Y27829000D01*
%TO.N,/PB6*%
X43189448Y28483000D02*
X40657000Y28483000D01*
X46830448Y32124000D02*
X43189448Y28483000D01*
X47840135Y32124000D02*
X46830448Y32124000D01*
%TO.N,/PB5*%
X57291659Y32318341D02*
X48108242Y32318341D01*
%TO.N,/PB6*%
X47972794Y31991341D02*
X47840135Y32124000D01*
X60294000Y22670446D02*
X60294000Y28706000D01*
X58630109Y21006555D02*
X60294000Y22670446D01*
%TO.N,/PB8*%
X58039385Y22799385D02*
X59640000Y24400000D01*
%TO.N,/PB7*%
X39740000Y28900000D02*
X39740000Y29700000D01*
X40484000Y28156000D02*
X39740000Y28900000D01*
X47837346Y31664341D02*
X47704687Y31797000D01*
X43324896Y28156000D02*
X40484000Y28156000D01*
X59967000Y28423000D02*
X56725659Y31664341D01*
X47704687Y31797000D02*
X46965896Y31797000D01*
%TO.N,/PB6*%
X57008659Y31991341D02*
X47972794Y31991341D01*
%TO.N,/PB7*%
X46965896Y31797000D02*
X43324896Y28156000D01*
X56725659Y31664341D02*
X47837346Y31664341D01*
%TO.N,/PB6*%
X40657000Y28483000D02*
X40240000Y28900000D01*
%TO.N,/PB7*%
X59967000Y23050554D02*
X59967000Y28423000D01*
%TO.N,/PB5*%
X60621000Y28989000D02*
X57291659Y32318341D01*
%TO.N,/PB7*%
X58276555Y21360109D02*
X59967000Y23050554D01*
%TO.N,/PB6*%
X60294000Y28706000D02*
X57008659Y31991341D01*
%TO.N,/PB5*%
X47975583Y32451000D02*
X46695000Y32451000D01*
D71*
%TO.N,Net-(U1-PC14)*%
X53307697Y24517697D02*
X53307697Y22917177D01*
X54470000Y25680000D02*
X53307697Y24517697D01*
X54470000Y26500000D02*
X54470000Y25680000D01*
X55530589Y27560589D02*
X54470000Y26500000D01*
X53307697Y22917177D02*
X53804105Y22420769D01*
X55550000Y27560589D02*
X55530589Y27560589D01*
%TO.N,Net-(U1-PC15)*%
X54080000Y26530589D02*
X53050000Y27560589D01*
X54080000Y25823158D02*
X54080000Y26530589D01*
X52859167Y22658599D02*
X52859167Y24602325D01*
X52859167Y24602325D02*
X54080000Y25823158D01*
X53450551Y22067215D02*
X52859167Y22658599D01*
D70*
%TO.N,GND*%
X50099885Y24490392D02*
X50455390Y24490392D01*
X48064610Y25909608D02*
X48680669Y25909608D01*
X48680669Y25909608D02*
X50099885Y24490392D01*
D69*
%TO.N,Net-(U1-PH1)*%
X49387290Y23106777D02*
X48271788Y24222279D01*
X50996777Y23106777D02*
X49387290Y23106777D01*
X52743445Y21360109D02*
X50996777Y23106777D01*
%TO.N,Net-(U1-PH0)*%
X50391585Y26177721D02*
X50248212Y26177721D01*
X51460000Y23350660D02*
X51460000Y25109306D01*
X51460000Y25109306D02*
X50391585Y26177721D01*
X53096998Y21713662D02*
X51460000Y23350660D01*
%TO.N,GND*%
X51276006Y21413334D02*
X51102057Y21413334D01*
X52036338Y20653002D02*
X51276006Y21413334D01*
D68*
X17580000Y21850000D02*
X17580000Y21140000D01*
D70*
X68500000Y8250000D02*
X67570000Y9180000D01*
D69*
X57923002Y21713662D02*
X57923002Y21867711D01*
D70*
X69100000Y8250000D02*
X69100000Y8300000D01*
X66320000Y16080000D02*
X65620000Y16080000D01*
X73550000Y13845000D02*
X73365000Y14030000D01*
D69*
X11050000Y20600000D02*
X11150000Y20500000D01*
D70*
X66330000Y8250000D02*
X66220000Y8360000D01*
X69050000Y15320000D02*
X68355000Y15320000D01*
X70970000Y22280000D02*
X70970000Y21550000D01*
X68355000Y14820000D02*
X68550000Y14820000D01*
X47958233Y28219411D02*
X47429411Y27690589D01*
D69*
X13560000Y22840000D02*
X14300000Y22840000D01*
D70*
X71010000Y15190000D02*
X71010000Y14480000D01*
X71690000Y9650000D02*
X71800000Y9540000D01*
D69*
X9700000Y20600000D02*
X11050000Y20600000D01*
X56189110Y22101090D02*
X56189110Y21980599D01*
X41525000Y18425000D02*
X41540000Y18440000D01*
X57923002Y21867711D02*
X58668790Y22613499D01*
X59970000Y7330000D02*
X59970000Y8130000D01*
D68*
X42240000Y29700000D02*
X42240000Y30531447D01*
D69*
X9700000Y16100000D02*
X10560000Y16100000D01*
X13550000Y25570000D02*
X13550000Y25100000D01*
X42225000Y18425000D02*
X41525000Y18425000D01*
D70*
X45770589Y25821767D02*
X46259411Y26310589D01*
D69*
X20840000Y11900000D02*
X21760000Y11900000D01*
X13550000Y25100000D02*
X13550000Y24486000D01*
X13550000Y24486000D02*
X13560000Y24476000D01*
X54157658Y13705678D02*
X54146856Y13705678D01*
X44080000Y7760000D02*
X44550000Y8230000D01*
X57808609Y23720589D02*
X56862342Y22774322D01*
D70*
X69100000Y8250000D02*
X68500000Y8250000D01*
D69*
X19385000Y3760000D02*
X19320000Y3825000D01*
D70*
X71610000Y21550000D02*
X70990000Y21550000D01*
X71720000Y15160000D02*
X71700000Y15180000D01*
D69*
X63675363Y20906637D02*
X63754000Y20828000D01*
D70*
X70970000Y21550000D02*
X70980000Y21540000D01*
X71020000Y14470000D02*
X71020000Y14500000D01*
X68355000Y15515000D02*
X68410000Y15570000D01*
X73550000Y12200000D02*
X72810000Y12200000D01*
D69*
X13560000Y22840000D02*
X13560000Y22288000D01*
X14825000Y11900000D02*
X15767009Y11900000D01*
D70*
X68355000Y15320000D02*
X68355000Y15515000D01*
D68*
X60991178Y15940802D02*
X60044322Y16887658D01*
D69*
X58300589Y23720589D02*
X58423000Y23843000D01*
D70*
X67570000Y9180000D02*
X67420000Y9330000D01*
D69*
X21760000Y11900000D02*
X21860000Y12000000D01*
X52719767Y19980233D02*
X52817764Y19980233D01*
D70*
X73340000Y24430000D02*
X72575292Y24430000D01*
X68410000Y15570000D02*
X68960000Y15570000D01*
X70040000Y18350000D02*
X70890000Y18350000D01*
X71750000Y15160000D02*
X71720000Y15160000D01*
D69*
X54146856Y13705678D02*
X53030589Y12589411D01*
X21175000Y3825000D02*
X21110000Y3760000D01*
D70*
X54700589Y30270000D02*
X55540000Y30270000D01*
X71700000Y15180000D02*
X71020000Y15180000D01*
D68*
X17580000Y21850000D02*
X18040000Y21850000D01*
D70*
X73340000Y22695000D02*
X73365000Y22670000D01*
D69*
X53030589Y12560589D02*
X52510000Y12040000D01*
D68*
X17000000Y21850000D02*
X17580000Y21850000D01*
D69*
X43080000Y3780000D02*
X43240000Y3780000D01*
X37840000Y9310000D02*
X37840000Y8660000D01*
D70*
X65260000Y8170000D02*
X65270013Y8180013D01*
D69*
X42090000Y7800000D02*
X42550000Y8260000D01*
X46840000Y7230000D02*
X46850000Y7220000D01*
D70*
X65260000Y7170000D02*
X65260000Y8170000D01*
D69*
X52046998Y20653002D02*
X52719767Y19980233D01*
D70*
X64970000Y13700000D02*
X64960000Y13710000D01*
D69*
X55708822Y24678822D02*
X56250000Y25220000D01*
D70*
X77565000Y14030000D02*
X77565000Y13005000D01*
X71450000Y8250000D02*
X71790000Y8590000D01*
X77565000Y22670000D02*
X77565000Y23685000D01*
D69*
X13560000Y14500000D02*
X13560000Y14130000D01*
D70*
X69100000Y8300000D02*
X70450000Y9650000D01*
D69*
X21110000Y3760000D02*
X19385000Y3760000D01*
D70*
X68960000Y15570000D02*
X69130000Y15400000D01*
X55540000Y30270000D02*
X55550000Y30260000D01*
X71640000Y21550000D02*
X71610000Y21550000D01*
D68*
X42240000Y30531447D02*
X42100524Y30670923D01*
D70*
X70890000Y18350000D02*
X70900026Y18360026D01*
D69*
X14120000Y14130000D02*
X14170000Y14080000D01*
X13550000Y25100000D02*
X14310000Y25100000D01*
D70*
X69100000Y8250000D02*
X71450000Y8250000D01*
X65620000Y16080000D02*
X65620000Y14050000D01*
X69100000Y8250000D02*
X66330000Y8250000D01*
X70450000Y9650000D02*
X71690000Y9650000D01*
D69*
X60991178Y15531178D02*
X61433000Y15089356D01*
D70*
X61250000Y11020000D02*
X60510000Y11020000D01*
D69*
X13560000Y14130000D02*
X13560000Y13500000D01*
X62853363Y21076637D02*
X63865363Y21076637D01*
D70*
X65260000Y7170000D02*
X68020000Y7170000D01*
D69*
X13560000Y14130000D02*
X14120000Y14130000D01*
X42090000Y7230000D02*
X42090000Y7800000D01*
X13560000Y20650000D02*
X14144708Y20650000D01*
D70*
X64970000Y12990000D02*
X64970000Y13700000D01*
X70990000Y21550000D02*
X70980000Y21540000D01*
D69*
X10560000Y16100000D02*
X11180000Y15480000D01*
D68*
X29785000Y24225000D02*
X29805000Y24205000D01*
D69*
X41540000Y18440000D02*
X41570000Y18440000D01*
X40100000Y7230000D02*
X40100000Y7720000D01*
D70*
X68355000Y14820000D02*
X68355000Y15320000D01*
X73550000Y12200000D02*
X73550000Y13845000D01*
D68*
X42100524Y31299476D02*
X42090000Y31310000D01*
D70*
X72575292Y24430000D02*
X72562646Y24417354D01*
D69*
X46335000Y20760000D02*
X46335000Y21405000D01*
D68*
X28685000Y24225000D02*
X29785000Y24225000D01*
D70*
X67420000Y9330000D02*
X66230000Y9330000D01*
X65620000Y14050000D02*
X65270000Y13700000D01*
X53050000Y30260000D02*
X53880589Y30260000D01*
X53880589Y30260000D02*
X53890589Y30270000D01*
D69*
X46070000Y7230000D02*
X46840000Y7230000D01*
D70*
X71610000Y21640000D02*
X70970000Y22280000D01*
X68465000Y12400000D02*
X68465000Y14710000D01*
D69*
X22895000Y3825000D02*
X21175000Y3825000D01*
X14144708Y20650000D02*
X14217354Y20577354D01*
X42240000Y4620000D02*
X43080000Y3780000D01*
X53030589Y12589411D02*
X53030589Y12560589D01*
D70*
X77565000Y23685000D02*
X77550000Y23700000D01*
D69*
X40100000Y7720000D02*
X40470000Y8090000D01*
D70*
X73340000Y24430000D02*
X73340000Y22695000D01*
D69*
X37840000Y8660000D02*
X37870000Y8630000D01*
D70*
X69130000Y15400000D02*
X69050000Y15320000D01*
X71610000Y21550000D02*
X71610000Y21640000D01*
X77565000Y13005000D02*
X77600000Y12970000D01*
X71010000Y14480000D02*
X71020000Y14470000D01*
D69*
X15767009Y11900000D02*
X15787009Y11920000D01*
X58239411Y23720589D02*
X57808609Y23720589D01*
D70*
X60457500Y2242500D02*
X60450000Y2250000D01*
D69*
X13560000Y20650000D02*
X13560000Y20100000D01*
D70*
X68550000Y14820000D02*
X69130000Y15400000D01*
X72765000Y15150000D02*
X71660000Y15150000D01*
X53890589Y30270000D02*
X54700589Y30270000D01*
D69*
X13560000Y21194000D02*
X13560000Y20650000D01*
X61433000Y15089356D02*
X61433000Y15070000D01*
D70*
X68465000Y14710000D02*
X68355000Y14820000D01*
X71020000Y14500000D02*
X71700000Y15180000D01*
X66320000Y16080000D02*
X66320000Y15450000D01*
D69*
X21845000Y12015000D02*
X21860000Y12000000D01*
X55708822Y24658822D02*
X55708822Y24678822D01*
X52036338Y20653002D02*
X52046998Y20653002D01*
D68*
X60991178Y15531178D02*
X60991178Y15940802D01*
D69*
X56862342Y22774322D02*
X56189110Y22101090D01*
D70*
X61140000Y2242500D02*
X60457500Y2242500D01*
D68*
X42100524Y30670923D02*
X42100524Y31299476D01*
D70*
X72765000Y21550000D02*
X71640000Y21550000D01*
D69*
X21845000Y13900000D02*
X21845000Y12015000D01*
X58423000Y23843000D02*
X58423000Y24266752D01*
X46335000Y21405000D02*
X46340000Y21410000D01*
X44080000Y7230000D02*
X44080000Y7760000D01*
X58239411Y23720589D02*
X58300589Y23720589D01*
X13560000Y23382000D02*
X13560000Y22840000D01*
D71*
%TO.N,Net-(U1-PC14)*%
X55550000Y27560589D02*
X55550000Y29300000D01*
%TO.N,Net-(U1-PC15)*%
X53050000Y27560589D02*
X53050000Y29300000D01*
D68*
%TO.N,+3V0*%
X55550000Y23127876D02*
X55550000Y21856002D01*
D70*
X53709411Y11910589D02*
X54252888Y12454066D01*
X76100000Y25950000D02*
X76100000Y29550000D01*
D69*
X57560589Y24179677D02*
X56508788Y23127876D01*
X37710000Y853000D02*
X51173000Y853000D01*
D68*
X21726842Y35230000D02*
X18270000Y35230000D01*
D70*
X54940000Y4620000D02*
X58810000Y750000D01*
D69*
X55060000Y13900912D02*
X54511212Y13352124D01*
D68*
X52400000Y19582234D02*
X52400000Y18650000D01*
D70*
X75123000Y3530424D02*
X76100000Y4507424D01*
D68*
X54511212Y23127876D02*
X55550000Y23127876D01*
D69*
X61670000Y16210000D02*
X61429088Y16210000D01*
D70*
X75890000Y25740000D02*
X76100000Y25950000D01*
D68*
X61429088Y16210000D02*
X60397876Y17241212D01*
D70*
X58810000Y750000D02*
X66618270Y750000D01*
X54252888Y12454066D02*
X54700002Y12454066D01*
D68*
X55550000Y23127876D02*
X56508788Y23127876D01*
D70*
X55720000Y8660000D02*
X59611102Y12551102D01*
X54940000Y4620000D02*
X54940000Y7130000D01*
X59611102Y12551102D02*
X60141102Y12551102D01*
D68*
X42740000Y33654000D02*
X44270000Y35184000D01*
D69*
X51682785Y20299449D02*
X52152722Y19829512D01*
D68*
X44270000Y35390000D02*
X21886842Y35390000D01*
X52152722Y19829512D02*
X52400000Y19582234D01*
X46072000Y35390000D02*
X46166000Y35296000D01*
D70*
X55720000Y7910000D02*
X55720000Y8660000D01*
D68*
X18270000Y35230000D02*
X5940000Y35230000D01*
X15540000Y25150000D02*
X15540000Y29452000D01*
D70*
X72440000Y800000D02*
X73670000Y800000D01*
X54252888Y12454066D02*
X54252888Y13055618D01*
D69*
X55060000Y15990000D02*
X55060000Y13900912D01*
D70*
X54252888Y13055618D02*
X54530303Y13333033D01*
X76100000Y7150000D02*
X76171000Y7221000D01*
X75123000Y2253000D02*
X75123000Y3530424D01*
D68*
X21886842Y35390000D02*
X21726842Y35230000D01*
X54511212Y23461212D02*
X55030000Y23980000D01*
X53830000Y17220000D02*
X55060000Y15990000D01*
D70*
X76171000Y7221000D02*
X76171000Y12850000D01*
D69*
X2900000Y33750000D02*
X3980000Y34830000D01*
D70*
X66618270Y750000D02*
X72390000Y750000D01*
D68*
X55279002Y20893000D02*
X55119397Y20893000D01*
X55657000Y21270998D02*
X55279002Y20893000D01*
D69*
X5540000Y34830000D02*
X5940000Y35230000D01*
D68*
X55657000Y21749002D02*
X55657000Y21270998D01*
X53830000Y19603603D02*
X53830000Y17220000D01*
D70*
X73670000Y800000D02*
X75123000Y2253000D01*
D69*
X3980000Y34830000D02*
X5540000Y34830000D01*
D70*
X62110000Y15770000D02*
X61670000Y16210000D01*
X54940000Y7130000D02*
X55720000Y7910000D01*
D68*
X44270000Y35184000D02*
X44270000Y35390000D01*
D70*
X76100000Y4507424D02*
X76100000Y7150000D01*
D68*
X72390000Y750000D02*
X72440000Y800000D01*
D70*
X60141102Y12551102D02*
X62110000Y14520000D01*
D68*
X44270000Y35390000D02*
X46072000Y35390000D01*
X55119397Y20893000D02*
X53830000Y19603603D01*
X52400000Y18650000D02*
X53830000Y17220000D01*
D69*
X57560589Y24399411D02*
X57560589Y24179677D01*
X51173000Y853000D02*
X54940000Y4620000D01*
D68*
X54511212Y23127876D02*
X54511212Y23461212D01*
X15540000Y29452000D02*
X18320000Y32232000D01*
X42740000Y29700000D02*
X42740000Y33654000D01*
X55550000Y21856002D02*
X55657000Y21749002D01*
D70*
X62110000Y14520000D02*
X62110000Y15770000D01*
%TO.N,/VBUS*%
X66850000Y12400000D02*
X65450000Y11000000D01*
X68910000Y19577791D02*
X68910000Y18870000D01*
X67788629Y16080000D02*
X67280000Y16080000D01*
X67280000Y12485000D02*
X67195000Y12400000D01*
X68128629Y16420000D02*
X67788629Y16080000D01*
X68810000Y17222209D02*
X68810000Y17930000D01*
D69*
X66050000Y20449376D02*
X66060000Y20459376D01*
X66050000Y20449376D02*
X68038415Y20449376D01*
D70*
X65450000Y11000000D02*
X65450000Y10927791D01*
D69*
X64008000Y3254500D02*
X64008000Y4808926D01*
D70*
X71810000Y4562500D02*
X71467500Y4562500D01*
X65450000Y10927791D02*
X63280709Y8758500D01*
D69*
X65398500Y1864000D02*
X71404000Y1864000D01*
D70*
X67195000Y12400000D02*
X66850000Y12400000D01*
X68390000Y18350000D02*
X67765000Y18350000D01*
X68910000Y18870000D02*
X68390000Y18350000D01*
D69*
X63280709Y7129291D02*
X63280709Y8758500D01*
D70*
X71467500Y4562500D02*
X71005000Y4100000D01*
X68810000Y16420000D02*
X68128629Y16420000D01*
X72765000Y20750000D02*
X70082209Y20750000D01*
D69*
X64110000Y6300000D02*
X63280709Y7129291D01*
D70*
X70082209Y20750000D02*
X68910000Y19577791D01*
D69*
X68038415Y20449376D02*
X68910000Y19577791D01*
X66060000Y20459376D02*
X66060000Y21040000D01*
X64008000Y4808926D02*
X64054648Y4855574D01*
D70*
X66580000Y12400000D02*
X65990000Y12990000D01*
X68810000Y17222209D02*
X68810000Y16420000D01*
X67280000Y16080000D02*
X67280000Y12485000D01*
D69*
X64710000Y2552500D02*
X65398500Y1864000D01*
D70*
X70082209Y15950000D02*
X68810000Y17222209D01*
X72590000Y4562500D02*
X71810000Y4562500D01*
X68810000Y17930000D02*
X68390000Y18350000D01*
D69*
X71404000Y1864000D02*
X72520000Y2980000D01*
X64710000Y2552500D02*
X64008000Y3254500D01*
D70*
X67195000Y12400000D02*
X66580000Y12400000D01*
X72765000Y15950000D02*
X70082209Y15950000D01*
%TO.N,Net-(D9-K)*%
X61380709Y8758500D02*
X61380709Y4826791D01*
X63350000Y11000000D02*
X62230000Y11000000D01*
X61380709Y4826791D02*
X62090000Y4117500D01*
X62230000Y11000000D02*
X62210000Y11020000D01*
X62210000Y10710000D02*
X61380709Y9880709D01*
X62210000Y11020000D02*
X62210000Y10710000D01*
X61380709Y9880709D02*
X61380709Y8758500D01*
X62330709Y10899291D02*
X62210000Y11020000D01*
%TO.N,Net-(J8-Pin_1)*%
X57480000Y7450000D02*
X57020000Y7910000D01*
X57480000Y4620000D02*
X57480000Y7450000D01*
X57992500Y4107500D02*
X57480000Y4620000D01*
X57982500Y4117500D02*
X57480000Y4620000D01*
X59970000Y4337500D02*
X60190000Y4117500D01*
X59970000Y6370000D02*
X59970000Y4337500D01*
X60190000Y4117500D02*
X57982500Y4117500D01*
D69*
%TO.N,/E-Ink display/VCOM*%
X11320000Y24100000D02*
X9700000Y24100000D01*
X12590000Y25570000D02*
X12590000Y25370000D01*
X12590000Y25370000D02*
X11320000Y24100000D01*
%TO.N,/E-Ink display/VSL*%
X12318000Y23100000D02*
X9700000Y23100000D01*
X12600000Y23382000D02*
X12318000Y23100000D01*
%TO.N,/E-Ink display/VSH*%
X12600000Y21194000D02*
X11694000Y22100000D01*
X11694000Y22100000D02*
X9700000Y22100000D01*
%TO.N,/E-Ink display/VDD*%
X11600000Y21100000D02*
X9700000Y21100000D01*
X12600000Y20100000D02*
X11600000Y21100000D01*
%TO.N,/E-Ink display/VCI*%
X18895000Y12885000D02*
X19880000Y11900000D01*
X16987500Y13900000D02*
X18895000Y13900000D01*
X18895000Y13900000D02*
X18895000Y12885000D01*
%TO.N,/E-Ink display/VGH*%
X9700000Y14600000D02*
X12500000Y14600000D01*
X12500000Y14600000D02*
X12600000Y14500000D01*
%TO.N,/E-Ink display/PREVGL*%
X11724000Y23600000D02*
X9700000Y23600000D01*
X12600000Y24476000D02*
X11724000Y23600000D01*
D72*
%TO.N,/BUSY*%
X16807539Y16605500D02*
X16750039Y16548000D01*
X14608000Y16548000D02*
X14110000Y16050000D01*
X16750039Y16548000D02*
X14608000Y16548000D01*
X19949582Y15180000D02*
X18487582Y16642000D01*
X18487582Y16642000D02*
X18451082Y16605500D01*
D69*
X19949582Y15180000D02*
X22495104Y15180000D01*
D72*
X14110000Y16050000D02*
X13590000Y16050000D01*
X18451082Y16605500D02*
X16807539Y16605500D01*
D69*
X22495104Y15180000D02*
X23825104Y13850000D01*
X23825104Y13850000D02*
X47400000Y13850000D01*
%TO.N,/~{RES}*%
X20320000Y16130000D02*
X20290000Y16100000D01*
X7730000Y23772656D02*
X17146344Y33189000D01*
X17146344Y33189000D02*
X22306344Y33189000D01*
X29781000Y33329000D02*
X33410000Y29700000D01*
X12360104Y16905000D02*
X12293104Y16972000D01*
X44747372Y14790000D02*
X28120000Y14790000D01*
X22306344Y33189000D02*
X22446344Y33329000D01*
D72*
X16644829Y16802000D02*
X13259580Y16802000D01*
X13156580Y16905000D02*
X12360104Y16905000D01*
X19430420Y16959580D02*
X19430420Y16962000D01*
X16702329Y16859500D02*
X16644829Y16802000D01*
X18250420Y16962000D02*
X18147920Y16859500D01*
D69*
X47400000Y14890000D02*
X47290500Y14780500D01*
X10300000Y17100000D02*
X9700000Y17100000D01*
X7730000Y18328448D02*
X7730000Y23772656D01*
X26780000Y16130000D02*
X20320000Y16130000D01*
X28120000Y14790000D02*
X26780000Y16130000D01*
X12293104Y16972000D02*
X10428000Y16972000D01*
X10428000Y16972000D02*
X10300000Y17100000D01*
X22446344Y33329000D02*
X29781000Y33329000D01*
X9700000Y17100000D02*
X8958448Y17100000D01*
D72*
X18147920Y16859500D02*
X16702329Y16859500D01*
X19430420Y16962000D02*
X18250420Y16962000D01*
D69*
X47290500Y14780500D02*
X44756872Y14780500D01*
D72*
X44756872Y14780500D02*
X44747372Y14790000D01*
X13259580Y16802000D02*
X13156580Y16905000D01*
X20290000Y16100000D02*
X19430420Y16959580D01*
D69*
X33410000Y29700000D02*
X36240000Y29700000D01*
X8958448Y17100000D02*
X7730000Y18328448D01*
D72*
%TO.N,/D{slash}~{C}*%
X13364790Y17056000D02*
X16539619Y17056000D01*
D69*
X28178000Y32932000D02*
X32237000Y28873000D01*
X22511792Y32932000D02*
X28178000Y32932000D01*
X11095709Y17299000D02*
X10794709Y17600000D01*
X9700000Y17600000D02*
X8920896Y17600000D01*
D72*
X13188790Y17232000D02*
X13364790Y17056000D01*
X20446000Y17216000D02*
X20480000Y17250000D01*
X16539619Y17056000D02*
X16597119Y17113500D01*
D69*
X12495552Y17232000D02*
X12428552Y17299000D01*
X12428552Y17299000D02*
X11095709Y17299000D01*
D72*
X18042710Y17113500D02*
X18145210Y17216000D01*
D69*
X31418238Y17250000D02*
X20480000Y17250000D01*
X36713000Y28873000D02*
X36740000Y28900000D01*
D72*
X16597119Y17113500D02*
X18042710Y17113500D01*
D69*
X33364470Y15303768D02*
X31418238Y17250000D01*
X22441792Y32862000D02*
X22511792Y32932000D01*
X46643768Y15303768D02*
X33364470Y15303768D01*
X36740000Y28900000D02*
X36740000Y29700000D01*
X17379344Y32862000D02*
X22441792Y32862000D01*
X47400000Y16060000D02*
X46643768Y15303768D01*
D72*
X18145210Y17216000D02*
X20446000Y17216000D01*
D69*
X10794709Y17600000D02*
X9700000Y17600000D01*
X8100000Y23582656D02*
X17379344Y32862000D01*
X32237000Y28873000D02*
X36713000Y28873000D01*
X8920896Y17600000D02*
X8100000Y18420896D01*
X8100000Y18420896D02*
X8100000Y23582656D01*
D72*
X12495552Y17232000D02*
X13188790Y17232000D01*
D69*
%TO.N,/E-Ink display/VGL*%
X9700000Y14100000D02*
X12000000Y14100000D01*
X12000000Y14100000D02*
X12600000Y13500000D01*
%TO.N,Net-(D12-A)*%
X16323000Y12989500D02*
X15412500Y13900000D01*
X13800000Y7962500D02*
X14145659Y7962500D01*
X14145659Y7962500D02*
X16323000Y10139841D01*
X17640000Y15840000D02*
X15370000Y15840000D01*
X15370000Y15840000D02*
X15220000Y15690000D01*
X16323000Y10139841D02*
X16323000Y12989500D01*
X15220000Y15690000D02*
X15220000Y14092500D01*
X15220000Y14092500D02*
X15412500Y13900000D01*
D68*
%TO.N,Net-(D10-A)*%
X28640000Y20970000D02*
X28685000Y20925000D01*
X26175000Y20970000D02*
X28640000Y20970000D01*
X25900000Y20970000D02*
X26175000Y20970000D01*
D69*
%TO.N,/E-Ink display/PREVGH*%
X12600000Y22288000D02*
X12288000Y22600000D01*
X15220000Y19766841D02*
X15163000Y19823842D01*
X15220000Y18990000D02*
X15220000Y19766841D01*
X13157000Y21731000D02*
X12600000Y22288000D01*
X13852016Y21731000D02*
X13157000Y21731000D01*
X15163000Y19823842D02*
X15163000Y20420016D01*
X15163000Y20420016D02*
X13852016Y21731000D01*
X12288000Y22600000D02*
X9700000Y22600000D01*
%TO.N,/WAKEUP*%
X48702530Y10923000D02*
X50284765Y12505235D01*
X51810000Y18720000D02*
X51810000Y19465126D01*
X48115054Y18947000D02*
X48808042Y18947000D01*
X48115054Y10923000D02*
X48702530Y10923000D01*
X48808042Y18947000D02*
X49113663Y18641379D01*
X47900000Y18731946D02*
X47900000Y13538054D01*
X47903000Y11135054D02*
X48115054Y10923000D01*
X47903000Y13535054D02*
X47903000Y11135054D01*
X47900000Y13538054D02*
X47903000Y13535054D01*
X47900000Y18731946D02*
X48115054Y18947000D01*
X51810000Y19465126D02*
X51329231Y19945895D01*
%TO.N,+BATT*%
X47300000Y30282000D02*
X47300000Y30740002D01*
D70*
X63254648Y5186945D02*
X63254648Y2535352D01*
X71662974Y1387000D02*
X72455974Y2180000D01*
D69*
X45744000Y28726000D02*
X47300000Y30282000D01*
D70*
X65260000Y5620000D02*
X63594209Y5620000D01*
X65260000Y5620000D02*
X65675000Y5620000D01*
X73320000Y2648629D02*
X73320000Y3044026D01*
D69*
X40150000Y23132000D02*
X40150000Y20530000D01*
D70*
X72851371Y2180000D02*
X73320000Y2648629D01*
X63594209Y5620000D02*
X62330709Y6883500D01*
X65675000Y5620000D02*
X67195000Y4100000D01*
X63594209Y5620000D02*
X63594209Y5526506D01*
X72455974Y2180000D02*
X72851371Y2180000D01*
X63594209Y5526506D02*
X63254648Y5186945D01*
X63254648Y2535352D02*
X64403000Y1387000D01*
X65265000Y5625000D02*
X65260000Y5620000D01*
D69*
X45744000Y28726000D02*
X40150000Y23132000D01*
D70*
X64403000Y1387000D02*
X71662974Y1387000D01*
D69*
%TO.N,/BUTTON0*%
X57359000Y13209020D02*
X57359000Y12838326D01*
X49326770Y9235000D02*
X42435000Y9235000D01*
X56862342Y13705678D02*
X57359000Y13209020D01*
X57359000Y12838326D02*
X54096674Y9576000D01*
X54096674Y9576000D02*
X52576261Y9576000D01*
X52455261Y9697000D02*
X49788770Y9697000D01*
X41070000Y7230000D02*
X41070000Y7870000D01*
X41070000Y7870000D02*
X41580000Y8380000D01*
X49788770Y9697000D02*
X49326770Y9235000D01*
X42435000Y9235000D02*
X41580000Y8380000D01*
X52576261Y9576000D02*
X52455261Y9697000D01*
%TO.N,Net-(D2-A)*%
X35957774Y11661000D02*
X47189000Y11661000D01*
X30166774Y5870000D02*
X35957774Y11661000D01*
X23365000Y5870000D02*
X30166774Y5870000D01*
X47189000Y11661000D02*
X47380000Y11470000D01*
X22895000Y5400000D02*
X23365000Y5870000D01*
%TO.N,Net-(D4-A)*%
X47400000Y12620000D02*
X26540000Y12620000D01*
X26540000Y12620000D02*
X19320000Y5400000D01*
%TO.N,/E-Ink display/GDR*%
X11170000Y13100000D02*
X9700000Y13100000D01*
X13156159Y8873000D02*
X12223000Y8873000D01*
X14120659Y9837500D02*
X13156159Y8873000D01*
X11290000Y9806000D02*
X11290000Y12980000D01*
X12223000Y8873000D02*
X11290000Y9806000D01*
X11290000Y12980000D02*
X11170000Y13100000D01*
X14750000Y9837500D02*
X14120659Y9837500D01*
%TO.N,/E-Ink display/RESE*%
X13000000Y11900000D02*
X13000000Y9987500D01*
X11300000Y13600000D02*
X13000000Y11900000D01*
X9700000Y13600000D02*
X11300000Y13600000D01*
X13000000Y9987500D02*
X12850000Y9837500D01*
%TO.N,Net-(D7-K)*%
X64710000Y4127500D02*
X65967500Y4127500D01*
X65967500Y4127500D02*
X65980000Y4140000D01*
%TO.N,Net-(D8-K)*%
X72590000Y6137500D02*
X72590000Y7230000D01*
X72620000Y7260000D02*
X72590000Y7230000D01*
X72620000Y7500000D02*
X72620000Y7260000D01*
%TO.N,/SCLK*%
X31680000Y18558313D02*
X31680000Y18620000D01*
X11543000Y18647000D02*
X9747000Y18647000D01*
D72*
X18174790Y17724000D02*
X16324790Y17724000D01*
X16324790Y17724000D02*
X16223790Y17623000D01*
D69*
X31900000Y23060000D02*
X37740000Y28900000D01*
D72*
X12520632Y18647000D02*
X11543000Y18647000D01*
X19083171Y17744000D02*
X18194790Y17744000D01*
X19959171Y18620000D02*
X19083171Y17744000D01*
D69*
X9747000Y18647000D02*
X9700000Y18600000D01*
X47400000Y18400000D02*
X45553000Y16553000D01*
D72*
X13544632Y17623000D02*
X12520632Y18647000D01*
X18194790Y17744000D02*
X18174790Y17724000D01*
D69*
X33685313Y16553000D02*
X31680000Y18558313D01*
X31860000Y18800000D02*
X31860000Y19170000D01*
X31680000Y18620000D02*
X20630000Y18620000D01*
D72*
X16223790Y17623000D02*
X13544632Y17623000D01*
D69*
X45553000Y16553000D02*
X33685313Y16553000D01*
X31680000Y18620000D02*
X31860000Y18800000D01*
D72*
X20630000Y18620000D02*
X19959171Y18620000D01*
D69*
X31900000Y20400000D02*
X31900000Y23060000D01*
X37740000Y28900000D02*
X37740000Y29700000D01*
%TO.N,/MOSI*%
X12426842Y19100000D02*
X9700000Y19100000D01*
D72*
X15959094Y17886000D02*
X13640842Y17886000D01*
D69*
X33020000Y17680761D02*
X33020000Y19780000D01*
D72*
X20279582Y19780000D02*
X18497582Y17998000D01*
X16061094Y17988000D02*
X15959094Y17886000D01*
D69*
X45029999Y16880000D02*
X33820761Y16880000D01*
X33820761Y16880000D02*
X33020000Y17680761D01*
X38240000Y27567424D02*
X38240000Y29700000D01*
X47400000Y19250001D02*
X45029999Y16880000D01*
D72*
X18497582Y17998000D02*
X18089580Y17998000D01*
D69*
X47400000Y19570000D02*
X47400000Y19250001D01*
D72*
X13640842Y17886000D02*
X12426842Y19100000D01*
X18089580Y17998000D02*
X18079580Y17988000D01*
D69*
X33020000Y19780000D02*
X20279582Y19780000D01*
D72*
X18079580Y17988000D02*
X16061094Y17988000D01*
D69*
X33020000Y19780000D02*
X33020000Y22347424D01*
X33020000Y22347424D02*
X38240000Y27567424D01*
%TO.N,/BUTTON1*%
X53722126Y8274574D02*
X51867238Y8274574D01*
X58013000Y12895448D02*
X58013000Y12624552D01*
X58084000Y13898234D02*
X58084000Y12966448D01*
X58028361Y12609191D02*
X58028361Y12580809D01*
X58028361Y12580809D02*
X53722126Y8274574D01*
X51867238Y8274574D02*
X51788812Y8353000D01*
X45050000Y7870000D02*
X45560000Y8380000D01*
X45587000Y8353000D02*
X45560000Y8380000D01*
X45050000Y7230000D02*
X45050000Y7870000D01*
X32706709Y972000D02*
X8928000Y972000D01*
X57569449Y14412785D02*
X58084000Y13898234D01*
X8928000Y972000D02*
X2800000Y7100000D01*
X51788812Y8353000D02*
X45587000Y8353000D01*
X58013000Y12624552D02*
X58028361Y12609191D01*
X58084000Y12966448D02*
X58013000Y12895448D01*
%TO.N,/BUTTON2*%
X35208972Y7230000D02*
X39080000Y7230000D01*
X7803000Y10684552D02*
X16224552Y2263000D01*
X40772000Y9562000D02*
X39590000Y8380000D01*
X7628552Y12225448D02*
X7464552Y12225448D01*
X39080000Y7870000D02*
X39590000Y8380000D01*
X49653322Y10024000D02*
X49191322Y9562000D01*
X30241972Y2263000D02*
X35208972Y7230000D01*
X56508788Y13352124D02*
X56508788Y12453497D01*
X56508788Y12453497D02*
X53958291Y9903000D01*
X52590709Y10024000D02*
X49653322Y10024000D01*
X4540000Y15150000D02*
X7464552Y12225448D01*
X49191322Y9562000D02*
X40772000Y9562000D01*
X52711709Y9903000D02*
X52590709Y10024000D01*
X7803000Y12051000D02*
X7628552Y12225448D01*
X53958291Y9903000D02*
X52711709Y9903000D01*
X4540000Y34320000D02*
X4540000Y15150000D01*
X16224552Y2263000D02*
X30241972Y2263000D01*
X7803000Y10684552D02*
X7803000Y12051000D01*
X39080000Y7230000D02*
X39080000Y7870000D01*
%TO.N,/BUTTON3*%
X43060000Y7870000D02*
X43570000Y8380000D01*
X54234104Y9249000D02*
X57686000Y12700896D01*
X52440813Y9249000D02*
X54234104Y9249000D01*
X44098000Y8908000D02*
X49462218Y8908000D01*
X57686000Y12700896D02*
X57686000Y13589126D01*
X43060000Y7230000D02*
X43060000Y7870000D01*
X52319813Y9370000D02*
X52440813Y9249000D01*
X49924218Y9370000D02*
X52319813Y9370000D01*
X43570000Y8380000D02*
X44098000Y8908000D01*
X49462218Y8908000D02*
X49924218Y9370000D01*
X57686000Y13589126D02*
X57215895Y14059231D01*
%TO.N,/SERIAL_TX*%
X52980613Y13942847D02*
X52768189Y13942847D01*
X47979606Y10596000D02*
X47652606Y10923000D01*
X47007000Y10923000D02*
X46596000Y11334000D01*
X49855342Y11030000D02*
X49271978Y11030000D01*
X48837978Y10596000D02*
X48788448Y10596000D01*
X5323000Y16219448D02*
X5323000Y29630552D01*
X49271978Y11030000D02*
X48837978Y10596000D01*
X48735448Y10543000D02*
X48144552Y10543000D01*
X48091552Y10596000D02*
X47979606Y10596000D01*
X29640000Y4720000D02*
X15767684Y4720000D01*
X8607000Y11880684D02*
X8607000Y12935448D01*
X9838436Y34145988D02*
X32768436Y34145988D01*
X48144552Y10543000D02*
X48091552Y10596000D01*
X5323000Y29630552D02*
X9838436Y34145988D01*
X8607000Y12935448D02*
X5323000Y16219448D01*
X15767684Y4720000D02*
X8607000Y11880684D01*
X48788448Y10596000D02*
X48735448Y10543000D01*
X41240000Y30500000D02*
X41240000Y29700000D01*
X32768436Y34145988D02*
X33026448Y34404000D01*
X37336000Y34404000D02*
X41240000Y30500000D01*
X53450551Y14412785D02*
X52980613Y13942847D01*
X46596000Y11334000D02*
X36254000Y11334000D01*
X52768189Y13942847D02*
X49855342Y11030000D01*
X47652606Y10923000D02*
X47007000Y10923000D01*
X33026448Y34404000D02*
X37336000Y34404000D01*
X36254000Y11334000D02*
X29640000Y4720000D01*
%TO.N,/LED0*%
X48420000Y12620000D02*
X49613049Y13813049D01*
X51436603Y13813049D02*
X52743445Y15119891D01*
X49613049Y13813049D02*
X51436603Y13813049D01*
%TO.N,/SERIAL_RX*%
X41740000Y29700000D02*
X41740000Y30286156D01*
X53334168Y13589294D02*
X53804105Y14059231D01*
X48923896Y10269000D02*
X48973426Y10269000D01*
X29280000Y2670000D02*
X30903000Y4293000D01*
X46224000Y10596000D02*
X47517158Y10596000D01*
X8280000Y12036448D02*
X8280000Y11070000D01*
X47844158Y10269000D02*
X47956104Y10269000D01*
X4996000Y15320448D02*
X8280000Y12036448D01*
X48009104Y10216000D02*
X48870896Y10216000D01*
X30903000Y4293000D02*
X30907656Y4293000D01*
X48973426Y10269000D02*
X49407426Y10703000D01*
X41573524Y30452632D02*
X41573524Y30946476D01*
X41740000Y30286156D02*
X41573524Y30452632D01*
X47517158Y10596000D02*
X47844158Y10269000D01*
X9532988Y34472988D02*
X4996000Y29936000D01*
X49990790Y10703000D02*
X52877084Y13589294D01*
X48870896Y10216000D02*
X48923896Y10269000D01*
X37789000Y34731000D02*
X32891000Y34731000D01*
X37621656Y11007000D02*
X45813000Y11007000D01*
X16680000Y2670000D02*
X29280000Y2670000D01*
X8280000Y11070000D02*
X16680000Y2670000D01*
X4996000Y29936000D02*
X4996000Y15320448D01*
X30907656Y4293000D02*
X37621656Y11007000D01*
X49407426Y10703000D02*
X49990790Y10703000D01*
X32891000Y34731000D02*
X32632988Y34472988D01*
X41573524Y30946476D02*
X37789000Y34731000D01*
X32632988Y34472988D02*
X9532988Y34472988D01*
X45813000Y11007000D02*
X46224000Y10596000D01*
X47956104Y10269000D02*
X48009104Y10216000D01*
X52877084Y13589294D02*
X53334168Y13589294D01*
%TO.N,/SWDCLK*%
X44780000Y4620000D02*
X47920000Y4620000D01*
X47920000Y4620000D02*
X51130000Y7830000D01*
%TO.N,/SWDIO*%
X49785725Y3820000D02*
X50470000Y3820000D01*
X48045725Y2080000D02*
X49785725Y3820000D01*
X48045725Y2080000D02*
X44780000Y2080000D01*
%TO.N,/LED1*%
X51816709Y13486049D02*
X53096998Y14766338D01*
X48400000Y11666281D02*
X50219768Y13486049D01*
X48400000Y11470000D02*
X48400000Y11666281D01*
X50219768Y13486049D02*
X51816709Y13486049D01*
%TO.N,/NRST*%
X55387000Y13765464D02*
X55387000Y15267000D01*
X52859827Y20536619D02*
X53652961Y20536619D01*
X39700000Y2080000D02*
X40927000Y3307000D01*
X42967709Y3307000D02*
X43021709Y3253000D01*
X55387000Y15267000D02*
X55506309Y15386309D01*
X53652961Y20536619D02*
X54315380Y21199038D01*
X55334702Y13713166D02*
X55387000Y13765464D01*
X55227002Y12797002D02*
X55334702Y12904702D01*
X55334702Y12904702D02*
X55334702Y13713166D01*
X52389891Y21006555D02*
X52859827Y20536619D01*
X43512291Y3307000D02*
X48105055Y3307000D01*
X55227002Y12235775D02*
X55227002Y12797002D01*
X43021709Y3253000D02*
X43458291Y3253000D01*
X40927000Y3307000D02*
X42967709Y3307000D01*
X43458291Y3253000D02*
X43512291Y3307000D01*
X54071227Y11080000D02*
X55227002Y12235775D01*
X55506309Y15386309D02*
X55506309Y20362659D01*
X52498055Y7700000D02*
X52610000Y7700000D01*
X48105055Y3307000D02*
X52498055Y7700000D01*
X53580000Y11080000D02*
X54071227Y11080000D01*
%TO.N,Net-(U3-~{STDBY})*%
X65980000Y3120000D02*
X66652000Y2448000D01*
X68078000Y2448000D02*
X68465000Y2835000D01*
X66652000Y2448000D02*
X68078000Y2448000D01*
X68465000Y2835000D02*
X68465000Y4100000D01*
%TO.N,Net-(U3-~{CHRG})*%
X73860000Y6770000D02*
X73640000Y6990000D01*
X71870000Y3249239D02*
X72250761Y3630000D01*
X73088946Y3630000D02*
X73860000Y4401054D01*
X69962000Y2448000D02*
X71525552Y2448000D01*
X71525552Y2448000D02*
X71870000Y2792448D01*
X73860000Y4401054D02*
X73860000Y6770000D01*
X69735000Y4100000D02*
X69735000Y2675000D01*
X69735000Y2675000D02*
X69962000Y2448000D01*
X72250761Y3630000D02*
X73088946Y3630000D01*
X71870000Y2792448D02*
X71870000Y3249239D01*
X73640000Y6990000D02*
X73640000Y7500000D01*
%TO.N,Net-(U3-PROG)*%
X69735000Y12400000D02*
X69735000Y14550000D01*
X69735000Y14550000D02*
X70005000Y14820000D01*
%TO.N,Net-(U3-TEMP)*%
X39505688Y19050000D02*
X40647000Y20191312D01*
X66060000Y22980000D02*
X66060000Y22630000D01*
X40647000Y20191312D02*
X40647000Y21957761D01*
X66060000Y22630000D02*
X66060000Y22060000D01*
X48460000Y29770761D02*
X48460000Y30687341D01*
X36576000Y19050000D02*
X39505688Y19050000D01*
X40647000Y21957761D02*
X48460000Y29770761D01*
%TO.N,/VBAT_MEAS*%
X50124020Y20444000D02*
X50975678Y19592342D01*
X46335000Y19799393D02*
X46979607Y20444000D01*
X46335000Y19740000D02*
X46335000Y19799393D01*
X44710000Y21365000D02*
X44710000Y21650000D01*
X46979607Y20444000D02*
X50124020Y20444000D01*
X46335000Y19740000D02*
X44710000Y21365000D01*
%TO.N,Net-(Q1-G)*%
X44200000Y19240000D02*
X44710000Y19750000D01*
X43245000Y18425000D02*
X44200000Y18425000D01*
X44200000Y18425000D02*
X44200000Y19240000D01*
%TO.N,Net-(Q1-D)*%
X42665000Y20530000D02*
X42835000Y20700000D01*
X41170000Y20530000D02*
X42665000Y20530000D01*
%TO.N,/VBAT_MEAS_EN*%
X49743912Y20117000D02*
X47115055Y20117000D01*
X46900000Y19901945D02*
X46900000Y19473055D01*
X47115055Y20117000D02*
X46900000Y19901945D01*
X46900000Y19473055D02*
X45851945Y18425000D01*
X50622124Y19238788D02*
X49743912Y20117000D01*
X45851945Y18425000D02*
X45220000Y18425000D01*
%TO.N,/VBUS_PRESENT*%
X54157658Y22774322D02*
X55080000Y21851980D01*
X59220832Y19475958D02*
X57429966Y19475958D01*
X55080000Y21851980D02*
X55080000Y21519998D01*
X61019376Y21576102D02*
X61686637Y22243363D01*
X61019376Y21170624D02*
X60915498Y21170624D01*
X57429966Y19475958D02*
X56053964Y20851960D01*
X59690769Y19945895D02*
X59220832Y19475958D01*
X61019376Y21170624D02*
X61019376Y21576102D01*
X60915498Y21170624D02*
X59690769Y19945895D01*
%TO.N,/Power/USB_IN_D+*%
X73665418Y19100000D02*
X73692418Y19127000D01*
X73641724Y18100000D02*
X73693000Y18048724D01*
X71758751Y18125000D02*
X71809999Y18125000D01*
X72765000Y18100000D02*
X73641724Y18100000D01*
X70040000Y17400000D02*
X71033751Y17400000D01*
X72765000Y19100000D02*
X73665418Y19100000D01*
X71809999Y18125000D02*
X71834999Y18100000D01*
X71834999Y18100000D02*
X72765000Y18100000D01*
X71033751Y17400000D02*
X71758751Y18125000D01*
%TO.N,/Power/USB_IN_D-*%
X74220000Y18269999D02*
X74220000Y17830000D01*
X73889999Y18600000D02*
X74220000Y18269999D01*
X73911724Y17521724D02*
X72843276Y17521724D01*
X74220000Y17830000D02*
X73911724Y17521724D01*
X72765000Y18600000D02*
X73889999Y18600000D01*
X71033751Y19300000D02*
X71758751Y18575000D01*
X71809999Y18575000D02*
X71834999Y18600000D01*
X72843276Y17521724D02*
X72765000Y17600000D01*
X71758751Y18575000D02*
X71809999Y18575000D01*
X71834999Y18600000D02*
X72765000Y18600000D01*
X70040000Y19300000D02*
X71033751Y19300000D01*
D72*
%TO.N,/USB_D-*%
X65948249Y18477000D02*
X60117628Y18477000D01*
X58373000Y17102606D02*
X58373000Y16611607D01*
X66771249Y19300000D02*
X65948249Y18477000D01*
X60117628Y18477000D02*
X60092425Y18451797D01*
X58983662Y16000945D02*
X58983662Y15826998D01*
X60092425Y18451797D02*
X59722191Y18451797D01*
X59722191Y18451797D02*
X58373000Y17102606D01*
X67765000Y19300000D02*
X66771249Y19300000D01*
X58373000Y16611607D02*
X58983662Y16000945D01*
D69*
X58983662Y15826998D02*
X58983662Y15862352D01*
D72*
%TO.N,/USB_D+*%
X58627000Y16716819D02*
X58627000Y16997394D01*
X59337215Y16180551D02*
X59163268Y16180551D01*
D69*
X59337215Y16180551D02*
X59301861Y16180551D01*
D72*
X59827423Y18197817D02*
X60197627Y18197817D01*
X59163268Y16180551D02*
X58627000Y16716819D01*
X66771249Y17400000D02*
X67765000Y17400000D01*
X65948249Y18223000D02*
X66771249Y17400000D01*
X60222810Y18223000D02*
X65948249Y18223000D01*
X60197627Y18197817D02*
X60222810Y18223000D01*
X58627000Y16997394D02*
X59827423Y18197817D01*
D69*
%TO.N,Net-(U1-PA5)*%
X51799169Y17428177D02*
X51162643Y18064703D01*
X51329231Y16534105D02*
X51799169Y17004043D01*
X51162643Y18064703D02*
X48755297Y18064703D01*
X48755297Y18064703D02*
X48420000Y18400000D01*
X51799169Y17004043D02*
X51799169Y17428177D01*
%TO.N,Net-(U1-PA4)*%
X48420000Y16060000D02*
X50148020Y16060000D01*
X50148020Y16060000D02*
X50975678Y16887658D01*
%TO.N,Net-(U1-PA7)*%
X50151703Y18391703D02*
X48973406Y19570000D01*
X52506276Y17183518D02*
X51298091Y18391703D01*
X51298091Y18391703D02*
X50151703Y18391703D01*
X52506276Y16296936D02*
X52506276Y17183518D01*
X48973406Y19570000D02*
X48420000Y19570000D01*
X52036338Y15826998D02*
X52506276Y16296936D01*
%TO.N,Net-(U1-PA3)*%
X48420000Y17230000D02*
X50610912Y17230000D01*
X50610912Y17230000D02*
X50622124Y17241212D01*
%TO.N,/BUSY_DBG*%
X8900000Y16600000D02*
X5664000Y19836000D01*
X32903884Y33818988D02*
X33161896Y34077000D01*
X12020000Y16600000D02*
X12570000Y16050000D01*
X5664000Y19836000D02*
X5664000Y22169104D01*
X5664000Y22169104D02*
X17313884Y33818988D01*
X9700000Y16600000D02*
X8900000Y16600000D01*
X9700000Y16600000D02*
X12020000Y16600000D01*
X33161896Y34077000D02*
X35717000Y34077000D01*
X17313884Y33818988D02*
X32903884Y33818988D01*
X35717000Y34077000D02*
X37240000Y32554000D01*
X37240000Y32554000D02*
X37240000Y29700000D01*
%TO.N,Net-(R29-Pad2)*%
X4957000Y35330000D02*
X4550000Y35330000D01*
X76200000Y33800000D02*
X74227000Y35773000D01*
X74227000Y35773000D02*
X5400000Y35773000D01*
X5400000Y35773000D02*
X4957000Y35330000D01*
%TO.N,Net-(D1-K)*%
X45560000Y10480000D02*
X45771000Y10269000D01*
X49059344Y9942000D02*
X49108874Y9942000D01*
X39590000Y10480000D02*
X41580000Y10480000D01*
X49006344Y9889000D02*
X49059344Y9942000D01*
X49108874Y9942000D02*
X49542874Y10376000D01*
X47873656Y9889000D02*
X49006344Y9889000D01*
X45771000Y10269000D02*
X47381710Y10269000D01*
X49542874Y10376000D02*
X50736470Y10376000D01*
X39440000Y10330000D02*
X39590000Y10480000D01*
X47820656Y9942000D02*
X47873656Y9889000D01*
X43570000Y10480000D02*
X45560000Y10480000D01*
X47381710Y10269000D02*
X47708710Y9942000D01*
X41580000Y10480000D02*
X43570000Y10480000D01*
X47708710Y9942000D02*
X47820656Y9942000D01*
X37840000Y10330000D02*
X39440000Y10330000D01*
X50736470Y10376000D02*
X51575235Y11214765D01*
%TO.N,Net-(U1-PA6)*%
X48420000Y14890000D02*
X50392234Y14890000D01*
X50392234Y14890000D02*
X51682785Y16180551D01*
%TO.N,Net-(U1-PA13)*%
X60160706Y15192870D02*
X60477650Y14875926D01*
X51200000Y5290000D02*
X50920000Y5290000D01*
X60477650Y14567650D02*
X51200000Y5290000D01*
X59690769Y16534105D02*
X60160706Y16064168D01*
X50920000Y5290000D02*
X50470000Y4840000D01*
X60477650Y14875926D02*
X60477650Y14567650D01*
X60160706Y16064168D02*
X60160706Y15192870D01*
D72*
%TO.N,Net-(U1-PA14)*%
X55685298Y14885298D02*
X55685298Y12710398D01*
D69*
X55825010Y12570686D02*
X55825010Y12239314D01*
X55825010Y12239314D02*
X54135696Y10550000D01*
D72*
X59568852Y18768852D02*
X55685298Y14885298D01*
D69*
X55685298Y12710398D02*
X55825010Y12570686D01*
X60397876Y19238788D02*
X59927940Y18768852D01*
X52034574Y8850000D02*
X52083000Y8801574D01*
X54135696Y10550000D02*
X52790000Y10550000D01*
X59927940Y18768852D02*
X59568852Y18768852D01*
X51130000Y8850000D02*
X52034574Y8850000D01*
D72*
%TO.N,/~{CS}*%
X13498422Y17310000D02*
X16140000Y17310000D01*
X13026417Y17782005D02*
X13498422Y17310000D01*
X19168381Y17470000D02*
X19558381Y17860000D01*
X17937500Y17367500D02*
X18040000Y17470000D01*
D69*
X38740000Y22560000D02*
X34150000Y17970000D01*
X9700000Y18100000D02*
X11110000Y18100000D01*
D72*
X18040000Y17470000D02*
X19168381Y17470000D01*
X11110000Y18100000D02*
X11427995Y17782005D01*
D69*
X34150000Y17970000D02*
X34150000Y17450000D01*
X38740000Y29700000D02*
X38740000Y22560000D01*
X20710000Y17860000D02*
X31727477Y17860000D01*
X46123768Y15953768D02*
X33633709Y15953768D01*
X47400000Y17230000D02*
X46123768Y15953768D01*
D72*
X16140000Y17310000D02*
X16197500Y17367500D01*
X11427995Y17782005D02*
X13026417Y17782005D01*
X19558381Y17860000D02*
X20710000Y17860000D01*
D69*
X31727477Y17860000D02*
X33633709Y15953768D01*
D72*
X16197500Y17367500D02*
X17937500Y17367500D01*
D68*
%TO.N,/E-Ink display/VCC*%
X16097000Y22468000D02*
X16439000Y22810000D01*
X9700000Y20100000D02*
X9700000Y19600000D01*
X16439000Y22810000D02*
X17000000Y22810000D01*
X15540000Y23025000D02*
X16097000Y22468000D01*
X10341738Y19600000D02*
X9700000Y19600000D01*
X17000000Y22810000D02*
X18040000Y22810000D01*
X15802936Y18263000D02*
X13797000Y18263000D01*
X16097000Y18557064D02*
X15802936Y18263000D01*
X12547000Y19513000D02*
X10428738Y19513000D01*
X13797000Y18263000D02*
X12547000Y19513000D01*
X16097000Y22468000D02*
X16097000Y18557064D01*
X10428738Y19513000D02*
X10341738Y19600000D01*
D69*
%TO.N,Net-(U1-PB0)*%
X51056495Y14140049D02*
X52389891Y15473445D01*
X48420000Y13850000D02*
X48710049Y14140049D01*
X48710049Y14140049D02*
X51056495Y14140049D01*
%TD*%
%TA.AperFunction,Conductor*%
%TO.N,+3V0*%
G36*
X54671035Y20398600D02*
G01*
X54703263Y20336608D01*
X54704805Y20326607D01*
X54718854Y20201915D01*
X54706799Y20133093D01*
X54659450Y20081714D01*
X54638969Y20071851D01*
X54513198Y20024940D01*
X54513192Y20024937D01*
X54513190Y20024936D01*
X54510674Y20023562D01*
X54451869Y19991453D01*
X54336687Y19905228D01*
X54336675Y19905218D01*
X54149796Y19718338D01*
X54131709Y19698201D01*
X54131709Y19698202D01*
X54106580Y19667018D01*
X54074933Y19623132D01*
X54015163Y19492258D01*
X53995478Y19425220D01*
X53995476Y19425215D01*
X53984722Y19350417D01*
X53975000Y19282795D01*
X53975000Y17527269D01*
X53976201Y17504855D01*
X53976450Y17500219D01*
X53976450Y17500218D01*
X53980731Y17460410D01*
X53989385Y17407001D01*
X53989385Y17406999D01*
X54037705Y17277451D01*
X54039668Y17272189D01*
X54073153Y17210866D01*
X54159377Y17095685D01*
X54159381Y17095681D01*
X54159386Y17095675D01*
X54343053Y16912007D01*
X54354324Y16901513D01*
X54356126Y16899835D01*
X54369574Y16887754D01*
X54490614Y16809967D01*
X54490619Y16809965D01*
X54490624Y16809962D01*
X54508677Y16801718D01*
X54554170Y16780942D01*
X54554173Y16780940D01*
X54692226Y16740406D01*
X54781809Y16740407D01*
X54848847Y16720723D01*
X54894603Y16667920D01*
X54905809Y16616407D01*
X54905809Y16238492D01*
X54886124Y16171453D01*
X54833320Y16125698D01*
X54764162Y16115754D01*
X54700606Y16144779D01*
X54694128Y16150811D01*
X54228532Y16616407D01*
X53747011Y17097928D01*
X53738399Y17106143D01*
X53725289Y17118073D01*
X53722338Y17120634D01*
X53709320Y17133755D01*
X53704870Y17138966D01*
X53702023Y17142046D01*
X53691388Y17153552D01*
X53669532Y17175408D01*
X53656461Y17187578D01*
X53656459Y17187580D01*
X53643011Y17199661D01*
X53521971Y17277448D01*
X53458502Y17306434D01*
X53458417Y17306473D01*
X53458413Y17306475D01*
X53458412Y17306475D01*
X53320359Y17347009D01*
X53320357Y17347009D01*
X53172050Y17347008D01*
X53172049Y17349022D01*
X53111813Y17362222D01*
X53062483Y17411703D01*
X53056845Y17423510D01*
X53041560Y17460410D01*
X53030812Y17486359D01*
X53016619Y17504856D01*
X52934558Y17611800D01*
X52906281Y17633498D01*
X52900180Y17638849D01*
X52464003Y18075026D01*
X52430518Y18136349D01*
X52435502Y18206041D01*
X52446691Y18228680D01*
X52535788Y18370476D01*
X52535789Y18370478D01*
X52595368Y18540745D01*
X52604775Y18624234D01*
X52615565Y18719997D01*
X52615565Y18720004D01*
X52595369Y18899250D01*
X52595366Y18899263D01*
X52551093Y19025788D01*
X52547531Y19095567D01*
X52582259Y19156194D01*
X52644253Y19188422D01*
X52682016Y19189963D01*
X52738565Y19183592D01*
X52817761Y19174668D01*
X52817764Y19174668D01*
X52817768Y19174668D01*
X52997013Y19194864D01*
X52997016Y19194865D01*
X52997019Y19194865D01*
X53167286Y19254444D01*
X53320026Y19350417D01*
X53447580Y19477971D01*
X53543553Y19630711D01*
X53603132Y19800978D01*
X53606384Y19829842D01*
X53633449Y19894253D01*
X53691043Y19933810D01*
X53713412Y19938896D01*
X53809723Y19951575D01*
X53955802Y20012083D01*
X53960539Y20015718D01*
X54081243Y20108337D01*
X54102944Y20136620D01*
X54108272Y20142697D01*
X54333915Y20368340D01*
X54395236Y20401823D01*
X54407691Y20403875D01*
X54494635Y20413670D01*
X54540632Y20429766D01*
X54610407Y20433328D01*
X54671035Y20398600D01*
G37*
%TD.AperFunction*%
%TD*%
%TA.AperFunction,Conductor*%
%TO.N,GND*%
G36*
X53232886Y12979355D02*
G01*
X53238444Y12977053D01*
X53312526Y12967300D01*
X53376423Y12939034D01*
X53414894Y12880709D01*
X53419280Y12860547D01*
X53429213Y12785103D01*
X53418448Y12716068D01*
X53372068Y12663812D01*
X53366012Y12660255D01*
X53351155Y12652088D01*
X53323460Y12628433D01*
X53068418Y12373391D01*
X53007095Y12339906D01*
X52937403Y12344890D01*
X52893056Y12373391D01*
X52789416Y12477031D01*
X52755931Y12538354D01*
X52760915Y12608046D01*
X52789411Y12652387D01*
X53089502Y12952478D01*
X53150823Y12985960D01*
X53177181Y12988794D01*
X53185433Y12988794D01*
X53232886Y12979355D01*
G37*
%TD.AperFunction*%
%TA.AperFunction,Conductor*%
G36*
X61426703Y25913983D02*
G01*
X61439762Y25900834D01*
X62714411Y24409318D01*
X65237030Y21457502D01*
X65265620Y21393749D01*
X65261841Y21342350D01*
X65242336Y21275211D01*
X65242334Y21275198D01*
X65239500Y21239183D01*
X65239500Y21017670D01*
X65219815Y20950631D01*
X65211682Y20939407D01*
X64305903Y19826237D01*
X64248322Y19786661D01*
X64209721Y19780500D01*
X62540097Y19780500D01*
X62473058Y19800185D01*
X62452416Y19816819D01*
X62412747Y19856488D01*
X62379262Y19917811D01*
X62384246Y19987503D01*
X62412745Y20031848D01*
X62430280Y20049383D01*
X62491601Y20082866D01*
X62547634Y20082097D01*
X62715335Y20040762D01*
X62885325Y20040762D01*
X63050375Y20081443D01*
X63200895Y20160443D01*
X63255296Y20205779D01*
X63255311Y20205793D01*
X63312982Y20263465D01*
X63312982Y20263466D01*
X62587491Y20988957D01*
X62554006Y21050280D01*
X62555891Y21076637D01*
X63206916Y21076637D01*
X63666534Y20617019D01*
X63724215Y20674699D01*
X63724221Y20674706D01*
X63769556Y20729103D01*
X63848558Y20879628D01*
X63889238Y21044676D01*
X63889238Y21214665D01*
X63848557Y21379716D01*
X63769557Y21530236D01*
X63724226Y21584631D01*
X63724212Y21584646D01*
X63719568Y21589290D01*
X63719567Y21589290D01*
X63206916Y21076638D01*
X63206916Y21076637D01*
X62555891Y21076637D01*
X62558990Y21119972D01*
X62587491Y21164319D01*
X62853363Y21430190D01*
X63366014Y21942843D01*
X63366014Y21942844D01*
X63361379Y21947479D01*
X63361360Y21947496D01*
X63306963Y21992831D01*
X63156438Y22071833D01*
X62991391Y22112512D01*
X62847013Y22112512D01*
X62779974Y22132197D01*
X62734219Y22185001D01*
X62723013Y22236512D01*
X62723013Y22381452D01*
X62682303Y22546621D01*
X62659217Y22590607D01*
X62603247Y22697248D01*
X62557875Y22751691D01*
X62194965Y23114601D01*
X62140522Y23159973D01*
X62053796Y23205491D01*
X61989894Y23239030D01*
X61824726Y23279739D01*
X61654614Y23279739D01*
X61489443Y23239029D01*
X61403126Y23193725D01*
X61334618Y23179999D01*
X61269565Y23205491D01*
X61228620Y23262107D01*
X61221500Y23303521D01*
X61221500Y25820270D01*
X61241185Y25887309D01*
X61293989Y25933064D01*
X61363147Y25943008D01*
X61426703Y25913983D01*
G37*
%TD.AperFunction*%
%TA.AperFunction,Conductor*%
G36*
X52213285Y30717156D02*
G01*
X52259040Y30664352D01*
X52268984Y30595194D01*
X52265323Y30578247D01*
X52245496Y30510000D01*
X53854504Y30510000D01*
X53834677Y30578247D01*
X53834877Y30648116D01*
X53872820Y30706786D01*
X53936458Y30735629D01*
X53953754Y30736841D01*
X54646246Y30736841D01*
X54713285Y30717156D01*
X54759040Y30664352D01*
X54768984Y30595194D01*
X54765323Y30578247D01*
X54745496Y30510000D01*
X56399403Y30510000D01*
X56466442Y30490315D01*
X56487084Y30473681D01*
X59003181Y27957584D01*
X59036666Y27896261D01*
X59039500Y27869903D01*
X59039500Y24700099D01*
X59019815Y24633060D01*
X59003181Y24612418D01*
X58835538Y24444775D01*
X58774215Y24411290D01*
X58704523Y24416274D01*
X58667322Y24438169D01*
X58639799Y24461678D01*
X58639795Y24461680D01*
X58498100Y24539578D01*
X58498092Y24539581D01*
X58475372Y24545414D01*
X58415334Y24581152D01*
X58386106Y24634681D01*
X58380047Y24658282D01*
X58302087Y24800093D01*
X58278437Y24827783D01*
X58278433Y24827788D01*
X57988966Y25117255D01*
X57961272Y25140908D01*
X57961268Y25140911D01*
X57819460Y25218870D01*
X57662719Y25259114D01*
X57662716Y25259114D01*
X57500888Y25259114D01*
X57500884Y25259114D01*
X57344143Y25218870D01*
X57202335Y25140911D01*
X57202331Y25140908D01*
X57174638Y25117255D01*
X56842745Y24785362D01*
X56819092Y24757669D01*
X56819091Y24757668D01*
X56791970Y24708334D01*
X56742423Y24659070D01*
X56674108Y24644414D01*
X56608714Y24669018D01*
X56567003Y24725071D01*
X56563203Y24737235D01*
X56527810Y24875083D01*
X56527810Y24875085D01*
X56449913Y25016778D01*
X56449911Y25016782D01*
X56436285Y25032736D01*
X55846353Y24442803D01*
X55785030Y24409318D01*
X55715338Y24414302D01*
X55670991Y24442803D01*
X55492801Y24620993D01*
X55459316Y24682316D01*
X55464300Y24752008D01*
X55492801Y24796355D01*
X56082733Y25386288D01*
X56066784Y25399910D01*
X55925084Y25477811D01*
X55925074Y25477814D01*
X55768463Y25518025D01*
X55606752Y25518025D01*
X55450132Y25477811D01*
X55308442Y25399917D01*
X55308435Y25399912D01*
X55280761Y25376275D01*
X55280750Y25376264D01*
X55280486Y25376001D01*
X55219154Y25342531D01*
X55149464Y25347533D01*
X55093541Y25389419D01*
X55069141Y25454889D01*
X55073751Y25498301D01*
X55075434Y25504096D01*
X55075438Y25504105D01*
X55082729Y25550147D01*
X55083908Y25555838D01*
X55095500Y25600981D01*
X55095500Y25621017D01*
X55097027Y25640418D01*
X55100160Y25660196D01*
X55095775Y25706585D01*
X55095500Y25712423D01*
X55095500Y26036090D01*
X55115185Y26103129D01*
X55167989Y26148884D01*
X55219500Y26160090D01*
X56097871Y26160090D01*
X56097872Y26160090D01*
X56157483Y26166498D01*
X56292331Y26216793D01*
X56407546Y26303043D01*
X56493796Y26418258D01*
X56544091Y26553106D01*
X56550500Y26612716D01*
X56550499Y28508461D01*
X56544091Y28568072D01*
X56527890Y28611508D01*
X56493797Y28702918D01*
X56493793Y28702925D01*
X56407548Y28818132D01*
X56407546Y28818135D01*
X56407544Y28818137D01*
X56407542Y28818139D01*
X56377789Y28840412D01*
X56335919Y28896346D01*
X56330935Y28966038D01*
X56333025Y28974274D01*
X56357643Y29059007D01*
X56360500Y29095310D01*
X56360500Y29504690D01*
X56357643Y29540993D01*
X56312494Y29696395D01*
X56300089Y29717370D01*
X56282906Y29785091D01*
X56300091Y29843616D01*
X56312032Y29863806D01*
X56354504Y30010000D01*
X56048352Y30010000D01*
X55985233Y30027268D01*
X55976395Y30032494D01*
X55976393Y30032495D01*
X55976389Y30032497D01*
X55820997Y30077643D01*
X55820991Y30077644D01*
X55784692Y30080500D01*
X55784690Y30080500D01*
X55315310Y30080500D01*
X55315308Y30080500D01*
X55279008Y30077644D01*
X55279002Y30077643D01*
X55123610Y30032497D01*
X55123605Y30032494D01*
X55114766Y30027268D01*
X55051648Y30010000D01*
X54745496Y30010000D01*
X54787968Y29863806D01*
X54799911Y29843611D01*
X54817092Y29775887D01*
X54799911Y29717372D01*
X54787506Y29696396D01*
X54787504Y29696391D01*
X54742357Y29540998D01*
X54742356Y29540992D01*
X54739500Y29504692D01*
X54739500Y29095308D01*
X54742356Y29059009D01*
X54742357Y29059003D01*
X54766974Y28974273D01*
X54766775Y28904403D01*
X54728833Y28845733D01*
X54722211Y28840413D01*
X54692459Y28818140D01*
X54692451Y28818132D01*
X54606206Y28702925D01*
X54606202Y28702918D01*
X54555908Y28568072D01*
X54551133Y28523652D01*
X54549501Y28508466D01*
X54549500Y28508454D01*
X54549500Y27515454D01*
X54529815Y27448415D01*
X54513185Y27427778D01*
X54444257Y27358849D01*
X54377974Y27292566D01*
X54316651Y27259082D01*
X54246959Y27264066D01*
X54202615Y27292565D01*
X54086816Y27408363D01*
X54053333Y27469685D01*
X54050499Y27496043D01*
X54050499Y28508460D01*
X54050498Y28508466D01*
X54050497Y28508473D01*
X54044091Y28568072D01*
X54027890Y28611508D01*
X53993797Y28702918D01*
X53993793Y28702925D01*
X53907548Y28818132D01*
X53907546Y28818135D01*
X53907544Y28818137D01*
X53907542Y28818139D01*
X53877789Y28840412D01*
X53835919Y28896346D01*
X53830935Y28966038D01*
X53833025Y28974274D01*
X53857643Y29059007D01*
X53860500Y29095310D01*
X53860500Y29504690D01*
X53857643Y29540993D01*
X53812494Y29696395D01*
X53800089Y29717370D01*
X53782906Y29785091D01*
X53800091Y29843616D01*
X53812032Y29863806D01*
X53854504Y30010000D01*
X53548352Y30010000D01*
X53485233Y30027268D01*
X53476395Y30032494D01*
X53476393Y30032495D01*
X53476389Y30032497D01*
X53320997Y30077643D01*
X53320991Y30077644D01*
X53284692Y30080500D01*
X53284690Y30080500D01*
X52815310Y30080500D01*
X52815308Y30080500D01*
X52779008Y30077644D01*
X52779002Y30077643D01*
X52623610Y30032497D01*
X52623605Y30032494D01*
X52614766Y30027268D01*
X52551648Y30010000D01*
X52245496Y30010000D01*
X52287968Y29863806D01*
X52299911Y29843611D01*
X52317092Y29775887D01*
X52299911Y29717372D01*
X52287506Y29696396D01*
X52287504Y29696391D01*
X52242357Y29540998D01*
X52242356Y29540992D01*
X52239500Y29504692D01*
X52239500Y29095308D01*
X52242356Y29059009D01*
X52242357Y29059003D01*
X52266974Y28974273D01*
X52266775Y28904403D01*
X52228833Y28845733D01*
X52222211Y28840413D01*
X52192459Y28818140D01*
X52192451Y28818132D01*
X52106206Y28702925D01*
X52106202Y28702918D01*
X52055908Y28568072D01*
X52051133Y28523652D01*
X52049501Y28508466D01*
X52049500Y28508454D01*
X52049500Y26612719D01*
X52049501Y26612713D01*
X52055908Y26553106D01*
X52106202Y26418261D01*
X52106206Y26418254D01*
X52192452Y26303045D01*
X52192455Y26303042D01*
X52307664Y26216796D01*
X52307671Y26216792D01*
X52442517Y26166498D01*
X52442516Y26166498D01*
X52449444Y26165754D01*
X52502127Y26160089D01*
X53232978Y26160090D01*
X53300017Y26140406D01*
X53345772Y26087602D01*
X53355716Y26018443D01*
X53326691Y25954887D01*
X53320659Y25948409D01*
X52475375Y25103126D01*
X52463118Y25093305D01*
X52463301Y25093084D01*
X52457290Y25088112D01*
X52409939Y25037689D01*
X52389056Y25016806D01*
X52389044Y25016793D01*
X52384788Y25011308D01*
X52381004Y25006878D01*
X52349104Y24972907D01*
X52349103Y24972905D01*
X52339451Y24955349D01*
X52328777Y24939099D01*
X52316496Y24923264D01*
X52316491Y24923257D01*
X52297983Y24880489D01*
X52295416Y24875249D01*
X52293169Y24871160D01*
X52243628Y24821890D01*
X52175315Y24807226D01*
X52109917Y24831822D01*
X52068200Y24887870D01*
X52060500Y24930885D01*
X52060500Y25065879D01*
X52061031Y25073980D01*
X52062892Y25088111D01*
X52065682Y25109306D01*
X52065193Y25113018D01*
X52047863Y25244652D01*
X52045044Y25266068D01*
X51984536Y25412147D01*
X51953514Y25452576D01*
X51888282Y25537588D01*
X51860005Y25559286D01*
X51853904Y25564637D01*
X51518279Y25900262D01*
X51484794Y25961585D01*
X51482886Y25972819D01*
X51360807Y26967068D01*
X51347182Y27025454D01*
X51280828Y27153167D01*
X51181180Y27257012D01*
X51179275Y27258104D01*
X51056317Y27328576D01*
X51056313Y27328578D01*
X51056312Y27328578D01*
X50992103Y27343939D01*
X50916337Y27362065D01*
X50856400Y27361162D01*
X50077091Y27265475D01*
X50008152Y27276843D01*
X49974298Y27300870D01*
X49472998Y27802170D01*
X49452018Y27830111D01*
X49390909Y27941271D01*
X49367259Y27968961D01*
X49367255Y27968966D01*
X49077788Y28258433D01*
X49050094Y28282086D01*
X49050090Y28282089D01*
X48908286Y28360046D01*
X48884677Y28366108D01*
X48824640Y28401848D01*
X48795413Y28455375D01*
X48789578Y28478099D01*
X48789577Y28478102D01*
X48716237Y28611507D01*
X48716236Y28611508D01*
X48499753Y28395024D01*
X48442913Y28362602D01*
X48432972Y28360050D01*
X48432967Y28360048D01*
X48432966Y28360047D01*
X48347879Y28313271D01*
X48291151Y28282085D01*
X48263460Y28258433D01*
X47931567Y27926540D01*
X47907915Y27898849D01*
X47829950Y27757028D01*
X47827398Y27747087D01*
X47794976Y27690247D01*
X47578492Y27473764D01*
X47578493Y27473763D01*
X47711898Y27400423D01*
X47711901Y27400422D01*
X47734625Y27394587D01*
X47794663Y27358849D01*
X47823892Y27305323D01*
X47829954Y27281714D01*
X47892438Y27168056D01*
X47907485Y27099826D01*
X47883255Y27034292D01*
X47827441Y26992261D01*
X47798888Y26985243D01*
X47188302Y26910271D01*
X47188287Y26910269D01*
X47129976Y26896660D01*
X47002388Y26830372D01*
X46898650Y26730825D01*
X46827156Y26606083D01*
X46827155Y26606081D01*
X46793700Y26466249D01*
X46794603Y26406370D01*
X46827226Y26140677D01*
X46815858Y26071739D01*
X46769023Y26019890D01*
X46701592Y26001592D01*
X46634973Y26022656D01*
X46594191Y26071731D01*
X46593338Y26071261D01*
X46590908Y26075681D01*
X46590317Y26076392D01*
X46589708Y26077864D01*
X46516237Y26211507D01*
X46516236Y26211508D01*
X46299753Y25995024D01*
X46242913Y25962602D01*
X46232972Y25960050D01*
X46232967Y25960048D01*
X46232966Y25960047D01*
X46179134Y25930453D01*
X46091151Y25882085D01*
X46063460Y25858433D01*
X45731567Y25526540D01*
X45707915Y25498849D01*
X45707913Y25498845D01*
X45648557Y25390874D01*
X45629950Y25357028D01*
X45627398Y25347087D01*
X45594976Y25290247D01*
X45378492Y25073764D01*
X45378493Y25073763D01*
X45511898Y25000423D01*
X45511901Y25000422D01*
X45534625Y24994587D01*
X45594663Y24958849D01*
X45623892Y24905323D01*
X45629954Y24881714D01*
X45707911Y24739910D01*
X45707914Y24739906D01*
X45731567Y24712212D01*
X46021034Y24422745D01*
X46021039Y24422741D01*
X46048729Y24399091D01*
X46048731Y24399090D01*
X46190539Y24321131D01*
X46283418Y24297284D01*
X46347284Y24280886D01*
X46408517Y24280886D01*
X46475556Y24261201D01*
X46496197Y24244568D01*
X46912409Y23828355D01*
X46917743Y23822272D01*
X46925955Y23811570D01*
X46939439Y23793997D01*
X46969630Y23770831D01*
X46969648Y23770816D01*
X47064880Y23697743D01*
X47071917Y23693680D01*
X47071020Y23692127D01*
X47117579Y23654612D01*
X47138802Y23598999D01*
X47159193Y23432932D01*
X47164348Y23410840D01*
X47172817Y23374547D01*
X47172818Y23374546D01*
X47222075Y23279739D01*
X47239172Y23246833D01*
X47338820Y23142988D01*
X47388367Y23114591D01*
X47463682Y23071425D01*
X47463683Y23071425D01*
X47463688Y23071422D01*
X47603660Y23037936D01*
X47663607Y23038839D01*
X48442909Y23134527D01*
X48511846Y23123159D01*
X48545700Y23099132D01*
X48931959Y22712873D01*
X48937310Y22706772D01*
X48959008Y22678495D01*
X49043783Y22613445D01*
X49084449Y22582241D01*
X49230528Y22521733D01*
X49243692Y22520000D01*
X49387289Y22501095D01*
X49387290Y22501095D01*
X49422619Y22505747D01*
X49430718Y22506277D01*
X50696680Y22506277D01*
X50763719Y22486592D01*
X50784361Y22469958D01*
X51365397Y21888922D01*
X51398882Y21827599D01*
X51393898Y21757907D01*
X51376092Y21725755D01*
X51360754Y21705766D01*
X51359329Y21706860D01*
X51337031Y21681434D01*
X51270831Y21630640D01*
X51268914Y21601388D01*
X51244887Y21535780D01*
X51189202Y21493578D01*
X51119542Y21488179D01*
X51097728Y21494939D01*
X51025049Y21525043D01*
X51025047Y21525044D01*
X51025046Y21525044D01*
X51010933Y21526902D01*
X50939608Y21536292D01*
X50868285Y21545682D01*
X50868284Y21545682D01*
X50832954Y21541031D01*
X50824856Y21540500D01*
X50476278Y21540500D01*
X50409239Y21560185D01*
X50369546Y21601379D01*
X50367264Y21605237D01*
X50290117Y21735687D01*
X50290115Y21735689D01*
X50290112Y21735693D01*
X50175692Y21850113D01*
X50175684Y21850119D01*
X50057371Y21920089D01*
X50036395Y21932494D01*
X50036394Y21932495D01*
X50036393Y21932495D01*
X50036390Y21932496D01*
X49880997Y21977643D01*
X49880991Y21977644D01*
X49844692Y21980500D01*
X49844690Y21980500D01*
X49435310Y21980500D01*
X49435308Y21980500D01*
X49399008Y21977644D01*
X49399002Y21977643D01*
X49243609Y21932496D01*
X49243604Y21932494D01*
X49222628Y21920089D01*
X49154903Y21902908D01*
X49096389Y21920089D01*
X49076191Y21932034D01*
X49076190Y21932035D01*
X48930001Y21974507D01*
X48930000Y21974506D01*
X48930000Y21668355D01*
X48912734Y21605237D01*
X48907507Y21596400D01*
X48907504Y21596392D01*
X48862357Y21440998D01*
X48862356Y21440992D01*
X48859500Y21404692D01*
X48859500Y21168500D01*
X48839815Y21101461D01*
X48787011Y21055706D01*
X48735500Y21044500D01*
X47230924Y21044500D01*
X47163885Y21064185D01*
X47118130Y21116989D01*
X47111848Y21133905D01*
X47107407Y21149188D01*
X47107405Y21149194D01*
X47025738Y21287286D01*
X47025731Y21287295D01*
X46912294Y21400732D01*
X46912285Y21400739D01*
X46879715Y21420001D01*
X47901209Y21420001D01*
X47901210Y21420000D01*
X48430000Y21420000D01*
X48430000Y21974506D01*
X48429998Y21974507D01*
X48283809Y21932035D01*
X48283806Y21932033D01*
X48144625Y21849722D01*
X48144616Y21849715D01*
X48030285Y21735384D01*
X48030278Y21735375D01*
X47947968Y21596196D01*
X47947966Y21596191D01*
X47902855Y21440919D01*
X47902854Y21440913D01*
X47901209Y21420001D01*
X46879715Y21420001D01*
X46774191Y21482407D01*
X46774188Y21482408D01*
X46620130Y21527166D01*
X46585000Y21529932D01*
X46585000Y20957319D01*
X46565315Y20890280D01*
X46556105Y20878852D01*
X46556270Y20878726D01*
X46529626Y20844006D01*
X46524275Y20837904D01*
X46392982Y20706612D01*
X46331662Y20673128D01*
X46261970Y20678112D01*
X46217622Y20706613D01*
X46121319Y20802916D01*
X46087834Y20864239D01*
X46085000Y20890597D01*
X46085000Y21529932D01*
X46084999Y21529932D01*
X46081731Y21529674D01*
X46013354Y21544037D01*
X45963596Y21593087D01*
X45948000Y21653292D01*
X45948000Y21865696D01*
X45945098Y21902568D01*
X45945097Y21902574D01*
X45899245Y22060394D01*
X45899244Y22060397D01*
X45899244Y22060398D01*
X45815581Y22201865D01*
X45815579Y22201867D01*
X45815576Y22201871D01*
X45699370Y22318077D01*
X45699362Y22318083D01*
X45557896Y22401745D01*
X45557893Y22401746D01*
X45400073Y22447598D01*
X45400067Y22447599D01*
X45363196Y22450500D01*
X45363194Y22450500D01*
X44585549Y22450500D01*
X44518510Y22470185D01*
X44487566Y22498506D01*
X43484154Y23792315D01*
X43458625Y23857352D01*
X43472310Y23925868D01*
X43494454Y23955981D01*
X44929350Y25390878D01*
X44990668Y25424359D01*
X45023167Y25425544D01*
X45770589Y26172964D01*
X46165899Y26568275D01*
X46174086Y26624646D01*
X46199120Y26660648D01*
X48853922Y29315450D01*
X48859999Y29320778D01*
X48888282Y29342479D01*
X48984536Y29467920D01*
X49045044Y29613999D01*
X49045547Y29617823D01*
X49065683Y29770761D01*
X49061031Y29806096D01*
X49060500Y29814198D01*
X49060500Y30104929D01*
X49080185Y30171968D01*
X49087555Y30182244D01*
X49089810Y30185074D01*
X49089816Y30185079D01*
X49185789Y30337819D01*
X49199626Y30377366D01*
X49233132Y30428050D01*
X49536418Y30704487D01*
X49599223Y30735097D01*
X49619947Y30736841D01*
X52146246Y30736841D01*
X52213285Y30717156D01*
G37*
%TD.AperFunction*%
%TD*%
M02*
