%TF.GenerationSoftware,KiCad,Pcbnew,7.0.9*%
%TF.CreationDate,2023-12-11T11:57:59+01:00*%
%TF.ProjectId,USB E-Paper thing,55534220-452d-4506-9170-657220746869,rev?*%
%TF.SameCoordinates,Original*%
%TF.FileFunction,Copper,L2,Bot*%
%TF.FilePolarity,Positive*%
%FSLAX46Y46*%
G04 Gerber Fmt 4.6, Leading zero omitted, Abs format (unit mm)*
G04 Created by KiCad (PCBNEW 7.0.9) date 2023-12-11 11:57:59*
%MOMM*%
%LPD*%
G01*
G04 APERTURE LIST*
%TA.AperFunction,ComponentPad*%
%ADD10C,1.600000*%
%TD*%
%TA.AperFunction,ComponentPad*%
%ADD11C,1.400000*%
%TD*%
%TA.AperFunction,ComponentPad*%
%ADD12O,1.400000X1.400000*%
%TD*%
%TA.AperFunction,ComponentPad*%
%ADD13O,2.300000X1.200000*%
%TD*%
%TA.AperFunction,ComponentPad*%
%ADD14O,2.000000X1.200000*%
%TD*%
%TA.AperFunction,ComponentPad*%
%ADD15R,1.700000X1.700000*%
%TD*%
%TA.AperFunction,ComponentPad*%
%ADD16O,1.700000X1.700000*%
%TD*%
%TA.AperFunction,ViaPad*%
%ADD17C,0.600000*%
%TD*%
%TA.AperFunction,Conductor*%
%ADD18C,0.500000*%
%TD*%
%TA.AperFunction,Conductor*%
%ADD19C,0.300000*%
%TD*%
%TA.AperFunction,Conductor*%
%ADD20C,0.200000*%
%TD*%
G04 APERTURE END LIST*
D10*
%TO.P,SW3,*%
%TO.N,*%
X77700000Y35400000D03*
X77700000Y27900000D03*
%TD*%
D11*
%TO.P,TH1,1*%
%TO.N,GND*%
X36576000Y24130000D03*
D12*
%TO.P,TH1,2*%
%TO.N,Net-(U3-TEMP)*%
X36576000Y19050000D03*
%TD*%
D10*
%TO.P,SW4,*%
%TO.N,*%
X77700000Y8800000D03*
X77700000Y1300000D03*
%TD*%
%TO.P,SW1,*%
%TO.N,*%
X1300000Y27900000D03*
X1300000Y35400000D03*
%TD*%
%TO.P,SW2,*%
%TO.N,*%
X1300000Y1300000D03*
X1300000Y8800000D03*
%TD*%
D13*
%TO.P,J6,S1,SHIELD*%
%TO.N,GND*%
X73320000Y14030000D03*
D14*
X77500000Y14030000D03*
D13*
X73320000Y22670000D03*
D14*
X77500000Y22670000D03*
%TD*%
D15*
%TO.P,J8,1,Pin_1*%
%TO.N,Net-(J8-Pin_1)*%
X57480000Y4620000D03*
D16*
%TO.P,J8,2,Pin_2*%
%TO.N,+3V0*%
X54940000Y4620000D03*
%TD*%
D17*
%TO.N,GND*%
X68000000Y7500000D03*
X69000000Y7500000D03*
X70000000Y7500000D03*
X70000000Y9000000D03*
X69000000Y9000000D03*
X68000000Y9000000D03*
X58423000Y24266752D03*
X22700000Y21050000D03*
X71020000Y14470000D03*
X40470000Y8090000D03*
X71800000Y9540000D03*
X56250000Y25220000D03*
X63160000Y23000000D03*
X17580000Y21140000D03*
X52510000Y12040000D03*
X14300000Y22840000D03*
X58668790Y22613499D03*
X60450000Y2250000D03*
X15787009Y11920000D03*
X11150000Y20500000D03*
X42090000Y31310000D03*
X71010000Y15190000D03*
X72300000Y32600000D03*
X14170000Y14080000D03*
X42100524Y30670923D03*
X47650000Y21320000D03*
X66220000Y8360000D03*
X58620000Y27210000D03*
X44810000Y24400000D03*
X54700589Y30270000D03*
X63940000Y20190000D03*
X41570000Y18440000D03*
X71690000Y15220000D03*
X50000000Y29850000D03*
X45050000Y22920000D03*
X60510000Y11020000D03*
X70500000Y31900000D03*
X48660000Y21680000D03*
X46340000Y21410000D03*
X77550000Y23700000D03*
X69130000Y15400000D03*
X71790000Y8590000D03*
X65620000Y16080000D03*
X70970000Y22280000D03*
X56189110Y21980599D03*
X72300000Y34000000D03*
X20530000Y21050000D03*
X59970000Y8130000D03*
X72810000Y12200000D03*
X70500000Y32600000D03*
X71610000Y21550000D03*
X57500000Y28810000D03*
X65270013Y8180013D03*
X46259411Y26310589D03*
X70500000Y33300000D03*
X66110000Y24324981D03*
X65270000Y13700000D03*
X21860000Y12000000D03*
X11180000Y15480000D03*
X63944000Y20998000D03*
X72562646Y24417354D03*
X70980000Y21540000D03*
X66230000Y9330000D03*
X66320000Y15450000D03*
X47600000Y22500000D03*
X71900000Y24417354D03*
X57010000Y26970000D03*
X77600000Y12970000D03*
X61433000Y15070000D03*
X70900026Y18360026D03*
X61650000Y23790000D03*
X70500000Y34000000D03*
X72300000Y33300000D03*
X72300000Y31900000D03*
X21110000Y3760000D03*
X29805000Y24205000D03*
X52370000Y25620000D03*
X14310000Y25100000D03*
X51540000Y27630000D03*
X52817764Y19980233D03*
X18790000Y21840000D03*
X14217354Y20577354D03*
X47429411Y27690589D03*
X37870000Y8630000D03*
X51102057Y21413334D03*
X46850000Y7220000D03*
X53890589Y30270000D03*
X44550000Y8230000D03*
X68410000Y15570000D03*
X43240000Y3780000D03*
X42550000Y8260000D03*
X61580000Y24870000D03*
%TO.N,+3V0*%
X18270000Y35230000D03*
X18320000Y32232000D03*
X54700002Y12454066D03*
X57470000Y10410000D03*
%TO.N,/VBUS*%
X71810000Y4562500D03*
X72520000Y2980000D03*
X64054648Y4855574D03*
X64110000Y6300000D03*
%TO.N,/WAKEUP*%
X51810000Y18720000D03*
X49113663Y18641379D03*
%TO.N,+BATT*%
X47300000Y30740002D03*
X47280000Y33101000D03*
%TO.N,/SCLK*%
X31900000Y20400000D03*
X31860000Y19170000D03*
%TO.N,/BUTTON3*%
X74970000Y970000D03*
X34015000Y3285000D03*
%TO.N,/NRST*%
X55506309Y20362659D03*
X54315380Y21199038D03*
X53580000Y11080000D03*
X52610000Y7700000D03*
%TO.N,Net-(U3-TEMP)*%
X48460000Y30687341D03*
X48230000Y32930000D03*
%TO.N,/VBUS_PRESENT*%
X56053964Y20851960D03*
X55080000Y21519998D03*
%TO.N,/Power/USB_IN_D+*%
X73693000Y18048724D03*
X73692418Y19127000D03*
%TO.N,Net-(U1-PA14)*%
X52083000Y8801574D03*
X52790000Y10550000D03*
%TO.N,/~{CS}*%
X34150000Y17450000D03*
X33633709Y15953768D03*
%TD*%
D18*
%TO.N,+3V0*%
X55425934Y12454066D02*
X54700002Y12454066D01*
D19*
X18270000Y35230000D02*
X18270000Y32282000D01*
X18270000Y32282000D02*
X18320000Y32232000D01*
D18*
X57470000Y10410000D02*
X55425934Y12454066D01*
D20*
%TO.N,/VBUS*%
X72520000Y3852500D02*
X71810000Y4562500D01*
X72520000Y2980000D02*
X72520000Y3852500D01*
X64054648Y6244648D02*
X64110000Y6300000D01*
X64054648Y4855574D02*
X64054648Y6244648D01*
%TO.N,/WAKEUP*%
X49113663Y18641379D02*
X51731379Y18641379D01*
X51731379Y18641379D02*
X51810000Y18720000D01*
%TO.N,+BATT*%
X47280000Y30760002D02*
X47300000Y30740002D01*
X47280000Y33101000D02*
X47280000Y30760002D01*
%TO.N,/SCLK*%
X31860000Y20360000D02*
X31900000Y20400000D01*
X31860000Y19170000D02*
X31860000Y20360000D01*
%TO.N,/BUTTON3*%
X36100500Y970000D02*
X36100500Y1199500D01*
X74970000Y970000D02*
X36100500Y970000D01*
X36100500Y1199500D02*
X34015000Y3285000D01*
%TO.N,/NRST*%
X53350000Y10850000D02*
X53350000Y10310000D01*
X53350000Y10310000D02*
X52610000Y9570000D01*
X53580000Y11080000D02*
X53350000Y10850000D01*
X54315380Y21199038D02*
X55151759Y20362659D01*
X52610000Y9570000D02*
X52610000Y7700000D01*
X55151759Y20362659D02*
X55506309Y20362659D01*
%TO.N,Net-(U3-TEMP)*%
X48230000Y32930000D02*
X48230000Y30917341D01*
X48230000Y30917341D02*
X48460000Y30687341D01*
%TO.N,/VBUS_PRESENT*%
X55385926Y21519998D02*
X55080000Y21519998D01*
X56053964Y20851960D02*
X55385926Y21519998D01*
%TO.N,/Power/USB_IN_D+*%
X73692418Y18049306D02*
X73693000Y18048724D01*
X73692418Y19127000D02*
X73692418Y18049306D01*
%TO.N,Net-(U1-PA14)*%
X52790000Y10550000D02*
X52279000Y10550000D01*
X52279000Y10550000D02*
X52083000Y10354000D01*
X52083000Y10354000D02*
X52083000Y8801574D01*
%TO.N,/~{CS}*%
X33160000Y16460000D02*
X34150000Y17450000D01*
X33633709Y15953768D02*
X33160000Y16427477D01*
X33160000Y16427477D02*
X33160000Y16460000D01*
%TD*%
%TA.AperFunction,Conductor*%
%TO.N,GND*%
G36*
X17954190Y36179815D02*
G01*
X17999945Y36127011D01*
X18009889Y36057853D01*
X17980864Y35994297D01*
X17928105Y35958458D01*
X17920478Y35955790D01*
X17767737Y35859816D01*
X17640184Y35732263D01*
X17544211Y35579524D01*
X17484631Y35409255D01*
X17484630Y35409250D01*
X17464435Y35230004D01*
X17464435Y35229997D01*
X17484630Y35050751D01*
X17484631Y35050746D01*
X17544211Y34880476D01*
X17600493Y34790906D01*
X17619500Y34724933D01*
X17619500Y32657493D01*
X17600494Y32591522D01*
X17594209Y32581521D01*
X17534633Y32411263D01*
X17534630Y32411250D01*
X17514435Y32232004D01*
X17514435Y32231997D01*
X17534630Y32052751D01*
X17534631Y32052746D01*
X17594211Y31882477D01*
X17690184Y31729738D01*
X17817738Y31602184D01*
X17970478Y31506211D01*
X18140745Y31446632D01*
X18140750Y31446631D01*
X18319996Y31426435D01*
X18320000Y31426435D01*
X18320004Y31426435D01*
X18499249Y31446631D01*
X18499252Y31446632D01*
X18499255Y31446632D01*
X18669522Y31506211D01*
X18822262Y31602184D01*
X18949816Y31729738D01*
X19045789Y31882478D01*
X19105368Y32052745D01*
X19105369Y32052751D01*
X19125565Y32231997D01*
X19125565Y32232004D01*
X19105369Y32411250D01*
X19105368Y32411255D01*
X19097136Y32434781D01*
X19045789Y32581522D01*
X19040141Y32590510D01*
X18949813Y32734266D01*
X18947550Y32737104D01*
X18946659Y32739285D01*
X18946111Y32740158D01*
X18946264Y32740255D01*
X18921144Y32801791D01*
X18920500Y32814413D01*
X18920500Y33100997D01*
X46474435Y33100997D01*
X46494630Y32921751D01*
X46494631Y32921746D01*
X46554211Y32751477D01*
X46650185Y32598737D01*
X46652445Y32595903D01*
X46653334Y32593725D01*
X46653889Y32592842D01*
X46653734Y32592745D01*
X46678855Y32531217D01*
X46679500Y32518588D01*
X46679500Y31292815D01*
X46660494Y31226843D01*
X46574211Y31089526D01*
X46514631Y30919257D01*
X46514630Y30919252D01*
X46494435Y30740006D01*
X46494435Y30739999D01*
X46514630Y30560753D01*
X46514631Y30560748D01*
X46574211Y30390479D01*
X46670184Y30237740D01*
X46797738Y30110186D01*
X46950478Y30014213D01*
X47120745Y29954634D01*
X47120750Y29954633D01*
X47299996Y29934437D01*
X47300000Y29934437D01*
X47300004Y29934437D01*
X47479249Y29954633D01*
X47479252Y29954634D01*
X47479255Y29954634D01*
X47649522Y30014213D01*
X47781673Y30097250D01*
X47848909Y30116250D01*
X47915744Y30095883D01*
X47935326Y30079937D01*
X47957738Y30057525D01*
X48026667Y30014214D01*
X48051290Y29998742D01*
X48110478Y29961552D01*
X48280745Y29901973D01*
X48280750Y29901972D01*
X48459996Y29881776D01*
X48460000Y29881776D01*
X48460004Y29881776D01*
X48639249Y29901972D01*
X48639252Y29901973D01*
X48639255Y29901973D01*
X48809522Y29961552D01*
X48962262Y30057525D01*
X49089816Y30185079D01*
X49185789Y30337819D01*
X49227678Y30457531D01*
X76670796Y30457531D01*
X76670797Y30457529D01*
X76700245Y30290515D01*
X76700246Y30290512D01*
X76700247Y30290508D01*
X76723009Y30237740D01*
X76767421Y30134781D01*
X76785730Y30110187D01*
X76868698Y29998742D01*
X76998617Y29889727D01*
X77150175Y29813612D01*
X77315201Y29774500D01*
X77315203Y29774500D01*
X77442249Y29774500D01*
X77442256Y29774500D01*
X77568451Y29789250D01*
X77727820Y29847256D01*
X77869517Y29940451D01*
X77985902Y30063812D01*
X78070701Y30210688D01*
X78119342Y30373161D01*
X78129203Y30542471D01*
X78099753Y30709492D01*
X78032579Y30865219D01*
X77931302Y31001258D01*
X77801383Y31110273D01*
X77800066Y31110935D01*
X77649828Y31186387D01*
X77649826Y31186388D01*
X77649825Y31186388D01*
X77484799Y31225500D01*
X77357744Y31225500D01*
X77247323Y31212594D01*
X77231548Y31210750D01*
X77072181Y31152745D01*
X77007607Y31110274D01*
X76930483Y31059549D01*
X76930482Y31059549D01*
X76930482Y31059548D01*
X76814098Y30936190D01*
X76729300Y30789315D01*
X76680658Y30626841D01*
X76680657Y30626835D01*
X76670796Y30457531D01*
X49227678Y30457531D01*
X49245368Y30508086D01*
X49245369Y30508092D01*
X49265565Y30687338D01*
X49265565Y30687345D01*
X49245369Y30866591D01*
X49245368Y30866596D01*
X49198249Y31001255D01*
X49185789Y31036863D01*
X49171534Y31059549D01*
X49112975Y31152745D01*
X49089816Y31189603D01*
X48962262Y31317157D01*
X48962259Y31317159D01*
X48888527Y31363489D01*
X48842236Y31415824D01*
X48830500Y31468482D01*
X48830500Y32347588D01*
X48850185Y32414627D01*
X48857555Y32424903D01*
X48859810Y32427733D01*
X48859816Y32427738D01*
X48955789Y32580478D01*
X49015368Y32750745D01*
X49015369Y32750751D01*
X49016133Y32757529D01*
X76670797Y32757529D01*
X76700245Y32590515D01*
X76700246Y32590512D01*
X76700247Y32590508D01*
X76767421Y32434781D01*
X76868698Y32298742D01*
X76998617Y32189727D01*
X77150175Y32113612D01*
X77315201Y32074500D01*
X77315203Y32074500D01*
X77442249Y32074500D01*
X77442256Y32074500D01*
X77568451Y32089250D01*
X77727820Y32147256D01*
X77869517Y32240451D01*
X77985902Y32363812D01*
X78070701Y32510688D01*
X78119342Y32673161D01*
X78129203Y32842471D01*
X78099753Y33009492D01*
X78032579Y33165219D01*
X77931302Y33301258D01*
X77801383Y33410273D01*
X77757597Y33432263D01*
X77649828Y33486387D01*
X77649826Y33486388D01*
X77649825Y33486388D01*
X77484799Y33525500D01*
X77357744Y33525500D01*
X77247323Y33512594D01*
X77231548Y33510750D01*
X77072181Y33452745D01*
X77041040Y33432263D01*
X76930483Y33359549D01*
X76930482Y33359549D01*
X76930482Y33359548D01*
X76814098Y33236190D01*
X76729300Y33089315D01*
X76680658Y32926841D01*
X76680657Y32926835D01*
X76670797Y32757532D01*
X76670797Y32757529D01*
X49016133Y32757529D01*
X49035565Y32929997D01*
X49035565Y32930004D01*
X49015369Y33109250D01*
X49015368Y33109255D01*
X48970952Y33236188D01*
X48955789Y33279522D01*
X48955328Y33280255D01*
X48905505Y33359549D01*
X48859816Y33432262D01*
X48732262Y33559816D01*
X48579523Y33655789D01*
X48409254Y33715369D01*
X48409249Y33715370D01*
X48230004Y33735565D01*
X48229996Y33735565D01*
X48050750Y33715370D01*
X48050742Y33715368D01*
X47936840Y33675512D01*
X47867061Y33671951D01*
X47808205Y33704873D01*
X47782262Y33730816D01*
X47629523Y33826789D01*
X47459254Y33886369D01*
X47459249Y33886370D01*
X47280004Y33906565D01*
X47279996Y33906565D01*
X47100750Y33886370D01*
X47100745Y33886369D01*
X46930476Y33826789D01*
X46777737Y33730816D01*
X46650184Y33603263D01*
X46554211Y33450524D01*
X46494631Y33280255D01*
X46494630Y33280250D01*
X46474435Y33101004D01*
X46474435Y33100997D01*
X18920500Y33100997D01*
X18920500Y34724933D01*
X18939507Y34790906D01*
X18995788Y34880476D01*
X18995789Y34880478D01*
X19055368Y35050745D01*
X19069177Y35173303D01*
X19075565Y35229997D01*
X19075565Y35230004D01*
X19055369Y35409250D01*
X19055368Y35409255D01*
X18995788Y35579524D01*
X18899815Y35732263D01*
X18772262Y35859816D01*
X18619521Y35955790D01*
X18611895Y35958458D01*
X18555119Y35999179D01*
X18529371Y36064132D01*
X18542827Y36132693D01*
X18591213Y36183097D01*
X18652849Y36199500D01*
X76443229Y36199500D01*
X76510268Y36179815D01*
X76556023Y36127011D01*
X76565967Y36057853D01*
X76555611Y36023095D01*
X76473262Y35846498D01*
X76473258Y35846489D01*
X76414366Y35626698D01*
X76414364Y35626687D01*
X76394532Y35400002D01*
X76394532Y35399999D01*
X76414364Y35173314D01*
X76414366Y35173303D01*
X76473258Y34953512D01*
X76473261Y34953503D01*
X76569431Y34747268D01*
X76569432Y34747266D01*
X76699954Y34560859D01*
X76860858Y34399955D01*
X76860861Y34399953D01*
X77047266Y34269432D01*
X77253504Y34173261D01*
X77473308Y34114365D01*
X77635230Y34100199D01*
X77699998Y34094532D01*
X77700000Y34094532D01*
X77700002Y34094532D01*
X77756673Y34099491D01*
X77926692Y34114365D01*
X78146496Y34173261D01*
X78323095Y34255611D01*
X78392173Y34266103D01*
X78455957Y34237583D01*
X78494196Y34179107D01*
X78499500Y34143229D01*
X78499500Y29156771D01*
X78479815Y29089732D01*
X78427011Y29043977D01*
X78357853Y29034033D01*
X78323095Y29044389D01*
X78225857Y29089732D01*
X78146496Y29126739D01*
X78146492Y29126740D01*
X78146488Y29126742D01*
X77926697Y29185634D01*
X77926693Y29185635D01*
X77926692Y29185635D01*
X77926691Y29185636D01*
X77926686Y29185636D01*
X77700002Y29205468D01*
X77699998Y29205468D01*
X77473313Y29185636D01*
X77473302Y29185634D01*
X77253511Y29126742D01*
X77253502Y29126739D01*
X77047267Y29030569D01*
X77047265Y29030568D01*
X76860858Y28900046D01*
X76699954Y28739142D01*
X76569432Y28552735D01*
X76569431Y28552733D01*
X76473261Y28346498D01*
X76473258Y28346489D01*
X76414366Y28126698D01*
X76414364Y28126687D01*
X76394532Y27900002D01*
X76394532Y27899999D01*
X76414364Y27673314D01*
X76414366Y27673303D01*
X76473258Y27453512D01*
X76473261Y27453503D01*
X76569431Y27247268D01*
X76569432Y27247266D01*
X76699954Y27060859D01*
X76860858Y26899955D01*
X76860861Y26899953D01*
X77047266Y26769432D01*
X77253504Y26673261D01*
X77473308Y26614365D01*
X77635230Y26600199D01*
X77699998Y26594532D01*
X77700000Y26594532D01*
X77700002Y26594532D01*
X77756673Y26599491D01*
X77926692Y26614365D01*
X78146496Y26673261D01*
X78323095Y26755611D01*
X78392173Y26766103D01*
X78455957Y26737583D01*
X78494196Y26679107D01*
X78499500Y26643229D01*
X78499500Y23798082D01*
X78479815Y23731043D01*
X78427011Y23685288D01*
X78357853Y23675344D01*
X78329414Y23682964D01*
X78211314Y23730245D01*
X78005038Y23770000D01*
X77750000Y23770000D01*
X77750000Y22970000D01*
X77250000Y22970000D01*
X77250000Y23770000D01*
X77047602Y23770000D01*
X76890877Y23755035D01*
X76890873Y23755034D01*
X76689313Y23695851D01*
X76502585Y23599587D01*
X76337462Y23469732D01*
X76337459Y23469729D01*
X76199894Y23310970D01*
X76199885Y23310959D01*
X76094855Y23129040D01*
X76094852Y23129033D01*
X76026144Y22930518D01*
X76026144Y22930516D01*
X76024632Y22920000D01*
X76933890Y22920000D01*
X76894391Y22895543D01*
X76826800Y22806038D01*
X76796106Y22698160D01*
X76806455Y22586479D01*
X76856449Y22486078D01*
X76928932Y22420000D01*
X76028742Y22420000D01*
X76055770Y22308591D01*
X76143040Y22117493D01*
X76264889Y21946381D01*
X76264895Y21946375D01*
X76416932Y21801408D01*
X76593657Y21687834D01*
X76788685Y21609756D01*
X76994962Y21570000D01*
X77250000Y21570000D01*
X77250000Y22370000D01*
X77750000Y22370000D01*
X77750000Y21570000D01*
X77952398Y21570000D01*
X78109122Y21584966D01*
X78109126Y21584967D01*
X78310687Y21644150D01*
X78318675Y21648268D01*
X78387281Y21661494D01*
X78452147Y21635529D01*
X78492678Y21578617D01*
X78499500Y21538055D01*
X78499500Y15158082D01*
X78479815Y15091043D01*
X78427011Y15045288D01*
X78357853Y15035344D01*
X78329414Y15042964D01*
X78211314Y15090245D01*
X78005038Y15130000D01*
X77750000Y15130000D01*
X77750000Y14330000D01*
X77250000Y14330000D01*
X77250000Y15130000D01*
X77047602Y15130000D01*
X76890877Y15115035D01*
X76890873Y15115034D01*
X76689313Y15055851D01*
X76502585Y14959587D01*
X76337462Y14829732D01*
X76337459Y14829729D01*
X76199894Y14670970D01*
X76199885Y14670959D01*
X76094855Y14489040D01*
X76094852Y14489033D01*
X76026144Y14290518D01*
X76026144Y14290516D01*
X76024632Y14280000D01*
X76933890Y14280000D01*
X76894391Y14255543D01*
X76826800Y14166038D01*
X76796106Y14058160D01*
X76806455Y13946479D01*
X76856449Y13846078D01*
X76928932Y13780000D01*
X76028742Y13780000D01*
X76055770Y13668591D01*
X76143040Y13477493D01*
X76264889Y13306381D01*
X76264895Y13306375D01*
X76416932Y13161408D01*
X76593657Y13047834D01*
X76788685Y12969756D01*
X76994962Y12930000D01*
X77250000Y12930000D01*
X77250000Y13730000D01*
X77750000Y13730000D01*
X77750000Y12930000D01*
X77952398Y12930000D01*
X78109122Y12944966D01*
X78109126Y12944967D01*
X78310687Y13004150D01*
X78318675Y13008268D01*
X78387281Y13021494D01*
X78452147Y12995529D01*
X78492678Y12938617D01*
X78499500Y12898055D01*
X78499500Y10056771D01*
X78479815Y9989732D01*
X78427011Y9943977D01*
X78357853Y9934033D01*
X78323095Y9944389D01*
X78225857Y9989732D01*
X78146496Y10026739D01*
X78146492Y10026740D01*
X78146488Y10026742D01*
X77926697Y10085634D01*
X77926693Y10085635D01*
X77926692Y10085635D01*
X77926691Y10085636D01*
X77926686Y10085636D01*
X77700002Y10105468D01*
X77699998Y10105468D01*
X77473313Y10085636D01*
X77473302Y10085634D01*
X77253511Y10026742D01*
X77253502Y10026739D01*
X77047267Y9930569D01*
X77047265Y9930568D01*
X76860858Y9800046D01*
X76699954Y9639142D01*
X76569432Y9452735D01*
X76569431Y9452733D01*
X76473261Y9246498D01*
X76473258Y9246489D01*
X76414366Y9026698D01*
X76414364Y9026687D01*
X76394532Y8800002D01*
X76394532Y8799999D01*
X76414364Y8573314D01*
X76414366Y8573303D01*
X76473258Y8353512D01*
X76473261Y8353503D01*
X76569431Y8147268D01*
X76569432Y8147266D01*
X76699954Y7960859D01*
X76860858Y7799955D01*
X76860861Y7799953D01*
X77047266Y7669432D01*
X77253504Y7573261D01*
X77473308Y7514365D01*
X77635230Y7500199D01*
X77699998Y7494532D01*
X77700000Y7494532D01*
X77700002Y7494532D01*
X77756673Y7499491D01*
X77926692Y7514365D01*
X78146496Y7573261D01*
X78323095Y7655611D01*
X78392173Y7666103D01*
X78455957Y7637583D01*
X78494196Y7579107D01*
X78499500Y7543229D01*
X78499500Y2556771D01*
X78479815Y2489732D01*
X78427011Y2443977D01*
X78357853Y2434033D01*
X78323095Y2444389D01*
X78251578Y2477738D01*
X78146496Y2526739D01*
X78146492Y2526740D01*
X78146488Y2526742D01*
X77926697Y2585634D01*
X77926693Y2585635D01*
X77926692Y2585635D01*
X77926691Y2585636D01*
X77926686Y2585636D01*
X77700002Y2605468D01*
X77699998Y2605468D01*
X77473313Y2585636D01*
X77473302Y2585634D01*
X77253511Y2526742D01*
X77253502Y2526739D01*
X77047267Y2430569D01*
X77047265Y2430568D01*
X76860858Y2300046D01*
X76699954Y2139142D01*
X76569432Y1952735D01*
X76569431Y1952733D01*
X76473261Y1746498D01*
X76473258Y1746489D01*
X76414366Y1526698D01*
X76414364Y1526687D01*
X76394532Y1300002D01*
X76394532Y1299999D01*
X76414364Y1073314D01*
X76414366Y1073303D01*
X76473258Y853512D01*
X76473260Y853508D01*
X76473261Y853504D01*
X76553334Y681787D01*
X76555611Y676905D01*
X76566103Y607827D01*
X76537583Y544043D01*
X76479107Y505804D01*
X76443229Y500500D01*
X75828569Y500500D01*
X75761530Y520185D01*
X75715775Y572989D01*
X75705831Y642147D01*
X75711528Y665455D01*
X75755366Y790738D01*
X75755369Y790751D01*
X75775565Y969997D01*
X75775565Y970004D01*
X75755369Y1149250D01*
X75755368Y1149255D01*
X75695788Y1319524D01*
X75599815Y1472263D01*
X75472262Y1599816D01*
X75319523Y1695789D01*
X75149254Y1755369D01*
X75149249Y1755370D01*
X74970004Y1775565D01*
X74969996Y1775565D01*
X74790750Y1755370D01*
X74790745Y1755369D01*
X74620476Y1695789D01*
X74467736Y1599815D01*
X74464903Y1597555D01*
X74462724Y1596666D01*
X74461842Y1596111D01*
X74461744Y1596266D01*
X74400217Y1571145D01*
X74387588Y1570500D01*
X36633886Y1570500D01*
X36566847Y1590185D01*
X36535511Y1619012D01*
X36528780Y1627784D01*
X36500507Y1649478D01*
X36494404Y1654831D01*
X34845700Y3303535D01*
X34812215Y3364858D01*
X34810163Y3377314D01*
X34800368Y3464255D01*
X34740789Y3634522D01*
X34644816Y3787262D01*
X34517262Y3914816D01*
X34473735Y3942166D01*
X34364523Y4010789D01*
X34194254Y4070369D01*
X34194249Y4070370D01*
X34015004Y4090565D01*
X34014996Y4090565D01*
X33835750Y4070370D01*
X33835745Y4070369D01*
X33665476Y4010789D01*
X33512737Y3914816D01*
X33385184Y3787263D01*
X33289211Y3634524D01*
X33229631Y3464255D01*
X33229630Y3464250D01*
X33209435Y3285004D01*
X33209435Y3284997D01*
X33229630Y3105751D01*
X33229631Y3105746D01*
X33289211Y2935477D01*
X33373866Y2800751D01*
X33385184Y2782738D01*
X33512738Y2655184D01*
X33665478Y2559211D01*
X33835745Y2499632D01*
X33922669Y2489839D01*
X33987080Y2462774D01*
X33996465Y2454300D01*
X35467184Y983581D01*
X35500669Y922258D01*
X35502442Y912087D01*
X35509680Y857115D01*
X35515456Y813237D01*
X35573978Y671952D01*
X35581447Y602483D01*
X35550172Y540004D01*
X35490083Y504352D01*
X35459417Y500500D01*
X2556771Y500500D01*
X2489732Y520185D01*
X2443977Y572989D01*
X2434033Y642147D01*
X2444389Y676905D01*
X2445195Y678635D01*
X2526739Y853504D01*
X2585635Y1073308D01*
X2605468Y1300000D01*
X2585635Y1526692D01*
X2526739Y1746496D01*
X2430568Y1952734D01*
X2300047Y2139139D01*
X2300045Y2139142D01*
X2139141Y2300046D01*
X1952734Y2430568D01*
X1952732Y2430569D01*
X1746497Y2526739D01*
X1746488Y2526742D01*
X1526697Y2585634D01*
X1526693Y2585635D01*
X1526692Y2585635D01*
X1526691Y2585636D01*
X1526686Y2585636D01*
X1300002Y2605468D01*
X1299998Y2605468D01*
X1073313Y2585636D01*
X1073302Y2585634D01*
X853511Y2526742D01*
X853502Y2526738D01*
X676905Y2444389D01*
X607827Y2433897D01*
X544043Y2462417D01*
X505804Y2520893D01*
X500500Y2556771D01*
X500500Y3857531D01*
X870796Y3857531D01*
X870797Y3857529D01*
X900245Y3690515D01*
X900246Y3690512D01*
X900247Y3690508D01*
X967421Y3534781D01*
X1068698Y3398742D01*
X1198617Y3289727D01*
X1350175Y3213612D01*
X1515201Y3174500D01*
X1515203Y3174500D01*
X1642249Y3174500D01*
X1642256Y3174500D01*
X1768451Y3189250D01*
X1927820Y3247256D01*
X2069517Y3340451D01*
X2185902Y3463812D01*
X2270701Y3610688D01*
X2319342Y3773161D01*
X2329203Y3942471D01*
X2299753Y4109492D01*
X2232579Y4265219D01*
X2131302Y4401258D01*
X2001383Y4510273D01*
X2000066Y4510935D01*
X1849828Y4586387D01*
X1849826Y4586388D01*
X1849825Y4586388D01*
X1708005Y4620000D01*
X53584341Y4620000D01*
X53604936Y4384597D01*
X53604938Y4384587D01*
X53666094Y4156345D01*
X53666096Y4156341D01*
X53666097Y4156337D01*
X53734680Y4009261D01*
X53765965Y3942170D01*
X53765967Y3942166D01*
X53859161Y3809072D01*
X53901505Y3748599D01*
X54068599Y3581505D01*
X54165384Y3513735D01*
X54262165Y3445968D01*
X54262167Y3445967D01*
X54262170Y3445965D01*
X54476337Y3346097D01*
X54704592Y3284937D01*
X54881034Y3269500D01*
X54939999Y3264341D01*
X54940000Y3264341D01*
X54940001Y3264341D01*
X54998966Y3269500D01*
X55175408Y3284937D01*
X55403663Y3346097D01*
X55617830Y3445965D01*
X55811401Y3581505D01*
X55933329Y3703434D01*
X55994648Y3736916D01*
X56064340Y3731932D01*
X56120274Y3690061D01*
X56137189Y3659083D01*
X56186202Y3527672D01*
X56186206Y3527665D01*
X56272452Y3412456D01*
X56272455Y3412453D01*
X56387664Y3326207D01*
X56387671Y3326203D01*
X56522517Y3275909D01*
X56522516Y3275909D01*
X56529444Y3275165D01*
X56582127Y3269500D01*
X58377872Y3269501D01*
X58437483Y3275909D01*
X58572331Y3326204D01*
X58687546Y3412454D01*
X58773796Y3527669D01*
X58824091Y3662517D01*
X58830500Y3722127D01*
X58830499Y4855571D01*
X63249083Y4855571D01*
X63269278Y4676325D01*
X63269279Y4676320D01*
X63328859Y4506051D01*
X63406020Y4383251D01*
X63424832Y4353312D01*
X63552386Y4225758D01*
X63705126Y4129785D01*
X63874924Y4070370D01*
X63875393Y4070206D01*
X63875398Y4070205D01*
X64054644Y4050009D01*
X64054648Y4050009D01*
X64054652Y4050009D01*
X64233897Y4070205D01*
X64233900Y4070206D01*
X64233903Y4070206D01*
X64404170Y4129785D01*
X64556910Y4225758D01*
X64684464Y4353312D01*
X64780437Y4506052D01*
X64800188Y4562497D01*
X71004435Y4562497D01*
X71024630Y4383251D01*
X71024631Y4383246D01*
X71084211Y4212977D01*
X71149236Y4109491D01*
X71180184Y4060238D01*
X71307738Y3932684D01*
X71460478Y3836711D01*
X71630745Y3777132D01*
X71717669Y3767339D01*
X71782080Y3740274D01*
X71791465Y3731800D01*
X71878740Y3644525D01*
X71912225Y3583202D01*
X71907241Y3513510D01*
X71893152Y3488621D01*
X71893889Y3488158D01*
X71890184Y3482263D01*
X71890184Y3482262D01*
X71874995Y3458090D01*
X71794211Y3329524D01*
X71734631Y3159255D01*
X71734630Y3159250D01*
X71714435Y2980004D01*
X71714435Y2979997D01*
X71734630Y2800751D01*
X71734631Y2800746D01*
X71794211Y2630477D01*
X71859395Y2526738D01*
X71890184Y2477738D01*
X72017738Y2350184D01*
X72170478Y2254211D01*
X72340745Y2194632D01*
X72340750Y2194631D01*
X72519996Y2174435D01*
X72520000Y2174435D01*
X72520004Y2174435D01*
X72699249Y2194631D01*
X72699252Y2194632D01*
X72699255Y2194632D01*
X72869522Y2254211D01*
X73022262Y2350184D01*
X73149816Y2477738D01*
X73245789Y2630478D01*
X73305368Y2800745D01*
X73325565Y2980000D01*
X73311397Y3105745D01*
X73305369Y3159250D01*
X73305368Y3159255D01*
X73268597Y3264341D01*
X73245789Y3329522D01*
X73235375Y3346095D01*
X73172621Y3445968D01*
X73149816Y3482262D01*
X73149814Y3482264D01*
X73149813Y3482266D01*
X73147550Y3485104D01*
X73146659Y3487285D01*
X73146111Y3488158D01*
X73146264Y3488255D01*
X73121144Y3549791D01*
X73120500Y3562413D01*
X73120500Y3809072D01*
X73121031Y3817174D01*
X73125682Y3852501D01*
X73125682Y3852502D01*
X73125020Y3857531D01*
X76670796Y3857531D01*
X76670797Y3857529D01*
X76700245Y3690515D01*
X76700246Y3690512D01*
X76700247Y3690508D01*
X76767421Y3534781D01*
X76868698Y3398742D01*
X76998617Y3289727D01*
X77150175Y3213612D01*
X77315201Y3174500D01*
X77315203Y3174500D01*
X77442249Y3174500D01*
X77442256Y3174500D01*
X77568451Y3189250D01*
X77727820Y3247256D01*
X77869517Y3340451D01*
X77985902Y3463812D01*
X78070701Y3610688D01*
X78119342Y3773161D01*
X78129203Y3942471D01*
X78099753Y4109492D01*
X78032579Y4265219D01*
X77931302Y4401258D01*
X77801383Y4510273D01*
X77800066Y4510935D01*
X77649828Y4586387D01*
X77649826Y4586388D01*
X77649825Y4586388D01*
X77484799Y4625500D01*
X77357744Y4625500D01*
X77247323Y4612594D01*
X77231548Y4610750D01*
X77072181Y4552745D01*
X77007607Y4510274D01*
X76930483Y4459549D01*
X76930482Y4459549D01*
X76930482Y4459548D01*
X76814098Y4336190D01*
X76729300Y4189315D01*
X76680658Y4026841D01*
X76680657Y4026835D01*
X76670796Y3857531D01*
X73125020Y3857531D01*
X73105044Y4009261D01*
X73105042Y4009266D01*
X73097762Y4026841D01*
X73044538Y4155337D01*
X73044538Y4155338D01*
X73044536Y4155341D01*
X73018469Y4189312D01*
X72948282Y4280782D01*
X72920005Y4302480D01*
X72913904Y4307831D01*
X72640700Y4581035D01*
X72607215Y4642358D01*
X72605163Y4654814D01*
X72595368Y4741755D01*
X72535789Y4912022D01*
X72439816Y5064762D01*
X72312262Y5192316D01*
X72291920Y5205098D01*
X72159523Y5288289D01*
X71989254Y5347869D01*
X71989249Y5347870D01*
X71810004Y5368065D01*
X71809996Y5368065D01*
X71630750Y5347870D01*
X71630745Y5347869D01*
X71460476Y5288289D01*
X71307737Y5192316D01*
X71180184Y5064763D01*
X71084211Y4912024D01*
X71024631Y4741755D01*
X71024630Y4741750D01*
X71004435Y4562504D01*
X71004435Y4562497D01*
X64800188Y4562497D01*
X64840016Y4676319D01*
X64840017Y4676325D01*
X64860213Y4855571D01*
X64860213Y4855578D01*
X64840017Y5034824D01*
X64840016Y5034829D01*
X64822928Y5083663D01*
X64780437Y5205096D01*
X64684464Y5357836D01*
X64684462Y5357838D01*
X64684461Y5357840D01*
X64682198Y5360678D01*
X64681307Y5362859D01*
X64680759Y5363732D01*
X64680912Y5363829D01*
X64655792Y5425365D01*
X64655148Y5437987D01*
X64655148Y5661708D01*
X64674833Y5728747D01*
X64691467Y5749389D01*
X64705890Y5763812D01*
X64739816Y5797738D01*
X64835789Y5950478D01*
X64895368Y6120745D01*
X64899513Y6157531D01*
X76670796Y6157531D01*
X76670797Y6157529D01*
X76700245Y5990515D01*
X76700246Y5990512D01*
X76700247Y5990508D01*
X76767421Y5834781D01*
X76868698Y5698742D01*
X76998617Y5589727D01*
X77150175Y5513612D01*
X77315201Y5474500D01*
X77315203Y5474500D01*
X77442249Y5474500D01*
X77442256Y5474500D01*
X77568451Y5489250D01*
X77727820Y5547256D01*
X77869517Y5640451D01*
X77985902Y5763812D01*
X78070701Y5910688D01*
X78119342Y6073161D01*
X78129203Y6242471D01*
X78099753Y6409492D01*
X78032579Y6565219D01*
X77931302Y6701258D01*
X77801383Y6810273D01*
X77800066Y6810935D01*
X77649828Y6886387D01*
X77649826Y6886388D01*
X77649825Y6886388D01*
X77484799Y6925500D01*
X77357744Y6925500D01*
X77247323Y6912594D01*
X77231548Y6910750D01*
X77072181Y6852745D01*
X77007607Y6810274D01*
X76930483Y6759549D01*
X76930482Y6759549D01*
X76930482Y6759548D01*
X76814098Y6636190D01*
X76729300Y6489315D01*
X76680658Y6326841D01*
X76680657Y6326835D01*
X76670796Y6157531D01*
X64899513Y6157531D01*
X64909083Y6242471D01*
X64915565Y6299997D01*
X64915565Y6300004D01*
X64895369Y6479250D01*
X64895368Y6479255D01*
X64865288Y6565219D01*
X64835789Y6649522D01*
X64739816Y6802262D01*
X64612262Y6929816D01*
X64541608Y6974211D01*
X64459523Y7025789D01*
X64289254Y7085369D01*
X64289249Y7085370D01*
X64110004Y7105565D01*
X64109996Y7105565D01*
X63930750Y7085370D01*
X63930745Y7085369D01*
X63760476Y7025789D01*
X63607737Y6929816D01*
X63480184Y6802263D01*
X63384211Y6649524D01*
X63324631Y6479255D01*
X63324630Y6479250D01*
X63304435Y6300004D01*
X63304435Y6299997D01*
X63324630Y6120751D01*
X63324631Y6120746D01*
X63384211Y5950476D01*
X63435141Y5869424D01*
X63454148Y5803451D01*
X63454148Y5437987D01*
X63434463Y5370948D01*
X63427098Y5360678D01*
X63424834Y5357840D01*
X63328859Y5205098D01*
X63269279Y5034829D01*
X63269278Y5034824D01*
X63249083Y4855578D01*
X63249083Y4855571D01*
X58830499Y4855571D01*
X58830499Y5517872D01*
X58824091Y5577483D01*
X58822810Y5580917D01*
X58773797Y5712329D01*
X58773793Y5712336D01*
X58687547Y5827545D01*
X58687544Y5827548D01*
X58572335Y5913794D01*
X58572328Y5913798D01*
X58437482Y5964092D01*
X58437483Y5964092D01*
X58377883Y5970499D01*
X58377881Y5970500D01*
X58377873Y5970500D01*
X58377864Y5970500D01*
X56582129Y5970500D01*
X56582123Y5970499D01*
X56522516Y5964092D01*
X56387671Y5913798D01*
X56387664Y5913794D01*
X56272455Y5827548D01*
X56272452Y5827545D01*
X56186206Y5712336D01*
X56186203Y5712331D01*
X56137189Y5580917D01*
X56095317Y5524984D01*
X56029853Y5500567D01*
X55961580Y5515419D01*
X55933326Y5536570D01*
X55811402Y5658494D01*
X55811395Y5658499D01*
X55617834Y5794033D01*
X55617830Y5794035D01*
X55597637Y5803451D01*
X55403663Y5893903D01*
X55403659Y5893904D01*
X55403655Y5893906D01*
X55175413Y5955062D01*
X55175403Y5955064D01*
X54940001Y5975659D01*
X54939999Y5975659D01*
X54704596Y5955064D01*
X54704586Y5955062D01*
X54476344Y5893906D01*
X54476335Y5893902D01*
X54262171Y5794036D01*
X54262169Y5794035D01*
X54068597Y5658495D01*
X53901505Y5491403D01*
X53765965Y5297831D01*
X53765964Y5297829D01*
X53666098Y5083665D01*
X53666094Y5083656D01*
X53604938Y4855414D01*
X53604936Y4855404D01*
X53584341Y4620001D01*
X53584341Y4620000D01*
X1708005Y4620000D01*
X1684799Y4625500D01*
X1557744Y4625500D01*
X1447323Y4612594D01*
X1431548Y4610750D01*
X1272181Y4552745D01*
X1207607Y4510274D01*
X1130483Y4459549D01*
X1130482Y4459549D01*
X1130482Y4459548D01*
X1014098Y4336190D01*
X929300Y4189315D01*
X880658Y4026841D01*
X880657Y4026835D01*
X870796Y3857531D01*
X500500Y3857531D01*
X500500Y6157531D01*
X870796Y6157531D01*
X870797Y6157529D01*
X900245Y5990515D01*
X900246Y5990512D01*
X900247Y5990508D01*
X967421Y5834781D01*
X1068698Y5698742D01*
X1198617Y5589727D01*
X1350175Y5513612D01*
X1515201Y5474500D01*
X1515203Y5474500D01*
X1642249Y5474500D01*
X1642256Y5474500D01*
X1768451Y5489250D01*
X1927820Y5547256D01*
X2069517Y5640451D01*
X2185902Y5763812D01*
X2270701Y5910688D01*
X2319342Y6073161D01*
X2329203Y6242471D01*
X2299753Y6409492D01*
X2232579Y6565219D01*
X2131302Y6701258D01*
X2001383Y6810273D01*
X2000066Y6810935D01*
X1849828Y6886387D01*
X1849826Y6886388D01*
X1849825Y6886388D01*
X1684799Y6925500D01*
X1557744Y6925500D01*
X1447323Y6912594D01*
X1431548Y6910750D01*
X1272181Y6852745D01*
X1207607Y6810274D01*
X1130483Y6759549D01*
X1130482Y6759549D01*
X1130482Y6759548D01*
X1014098Y6636190D01*
X929300Y6489315D01*
X880658Y6326841D01*
X880657Y6326835D01*
X870796Y6157531D01*
X500500Y6157531D01*
X500500Y7543229D01*
X520185Y7610268D01*
X572989Y7656023D01*
X642147Y7665967D01*
X676905Y7655611D01*
X853504Y7573261D01*
X1073308Y7514365D01*
X1235230Y7500199D01*
X1299998Y7494532D01*
X1300000Y7494532D01*
X1300002Y7494532D01*
X1356673Y7499491D01*
X1526692Y7514365D01*
X1746496Y7573261D01*
X1952734Y7669432D01*
X2139139Y7799953D01*
X2300047Y7960861D01*
X2430568Y8147266D01*
X2526739Y8353504D01*
X2585635Y8573308D01*
X2605468Y8800000D01*
X2605331Y8801571D01*
X51277435Y8801571D01*
X51297630Y8622325D01*
X51297631Y8622320D01*
X51357211Y8452051D01*
X51453184Y8299312D01*
X51580738Y8171758D01*
X51619714Y8147268D01*
X51733479Y8075784D01*
X51758912Y8066885D01*
X51815689Y8026164D01*
X51841437Y7961212D01*
X51835001Y7908889D01*
X51824631Y7879253D01*
X51804435Y7700004D01*
X51804435Y7699997D01*
X51824630Y7520751D01*
X51824631Y7520746D01*
X51884211Y7350477D01*
X51980184Y7197738D01*
X52107738Y7070184D01*
X52260478Y6974211D01*
X52387352Y6929816D01*
X52430745Y6914632D01*
X52430750Y6914631D01*
X52609996Y6894435D01*
X52610000Y6894435D01*
X52610004Y6894435D01*
X52789249Y6914631D01*
X52789252Y6914632D01*
X52789255Y6914632D01*
X52959522Y6974211D01*
X53112262Y7070184D01*
X53239816Y7197738D01*
X53335789Y7350478D01*
X53395368Y7520745D01*
X53395369Y7520751D01*
X53415565Y7699997D01*
X53415565Y7700004D01*
X53395369Y7879250D01*
X53395368Y7879255D01*
X53384999Y7908889D01*
X53335789Y8049522D01*
X53319287Y8075784D01*
X53239813Y8202266D01*
X53237550Y8205104D01*
X53236659Y8207285D01*
X53236111Y8208158D01*
X53236264Y8208255D01*
X53211144Y8269791D01*
X53210500Y8282413D01*
X53210500Y9269904D01*
X53230185Y9336943D01*
X53246815Y9357581D01*
X53743923Y9854690D01*
X53749998Y9860016D01*
X53778282Y9881718D01*
X53874536Y10007159D01*
X53935044Y10153238D01*
X53950500Y10270639D01*
X53955682Y10310000D01*
X53956743Y10318058D01*
X53960228Y10317600D01*
X53975367Y10369156D01*
X54013711Y10407111D01*
X54018315Y10410004D01*
X54082262Y10450184D01*
X54209816Y10577738D01*
X54305789Y10730478D01*
X54365368Y10900745D01*
X54370231Y10943904D01*
X54385565Y11079997D01*
X54385565Y11080004D01*
X54365369Y11259250D01*
X54365368Y11259255D01*
X54305789Y11429522D01*
X54241105Y11532466D01*
X54222105Y11599703D01*
X54242473Y11666538D01*
X54295740Y11711752D01*
X54364997Y11720990D01*
X54387054Y11715479D01*
X54520739Y11668700D01*
X54520745Y11668699D01*
X54520747Y11668698D01*
X54520748Y11668698D01*
X54520752Y11668697D01*
X54699998Y11648501D01*
X54700002Y11648501D01*
X54700006Y11648501D01*
X54879251Y11668697D01*
X54879254Y11668698D01*
X54879257Y11668698D01*
X54959019Y11696609D01*
X54999974Y11703566D01*
X55063704Y11703566D01*
X55130743Y11683881D01*
X55151385Y11667247D01*
X56716692Y10101940D01*
X56739356Y10065871D01*
X56741188Y10066753D01*
X56744207Y10060484D01*
X56823662Y9934033D01*
X56840184Y9907738D01*
X56967738Y9780184D01*
X57120478Y9684211D01*
X57265765Y9633373D01*
X57290745Y9624632D01*
X57290750Y9624631D01*
X57469996Y9604435D01*
X57470000Y9604435D01*
X57470004Y9604435D01*
X57649249Y9624631D01*
X57649252Y9624632D01*
X57649255Y9624632D01*
X57819522Y9684211D01*
X57972262Y9780184D01*
X58099816Y9907738D01*
X58195789Y10060478D01*
X58255368Y10230745D01*
X58255369Y10230751D01*
X58275565Y10409997D01*
X58275565Y10410004D01*
X58255369Y10589250D01*
X58255368Y10589255D01*
X58195788Y10759524D01*
X58156582Y10821920D01*
X58099816Y10912262D01*
X57972262Y11039816D01*
X57819522Y11135789D01*
X57819518Y11135791D01*
X57813244Y11138812D01*
X57814125Y11140642D01*
X57778059Y11163308D01*
X56001663Y12939705D01*
X55989883Y12953336D01*
X55982416Y12963365D01*
X55975546Y12972594D01*
X55975544Y12972596D01*
X55935521Y13006180D01*
X55931546Y13009822D01*
X55928624Y13012744D01*
X55925714Y13015655D01*
X55899974Y13036007D01*
X55841143Y13085372D01*
X55835114Y13089337D01*
X55835146Y13089386D01*
X55828787Y13093438D01*
X55828756Y13093387D01*
X55822614Y13097175D01*
X55822612Y13097176D01*
X55822611Y13097177D01*
X55783408Y13115458D01*
X55752992Y13129642D01*
X55718828Y13146799D01*
X55684367Y13164106D01*
X55684365Y13164107D01*
X55684364Y13164107D01*
X55677579Y13166577D01*
X55677599Y13166633D01*
X55670483Y13169107D01*
X55670465Y13169051D01*
X55663605Y13171324D01*
X55635775Y13177070D01*
X55588368Y13186859D01*
X55539406Y13198463D01*
X55513653Y13204567D01*
X55506481Y13205405D01*
X55506487Y13205465D01*
X55498989Y13206231D01*
X55498984Y13206171D01*
X55491794Y13206801D01*
X55415017Y13204566D01*
X54999974Y13204566D01*
X54959019Y13211524D01*
X54879256Y13239435D01*
X54879251Y13239436D01*
X54700006Y13259631D01*
X54699998Y13259631D01*
X54520752Y13239436D01*
X54520747Y13239435D01*
X54350478Y13179855D01*
X54197739Y13083882D01*
X54070186Y12956329D01*
X53974213Y12803590D01*
X53914633Y12633321D01*
X53914632Y12633316D01*
X53894437Y12454070D01*
X53894437Y12454063D01*
X53914632Y12274817D01*
X53914633Y12274812D01*
X53974213Y12104543D01*
X54038896Y12001601D01*
X54057896Y11934364D01*
X54037528Y11867529D01*
X53984260Y11822315D01*
X53915004Y11813078D01*
X53892947Y11818588D01*
X53759262Y11865367D01*
X53759249Y11865370D01*
X53580004Y11885565D01*
X53579996Y11885565D01*
X53400750Y11865370D01*
X53400745Y11865369D01*
X53230476Y11805789D01*
X53077737Y11709816D01*
X52950184Y11582263D01*
X52854212Y11429525D01*
X52851193Y11423254D01*
X52848982Y11424319D01*
X52814905Y11376819D01*
X52752482Y11351339D01*
X52610749Y11335370D01*
X52610745Y11335369D01*
X52440476Y11275789D01*
X52287738Y11179816D01*
X52282295Y11175475D01*
X52280707Y11177466D01*
X52229673Y11149619D01*
X52219538Y11147854D01*
X52122238Y11135044D01*
X52122237Y11135044D01*
X51976157Y11074536D01*
X51850719Y10978284D01*
X51829019Y10950006D01*
X51823668Y10943904D01*
X51689096Y10809332D01*
X51682994Y10803981D01*
X51654716Y10782281D01*
X51558464Y10656843D01*
X51497956Y10510763D01*
X51497955Y10510761D01*
X51477318Y10354002D01*
X51477318Y10354001D01*
X51481969Y10318674D01*
X51482500Y10310572D01*
X51482500Y9383987D01*
X51462815Y9316948D01*
X51455450Y9306678D01*
X51453186Y9303840D01*
X51357211Y9151098D01*
X51297631Y8980829D01*
X51297630Y8980824D01*
X51277435Y8801578D01*
X51277435Y8801571D01*
X2605331Y8801571D01*
X2585635Y9026692D01*
X2526739Y9246496D01*
X2430568Y9452734D01*
X2300047Y9639139D01*
X2300045Y9639142D01*
X2139141Y9800046D01*
X1952734Y9930568D01*
X1952732Y9930569D01*
X1746497Y10026739D01*
X1746488Y10026742D01*
X1526697Y10085634D01*
X1526687Y10085636D01*
X1400020Y10096718D01*
X1334951Y10122171D01*
X1293973Y10178762D01*
X1288090Y10237891D01*
X1291260Y10259942D01*
X1292498Y10266221D01*
X1302938Y10307738D01*
X1300500Y10369816D01*
X1300500Y14280000D01*
X71694632Y14280000D01*
X72603890Y14280000D01*
X72564391Y14255543D01*
X72496800Y14166038D01*
X72466106Y14058160D01*
X72476455Y13946479D01*
X72526449Y13846078D01*
X72598932Y13780000D01*
X71698742Y13780000D01*
X71725770Y13668591D01*
X71813040Y13477493D01*
X71934889Y13306381D01*
X71934895Y13306375D01*
X72086932Y13161408D01*
X72263657Y13047834D01*
X72458685Y12969756D01*
X72664962Y12930000D01*
X73070000Y12930000D01*
X73070000Y13730000D01*
X73570000Y13730000D01*
X73570000Y12930000D01*
X73922398Y12930000D01*
X74079122Y12944966D01*
X74079126Y12944967D01*
X74280686Y13004150D01*
X74467414Y13100414D01*
X74632537Y13230269D01*
X74632540Y13230272D01*
X74770105Y13389031D01*
X74770114Y13389042D01*
X74875144Y13570961D01*
X74875147Y13570968D01*
X74943855Y13769483D01*
X74943855Y13769485D01*
X74945368Y13780000D01*
X74036110Y13780000D01*
X74075609Y13804457D01*
X74143200Y13893962D01*
X74173894Y14001840D01*
X74163545Y14113521D01*
X74113551Y14213922D01*
X74041068Y14280000D01*
X74941257Y14280000D01*
X74914229Y14391410D01*
X74826959Y14582508D01*
X74705110Y14753620D01*
X74705104Y14753626D01*
X74553067Y14898593D01*
X74372870Y15014398D01*
X74327115Y15067202D01*
X74317171Y15136361D01*
X74325346Y15166160D01*
X74380687Y15299764D01*
X74400466Y15450000D01*
X74380687Y15600236D01*
X74322698Y15740233D01*
X74230451Y15860451D01*
X74110233Y15952698D01*
X74110229Y15952700D01*
X74046801Y15978973D01*
X73970236Y16010687D01*
X73956171Y16012539D01*
X73857727Y16025500D01*
X73857720Y16025500D01*
X73782280Y16025500D01*
X73782272Y16025500D01*
X73669764Y16010687D01*
X73669763Y16010687D01*
X73529770Y15952700D01*
X73409549Y15860451D01*
X73317300Y15740230D01*
X73259313Y15600237D01*
X73259312Y15600235D01*
X73239534Y15450001D01*
X73239534Y15450000D01*
X73259312Y15299766D01*
X73261417Y15291913D01*
X73259688Y15291450D01*
X73266084Y15231988D01*
X73234811Y15169508D01*
X73174724Y15133853D01*
X73144053Y15130000D01*
X72717602Y15130000D01*
X72560877Y15115035D01*
X72560873Y15115034D01*
X72359313Y15055851D01*
X72172585Y14959587D01*
X72007462Y14829732D01*
X72007459Y14829729D01*
X71869894Y14670970D01*
X71869885Y14670959D01*
X71764855Y14489040D01*
X71764852Y14489033D01*
X71696144Y14290518D01*
X71696144Y14290516D01*
X71694632Y14280000D01*
X1300500Y14280000D01*
X1300500Y16427476D01*
X32554318Y16427476D01*
X32559500Y16388117D01*
X32574955Y16270717D01*
X32574956Y16270715D01*
X32635464Y16124636D01*
X32731718Y15999195D01*
X32759995Y15977497D01*
X32766085Y15972157D01*
X32785542Y15952700D01*
X32803007Y15935235D01*
X32836492Y15873912D01*
X32838546Y15861438D01*
X32848339Y15774519D01*
X32907919Y15604247D01*
X32910440Y15600235D01*
X33003893Y15451506D01*
X33131447Y15323952D01*
X33169942Y15299764D01*
X33277806Y15231988D01*
X33284187Y15227979D01*
X33451288Y15169508D01*
X33454454Y15168400D01*
X33454459Y15168399D01*
X33633705Y15148203D01*
X33633709Y15148203D01*
X33633713Y15148203D01*
X33812958Y15168399D01*
X33812961Y15168400D01*
X33812964Y15168400D01*
X33983231Y15227979D01*
X34135971Y15323952D01*
X34263525Y15451506D01*
X34359498Y15604246D01*
X34419077Y15774513D01*
X34428871Y15861438D01*
X34439274Y15953765D01*
X34439274Y15953772D01*
X34419078Y16133018D01*
X34419077Y16133023D01*
X34359497Y16303292D01*
X34306198Y16388117D01*
X34263525Y16456030D01*
X34263524Y16456031D01*
X34259184Y16461473D01*
X34260461Y16462492D01*
X34231064Y16516329D01*
X34236048Y16586021D01*
X34277920Y16641954D01*
X34324641Y16663579D01*
X34329253Y16664632D01*
X34329255Y16664632D01*
X34499522Y16724211D01*
X34652262Y16820184D01*
X34779816Y16947738D01*
X34875789Y17100478D01*
X34935368Y17270745D01*
X34935369Y17270751D01*
X34955565Y17449997D01*
X34955565Y17450004D01*
X34935369Y17629250D01*
X34935368Y17629255D01*
X34875788Y17799524D01*
X34803584Y17914435D01*
X34779816Y17952262D01*
X34652262Y18079816D01*
X34639433Y18087877D01*
X34499523Y18175789D01*
X34329254Y18235369D01*
X34329249Y18235370D01*
X34150004Y18255565D01*
X34149996Y18255565D01*
X33970750Y18235370D01*
X33970745Y18235369D01*
X33800476Y18175789D01*
X33647737Y18079816D01*
X33520184Y17952263D01*
X33424210Y17799522D01*
X33364630Y17629250D01*
X33354837Y17542332D01*
X33327770Y17477918D01*
X33319298Y17468535D01*
X32766096Y16915332D01*
X32759994Y16909981D01*
X32731716Y16888281D01*
X32635464Y16762843D01*
X32574956Y16616763D01*
X32574956Y16616762D01*
X32554318Y16460002D01*
X32554329Y16459918D01*
X32554329Y16427563D01*
X32554318Y16427480D01*
X32554318Y16427476D01*
X1300500Y16427476D01*
X1300500Y19169997D01*
X31054435Y19169997D01*
X31074630Y18990751D01*
X31074631Y18990746D01*
X31134211Y18820477D01*
X31197347Y18719997D01*
X31230184Y18667738D01*
X31357738Y18540184D01*
X31387590Y18521427D01*
X31481969Y18462124D01*
X31510478Y18444211D01*
X31680745Y18384632D01*
X31680750Y18384631D01*
X31859996Y18364435D01*
X31860000Y18364435D01*
X31860004Y18364435D01*
X32039249Y18384631D01*
X32039252Y18384632D01*
X32039255Y18384632D01*
X32209522Y18444211D01*
X32362262Y18540184D01*
X32489816Y18667738D01*
X32585789Y18820478D01*
X32645368Y18990745D01*
X32645386Y18990903D01*
X32652045Y19050000D01*
X35370357Y19050000D01*
X35390884Y18828465D01*
X35390885Y18828463D01*
X35451769Y18614477D01*
X35451775Y18614462D01*
X35550938Y18415317D01*
X35550943Y18415309D01*
X35685020Y18237762D01*
X35849437Y18087877D01*
X35849439Y18087875D01*
X36038595Y17970755D01*
X36038596Y17970755D01*
X36038599Y17970753D01*
X36246060Y17890382D01*
X36464757Y17849500D01*
X36464759Y17849500D01*
X36687241Y17849500D01*
X36687243Y17849500D01*
X36905940Y17890382D01*
X37113401Y17970753D01*
X37302562Y18087876D01*
X37466981Y18237764D01*
X37601058Y18415311D01*
X37700229Y18614472D01*
X37707884Y18641376D01*
X48308098Y18641376D01*
X48328293Y18462130D01*
X48328294Y18462125D01*
X48387874Y18291856D01*
X48423368Y18235368D01*
X48483847Y18139117D01*
X48611401Y18011563D01*
X48676350Y17970753D01*
X48733832Y17934634D01*
X48764141Y17915590D01*
X48895947Y17869469D01*
X48934408Y17856011D01*
X48934413Y17856010D01*
X49113659Y17835814D01*
X49113663Y17835814D01*
X49113667Y17835814D01*
X49292912Y17856010D01*
X49292915Y17856011D01*
X49292918Y17856011D01*
X49463185Y17915590D01*
X49615925Y18011563D01*
X49615930Y18011569D01*
X49618760Y18013824D01*
X49620938Y18014714D01*
X49621821Y18015268D01*
X49621918Y18015114D01*
X49683446Y18040234D01*
X49696075Y18040879D01*
X51350482Y18040879D01*
X51416454Y18021873D01*
X51460477Y17994211D01*
X51460481Y17994210D01*
X51630737Y17934634D01*
X51630743Y17934633D01*
X51630745Y17934632D01*
X51630746Y17934632D01*
X51630750Y17934631D01*
X51809996Y17914435D01*
X51810000Y17914435D01*
X51810004Y17914435D01*
X51989249Y17934631D01*
X51989252Y17934632D01*
X51989255Y17934632D01*
X52159522Y17994211D01*
X52312262Y18090184D01*
X52439816Y18217738D01*
X52535789Y18370478D01*
X52595368Y18540745D01*
X52596522Y18550986D01*
X52615565Y18719997D01*
X52615565Y18720004D01*
X52595369Y18899250D01*
X52595368Y18899255D01*
X52578400Y18947746D01*
X52535789Y19069522D01*
X52499675Y19126997D01*
X72886853Y19126997D01*
X72907048Y18947751D01*
X72907049Y18947746D01*
X72966629Y18777477D01*
X73044610Y18653371D01*
X73063610Y18586134D01*
X73044610Y18521427D01*
X72967211Y18398248D01*
X72907631Y18227979D01*
X72907630Y18227974D01*
X72887435Y18048728D01*
X72887435Y18048721D01*
X72907630Y17869475D01*
X72907631Y17869470D01*
X72967211Y17699201D01*
X73063184Y17546462D01*
X73190738Y17418908D01*
X73343478Y17322935D01*
X73513745Y17263356D01*
X73513750Y17263355D01*
X73692996Y17243159D01*
X73693000Y17243159D01*
X73693004Y17243159D01*
X73872249Y17263355D01*
X73872252Y17263356D01*
X73872255Y17263356D01*
X74042522Y17322935D01*
X74195262Y17418908D01*
X74322816Y17546462D01*
X74418789Y17699202D01*
X74478368Y17869469D01*
X74478369Y17869475D01*
X74498565Y18048721D01*
X74498565Y18048728D01*
X74478369Y18227974D01*
X74478368Y18227979D01*
X74423553Y18384631D01*
X74418789Y18398246D01*
X74408068Y18415309D01*
X74340807Y18522354D01*
X74321807Y18589591D01*
X74340808Y18654299D01*
X74349253Y18667738D01*
X74418207Y18777478D01*
X74477786Y18947745D01*
X74482632Y18990751D01*
X74497983Y19126997D01*
X74497983Y19127004D01*
X74477787Y19306250D01*
X74477786Y19306255D01*
X74435624Y19426747D01*
X74418207Y19476522D01*
X74322234Y19629262D01*
X74194680Y19756816D01*
X74106356Y19812314D01*
X74041941Y19852789D01*
X73871672Y19912369D01*
X73871667Y19912370D01*
X73692422Y19932565D01*
X73692414Y19932565D01*
X73513168Y19912370D01*
X73513163Y19912369D01*
X73342894Y19852789D01*
X73190155Y19756816D01*
X73062602Y19629263D01*
X72966629Y19476524D01*
X72907049Y19306255D01*
X72907048Y19306250D01*
X72886853Y19127004D01*
X72886853Y19126997D01*
X52499675Y19126997D01*
X52439816Y19222262D01*
X52312262Y19349816D01*
X52159523Y19445789D01*
X51989254Y19505369D01*
X51989249Y19505370D01*
X51810004Y19525565D01*
X51809996Y19525565D01*
X51630750Y19505370D01*
X51630745Y19505369D01*
X51460476Y19445789D01*
X51307737Y19349816D01*
X51236120Y19278198D01*
X51174797Y19244713D01*
X51148439Y19241879D01*
X49696075Y19241879D01*
X49629036Y19261564D01*
X49618760Y19268934D01*
X49615926Y19271194D01*
X49615925Y19271195D01*
X49559159Y19306864D01*
X49463186Y19367168D01*
X49292917Y19426748D01*
X49292912Y19426749D01*
X49113667Y19446944D01*
X49113659Y19446944D01*
X48934413Y19426749D01*
X48934408Y19426748D01*
X48764139Y19367168D01*
X48611400Y19271195D01*
X48483847Y19143642D01*
X48387874Y18990903D01*
X48328294Y18820634D01*
X48328293Y18820629D01*
X48308098Y18641383D01*
X48308098Y18641376D01*
X37707884Y18641376D01*
X37761115Y18828464D01*
X37781643Y19050000D01*
X37761115Y19271536D01*
X37700229Y19485528D01*
X37690350Y19505368D01*
X37601061Y19684684D01*
X37601056Y19684692D01*
X37466979Y19862239D01*
X37302562Y20012124D01*
X37302560Y20012126D01*
X37113404Y20129246D01*
X37113398Y20129248D01*
X36905940Y20209618D01*
X36687243Y20250500D01*
X36464757Y20250500D01*
X36246060Y20209618D01*
X36114864Y20158793D01*
X36038601Y20129248D01*
X36038595Y20129246D01*
X35849439Y20012126D01*
X35849437Y20012124D01*
X35685020Y19862239D01*
X35550943Y19684692D01*
X35550938Y19684684D01*
X35451775Y19485539D01*
X35451769Y19485524D01*
X35390885Y19271538D01*
X35390884Y19271536D01*
X35370357Y19050001D01*
X35370357Y19050000D01*
X32652045Y19050000D01*
X32665565Y19169997D01*
X32665565Y19170004D01*
X32645369Y19349250D01*
X32645368Y19349255D01*
X32600835Y19476522D01*
X32585789Y19519522D01*
X32489816Y19672262D01*
X32489814Y19672264D01*
X32489813Y19672266D01*
X32487550Y19675104D01*
X32486659Y19677285D01*
X32486111Y19678158D01*
X32486264Y19678255D01*
X32461144Y19739791D01*
X32460500Y19752413D01*
X32460500Y19777060D01*
X32480185Y19844099D01*
X32496819Y19864741D01*
X32511096Y19879018D01*
X32529816Y19897738D01*
X32625789Y20050478D01*
X32685368Y20220745D01*
X32688721Y20250500D01*
X32705565Y20399997D01*
X32705565Y20400004D01*
X32685369Y20579250D01*
X32685368Y20579255D01*
X32650356Y20679314D01*
X32625789Y20749522D01*
X32529816Y20902262D01*
X32402262Y21029816D01*
X32400036Y21031215D01*
X32249523Y21125789D01*
X32079254Y21185369D01*
X32079249Y21185370D01*
X31957962Y21199035D01*
X53509815Y21199035D01*
X53530010Y21019789D01*
X53530011Y21019784D01*
X53589591Y20849515D01*
X53602136Y20829550D01*
X53685564Y20696776D01*
X53813118Y20569222D01*
X53965858Y20473249D01*
X54136125Y20413670D01*
X54223049Y20403877D01*
X54287460Y20376812D01*
X54296845Y20368338D01*
X54696428Y19968755D01*
X54701779Y19962654D01*
X54723477Y19934377D01*
X54771226Y19897738D01*
X54848918Y19838123D01*
X54848917Y19838123D01*
X54911227Y19812314D01*
X54951456Y19785434D01*
X55004047Y19732843D01*
X55156787Y19636870D01*
X55327054Y19577291D01*
X55327059Y19577290D01*
X55506305Y19557094D01*
X55506309Y19557094D01*
X55506313Y19557094D01*
X55685558Y19577290D01*
X55685561Y19577291D01*
X55685564Y19577291D01*
X55855831Y19636870D01*
X56008571Y19732843D01*
X56136125Y19860397D01*
X56232098Y20013137D01*
X56233532Y20017237D01*
X56274252Y20074013D01*
X56309619Y20093327D01*
X56403486Y20126171D01*
X56556226Y20222144D01*
X56683780Y20349698D01*
X56779753Y20502438D01*
X56839332Y20672705D01*
X56846610Y20737301D01*
X56859529Y20851957D01*
X56859529Y20851964D01*
X56839333Y21031210D01*
X56839332Y21031215D01*
X56806239Y21125789D01*
X56779753Y21201482D01*
X56777187Y21205565D01*
X56683779Y21354223D01*
X56556226Y21481776D01*
X56403485Y21577750D01*
X56233213Y21637330D01*
X56146294Y21647123D01*
X56081880Y21674190D01*
X56072497Y21682662D01*
X56012461Y21742698D01*
X55841246Y21913913D01*
X55835906Y21920003D01*
X55814208Y21948280D01*
X55688767Y22044534D01*
X55688765Y22044535D01*
X55686727Y22046099D01*
X55680631Y22051445D01*
X55582262Y22149814D01*
X55582260Y22149815D01*
X55429523Y22245787D01*
X55259254Y22305367D01*
X55259249Y22305368D01*
X55080004Y22325563D01*
X55079996Y22325563D01*
X54900750Y22305368D01*
X54900745Y22305367D01*
X54730476Y22245787D01*
X54577739Y22149815D01*
X54462889Y22034965D01*
X54401566Y22001481D01*
X54361325Y21999427D01*
X54315384Y22004603D01*
X54315376Y22004603D01*
X54136130Y21984408D01*
X54136125Y21984407D01*
X53965856Y21924827D01*
X53813117Y21828854D01*
X53685564Y21701301D01*
X53589591Y21548562D01*
X53530011Y21378293D01*
X53530010Y21378288D01*
X53509815Y21199042D01*
X53509815Y21199035D01*
X31957962Y21199035D01*
X31900004Y21205565D01*
X31899996Y21205565D01*
X31720750Y21185370D01*
X31720745Y21185369D01*
X31550476Y21125789D01*
X31397737Y21029816D01*
X31270184Y20902263D01*
X31174211Y20749524D01*
X31114631Y20579255D01*
X31114630Y20579250D01*
X31094435Y20400004D01*
X31094435Y20399997D01*
X31114630Y20220751D01*
X31114631Y20220746D01*
X31174211Y20050476D01*
X31240493Y19944991D01*
X31259500Y19879018D01*
X31259500Y19752413D01*
X31239815Y19685374D01*
X31232450Y19675104D01*
X31230186Y19672266D01*
X31134211Y19519524D01*
X31074631Y19349255D01*
X31074630Y19349250D01*
X31054435Y19170004D01*
X31054435Y19169997D01*
X1300500Y19169997D01*
X1300500Y22920000D01*
X71694632Y22920000D01*
X72603890Y22920000D01*
X72564391Y22895543D01*
X72496800Y22806038D01*
X72466106Y22698160D01*
X72476455Y22586479D01*
X72526449Y22486078D01*
X72598932Y22420000D01*
X71698742Y22420000D01*
X71725770Y22308591D01*
X71813040Y22117493D01*
X71934889Y21946381D01*
X71934895Y21946375D01*
X72086932Y21801408D01*
X72263657Y21687834D01*
X72458685Y21609756D01*
X72664962Y21570000D01*
X73148195Y21570000D01*
X73215234Y21550315D01*
X73260989Y21497511D01*
X73270933Y21428353D01*
X73262757Y21398553D01*
X73259882Y21391610D01*
X73259312Y21390234D01*
X73239534Y21240001D01*
X73239534Y21240000D01*
X73259312Y21089766D01*
X73259313Y21089764D01*
X73317302Y20949767D01*
X73409549Y20829549D01*
X73529767Y20737302D01*
X73669764Y20679313D01*
X73782280Y20664500D01*
X73782287Y20664500D01*
X73857713Y20664500D01*
X73857720Y20664500D01*
X73970236Y20679313D01*
X74110233Y20737302D01*
X74230451Y20829549D01*
X74322698Y20949767D01*
X74380687Y21089764D01*
X74400466Y21240000D01*
X74380687Y21390236D01*
X74322698Y21530233D01*
X74320079Y21536556D01*
X74312610Y21606026D01*
X74343885Y21668505D01*
X74377820Y21694225D01*
X74467414Y21740414D01*
X74632537Y21870269D01*
X74632540Y21870272D01*
X74770105Y22029031D01*
X74770114Y22029042D01*
X74875144Y22210961D01*
X74875147Y22210968D01*
X74943855Y22409483D01*
X74943855Y22409485D01*
X74945368Y22420000D01*
X74036110Y22420000D01*
X74075609Y22444457D01*
X74143200Y22533962D01*
X74173894Y22641840D01*
X74163545Y22753521D01*
X74113551Y22853922D01*
X74041068Y22920000D01*
X74941257Y22920000D01*
X74914229Y23031410D01*
X74826959Y23222508D01*
X74705110Y23393620D01*
X74705104Y23393626D01*
X74553067Y23538593D01*
X74376342Y23652167D01*
X74181314Y23730245D01*
X73975038Y23770000D01*
X73570000Y23770000D01*
X73570000Y22970000D01*
X73070000Y22970000D01*
X73070000Y23770000D01*
X72717602Y23770000D01*
X72560877Y23755035D01*
X72560873Y23755034D01*
X72359313Y23695851D01*
X72172585Y23599587D01*
X72007462Y23469732D01*
X72007459Y23469729D01*
X71869894Y23310970D01*
X71869885Y23310959D01*
X71764855Y23129040D01*
X71764852Y23129033D01*
X71696144Y22930518D01*
X71696144Y22930516D01*
X71694632Y22920000D01*
X1300500Y22920000D01*
X1300500Y23123120D01*
X35922672Y23123120D01*
X36038821Y23051203D01*
X36038822Y23051202D01*
X36246195Y22970866D01*
X36464807Y22930000D01*
X36687193Y22930000D01*
X36905809Y22970867D01*
X37113168Y23051199D01*
X37113181Y23051205D01*
X37229326Y23123121D01*
X36576001Y23776447D01*
X36576000Y23776447D01*
X35922672Y23123121D01*
X35922672Y23123120D01*
X1300500Y23123120D01*
X1300500Y24130000D01*
X35370859Y24130000D01*
X35391378Y23908561D01*
X35452240Y23694650D01*
X35551369Y23495572D01*
X35567137Y23474692D01*
X35567138Y23474692D01*
X36193145Y24100698D01*
X36222372Y24100698D01*
X36251047Y23987462D01*
X36314936Y23889673D01*
X36407115Y23817928D01*
X36517595Y23780000D01*
X36605005Y23780000D01*
X36691216Y23794386D01*
X36793947Y23849981D01*
X36873060Y23935921D01*
X36919982Y24042892D01*
X36927200Y24130000D01*
X36929553Y24130000D01*
X37584861Y23474692D01*
X37600631Y23495575D01*
X37600633Y23495578D01*
X37699759Y23694650D01*
X37760621Y23908561D01*
X37781141Y24130000D01*
X37781141Y24130001D01*
X37760621Y24351440D01*
X37699759Y24565351D01*
X37600635Y24764420D01*
X37600630Y24764428D01*
X37584860Y24785310D01*
X36929553Y24130001D01*
X36929553Y24130000D01*
X36927200Y24130000D01*
X36929628Y24159302D01*
X36900953Y24272538D01*
X36837064Y24370327D01*
X36744885Y24442072D01*
X36634405Y24480000D01*
X36546995Y24480000D01*
X36460784Y24465614D01*
X36358053Y24410019D01*
X36278940Y24324079D01*
X36232018Y24217108D01*
X36222372Y24100698D01*
X36193145Y24100698D01*
X36222447Y24130000D01*
X35567138Y24785309D01*
X35567137Y24785309D01*
X35551368Y24764426D01*
X35452240Y24565351D01*
X35391378Y24351440D01*
X35370859Y24130001D01*
X35370859Y24130000D01*
X1300500Y24130000D01*
X1300500Y25136881D01*
X35922671Y25136881D01*
X36576000Y24483553D01*
X36576001Y24483553D01*
X37229327Y25136881D01*
X37113178Y25208798D01*
X37113177Y25208799D01*
X36905804Y25289135D01*
X36687193Y25330000D01*
X36464807Y25330000D01*
X36246195Y25289135D01*
X36038824Y25208800D01*
X36038823Y25208799D01*
X35922671Y25136881D01*
X1300500Y25136881D01*
X1300500Y26331411D01*
X1302676Y26394731D01*
X1298569Y26410732D01*
X1292378Y26434855D01*
X1291061Y26441448D01*
X1288091Y26462104D01*
X1298032Y26531263D01*
X1343785Y26584068D01*
X1400019Y26603283D01*
X1526692Y26614365D01*
X1746496Y26673261D01*
X1952734Y26769432D01*
X2139139Y26899953D01*
X2300047Y27060861D01*
X2430568Y27247266D01*
X2526739Y27453504D01*
X2585635Y27673308D01*
X2605468Y27900000D01*
X2585635Y28126692D01*
X2526739Y28346496D01*
X2430568Y28552734D01*
X2300047Y28739139D01*
X2300045Y28739142D01*
X2139141Y28900046D01*
X1952734Y29030568D01*
X1952732Y29030569D01*
X1746497Y29126739D01*
X1746488Y29126742D01*
X1526697Y29185634D01*
X1526693Y29185635D01*
X1526692Y29185635D01*
X1526691Y29185636D01*
X1526686Y29185636D01*
X1300002Y29205468D01*
X1299998Y29205468D01*
X1073313Y29185636D01*
X1073302Y29185634D01*
X853511Y29126742D01*
X853502Y29126738D01*
X676905Y29044389D01*
X607827Y29033897D01*
X544043Y29062417D01*
X505804Y29120893D01*
X500500Y29156771D01*
X500500Y30457531D01*
X870796Y30457531D01*
X870797Y30457529D01*
X900245Y30290515D01*
X900246Y30290512D01*
X900247Y30290508D01*
X923009Y30237740D01*
X967421Y30134781D01*
X985730Y30110187D01*
X1068698Y29998742D01*
X1198617Y29889727D01*
X1350175Y29813612D01*
X1515201Y29774500D01*
X1515203Y29774500D01*
X1642249Y29774500D01*
X1642256Y29774500D01*
X1768451Y29789250D01*
X1927820Y29847256D01*
X2069517Y29940451D01*
X2185902Y30063812D01*
X2270701Y30210688D01*
X2319342Y30373161D01*
X2329203Y30542471D01*
X2299753Y30709492D01*
X2232579Y30865219D01*
X2131302Y31001258D01*
X2001383Y31110273D01*
X2000066Y31110935D01*
X1849828Y31186387D01*
X1849826Y31186388D01*
X1849825Y31186388D01*
X1684799Y31225500D01*
X1557744Y31225500D01*
X1447323Y31212594D01*
X1431548Y31210750D01*
X1272181Y31152745D01*
X1207607Y31110274D01*
X1130483Y31059549D01*
X1130482Y31059549D01*
X1130482Y31059548D01*
X1014098Y30936190D01*
X929300Y30789315D01*
X880658Y30626841D01*
X880657Y30626835D01*
X870796Y30457531D01*
X500500Y30457531D01*
X500500Y32757529D01*
X870797Y32757529D01*
X900245Y32590515D01*
X900246Y32590512D01*
X900247Y32590508D01*
X967421Y32434781D01*
X1068698Y32298742D01*
X1198617Y32189727D01*
X1350175Y32113612D01*
X1515201Y32074500D01*
X1515203Y32074500D01*
X1642249Y32074500D01*
X1642256Y32074500D01*
X1768451Y32089250D01*
X1927820Y32147256D01*
X2069517Y32240451D01*
X2185902Y32363812D01*
X2270701Y32510688D01*
X2319342Y32673161D01*
X2329203Y32842471D01*
X2299753Y33009492D01*
X2232579Y33165219D01*
X2131302Y33301258D01*
X2001383Y33410273D01*
X1957597Y33432263D01*
X1849828Y33486387D01*
X1849826Y33486388D01*
X1849825Y33486388D01*
X1684799Y33525500D01*
X1557744Y33525500D01*
X1447323Y33512594D01*
X1431548Y33510750D01*
X1272181Y33452745D01*
X1241040Y33432263D01*
X1130483Y33359549D01*
X1130482Y33359549D01*
X1130482Y33359548D01*
X1014098Y33236190D01*
X929300Y33089315D01*
X880658Y32926841D01*
X880657Y32926835D01*
X870797Y32757532D01*
X870797Y32757529D01*
X500500Y32757529D01*
X500500Y34143229D01*
X520185Y34210268D01*
X572989Y34256023D01*
X642147Y34265967D01*
X676905Y34255611D01*
X853504Y34173261D01*
X1073308Y34114365D01*
X1235230Y34100199D01*
X1299998Y34094532D01*
X1300000Y34094532D01*
X1300002Y34094532D01*
X1356673Y34099491D01*
X1526692Y34114365D01*
X1746496Y34173261D01*
X1952734Y34269432D01*
X2139139Y34399953D01*
X2300047Y34560861D01*
X2430568Y34747266D01*
X2526739Y34953504D01*
X2585635Y35173308D01*
X2605468Y35400000D01*
X2585635Y35626692D01*
X2526739Y35846496D01*
X2444389Y36023095D01*
X2433897Y36092173D01*
X2462417Y36155957D01*
X2520893Y36194196D01*
X2556771Y36199500D01*
X17887151Y36199500D01*
X17954190Y36179815D01*
G37*
%TD.AperFunction*%
%TD*%
M02*
