M48
; DRILL file {KiCad 7.0.9} date Tue Dec  5 10:32:21 2023
; FORMAT={-:-/ absolute / inch / decimal}
; #@! TF.CreationDate,2023-12-05T10:32:21+01:00
; #@! TF.GenerationSoftware,Kicad,Pcbnew,7.0.9
; #@! TF.FileFunction,Plated,1,2,PTH
FMAT,2
INCH
; #@! TA.AperFunction,Plated,PTH,ViaDrill
T1C0.0118
; #@! TA.AperFunction,Plated,PTH,ComponentDrill
T2C0.0236
; #@! TA.AperFunction,Plated,PTH,ComponentDrill
T3C0.0276
; #@! TA.AperFunction,Plated,PTH,ComponentDrill
T4C0.0394
; #@! TA.AperFunction,Plated,PTH,ComponentDrill
T5C0.0394
%
G90
G05
T1
X0.439Y0.8071
X0.4402Y0.6094
X0.5579Y0.5543
X0.5597Y0.8101
X0.563Y0.8992
X0.5634Y0.9882
X0.6215Y0.4693
X0.6921Y0.8323
X0.7193Y1.387
X0.7213Y1.269
X0.7398Y0.8598
X0.8083Y0.8287
X0.8311Y0.148
X0.8606Y0.4724
X0.8937Y0.8287
X1.1734Y0.953
X1.2543Y0.7547
X1.2559Y0.8031
X1.3242Y0.6281
X1.3392Y0.1293
X1.3445Y0.687
X1.4909Y0.3398
X1.5933Y0.3185
X1.6366Y0.726
X1.6571Y1.2327
X1.6575Y1.2075
X1.6752Y0.3252
X1.7024Y0.1488
X1.7539Y0.324
X1.7642Y0.9606
X1.7736Y0.9024
X1.8212Y1.0358
X1.8244Y0.8429
X1.8445Y0.2843
X1.8614Y1.3032
X1.8622Y1.2102
X1.8673Y1.0902
X1.874Y0.8858
X1.876Y0.8394
X1.8988Y1.2965
X1.9079Y1.2082
X1.9157Y0.8535
X1.9336Y0.7339
X1.9685Y1.1752
X2.0119Y0.843
X2.0291Y1.0878
X2.0398Y0.737
X2.0505Y0.3465
X2.0618Y1.0087
X2.0673Y0.474
X2.0713Y0.3031
X2.0783Y0.4154
X2.0794Y0.7866
X2.1094Y0.4362
X2.1217Y1.1917
X2.1384Y0.8346
X2.1535Y0.4903
X2.1536Y1.1917
X2.1685Y0.8472
X2.1853Y0.8017
X2.2068Y0.8209
X2.2122Y0.8654
X2.2146Y0.9929
X2.2445Y1.0618
X2.2626Y0.4098
X2.2638Y1.1343
X2.3001Y0.9554
X2.3079Y1.0713
X2.3098Y0.8903
X2.361Y0.3201
X2.3799Y0.0886
X2.3823Y0.4339
X2.4186Y0.5933
X2.4244Y0.9791
X2.4272Y0.9366
X2.4866Y0.9055
X2.5173Y0.7949
X2.5175Y0.8267
X2.5218Y0.1912
X2.524Y0.248
X2.5697Y0.5394
X2.5697Y0.322
X2.5835Y0.6331
X2.6028Y0.9577
X2.6071Y0.3291
X2.6075Y0.3673
X2.611Y0.6083
X2.6933Y0.613
X2.6961Y1.0571
X2.6965Y1.1228
X2.6965Y1.0843
X2.6965Y1.0303
X2.7217Y0.6063
X2.7879Y0.9613
X2.7913Y0.7228
X2.7941Y0.8772
X2.7945Y0.848
X2.7957Y0.598
X2.7961Y0.5697
X2.8193Y0.8484
X2.8224Y0.5992
X2.8264Y0.3382
X2.8268Y0.3756
X2.8272Y0.1796
X2.8551Y0.1173
X2.8568Y0.9613
X2.8665Y0.4803
X2.9013Y0.753
X2.9013Y0.7106
X2.9516Y0.0382
X3.0531Y0.9331
X3.0551Y0.5106
T3
X1.44Y0.95
X1.44Y0.75
T4
X0.0512Y1.3937
X0.0512Y1.0984
X0.0512Y0.3465
X0.0512Y0.0512
X3.0591Y1.3937
X3.0591Y1.0984
X3.0591Y0.3465
X3.0591Y0.0512
T5
X2.163Y0.1819
X2.263Y0.1819
T2
G00X2.865Y0.8925
M15
G01X2.9083Y0.8925
M16
G05
G00X2.865Y0.5524
M15
G01X2.9083Y0.5524
M16
G05
G00X3.0354Y0.8925
M15
G01X3.0669Y0.8925
M16
G05
G00X3.0354Y0.5524
M15
G01X3.0669Y0.5524
M16
G05
T0
M30
