%TF.GenerationSoftware,KiCad,Pcbnew,7.0.9*%
%TF.CreationDate,2023-12-04T16:41:43+01:00*%
%TF.ProjectId,USB E-Paper thing,55534220-452d-4506-9170-657220746869,rev?*%
%TF.SameCoordinates,Original*%
%TF.FileFunction,Copper,L1,Top*%
%TF.FilePolarity,Positive*%
%FSLAX46Y46*%
G04 Gerber Fmt 4.6, Leading zero omitted, Abs format (unit mm)*
G04 Created by KiCad (PCBNEW 7.0.9) date 2023-12-04 16:41:43*
%MOMM*%
%LPD*%
G01*
G04 APERTURE LIST*
G04 Aperture macros list*
%AMRoundRect*
0 Rectangle with rounded corners*
0 $1 Rounding radius*
0 $2 $3 $4 $5 $6 $7 $8 $9 X,Y pos of 4 corners*
0 Add a 4 corners polygon primitive as box body*
4,1,4,$2,$3,$4,$5,$6,$7,$8,$9,$2,$3,0*
0 Add four circle primitives for the rounded corners*
1,1,$1+$1,$2,$3*
1,1,$1+$1,$4,$5*
1,1,$1+$1,$6,$7*
1,1,$1+$1,$8,$9*
0 Add four rect primitives between the rounded corners*
20,1,$1+$1,$2,$3,$4,$5,0*
20,1,$1+$1,$4,$5,$6,$7,0*
20,1,$1+$1,$6,$7,$8,$9,0*
20,1,$1+$1,$8,$9,$2,$3,0*%
G04 Aperture macros list end*
%TA.AperFunction,SMDPad,CuDef*%
%ADD10RoundRect,0.200000X0.200000X0.275000X-0.200000X0.275000X-0.200000X-0.275000X0.200000X-0.275000X0*%
%TD*%
%TA.AperFunction,SMDPad,CuDef*%
%ADD11RoundRect,0.135000X0.135000X0.185000X-0.135000X0.185000X-0.135000X-0.185000X0.135000X-0.185000X0*%
%TD*%
%TA.AperFunction,SMDPad,CuDef*%
%ADD12RoundRect,0.135000X-0.135000X-0.185000X0.135000X-0.185000X0.135000X0.185000X-0.135000X0.185000X0*%
%TD*%
%TA.AperFunction,ComponentPad*%
%ADD13C,1.600000*%
%TD*%
%TA.AperFunction,SMDPad,CuDef*%
%ADD14RoundRect,0.300000X-0.300000X-0.300000X0.300000X-0.300000X0.300000X0.300000X-0.300000X0.300000X0*%
%TD*%
%TA.AperFunction,SMDPad,CuDef*%
%ADD15RoundRect,0.300000X0.300000X0.300000X-0.300000X0.300000X-0.300000X-0.300000X0.300000X-0.300000X0*%
%TD*%
%TA.AperFunction,SMDPad,CuDef*%
%ADD16RoundRect,0.140000X-0.219203X-0.021213X-0.021213X-0.219203X0.219203X0.021213X0.021213X0.219203X0*%
%TD*%
%TA.AperFunction,SMDPad,CuDef*%
%ADD17RoundRect,0.140000X-0.140000X-0.170000X0.140000X-0.170000X0.140000X0.170000X-0.140000X0.170000X0*%
%TD*%
%TA.AperFunction,ComponentPad*%
%ADD18C,1.400000*%
%TD*%
%TA.AperFunction,ComponentPad*%
%ADD19O,1.400000X1.400000*%
%TD*%
%TA.AperFunction,SMDPad,CuDef*%
%ADD20RoundRect,0.225000X0.375000X-0.225000X0.375000X0.225000X-0.375000X0.225000X-0.375000X-0.225000X0*%
%TD*%
%TA.AperFunction,SMDPad,CuDef*%
%ADD21RoundRect,0.140000X0.219203X0.021213X0.021213X0.219203X-0.219203X-0.021213X-0.021213X-0.219203X0*%
%TD*%
%TA.AperFunction,SMDPad,CuDef*%
%ADD22RoundRect,0.075000X-0.521491X0.415425X0.415425X-0.521491X0.521491X-0.415425X-0.415425X0.521491X0*%
%TD*%
%TA.AperFunction,SMDPad,CuDef*%
%ADD23RoundRect,0.075000X-0.521491X-0.415425X-0.415425X-0.521491X0.521491X0.415425X0.415425X0.521491X0*%
%TD*%
%TA.AperFunction,SMDPad,CuDef*%
%ADD24RoundRect,0.140000X-0.170000X0.140000X-0.170000X-0.140000X0.170000X-0.140000X0.170000X0.140000X0*%
%TD*%
%TA.AperFunction,SMDPad,CuDef*%
%ADD25C,2.000000*%
%TD*%
%TA.AperFunction,SMDPad,CuDef*%
%ADD26R,1.000000X1.800000*%
%TD*%
%TA.AperFunction,SMDPad,CuDef*%
%ADD27RoundRect,0.175000X-0.175000X1.250000X-0.175000X-1.250000X0.175000X-1.250000X0.175000X1.250000X0*%
%TD*%
%TA.AperFunction,SMDPad,CuDef*%
%ADD28R,4.450000X4.570000*%
%TD*%
%TA.AperFunction,SMDPad,CuDef*%
%ADD29RoundRect,0.200000X-0.335876X-0.053033X-0.053033X-0.335876X0.335876X0.053033X0.053033X0.335876X0*%
%TD*%
%TA.AperFunction,SMDPad,CuDef*%
%ADD30RoundRect,0.218750X-0.256250X0.218750X-0.256250X-0.218750X0.256250X-0.218750X0.256250X0.218750X0*%
%TD*%
%TA.AperFunction,SMDPad,CuDef*%
%ADD31RoundRect,0.150000X0.587500X0.150000X-0.587500X0.150000X-0.587500X-0.150000X0.587500X-0.150000X0*%
%TD*%
%TA.AperFunction,SMDPad,CuDef*%
%ADD32RoundRect,0.135000X0.226274X0.035355X0.035355X0.226274X-0.226274X-0.035355X-0.035355X-0.226274X0*%
%TD*%
%TA.AperFunction,SMDPad,CuDef*%
%ADD33RoundRect,0.150000X-0.150000X0.587500X-0.150000X-0.587500X0.150000X-0.587500X0.150000X0.587500X0*%
%TD*%
%TA.AperFunction,SMDPad,CuDef*%
%ADD34RoundRect,0.112500X-0.112500X0.187500X-0.112500X-0.187500X0.112500X-0.187500X0.112500X0.187500X0*%
%TD*%
%TA.AperFunction,SMDPad,CuDef*%
%ADD35RoundRect,0.140000X0.170000X-0.140000X0.170000X0.140000X-0.170000X0.140000X-0.170000X-0.140000X0*%
%TD*%
%TA.AperFunction,SMDPad,CuDef*%
%ADD36RoundRect,0.250000X0.262500X0.450000X-0.262500X0.450000X-0.262500X-0.450000X0.262500X-0.450000X0*%
%TD*%
%TA.AperFunction,SMDPad,CuDef*%
%ADD37RoundRect,0.135000X-0.185000X0.135000X-0.185000X-0.135000X0.185000X-0.135000X0.185000X0.135000X0*%
%TD*%
%TA.AperFunction,SMDPad,CuDef*%
%ADD38RoundRect,0.135000X0.185000X-0.135000X0.185000X0.135000X-0.185000X0.135000X-0.185000X-0.135000X0*%
%TD*%
%TA.AperFunction,SMDPad,CuDef*%
%ADD39R,0.300000X1.200000*%
%TD*%
%TA.AperFunction,SMDPad,CuDef*%
%ADD40R,1.800000X2.000000*%
%TD*%
%TA.AperFunction,SMDPad,CuDef*%
%ADD41RoundRect,0.140000X0.140000X0.170000X-0.140000X0.170000X-0.140000X-0.170000X0.140000X-0.170000X0*%
%TD*%
%TA.AperFunction,SMDPad,CuDef*%
%ADD42R,1.000000X1.500000*%
%TD*%
%TA.AperFunction,SMDPad,CuDef*%
%ADD43RoundRect,0.140000X0.021213X-0.219203X0.219203X-0.021213X-0.021213X0.219203X-0.219203X0.021213X0*%
%TD*%
%TA.AperFunction,SMDPad,CuDef*%
%ADD44RoundRect,0.250000X0.650000X-0.325000X0.650000X0.325000X-0.650000X0.325000X-0.650000X-0.325000X0*%
%TD*%
%TA.AperFunction,SMDPad,CuDef*%
%ADD45RoundRect,0.225000X0.250000X-0.225000X0.250000X0.225000X-0.250000X0.225000X-0.250000X-0.225000X0*%
%TD*%
%TA.AperFunction,SMDPad,CuDef*%
%ADD46R,1.240000X0.600000*%
%TD*%
%TA.AperFunction,SMDPad,CuDef*%
%ADD47R,1.240000X0.300000*%
%TD*%
%TA.AperFunction,ComponentPad*%
%ADD48O,2.100000X1.000000*%
%TD*%
%TA.AperFunction,ComponentPad*%
%ADD49O,1.800000X1.000000*%
%TD*%
%TA.AperFunction,ComponentPad*%
%ADD50R,1.700000X1.700000*%
%TD*%
%TA.AperFunction,ComponentPad*%
%ADD51O,1.700000X1.700000*%
%TD*%
%TA.AperFunction,SMDPad,CuDef*%
%ADD52RoundRect,0.250000X-0.503814X-0.132583X-0.132583X-0.503814X0.503814X0.132583X0.132583X0.503814X0*%
%TD*%
%TA.AperFunction,SMDPad,CuDef*%
%ADD53RoundRect,0.218750X-0.218750X-0.256250X0.218750X-0.256250X0.218750X0.256250X-0.218750X0.256250X0*%
%TD*%
%TA.AperFunction,SMDPad,CuDef*%
%ADD54RoundRect,0.225000X-0.375000X0.225000X-0.375000X-0.225000X0.375000X-0.225000X0.375000X0.225000X0*%
%TD*%
%TA.AperFunction,SMDPad,CuDef*%
%ADD55RoundRect,0.150000X0.512500X0.150000X-0.512500X0.150000X-0.512500X-0.150000X0.512500X-0.150000X0*%
%TD*%
%TA.AperFunction,SMDPad,CuDef*%
%ADD56RoundRect,0.218750X0.256250X-0.218750X0.256250X0.218750X-0.256250X0.218750X-0.256250X-0.218750X0*%
%TD*%
%TA.AperFunction,SMDPad,CuDef*%
%ADD57RoundRect,0.140000X-0.021213X0.219203X-0.219203X0.021213X0.021213X-0.219203X0.219203X-0.021213X0*%
%TD*%
%TA.AperFunction,SMDPad,CuDef*%
%ADD58R,2.000000X1.800000*%
%TD*%
%TA.AperFunction,SMDPad,CuDef*%
%ADD59R,1.200000X0.300000*%
%TD*%
%TA.AperFunction,SMDPad,CuDef*%
%ADD60RoundRect,0.218750X0.381250X-0.218750X0.381250X0.218750X-0.381250X0.218750X-0.381250X-0.218750X0*%
%TD*%
%TA.AperFunction,SMDPad,CuDef*%
%ADD61RoundRect,0.250001X0.499999X1.449999X-0.499999X1.449999X-0.499999X-1.449999X0.499999X-1.449999X0*%
%TD*%
%TA.AperFunction,SMDPad,CuDef*%
%ADD62RoundRect,0.250000X0.250000X1.500000X-0.250000X1.500000X-0.250000X-1.500000X0.250000X-1.500000X0*%
%TD*%
%TA.AperFunction,SMDPad,CuDef*%
%ADD63RoundRect,0.250000X-0.325000X-0.650000X0.325000X-0.650000X0.325000X0.650000X-0.325000X0.650000X0*%
%TD*%
%TA.AperFunction,SMDPad,CuDef*%
%ADD64RoundRect,0.112500X-0.187500X-0.112500X0.187500X-0.112500X0.187500X0.112500X-0.187500X0.112500X0*%
%TD*%
%TA.AperFunction,SMDPad,CuDef*%
%ADD65R,1.400000X1.200000*%
%TD*%
%TA.AperFunction,ViaPad*%
%ADD66C,0.600000*%
%TD*%
%TA.AperFunction,Conductor*%
%ADD67C,0.500000*%
%TD*%
%TA.AperFunction,Conductor*%
%ADD68C,0.200000*%
%TD*%
%TA.AperFunction,Conductor*%
%ADD69C,0.300000*%
%TD*%
%TA.AperFunction,Conductor*%
%ADD70C,0.250000*%
%TD*%
%TA.AperFunction,Conductor*%
%ADD71C,0.127000*%
%TD*%
G04 APERTURE END LIST*
%TA.AperFunction,EtchedComponent*%
%TO.C,JP1*%
G36*
X56620000Y7310000D02*
G01*
X56120000Y7310000D01*
X56120000Y7710000D01*
X56620000Y7710000D01*
X56620000Y7310000D01*
G37*
%TD.AperFunction*%
%TA.AperFunction,EtchedComponent*%
G36*
X56620000Y8110000D02*
G01*
X56120000Y8110000D01*
X56120000Y8510000D01*
X56620000Y8510000D01*
X56620000Y8110000D01*
G37*
%TD.AperFunction*%
%TD*%
D10*
%TO.P,R19,1*%
%TO.N,Net-(U3-PROG)*%
X70005000Y14820000D03*
%TO.P,R19,2*%
%TO.N,GND*%
X68355000Y14820000D03*
%TD*%
D11*
%TO.P,R24,1*%
%TO.N,Net-(U1-PA5)*%
X48420000Y18400000D03*
%TO.P,R24,2*%
%TO.N,/SCLK*%
X47400000Y18400000D03*
%TD*%
%TO.P,R26,1*%
%TO.N,Net-(U1-PA7)*%
X48420000Y19570000D03*
%TO.P,R26,2*%
%TO.N,/MOSI*%
X47400000Y19570000D03*
%TD*%
D12*
%TO.P,R11,1*%
%TO.N,Net-(Q1-G)*%
X44200000Y18425000D03*
%TO.P,R11,2*%
%TO.N,/VBAT_MEAS_EN*%
X45220000Y18425000D03*
%TD*%
D13*
%TO.P,SW3,*%
%TO.N,*%
X77700000Y35400000D03*
X77700000Y27900000D03*
D14*
%TO.P,SW3,1,1*%
%TO.N,+3V0*%
X76100000Y29550000D03*
D15*
%TO.P,SW3,2,2*%
%TO.N,Net-(R29-Pad2)*%
X76100000Y33750000D03*
%TD*%
D12*
%TO.P,R3,1*%
%TO.N,/BUTTON1*%
X45050000Y7230000D03*
%TO.P,R3,2*%
%TO.N,GND*%
X46070000Y7230000D03*
%TD*%
D11*
%TO.P,R15,1*%
%TO.N,/Power/CC1*%
X74570000Y12200000D03*
%TO.P,R15,2*%
%TO.N,GND*%
X73550000Y12200000D03*
%TD*%
D16*
%TO.P,C5,1*%
%TO.N,+3V0*%
X57560589Y24399411D03*
%TO.P,C5,2*%
%TO.N,GND*%
X58239411Y23720589D03*
%TD*%
D17*
%TO.P,C16,1*%
%TO.N,/E-Ink display/VDD*%
X12600000Y20100000D03*
%TO.P,C16,2*%
%TO.N,GND*%
X13560000Y20100000D03*
%TD*%
%TO.P,C6,1*%
%TO.N,+3V0*%
X49250000Y21690000D03*
%TO.P,C6,2*%
%TO.N,GND*%
X50210000Y21690000D03*
%TD*%
D18*
%TO.P,TH1,1*%
%TO.N,GND*%
X36576000Y24130000D03*
D19*
%TO.P,TH1,2*%
%TO.N,Net-(U3-TEMP)*%
X36576000Y19050000D03*
%TD*%
D20*
%TO.P,D11,1,K*%
%TO.N,Net-(D10-A)*%
X19960000Y20835000D03*
%TO.P,D11,2,A*%
%TO.N,/E-Ink display/PREVGL*%
X19960000Y24135000D03*
%TD*%
D21*
%TO.P,C2,1*%
%TO.N,Net-(U1-PH1)*%
X46260000Y24830000D03*
%TO.P,C2,2*%
%TO.N,GND*%
X45581178Y25508822D03*
%TD*%
D22*
%TO.P,U1,1,VLCD*%
%TO.N,+3V0*%
X54511212Y23127876D03*
%TO.P,U1,2,PC13*%
%TO.N,/VBUS_PRESENT*%
X54157658Y22774322D03*
%TO.P,U1,3,PC14*%
%TO.N,Net-(U1-PC14)*%
X53804105Y22420769D03*
%TO.P,U1,4,PC15*%
%TO.N,Net-(U1-PC15)*%
X53450551Y22067215D03*
%TO.P,U1,5,PH0*%
%TO.N,Net-(U1-PH0)*%
X53096998Y21713662D03*
%TO.P,U1,6,PH1*%
%TO.N,Net-(U1-PH1)*%
X52743445Y21360109D03*
%TO.P,U1,7,NRST*%
%TO.N,/NRST*%
X52389891Y21006555D03*
%TO.P,U1,8,VSSA*%
%TO.N,GND*%
X52036338Y20653002D03*
%TO.P,U1,9,VDDA*%
%TO.N,+3V0*%
X51682785Y20299449D03*
%TO.P,U1,10,PA0*%
%TO.N,/WAKEUP*%
X51329231Y19945895D03*
%TO.P,U1,11,PA1*%
%TO.N,/VBAT_MEAS*%
X50975678Y19592342D03*
%TO.P,U1,12,PA2*%
%TO.N,/VBAT_MEAS_EN*%
X50622124Y19238788D03*
D23*
%TO.P,U1,13,PA3*%
%TO.N,Net-(U1-PA3)*%
X50622124Y17241212D03*
%TO.P,U1,14,PA4*%
%TO.N,Net-(U1-PA4)*%
X50975678Y16887658D03*
%TO.P,U1,15,PA5*%
%TO.N,Net-(U1-PA5)*%
X51329231Y16534105D03*
%TO.P,U1,16,PA6*%
%TO.N,Net-(U1-PA6)*%
X51682785Y16180551D03*
%TO.P,U1,17,PA7*%
%TO.N,Net-(U1-PA7)*%
X52036338Y15826998D03*
%TO.P,U1,18,PB0*%
%TO.N,Net-(U1-PB0)*%
X52389891Y15473445D03*
%TO.P,U1,19,PB1*%
%TO.N,/LED0*%
X52743445Y15119891D03*
%TO.P,U1,20,PB2*%
%TO.N,/LED1*%
X53096998Y14766338D03*
%TO.P,U1,21,PB10*%
%TO.N,/SERIAL_TX*%
X53450551Y14412785D03*
%TO.P,U1,22,PB11*%
%TO.N,/SERIAL_RX*%
X53804105Y14059231D03*
%TO.P,U1,23,VSS*%
%TO.N,GND*%
X54157658Y13705678D03*
%TO.P,U1,24,VDD*%
%TO.N,+3V0*%
X54511212Y13352124D03*
D22*
%TO.P,U1,25,PB12*%
%TO.N,/BUTTON2*%
X56508788Y13352124D03*
%TO.P,U1,26,PB13*%
%TO.N,/BUTTON0*%
X56862342Y13705678D03*
%TO.P,U1,27,PB14*%
%TO.N,/BUTTON3*%
X57215895Y14059231D03*
%TO.P,U1,28,PB15*%
%TO.N,/BUTTON1*%
X57569449Y14412785D03*
%TO.P,U1,29,PA8*%
%TO.N,unconnected-(U1-PA8-Pad29)*%
X57923002Y14766338D03*
%TO.P,U1,30,PA9*%
%TO.N,unconnected-(U1-PA9-Pad30)*%
X58276555Y15119891D03*
%TO.P,U1,31,PA10*%
%TO.N,unconnected-(U1-PA10-Pad31)*%
X58630109Y15473445D03*
%TO.P,U1,32,PA11*%
%TO.N,/USB_D-*%
X58983662Y15826998D03*
%TO.P,U1,33,PA12*%
%TO.N,/USB_D+*%
X59337215Y16180551D03*
%TO.P,U1,34,PA13*%
%TO.N,Net-(U1-PA13)*%
X59690769Y16534105D03*
%TO.P,U1,35,VSS*%
%TO.N,GND*%
X60044322Y16887658D03*
%TO.P,U1,36,VDD*%
%TO.N,+3V0*%
X60397876Y17241212D03*
D23*
%TO.P,U1,37,PA14*%
%TO.N,Net-(U1-PA14)*%
X60397876Y19238788D03*
%TO.P,U1,38,PA15*%
%TO.N,unconnected-(U1-PA15-Pad38)*%
X60044322Y19592342D03*
%TO.P,U1,39,PB3*%
%TO.N,/VBUS_PRESENT*%
X59690769Y19945895D03*
%TO.P,U1,40,PB4*%
%TO.N,unconnected-(U1-PB4-Pad40)*%
X59337215Y20299449D03*
%TO.P,U1,41,PB5*%
%TO.N,/PB5*%
X58983662Y20653002D03*
%TO.P,U1,42,PB6*%
%TO.N,/PB6*%
X58630109Y21006555D03*
%TO.P,U1,43,PB7*%
%TO.N,/PB7*%
X58276555Y21360109D03*
%TO.P,U1,44,BOOT0*%
%TO.N,GND*%
X57923002Y21713662D03*
%TO.P,U1,45,PB8*%
%TO.N,/PB8*%
X57569449Y22067215D03*
%TO.P,U1,46,PB9*%
%TO.N,unconnected-(U1-PB9-Pad46)*%
X57215895Y22420769D03*
%TO.P,U1,47,VSS*%
%TO.N,GND*%
X56862342Y22774322D03*
%TO.P,U1,48,VDD*%
%TO.N,+3V0*%
X56508788Y23127876D03*
%TD*%
D24*
%TO.P,C25,1*%
%TO.N,/E-Ink display/VCC*%
X18040000Y22810000D03*
%TO.P,C25,2*%
%TO.N,GND*%
X18040000Y21850000D03*
%TD*%
D25*
%TO.P,J5,1,Pin_1*%
%TO.N,+3V0*%
X39700000Y4620000D03*
%TO.P,J5,2,Pin_2*%
%TO.N,GND*%
X42240000Y4620000D03*
%TO.P,J5,3,Pin_3*%
%TO.N,/SWDCLK*%
X44780000Y4620000D03*
%TO.P,J5,4,Pin_4*%
%TO.N,/SWDIO*%
X44780000Y2080000D03*
%TO.P,J5,5,Pin_5*%
%TO.N,unconnected-(J5-Pin_5-Pad5)*%
X42240000Y2080000D03*
%TO.P,J5,6,Pin_6*%
%TO.N,/NRST*%
X39700000Y2080000D03*
%TD*%
D26*
%TO.P,Y2,1,1*%
%TO.N,Net-(U1-PC15)*%
X51849411Y27500589D03*
%TO.P,Y2,2,2*%
%TO.N,Net-(U1-PC14)*%
X54349411Y27500589D03*
%TD*%
D21*
%TO.P,C7,1*%
%TO.N,+3V0*%
X53709411Y11910589D03*
%TO.P,C7,2*%
%TO.N,GND*%
X53030589Y12589411D03*
%TD*%
D27*
%TO.P,U3,1,TEMP*%
%TO.N,Net-(U3-TEMP)*%
X71005000Y12400000D03*
%TO.P,U3,2,PROG*%
%TO.N,Net-(U3-PROG)*%
X69735000Y12400000D03*
%TO.P,U3,3,GND*%
%TO.N,GND*%
X68465000Y12400000D03*
%TO.P,U3,4,VCC*%
%TO.N,/VBUS*%
X67195000Y12400000D03*
%TO.P,U3,5,BAT*%
%TO.N,+BATT*%
X67195000Y4100000D03*
%TO.P,U3,6,~{STDBY}*%
%TO.N,Net-(U3-~{STDBY})*%
X68465000Y4100000D03*
%TO.P,U3,7,~{CHRG}*%
%TO.N,Net-(U3-~{CHRG})*%
X69735000Y4100000D03*
%TO.P,U3,8,CE*%
%TO.N,/VBUS*%
X71005000Y4100000D03*
D28*
%TO.P,U3,9,THERMAL*%
%TO.N,GND*%
X69100000Y8250000D03*
%TD*%
D29*
%TO.P,R14,1*%
%TO.N,/VBUS_PRESENT*%
X61686637Y22243363D03*
%TO.P,R14,2*%
%TO.N,GND*%
X62853363Y21076637D03*
%TD*%
D30*
%TO.P,D8,1,K*%
%TO.N,Net-(D8-K)*%
X72900000Y6127500D03*
%TO.P,D8,2,A*%
%TO.N,/VBUS*%
X72900000Y4552500D03*
%TD*%
D31*
%TO.P,Q1,1,G*%
%TO.N,Net-(Q1-G)*%
X44710000Y19750000D03*
%TO.P,Q1,2,S*%
%TO.N,/VBAT_MEAS*%
X44710000Y21650000D03*
%TO.P,Q1,3,D*%
%TO.N,Net-(Q1-D)*%
X42835000Y20700000D03*
%TD*%
D13*
%TO.P,SW4,*%
%TO.N,*%
X77700000Y8800000D03*
X77700000Y1300000D03*
D14*
%TO.P,SW4,1,1*%
%TO.N,/BUTTON3*%
X76100000Y2950000D03*
D15*
%TO.P,SW4,2,2*%
%TO.N,+3V0*%
X76100000Y7150000D03*
%TD*%
D32*
%TO.P,R13,1*%
%TO.N,/VBUS*%
X61740624Y20449376D03*
%TO.P,R13,2*%
%TO.N,/VBUS_PRESENT*%
X61019376Y21170624D03*
%TD*%
D33*
%TO.P,U4,1,IN*%
%TO.N,Net-(D9-K)*%
X62090000Y4117500D03*
%TO.P,U4,2,OUT*%
%TO.N,Net-(J8-Pin_1)*%
X60190000Y4117500D03*
%TO.P,U4,3,GND*%
%TO.N,GND*%
X61140000Y2242500D03*
%TD*%
D34*
%TO.P,D6,1,K*%
%TO.N,Net-(D1-K)*%
X43570000Y10480000D03*
%TO.P,D6,2,A*%
%TO.N,/BUTTON3*%
X43570000Y8380000D03*
%TD*%
D35*
%TO.P,C12,1*%
%TO.N,Net-(J8-Pin_1)*%
X59970000Y6370000D03*
%TO.P,C12,2*%
%TO.N,GND*%
X59970000Y7330000D03*
%TD*%
D11*
%TO.P,R27,1*%
%TO.N,Net-(U1-PA4)*%
X48420000Y16060000D03*
%TO.P,R27,2*%
%TO.N,/D{slash}~{C}*%
X47400000Y16060000D03*
%TD*%
%TO.P,R5,1*%
%TO.N,/LED0*%
X48420000Y12620000D03*
%TO.P,R5,2*%
%TO.N,Net-(D4-A)*%
X47400000Y12620000D03*
%TD*%
D35*
%TO.P,C4,1*%
%TO.N,Net-(U1-PC15)*%
X51849411Y29240000D03*
%TO.P,C4,2*%
%TO.N,GND*%
X51849411Y30200000D03*
%TD*%
D36*
%TO.P,R23,1*%
%TO.N,GND*%
X14825000Y11900000D03*
%TO.P,R23,2*%
%TO.N,/E-Ink display/RESE*%
X13000000Y11900000D03*
%TD*%
D37*
%TO.P,R17,1*%
%TO.N,Net-(D7-K)*%
X65980000Y4140000D03*
%TO.P,R17,2*%
%TO.N,Net-(U3-~{STDBY})*%
X65980000Y3120000D03*
%TD*%
D38*
%TO.P,R29,1*%
%TO.N,/BUTTON2*%
X4540000Y34320000D03*
%TO.P,R29,2*%
%TO.N,Net-(R29-Pad2)*%
X4540000Y35340000D03*
%TD*%
D39*
%TO.P,J3,14,Pin_14*%
%TO.N,/~{RES}*%
X36240000Y29700000D03*
%TO.P,J3,13,Pin_13*%
%TO.N,/D{slash}~{C}*%
X36740000Y29700000D03*
%TO.P,J3,12,Pin_12*%
%TO.N,/BUSY_DBG*%
X37240000Y29700000D03*
%TO.P,J3,11,Pin_11*%
%TO.N,/SCLK*%
X37740000Y29700000D03*
%TO.P,J3,10,Pin_10*%
%TO.N,/MOSI*%
X38240000Y29700000D03*
%TO.P,J3,9,Pin_9*%
%TO.N,/~{CS}*%
X38740000Y29700000D03*
%TO.P,J3,8,Pin_8*%
%TO.N,/PB8*%
X39240000Y29700000D03*
%TO.P,J3,7,Pin_7*%
%TO.N,/PB7*%
X39740000Y29700000D03*
%TO.P,J3,6,Pin_6*%
%TO.N,/PB6*%
X40240000Y29700000D03*
%TO.P,J3,5,Pin_5*%
%TO.N,/PB5*%
X40740000Y29700000D03*
%TO.P,J3,4,Pin_4*%
%TO.N,/SERIAL_TX*%
X41240000Y29700000D03*
%TO.P,J3,3,Pin_3*%
%TO.N,/SERIAL_RX*%
X41740000Y29700000D03*
%TO.P,J3,2,Pin_2*%
%TO.N,GND*%
X42240000Y29700000D03*
%TO.P,J3,1,Pin_1*%
%TO.N,+3V0*%
X42740000Y29700000D03*
D40*
%TO.P,J3,*%
%TO.N,*%
X34590000Y32850000D03*
X44390000Y32850000D03*
%TD*%
D12*
%TO.P,R6,1*%
%TO.N,/BUTTON2*%
X39080000Y7230000D03*
%TO.P,R6,2*%
%TO.N,GND*%
X40100000Y7230000D03*
%TD*%
D24*
%TO.P,C24,1*%
%TO.N,/E-Ink display/VCC*%
X17000000Y22810000D03*
%TO.P,C24,2*%
%TO.N,GND*%
X17000000Y21850000D03*
%TD*%
D35*
%TO.P,C3,1*%
%TO.N,Net-(U1-PC14)*%
X54349411Y29240000D03*
%TO.P,C3,2*%
%TO.N,GND*%
X54349411Y30200000D03*
%TD*%
D12*
%TO.P,R28,1*%
%TO.N,/BUSY_DBG*%
X12570000Y16050000D03*
%TO.P,R28,2*%
%TO.N,/BUSY*%
X13590000Y16050000D03*
%TD*%
D41*
%TO.P,C11,1*%
%TO.N,Net-(D9-K)*%
X62210000Y11020000D03*
%TO.P,C11,2*%
%TO.N,GND*%
X61250000Y11020000D03*
%TD*%
D13*
%TO.P,SW1,*%
%TO.N,*%
X1300000Y27900000D03*
X1300000Y35400000D03*
D15*
%TO.P,SW1,1,1*%
%TO.N,+3V0*%
X2900000Y33750000D03*
D14*
%TO.P,SW1,2,2*%
%TO.N,/BUTTON0*%
X2900000Y29550000D03*
%TD*%
D17*
%TO.P,C20,1*%
%TO.N,/E-Ink display/VGL*%
X12600000Y13500000D03*
%TO.P,C20,2*%
%TO.N,GND*%
X13560000Y13500000D03*
%TD*%
D11*
%TO.P,R16,1*%
%TO.N,/Power/CC2*%
X74360000Y24430000D03*
%TO.P,R16,2*%
%TO.N,GND*%
X73340000Y24430000D03*
%TD*%
D42*
%TO.P,JP1,1,A*%
%TO.N,Net-(J8-Pin_1)*%
X57020000Y7910000D03*
%TO.P,JP1,2,B*%
%TO.N,+3V0*%
X55720000Y7910000D03*
%TD*%
D38*
%TO.P,R12,1*%
%TO.N,+3V0*%
X47930000Y21150000D03*
%TO.P,R12,2*%
%TO.N,/NRST*%
X47930000Y22170000D03*
%TD*%
D43*
%TO.P,C26,1*%
%TO.N,+3V0*%
X55030000Y23980000D03*
%TO.P,C26,2*%
%TO.N,GND*%
X55708822Y24658822D03*
%TD*%
D17*
%TO.P,C15,1*%
%TO.N,/E-Ink display/VSH*%
X12600000Y21194000D03*
%TO.P,C15,2*%
%TO.N,GND*%
X13560000Y21194000D03*
%TD*%
D11*
%TO.P,R25,1*%
%TO.N,Net-(U1-PA6)*%
X48420000Y14890000D03*
%TO.P,R25,2*%
%TO.N,/~{RES}*%
X47400000Y14890000D03*
%TD*%
D13*
%TO.P,SW2,*%
%TO.N,*%
X1300000Y1300000D03*
X1300000Y8800000D03*
D15*
%TO.P,SW2,1,1*%
%TO.N,/BUTTON1*%
X2900000Y7150000D03*
D14*
%TO.P,SW2,2,2*%
%TO.N,+3V0*%
X2900000Y2950000D03*
%TD*%
D38*
%TO.P,R20,1*%
%TO.N,/VBUS*%
X66060000Y21040000D03*
%TO.P,R20,2*%
%TO.N,Net-(U3-TEMP)*%
X66060000Y22060000D03*
%TD*%
D12*
%TO.P,R10,1*%
%TO.N,GND*%
X42225000Y18425000D03*
%TO.P,R10,2*%
%TO.N,Net-(Q1-G)*%
X43245000Y18425000D03*
%TD*%
D11*
%TO.P,R22,1*%
%TO.N,/VBUS*%
X65990000Y12990000D03*
%TO.P,R22,2*%
%TO.N,GND*%
X64970000Y12990000D03*
%TD*%
D12*
%TO.P,R7,1*%
%TO.N,+BATT*%
X40150000Y20530000D03*
%TO.P,R7,2*%
%TO.N,Net-(Q1-D)*%
X41170000Y20530000D03*
%TD*%
D44*
%TO.P,C21,1*%
%TO.N,Net-(D12-A)*%
X17640000Y15840000D03*
%TO.P,C21,2*%
%TO.N,Net-(D10-A)*%
X17640000Y18790000D03*
%TD*%
D37*
%TO.P,R32,1*%
%TO.N,Net-(U1-PA13)*%
X50470000Y4840000D03*
%TO.P,R32,2*%
%TO.N,/SWDIO*%
X50470000Y3820000D03*
%TD*%
%TO.P,R33,1*%
%TO.N,Net-(U1-PA14)*%
X51130000Y8850000D03*
%TO.P,R33,2*%
%TO.N,/SWDCLK*%
X51130000Y7830000D03*
%TD*%
D30*
%TO.P,D7,1,K*%
%TO.N,Net-(D7-K)*%
X64710000Y4127500D03*
%TO.P,D7,2,A*%
%TO.N,/VBUS*%
X64710000Y2552500D03*
%TD*%
D45*
%TO.P,C10,1*%
%TO.N,+BATT*%
X65260000Y5620000D03*
%TO.P,C10,2*%
%TO.N,GND*%
X65260000Y7170000D03*
%TD*%
D46*
%TO.P,J6,A1,GND*%
%TO.N,GND*%
X72765000Y15150000D03*
%TO.P,J6,A4,VBUS*%
%TO.N,/VBUS*%
X72765000Y15950000D03*
D47*
%TO.P,J6,A5,CC1*%
%TO.N,/Power/CC1*%
X72765000Y17100000D03*
%TO.P,J6,A6,D+*%
%TO.N,/Power/USB_IN_D+*%
X72765000Y18100000D03*
%TO.P,J6,A7,D-*%
%TO.N,/Power/USB_IN_D-*%
X72765000Y18600000D03*
%TO.P,J6,A8,SBU1*%
%TO.N,unconnected-(J6-SBU1-PadA8)*%
X72765000Y19600000D03*
D46*
%TO.P,J6,A9,VBUS*%
%TO.N,/VBUS*%
X72765000Y20750000D03*
%TO.P,J6,A12,GND*%
%TO.N,GND*%
X72765000Y21550000D03*
%TO.P,J6,B1,GND*%
X72765000Y21550000D03*
%TO.P,J6,B4,VBUS*%
%TO.N,/VBUS*%
X72765000Y20750000D03*
D47*
%TO.P,J6,B5,CC2*%
%TO.N,/Power/CC2*%
X72765000Y20100000D03*
%TO.P,J6,B6,D+*%
%TO.N,/Power/USB_IN_D+*%
X72765000Y19100000D03*
%TO.P,J6,B7,D-*%
%TO.N,/Power/USB_IN_D-*%
X72765000Y17600000D03*
%TO.P,J6,B8,SBU2*%
%TO.N,unconnected-(J6-SBU2-PadB8)*%
X72765000Y16600000D03*
D46*
%TO.P,J6,B9,VBUS*%
%TO.N,/VBUS*%
X72765000Y15950000D03*
%TO.P,J6,B12,GND*%
%TO.N,GND*%
X72765000Y15150000D03*
D48*
%TO.P,J6,S1,SHIELD*%
X73365000Y14030000D03*
D49*
X77565000Y14030000D03*
D48*
X73365000Y22670000D03*
D49*
X77565000Y22670000D03*
%TD*%
D12*
%TO.P,R1,1*%
%TO.N,/BUTTON0*%
X41070000Y7230000D03*
%TO.P,R1,2*%
%TO.N,GND*%
X42090000Y7230000D03*
%TD*%
D17*
%TO.P,C13,1*%
%TO.N,/E-Ink display/VCOM*%
X12590000Y25570000D03*
%TO.P,C13,2*%
%TO.N,GND*%
X13550000Y25570000D03*
%TD*%
D11*
%TO.P,R2,1*%
%TO.N,/LED1*%
X48400000Y11470000D03*
%TO.P,R2,2*%
%TO.N,Net-(D2-A)*%
X47380000Y11470000D03*
%TD*%
D33*
%TO.P,Q3,1,G*%
%TO.N,/E-Ink display/GDR*%
X14750000Y9837500D03*
%TO.P,Q3,2,S*%
%TO.N,/E-Ink display/RESE*%
X12850000Y9837500D03*
%TO.P,Q3,3,D*%
%TO.N,Net-(D12-A)*%
X13800000Y7962500D03*
%TD*%
D34*
%TO.P,D1,1,K*%
%TO.N,Net-(D1-K)*%
X41580000Y10480000D03*
%TO.P,D1,2,A*%
%TO.N,/BUTTON0*%
X41580000Y8380000D03*
%TD*%
D38*
%TO.P,R21,1*%
%TO.N,Net-(U3-TEMP)*%
X66060000Y22980000D03*
%TO.P,R21,2*%
%TO.N,GND*%
X66060000Y24000000D03*
%TD*%
D12*
%TO.P,R18,1*%
%TO.N,Net-(D8-K)*%
X72620000Y7500000D03*
%TO.P,R18,2*%
%TO.N,Net-(U3-~{CHRG})*%
X73640000Y7500000D03*
%TD*%
D17*
%TO.P,C14,1*%
%TO.N,/E-Ink display/VSL*%
X12600000Y23382000D03*
%TO.P,C14,2*%
%TO.N,GND*%
X13560000Y23382000D03*
%TD*%
D50*
%TO.P,J8,1,Pin_1*%
%TO.N,Net-(J8-Pin_1)*%
X57480000Y4620000D03*
D51*
%TO.P,J8,2,Pin_2*%
%TO.N,+3V0*%
X54940000Y4620000D03*
%TD*%
D52*
%TO.P,R30,1*%
%TO.N,/WAKEUP*%
X50284765Y12505235D03*
%TO.P,R30,2*%
%TO.N,Net-(D1-K)*%
X51575235Y11214765D03*
%TD*%
D53*
%TO.P,L1,1,1*%
%TO.N,Net-(D12-A)*%
X15412500Y13900000D03*
%TO.P,L1,2,2*%
%TO.N,/E-Ink display/VCI*%
X16987500Y13900000D03*
%TD*%
D34*
%TO.P,D5,1,K*%
%TO.N,Net-(D1-K)*%
X39590000Y10480000D03*
%TO.P,D5,2,A*%
%TO.N,/BUTTON2*%
X39590000Y8380000D03*
%TD*%
D54*
%TO.P,D10,1,K*%
%TO.N,GND*%
X22470000Y24090000D03*
%TO.P,D10,2,A*%
%TO.N,Net-(D10-A)*%
X22470000Y20790000D03*
%TD*%
D17*
%TO.P,C19,1*%
%TO.N,/E-Ink display/PREVGL*%
X12600000Y24476000D03*
%TO.P,C19,2*%
%TO.N,GND*%
X13560000Y24476000D03*
%TD*%
D12*
%TO.P,R9,1*%
%TO.N,/BUTTON3*%
X43060000Y7230000D03*
%TO.P,R9,2*%
%TO.N,GND*%
X44080000Y7230000D03*
%TD*%
D55*
%TO.P,U2,1,I/O1*%
%TO.N,/Power/USB_IN_D+*%
X70040000Y17400000D03*
%TO.P,U2,2,GND*%
%TO.N,GND*%
X70040000Y18350000D03*
%TO.P,U2,3,I/O2*%
%TO.N,/Power/USB_IN_D-*%
X70040000Y19300000D03*
%TO.P,U2,4,I/O2*%
%TO.N,/USB_D-*%
X67765000Y19300000D03*
%TO.P,U2,5,VBUS*%
%TO.N,/VBUS*%
X67765000Y18350000D03*
%TO.P,U2,6,I/O1*%
%TO.N,/USB_D+*%
X67765000Y17400000D03*
%TD*%
D56*
%TO.P,D2,1,K*%
%TO.N,GND*%
X22895000Y3825000D03*
%TO.P,D2,2,A*%
%TO.N,Net-(D2-A)*%
X22895000Y5400000D03*
%TD*%
D57*
%TO.P,C8,1*%
%TO.N,+3V0*%
X61670000Y16210000D03*
%TO.P,C8,2*%
%TO.N,GND*%
X60991178Y15531178D03*
%TD*%
D21*
%TO.P,C1,1*%
%TO.N,Net-(U1-PH0)*%
X48460000Y27230000D03*
%TO.P,C1,2*%
%TO.N,GND*%
X47781178Y27908822D03*
%TD*%
D58*
%TO.P,DS1,*%
%TO.N,*%
X6550000Y25750000D03*
X6550000Y10950000D03*
D59*
%TO.P,DS1,1,NC*%
%TO.N,unconnected-(DS1-NC-Pad1)*%
X9700000Y12600000D03*
%TO.P,DS1,2,GDR*%
%TO.N,/E-Ink display/GDR*%
X9700000Y13100000D03*
%TO.P,DS1,3,RESE*%
%TO.N,/E-Ink display/RESE*%
X9700000Y13600000D03*
%TO.P,DS1,4,VGL*%
%TO.N,/E-Ink display/VGL*%
X9700000Y14100000D03*
%TO.P,DS1,5,VGH*%
%TO.N,/E-Ink display/VGH*%
X9700000Y14600000D03*
%TO.P,DS1,6,TSCL*%
%TO.N,/E-Ink display/TSCL*%
X9700000Y15100000D03*
%TO.P,DS1,7,TSDA*%
%TO.N,/E-Ink display/TSDA*%
X9700000Y15600000D03*
%TO.P,DS1,8,BS1*%
%TO.N,GND*%
X9700000Y16100000D03*
%TO.P,DS1,9,BUSY*%
%TO.N,/BUSY_DBG*%
X9700000Y16600000D03*
%TO.P,DS1,10,RES#*%
%TO.N,/~{RES}*%
X9700000Y17100000D03*
%TO.P,DS1,11,D/C#*%
%TO.N,/D{slash}~{C}*%
X9700000Y17600000D03*
%TO.P,DS1,12,CS#*%
%TO.N,/~{CS}*%
X9700000Y18100000D03*
%TO.P,DS1,13,D0*%
%TO.N,/SCLK*%
X9700000Y18600000D03*
%TO.P,DS1,14,D1*%
%TO.N,/MOSI*%
X9700000Y19100000D03*
%TO.P,DS1,15,VDDIO*%
%TO.N,/E-Ink display/VCC*%
X9700000Y19600000D03*
%TO.P,DS1,16,VCI*%
X9700000Y20100000D03*
%TO.P,DS1,17,VSS*%
%TO.N,GND*%
X9700000Y20600000D03*
%TO.P,DS1,18,VDD*%
%TO.N,/E-Ink display/VDD*%
X9700000Y21100000D03*
%TO.P,DS1,19,VPP*%
%TO.N,/E-Ink display/VPP*%
X9700000Y21600000D03*
%TO.P,DS1,20,VSH*%
%TO.N,/E-Ink display/VSH*%
X9700000Y22100000D03*
%TO.P,DS1,21,PREVGH*%
%TO.N,/E-Ink display/PREVGH*%
X9700000Y22600000D03*
%TO.P,DS1,22,VSL*%
%TO.N,/E-Ink display/VSL*%
X9700000Y23100000D03*
%TO.P,DS1,23,PREVGL*%
%TO.N,/E-Ink display/PREVGL*%
X9700000Y23600000D03*
%TO.P,DS1,24,VCOM*%
%TO.N,/E-Ink display/VCOM*%
X9700000Y24100000D03*
%TD*%
D60*
%TO.P,FB1,1*%
%TO.N,/E-Ink display/VCC*%
X15540000Y23025000D03*
%TO.P,FB1,2*%
%TO.N,+3V0*%
X15540000Y25150000D03*
%TD*%
D34*
%TO.P,D3,1,K*%
%TO.N,Net-(D1-K)*%
X45560000Y10480000D03*
%TO.P,D3,2,A*%
%TO.N,/BUTTON1*%
X45560000Y8380000D03*
%TD*%
D17*
%TO.P,C17,1*%
%TO.N,/E-Ink display/VCI*%
X19880000Y11900000D03*
%TO.P,C17,2*%
%TO.N,GND*%
X20840000Y11900000D03*
%TD*%
%TO.P,C18,1*%
%TO.N,/E-Ink display/VGH*%
X12600000Y14500000D03*
%TO.P,C18,2*%
%TO.N,GND*%
X13560000Y14500000D03*
%TD*%
D61*
%TO.P,BT1,*%
%TO.N,*%
X73780000Y33300000D03*
X67080000Y33300000D03*
D62*
%TO.P,BT1,1,+*%
%TO.N,+BATT*%
X71430000Y27550000D03*
%TO.P,BT1,2,-*%
%TO.N,GND*%
X69430000Y27550000D03*
%TD*%
D54*
%TO.P,D12,1,K*%
%TO.N,/E-Ink display/PREVGH*%
X15220000Y18990000D03*
%TO.P,D12,2,A*%
%TO.N,Net-(D12-A)*%
X15220000Y15690000D03*
%TD*%
D11*
%TO.P,R31,1*%
%TO.N,Net-(U1-PB0)*%
X48420000Y13850000D03*
%TO.P,R31,2*%
%TO.N,/BUSY*%
X47400000Y13850000D03*
%TD*%
D33*
%TO.P,Q2,1,G*%
%TO.N,/VBUS*%
X63280709Y8758500D03*
%TO.P,Q2,2,S*%
%TO.N,Net-(D9-K)*%
X61380709Y8758500D03*
%TO.P,Q2,3,D*%
%TO.N,+BATT*%
X62330709Y6883500D03*
%TD*%
D63*
%TO.P,C22,1*%
%TO.N,/E-Ink display/VCI*%
X18895000Y13840000D03*
%TO.P,C22,2*%
%TO.N,GND*%
X21845000Y13840000D03*
%TD*%
D64*
%TO.P,D9,1,K*%
%TO.N,Net-(D9-K)*%
X63350000Y11000000D03*
%TO.P,D9,2,A*%
%TO.N,/VBUS*%
X65450000Y11000000D03*
%TD*%
D11*
%TO.P,R34,1*%
%TO.N,Net-(U1-PA3)*%
X48420000Y17230000D03*
%TO.P,R34,2*%
%TO.N,/~{CS}*%
X47400000Y17230000D03*
%TD*%
D37*
%TO.P,R4,1*%
%TO.N,Net-(D1-K)*%
X37840000Y10330000D03*
%TO.P,R4,2*%
%TO.N,GND*%
X37840000Y9310000D03*
%TD*%
D56*
%TO.P,D4,1,K*%
%TO.N,GND*%
X19320000Y3825000D03*
%TO.P,D4,2,A*%
%TO.N,Net-(D4-A)*%
X19320000Y5400000D03*
%TD*%
D65*
%TO.P,Y1,1,1*%
%TO.N,Net-(U1-PH1)*%
X47890000Y23810000D03*
%TO.P,Y1,2*%
%TO.N,unconnected-(Y1-Pad2)*%
X50090000Y23810000D03*
%TO.P,Y1,3,3*%
%TO.N,Net-(U1-PH0)*%
X50090000Y25510000D03*
%TO.P,Y1,4*%
%TO.N,unconnected-(Y1-Pad4)*%
X47890000Y25510000D03*
%TD*%
D17*
%TO.P,C23,1*%
%TO.N,/E-Ink display/PREVGH*%
X12600000Y22288000D03*
%TO.P,C23,2*%
%TO.N,GND*%
X13560000Y22288000D03*
%TD*%
D38*
%TO.P,R8,1*%
%TO.N,/VBAT_MEAS*%
X46335000Y19740000D03*
%TO.P,R8,2*%
%TO.N,GND*%
X46335000Y20760000D03*
%TD*%
D41*
%TO.P,C9,1*%
%TO.N,/VBUS*%
X67280000Y16080000D03*
%TO.P,C9,2*%
%TO.N,GND*%
X66320000Y16080000D03*
%TD*%
D66*
%TO.N,GND*%
X65620000Y16080000D03*
X66320000Y15450000D03*
X68410000Y15570000D03*
X69130000Y15400000D03*
X58423000Y24266752D03*
X71020000Y14470000D03*
X40470000Y8090000D03*
X71800000Y9540000D03*
X56250000Y25220000D03*
X17580000Y21140000D03*
X52510000Y12040000D03*
X14300000Y22840000D03*
X58668790Y22613499D03*
X60450000Y2250000D03*
X15787009Y11920000D03*
X11150000Y20500000D03*
X42090000Y31310000D03*
X68420000Y27570000D03*
X71010000Y15190000D03*
X14170000Y14080000D03*
X42100524Y30670923D03*
X66220000Y8360000D03*
X53500000Y30210000D03*
X41570000Y18440000D03*
X71690000Y15220000D03*
X60510000Y11020000D03*
X46340000Y21410000D03*
X77550000Y23700000D03*
X71790000Y8590000D03*
X70970000Y22280000D03*
X56189110Y21980599D03*
X59970000Y8130000D03*
X72810000Y12200000D03*
X71610000Y21550000D03*
X65270013Y8180013D03*
X46070000Y26000000D03*
X66720000Y24000000D03*
X65270000Y13700000D03*
X21860000Y12000000D03*
X11180000Y15480000D03*
X63944000Y20998000D03*
X72562646Y24417354D03*
X70980000Y21540000D03*
X66230000Y9330000D03*
X77600000Y12970000D03*
X61433000Y15070000D03*
X70900026Y18360026D03*
X21110000Y3760000D03*
X23590000Y24070000D03*
X14310000Y25100000D03*
X52817764Y19980233D03*
X14217354Y20577354D03*
X47240000Y27380000D03*
X37870000Y8630000D03*
X50999340Y21690000D03*
X46850000Y7220000D03*
X52690000Y30210000D03*
X44550000Y8230000D03*
X43240000Y3780000D03*
X42550000Y8260000D03*
%TO.N,+3V0*%
X18270000Y35230000D03*
X18320000Y32232000D03*
X54700002Y12454066D03*
X57470000Y10410000D03*
%TO.N,/VBUS*%
X71810000Y4562500D03*
X72520000Y2980000D03*
X64054648Y4855574D03*
X64110000Y6300000D03*
%TO.N,/WAKEUP*%
X51810000Y18720000D03*
X49113663Y18641379D03*
%TO.N,+BATT*%
X47300000Y30740002D03*
X47280000Y33101000D03*
%TO.N,/SCLK*%
X31900000Y20400000D03*
X31860000Y19170000D03*
%TO.N,/NRST*%
X55506309Y20362659D03*
X54315380Y21199038D03*
X53580000Y11080000D03*
X52610000Y7700000D03*
%TO.N,Net-(U3-TEMP)*%
X48460000Y30687341D03*
X48230000Y32930000D03*
%TO.N,/VBUS_PRESENT*%
X56053964Y20851960D03*
X55080000Y21519998D03*
%TO.N,/Power/USB_IN_D+*%
X73693000Y18048724D03*
X73692418Y19127000D03*
%TO.N,Net-(U1-PA14)*%
X52083000Y8801574D03*
X52790000Y10550000D03*
%TO.N,/~{CS}*%
X34150000Y17450000D03*
X33633709Y15953768D03*
%TD*%
D67*
%TO.N,GND*%
X65620000Y14050000D02*
X65270000Y13700000D01*
X65620000Y16080000D02*
X65620000Y14050000D01*
X66320000Y16080000D02*
X65620000Y16080000D01*
X66320000Y16080000D02*
X66320000Y15450000D01*
X69130000Y15400000D02*
X69050000Y15320000D01*
X69050000Y15320000D02*
X68355000Y15320000D01*
X68355000Y15320000D02*
X68355000Y15515000D01*
X68355000Y14820000D02*
X68355000Y15320000D01*
X68960000Y15570000D02*
X69130000Y15400000D01*
X68410000Y15570000D02*
X68960000Y15570000D01*
X68355000Y15515000D02*
X68410000Y15570000D01*
%TO.N,/VBUS*%
X67788629Y16080000D02*
X67280000Y16080000D01*
X68128629Y16420000D02*
X67788629Y16080000D01*
X68810000Y16420000D02*
X68128629Y16420000D01*
X68810000Y17222209D02*
X68810000Y16420000D01*
%TO.N,GND*%
X68355000Y14820000D02*
X68550000Y14820000D01*
X68550000Y14820000D02*
X69130000Y15400000D01*
X68465000Y14710000D02*
X68355000Y14820000D01*
X68465000Y12400000D02*
X68465000Y14710000D01*
%TO.N,/VBUS*%
X67280000Y12485000D02*
X67195000Y12400000D01*
X67280000Y16080000D02*
X67280000Y12485000D01*
D68*
%TO.N,Net-(U3-PROG)*%
X69735000Y14550000D02*
X70005000Y14820000D01*
X69735000Y12400000D02*
X69735000Y14550000D01*
%TO.N,Net-(U1-PH0)*%
X50090000Y25760000D02*
X48790000Y27060000D01*
X51827660Y22983000D02*
X51827660Y23772340D01*
X50090000Y25510000D02*
X50090000Y25760000D01*
X51827660Y23772340D02*
X50090000Y25510000D01*
X53096998Y21713662D02*
X51827660Y22983000D01*
D69*
%TO.N,GND*%
X17580000Y21850000D02*
X17580000Y21140000D01*
D67*
X68500000Y8250000D02*
X67570000Y9180000D01*
D68*
X57923002Y21713662D02*
X57923002Y21867711D01*
D67*
X69100000Y8250000D02*
X69100000Y8300000D01*
X46070000Y26210000D02*
X47240000Y27380000D01*
X73550000Y13845000D02*
X73365000Y14030000D01*
D68*
X11050000Y20600000D02*
X11150000Y20500000D01*
D67*
X66330000Y8250000D02*
X66220000Y8360000D01*
X70970000Y22280000D02*
X70970000Y21550000D01*
X47768822Y27908822D02*
X47240000Y27380000D01*
D68*
X13560000Y22840000D02*
X14300000Y22840000D01*
D67*
X71010000Y15190000D02*
X71010000Y14480000D01*
X71690000Y9650000D02*
X71800000Y9540000D01*
D68*
X9700000Y20600000D02*
X11050000Y20600000D01*
X56189110Y22101090D02*
X56189110Y21980599D01*
X41525000Y18425000D02*
X41540000Y18440000D01*
X57923002Y21867711D02*
X58668790Y22613499D01*
X59970000Y7330000D02*
X59970000Y8130000D01*
D69*
X42240000Y29700000D02*
X42240000Y30531447D01*
D68*
X9700000Y16100000D02*
X10560000Y16100000D01*
X13550000Y25570000D02*
X13550000Y25100000D01*
X42225000Y18425000D02*
X41525000Y18425000D01*
D67*
X45581178Y25511178D02*
X46070000Y26000000D01*
D68*
X20840000Y11900000D02*
X21760000Y11900000D01*
X13550000Y25100000D02*
X13550000Y24486000D01*
X13550000Y24486000D02*
X13560000Y24476000D01*
X54157658Y13705678D02*
X54146856Y13705678D01*
X44080000Y7760000D02*
X44550000Y8230000D01*
X57808609Y23720589D02*
X56862342Y22774322D01*
D67*
X69100000Y8250000D02*
X68500000Y8250000D01*
D68*
X19385000Y3760000D02*
X19320000Y3825000D01*
D67*
X71610000Y21550000D02*
X70990000Y21550000D01*
X71720000Y15160000D02*
X71700000Y15180000D01*
D68*
X63675363Y20906637D02*
X63754000Y20828000D01*
D67*
X70970000Y21550000D02*
X70980000Y21540000D01*
X71020000Y14470000D02*
X71020000Y14500000D01*
X73550000Y12200000D02*
X72810000Y12200000D01*
D68*
X13560000Y22840000D02*
X13560000Y22288000D01*
X14825000Y11900000D02*
X15767009Y11900000D01*
D69*
X60991178Y15940802D02*
X60044322Y16887658D01*
D68*
X58300589Y23720589D02*
X58423000Y23843000D01*
D67*
X67570000Y9180000D02*
X67420000Y9330000D01*
D68*
X21760000Y11900000D02*
X21860000Y12000000D01*
X50999340Y21690000D02*
X50210000Y21690000D01*
X52719767Y19980233D02*
X52817764Y19980233D01*
D67*
X73340000Y24430000D02*
X72575292Y24430000D01*
X70040000Y18350000D02*
X70890000Y18350000D01*
X71750000Y15160000D02*
X71720000Y15160000D01*
D68*
X54146856Y13705678D02*
X53030589Y12589411D01*
X21175000Y3825000D02*
X21110000Y3760000D01*
D67*
X53500000Y30210000D02*
X54339411Y30210000D01*
X71700000Y15180000D02*
X71020000Y15180000D01*
D69*
X17580000Y21850000D02*
X18040000Y21850000D01*
D67*
X73340000Y22695000D02*
X73365000Y22670000D01*
D68*
X53030589Y12560589D02*
X52510000Y12040000D01*
D69*
X17000000Y21850000D02*
X17580000Y21850000D01*
D68*
X43080000Y3780000D02*
X43240000Y3780000D01*
X37840000Y9310000D02*
X37840000Y8660000D01*
D67*
X65260000Y8170000D02*
X65270013Y8180013D01*
D68*
X42090000Y7800000D02*
X42550000Y8260000D01*
X46840000Y7230000D02*
X46850000Y7220000D01*
D67*
X65260000Y7170000D02*
X65260000Y8170000D01*
D68*
X52046998Y20653002D02*
X52719767Y19980233D01*
D67*
X64970000Y13700000D02*
X64960000Y13710000D01*
D68*
X55708822Y24678822D02*
X56250000Y25220000D01*
D67*
X77565000Y14030000D02*
X77565000Y13005000D01*
X71450000Y8250000D02*
X71790000Y8590000D01*
X77565000Y22670000D02*
X77565000Y23685000D01*
D68*
X13560000Y14500000D02*
X13560000Y14130000D01*
D67*
X69100000Y8300000D02*
X70450000Y9650000D01*
D68*
X21110000Y3760000D02*
X19385000Y3760000D01*
D67*
X54339411Y30210000D02*
X54349411Y30200000D01*
X71640000Y21550000D02*
X71610000Y21550000D01*
D69*
X42240000Y30531447D02*
X42100524Y30670923D01*
D67*
X70890000Y18350000D02*
X70900026Y18360026D01*
D68*
X14120000Y14130000D02*
X14170000Y14080000D01*
X13550000Y25100000D02*
X14310000Y25100000D01*
D67*
X69100000Y8250000D02*
X71450000Y8250000D01*
X69100000Y8250000D02*
X66330000Y8250000D01*
X70450000Y9650000D02*
X71690000Y9650000D01*
D68*
X60991178Y15531178D02*
X61433000Y15089356D01*
D67*
X61250000Y11020000D02*
X60510000Y11020000D01*
D68*
X13560000Y14130000D02*
X13560000Y13500000D01*
X69430000Y27550000D02*
X68440000Y27550000D01*
X62853363Y21076637D02*
X63865363Y21076637D01*
D67*
X65260000Y7170000D02*
X68020000Y7170000D01*
D68*
X66060000Y24000000D02*
X66720000Y24000000D01*
X13560000Y14130000D02*
X14120000Y14130000D01*
X42090000Y7230000D02*
X42090000Y7800000D01*
X13560000Y20650000D02*
X14144708Y20650000D01*
D67*
X64970000Y12990000D02*
X64970000Y13700000D01*
X70990000Y21550000D02*
X70980000Y21540000D01*
D68*
X10560000Y16100000D02*
X11180000Y15480000D01*
D69*
X23570000Y24090000D02*
X23590000Y24070000D01*
D68*
X41540000Y18440000D02*
X41570000Y18440000D01*
X40100000Y7230000D02*
X40100000Y7720000D01*
D67*
X73550000Y12200000D02*
X73550000Y13845000D01*
D69*
X42100524Y31299476D02*
X42090000Y31310000D01*
D67*
X72575292Y24430000D02*
X72562646Y24417354D01*
D68*
X46335000Y20760000D02*
X46335000Y21405000D01*
D69*
X22470000Y24090000D02*
X23570000Y24090000D01*
D67*
X67420000Y9330000D02*
X66230000Y9330000D01*
X51849411Y30200000D02*
X52680000Y30200000D01*
X52680000Y30200000D02*
X52690000Y30210000D01*
D68*
X46070000Y7230000D02*
X46840000Y7230000D01*
D67*
X71610000Y21640000D02*
X70970000Y22280000D01*
D68*
X22895000Y3825000D02*
X21175000Y3825000D01*
X14144708Y20650000D02*
X14217354Y20577354D01*
X42240000Y4620000D02*
X43080000Y3780000D01*
X53030589Y12589411D02*
X53030589Y12560589D01*
D67*
X77565000Y23685000D02*
X77550000Y23700000D01*
D68*
X40100000Y7720000D02*
X40470000Y8090000D01*
D67*
X73340000Y24430000D02*
X73340000Y22695000D01*
D68*
X37840000Y8660000D02*
X37870000Y8630000D01*
D67*
X71610000Y21550000D02*
X71610000Y21640000D01*
X77565000Y13005000D02*
X77600000Y12970000D01*
X71010000Y14480000D02*
X71020000Y14470000D01*
D68*
X15767009Y11900000D02*
X15787009Y11920000D01*
X58239411Y23720589D02*
X57808609Y23720589D01*
D67*
X60457500Y2242500D02*
X60450000Y2250000D01*
D68*
X13560000Y20650000D02*
X13560000Y20100000D01*
D67*
X72765000Y15150000D02*
X71660000Y15150000D01*
X52690000Y30210000D02*
X53500000Y30210000D01*
D68*
X13560000Y21194000D02*
X13560000Y20650000D01*
X61433000Y15089356D02*
X61433000Y15070000D01*
D67*
X71020000Y14500000D02*
X71700000Y15180000D01*
D68*
X52036338Y20653002D02*
X50999340Y21690000D01*
X21845000Y12015000D02*
X21860000Y12000000D01*
X55708822Y24658822D02*
X55708822Y24678822D01*
X52036338Y20653002D02*
X52046998Y20653002D01*
D69*
X60991178Y15531178D02*
X60991178Y15940802D01*
D68*
X56862342Y22774322D02*
X56189110Y22101090D01*
X68440000Y27550000D02*
X68420000Y27570000D01*
D67*
X61140000Y2242500D02*
X60457500Y2242500D01*
D69*
X42100524Y30670923D02*
X42100524Y31299476D01*
D67*
X72765000Y21550000D02*
X71640000Y21550000D01*
D68*
X62440624Y21129376D02*
X62440624Y21130624D01*
X21845000Y13900000D02*
X21845000Y12015000D01*
X58423000Y23843000D02*
X58423000Y24266752D01*
X46335000Y21405000D02*
X46340000Y21410000D01*
X44080000Y7230000D02*
X44080000Y7760000D01*
X58239411Y23720589D02*
X58300589Y23720589D01*
X13560000Y23382000D02*
X13560000Y22840000D01*
D70*
%TO.N,Net-(U1-PH1)*%
X48115000Y23960000D02*
X47290000Y23960000D01*
D68*
X52743445Y21360109D02*
X51120554Y22983000D01*
D70*
X47290000Y23960000D02*
X46590000Y24660000D01*
D68*
X51120554Y22983000D02*
X48717000Y22983000D01*
X48717000Y22983000D02*
X47890000Y23810000D01*
D70*
%TO.N,Net-(U1-PC14)*%
X53236167Y26387345D02*
X54349411Y27500589D01*
X53804105Y22420769D02*
X53236167Y22988707D01*
X54349411Y27500589D02*
X54349411Y29240000D01*
X53236167Y22988707D02*
X53236167Y26387345D01*
%TO.N,Net-(U1-PC15)*%
X52786167Y26563833D02*
X51849411Y27500589D01*
X53450551Y22067215D02*
X52786167Y22731599D01*
X52786167Y22731599D02*
X52786167Y26563833D01*
X51849411Y27500589D02*
X51849411Y29240000D01*
D68*
%TO.N,+3V0*%
X33332293Y853000D02*
X37710000Y853000D01*
X51081645Y20900589D02*
X51682785Y20299449D01*
D69*
X55550000Y23127876D02*
X55550000Y21856002D01*
D67*
X53709411Y11910589D02*
X54252888Y12454066D01*
X76100000Y25950000D02*
X76100000Y29550000D01*
D68*
X49250000Y21690000D02*
X48470000Y21690000D01*
D69*
X76171000Y12850000D02*
X76171000Y13189000D01*
D68*
X57560589Y24179677D02*
X56508788Y23127876D01*
X48179411Y20900589D02*
X49990589Y20900589D01*
X37710000Y853000D02*
X51173000Y853000D01*
D69*
X76171000Y13189000D02*
X75973000Y13387000D01*
X21726842Y35230000D02*
X18270000Y35230000D01*
D68*
X5055000Y645000D02*
X33124293Y645000D01*
D67*
X63694000Y35296000D02*
X46166000Y35296000D01*
X54940000Y4620000D02*
X58810000Y750000D01*
D68*
X55060000Y13900912D02*
X54511212Y13352124D01*
D69*
X52400000Y19582234D02*
X52400000Y18650000D01*
D67*
X75123000Y3530424D02*
X76100000Y4507424D01*
D69*
X54511212Y23127876D02*
X55550000Y23127876D01*
D68*
X61670000Y16210000D02*
X61429088Y16210000D01*
D67*
X75890000Y25740000D02*
X76100000Y25950000D01*
D69*
X61429088Y16210000D02*
X60397876Y17241212D01*
D67*
X58810000Y750000D02*
X66618270Y750000D01*
X54252888Y12454066D02*
X54700002Y12454066D01*
D69*
X55550000Y23127876D02*
X56508788Y23127876D01*
D67*
X55720000Y8660000D02*
X59611102Y12551102D01*
X54940000Y4620000D02*
X54940000Y7130000D01*
X59611102Y12551102D02*
X60141102Y12551102D01*
D68*
X37710000Y2630000D02*
X37710000Y853000D01*
D69*
X75973000Y25657000D02*
X75890000Y25740000D01*
X42740000Y33654000D02*
X44270000Y35184000D01*
D68*
X51682785Y20299449D02*
X52152722Y19829512D01*
D67*
X66320289Y31223000D02*
X65230000Y32313289D01*
D69*
X44270000Y35390000D02*
X21886842Y35390000D01*
X52152722Y19829512D02*
X52400000Y19582234D01*
X46072000Y35390000D02*
X46166000Y35296000D01*
D67*
X55720000Y7910000D02*
X55720000Y8660000D01*
D68*
X47930000Y21150000D02*
X48179411Y20900589D01*
X33124293Y645000D02*
X33332293Y853000D01*
D69*
X18270000Y35230000D02*
X5940000Y35230000D01*
X15540000Y25150000D02*
X15540000Y29452000D01*
D67*
X72440000Y800000D02*
X73670000Y800000D01*
D69*
X75973000Y13387000D02*
X75973000Y25657000D01*
D67*
X54252888Y12454066D02*
X54252888Y13055618D01*
D68*
X55060000Y15990000D02*
X55060000Y13900912D01*
D67*
X54252888Y13055618D02*
X54530303Y13333033D01*
X76100000Y7150000D02*
X76171000Y7221000D01*
D68*
X49990589Y20900589D02*
X51081645Y20900589D01*
D67*
X75123000Y2253000D02*
X75123000Y3530424D01*
D68*
X48470000Y21690000D02*
X47930000Y21150000D01*
D69*
X21886842Y35390000D02*
X21726842Y35230000D01*
X54511212Y23461212D02*
X55030000Y23980000D01*
X53830000Y17220000D02*
X55060000Y15990000D01*
D67*
X76171000Y7221000D02*
X76171000Y12850000D01*
D68*
X2900000Y33750000D02*
X3980000Y34830000D01*
D69*
X66618270Y750000D02*
X72390000Y750000D01*
X55279002Y20893000D02*
X55119397Y20893000D01*
X55657000Y21270998D02*
X55279002Y20893000D01*
D68*
X39700000Y4620000D02*
X37710000Y2630000D01*
X2800000Y2900000D02*
X5055000Y645000D01*
X5540000Y34830000D02*
X5940000Y35230000D01*
D69*
X55657000Y21749002D02*
X55657000Y21270998D01*
D67*
X65230000Y32313289D02*
X65230000Y33760000D01*
D69*
X53830000Y19603603D02*
X53830000Y17220000D01*
D67*
X73670000Y800000D02*
X75123000Y2253000D01*
D68*
X3980000Y34830000D02*
X5540000Y34830000D01*
D67*
X62110000Y15770000D02*
X61670000Y16210000D01*
X54940000Y7130000D02*
X55720000Y7910000D01*
X65230000Y33760000D02*
X63694000Y35296000D01*
D69*
X44270000Y35184000D02*
X44270000Y35390000D01*
D67*
X76100000Y4507424D02*
X76100000Y7150000D01*
D69*
X72390000Y750000D02*
X72440000Y800000D01*
D67*
X60141102Y12551102D02*
X62110000Y14520000D01*
D69*
X44270000Y35390000D02*
X46072000Y35390000D01*
X55119397Y20893000D02*
X53830000Y19603603D01*
D67*
X74427000Y31223000D02*
X66320289Y31223000D01*
D69*
X52400000Y18650000D02*
X53830000Y17220000D01*
D68*
X57560589Y24399411D02*
X57560589Y24179677D01*
X51173000Y853000D02*
X54940000Y4620000D01*
D69*
X54511212Y23127876D02*
X54511212Y23461212D01*
X15540000Y29452000D02*
X18320000Y32232000D01*
D67*
X76100000Y29550000D02*
X74427000Y31223000D01*
D69*
X42740000Y29700000D02*
X42740000Y33654000D01*
X55550000Y21856002D02*
X55657000Y21749002D01*
D67*
X62110000Y14520000D02*
X62110000Y15770000D01*
%TO.N,/VBUS*%
X66850000Y12400000D02*
X65450000Y11000000D01*
X68910000Y19577791D02*
X68910000Y18870000D01*
X68810000Y17222209D02*
X68810000Y17930000D01*
D68*
X66050000Y20449376D02*
X66060000Y20459376D01*
X61740624Y20449376D02*
X62124000Y20066000D01*
X66050000Y20449376D02*
X68038415Y20449376D01*
D67*
X65450000Y11000000D02*
X65450000Y10927791D01*
D68*
X64008000Y3254500D02*
X64008000Y4808926D01*
D67*
X71810000Y4562500D02*
X71467500Y4562500D01*
X65450000Y10927791D02*
X63280709Y8758500D01*
D68*
X65398500Y1864000D02*
X71404000Y1864000D01*
D67*
X67195000Y12400000D02*
X66850000Y12400000D01*
X68390000Y18350000D02*
X67765000Y18350000D01*
X68910000Y18870000D02*
X68390000Y18350000D01*
D68*
X62124000Y20066000D02*
X65666624Y20066000D01*
X65666624Y20066000D02*
X66050000Y20449376D01*
X63280709Y7129291D02*
X63280709Y8758500D01*
D67*
X71467500Y4562500D02*
X71005000Y4100000D01*
X72765000Y20750000D02*
X70082209Y20750000D01*
D68*
X64110000Y6300000D02*
X63280709Y7129291D01*
D67*
X70082209Y20750000D02*
X68910000Y19577791D01*
D68*
X68038415Y20449376D02*
X68910000Y19577791D01*
X66060000Y20459376D02*
X66060000Y21040000D01*
X64008000Y4808926D02*
X64054648Y4855574D01*
D67*
X66580000Y12400000D02*
X65990000Y12990000D01*
D68*
X64710000Y2552500D02*
X65398500Y1864000D01*
D67*
X70082209Y15950000D02*
X68810000Y17222209D01*
X72590000Y4562500D02*
X71810000Y4562500D01*
X68810000Y17930000D02*
X68390000Y18350000D01*
D68*
X71404000Y1864000D02*
X72520000Y2980000D01*
X64710000Y2552500D02*
X64008000Y3254500D01*
D67*
X67195000Y12400000D02*
X66580000Y12400000D01*
X72765000Y15950000D02*
X70082209Y15950000D01*
%TO.N,Net-(D9-K)*%
X61380709Y8758500D02*
X61380709Y4826791D01*
X63350000Y11000000D02*
X62230000Y11000000D01*
X61380709Y4826791D02*
X62090000Y4117500D01*
X62230000Y11000000D02*
X62210000Y11020000D01*
X62210000Y10710000D02*
X61380709Y9880709D01*
X62210000Y11020000D02*
X62210000Y10710000D01*
X61380709Y9880709D02*
X61380709Y8758500D01*
X62330709Y10899291D02*
X62210000Y11020000D01*
%TO.N,Net-(J8-Pin_1)*%
X57480000Y7450000D02*
X57020000Y7910000D01*
X57480000Y4620000D02*
X57480000Y7450000D01*
X57992500Y4107500D02*
X57480000Y4620000D01*
X57982500Y4117500D02*
X57480000Y4620000D01*
X59970000Y4337500D02*
X60190000Y4117500D01*
X59970000Y6370000D02*
X59970000Y4337500D01*
X60190000Y4117500D02*
X57982500Y4117500D01*
D68*
%TO.N,/E-Ink display/VCOM*%
X11320000Y24100000D02*
X9700000Y24100000D01*
X12590000Y25570000D02*
X12590000Y25370000D01*
X12590000Y25370000D02*
X11320000Y24100000D01*
%TO.N,/E-Ink display/VSL*%
X12318000Y23100000D02*
X9700000Y23100000D01*
X12600000Y23382000D02*
X12318000Y23100000D01*
%TO.N,/E-Ink display/VSH*%
X12600000Y21194000D02*
X11694000Y22100000D01*
X11694000Y22100000D02*
X9700000Y22100000D01*
%TO.N,/E-Ink display/VDD*%
X11600000Y21100000D02*
X9700000Y21100000D01*
X12600000Y20100000D02*
X11600000Y21100000D01*
%TO.N,/E-Ink display/VCI*%
X18895000Y12885000D02*
X19880000Y11900000D01*
X16987500Y13900000D02*
X18895000Y13900000D01*
X18895000Y13900000D02*
X18895000Y12885000D01*
%TO.N,/E-Ink display/VGH*%
X9700000Y14600000D02*
X12500000Y14600000D01*
X12500000Y14600000D02*
X12600000Y14500000D01*
%TO.N,/E-Ink display/PREVGL*%
X16071000Y23939000D02*
X13137000Y23939000D01*
X11724000Y23600000D02*
X9700000Y23600000D01*
X16071000Y23939000D02*
X16267000Y24135000D01*
X12600000Y24476000D02*
X11724000Y23600000D01*
X16267000Y24135000D02*
X19960000Y24135000D01*
X13137000Y23939000D02*
X12600000Y24476000D01*
D71*
%TO.N,/BUSY*%
X16807539Y16605500D02*
X16750039Y16548000D01*
X14608000Y16548000D02*
X14110000Y16050000D01*
X16750039Y16548000D02*
X14608000Y16548000D01*
X19949582Y15180000D02*
X18487582Y16642000D01*
X18487582Y16642000D02*
X18451082Y16605500D01*
D68*
X19949582Y15180000D02*
X22495104Y15180000D01*
D71*
X14110000Y16050000D02*
X13590000Y16050000D01*
X18451082Y16605500D02*
X16807539Y16605500D01*
D68*
X22495104Y15180000D02*
X23825104Y13850000D01*
X23825104Y13850000D02*
X47400000Y13850000D01*
%TO.N,/~{RES}*%
X20320000Y16130000D02*
X20290000Y16100000D01*
X7730000Y23772656D02*
X17146344Y33189000D01*
X17146344Y33189000D02*
X22306344Y33189000D01*
X29781000Y33329000D02*
X33410000Y29700000D01*
X12360104Y16905000D02*
X12293104Y16972000D01*
X44747372Y14790000D02*
X28120000Y14790000D01*
X22306344Y33189000D02*
X22446344Y33329000D01*
D71*
X16644829Y16802000D02*
X13259580Y16802000D01*
X13156580Y16905000D02*
X12360104Y16905000D01*
X19430420Y16959580D02*
X19430420Y16962000D01*
X16702329Y16859500D02*
X16644829Y16802000D01*
X18250420Y16962000D02*
X18147920Y16859500D01*
D68*
X47400000Y14890000D02*
X47290500Y14780500D01*
X10300000Y17100000D02*
X9700000Y17100000D01*
X7730000Y18328448D02*
X7730000Y23772656D01*
X26780000Y16130000D02*
X20320000Y16130000D01*
X28120000Y14790000D02*
X26780000Y16130000D01*
X12293104Y16972000D02*
X10428000Y16972000D01*
X10428000Y16972000D02*
X10300000Y17100000D01*
X22446344Y33329000D02*
X29781000Y33329000D01*
X9700000Y17100000D02*
X8958448Y17100000D01*
D71*
X18147920Y16859500D02*
X16702329Y16859500D01*
X19430420Y16962000D02*
X18250420Y16962000D01*
D68*
X47290500Y14780500D02*
X44756872Y14780500D01*
D71*
X44756872Y14780500D02*
X44747372Y14790000D01*
X13259580Y16802000D02*
X13156580Y16905000D01*
X20290000Y16100000D02*
X19430420Y16959580D01*
D68*
X33410000Y29700000D02*
X36240000Y29700000D01*
X8958448Y17100000D02*
X7730000Y18328448D01*
D71*
%TO.N,/D{slash}~{C}*%
X13364790Y17056000D02*
X16539619Y17056000D01*
D68*
X28178000Y32932000D02*
X32237000Y28873000D01*
X22511792Y32932000D02*
X28178000Y32932000D01*
X11095709Y17299000D02*
X10794709Y17600000D01*
X9700000Y17600000D02*
X8920896Y17600000D01*
D71*
X13188790Y17232000D02*
X13364790Y17056000D01*
X20446000Y17216000D02*
X20480000Y17250000D01*
X16539619Y17056000D02*
X16597119Y17113500D01*
D68*
X12495552Y17232000D02*
X12428552Y17299000D01*
X12428552Y17299000D02*
X11095709Y17299000D01*
D71*
X18042710Y17113500D02*
X18145210Y17216000D01*
D68*
X31418238Y17250000D02*
X20480000Y17250000D01*
X36713000Y28873000D02*
X36740000Y28900000D01*
D71*
X16597119Y17113500D02*
X18042710Y17113500D01*
D68*
X33364470Y15303768D02*
X31418238Y17250000D01*
X22441792Y32862000D02*
X22511792Y32932000D01*
X46643768Y15303768D02*
X33364470Y15303768D01*
X36740000Y28900000D02*
X36740000Y29700000D01*
X17379344Y32862000D02*
X22441792Y32862000D01*
X47400000Y16060000D02*
X46643768Y15303768D01*
D71*
X18145210Y17216000D02*
X20446000Y17216000D01*
D68*
X10794709Y17600000D02*
X9700000Y17600000D01*
X8100000Y23582656D02*
X17379344Y32862000D01*
X32237000Y28873000D02*
X36713000Y28873000D01*
X8920896Y17600000D02*
X8100000Y18420896D01*
X8100000Y18420896D02*
X8100000Y23582656D01*
D71*
X12495552Y17232000D02*
X13188790Y17232000D01*
D68*
%TO.N,/E-Ink display/VGL*%
X9700000Y14100000D02*
X12000000Y14100000D01*
X12000000Y14100000D02*
X12600000Y13500000D01*
%TO.N,Net-(D12-A)*%
X16323000Y12989500D02*
X15412500Y13900000D01*
X13800000Y7962500D02*
X14145659Y7962500D01*
X14145659Y7962500D02*
X16323000Y10139841D01*
X17640000Y15840000D02*
X15370000Y15840000D01*
X15370000Y15840000D02*
X15220000Y15690000D01*
X16323000Y10139841D02*
X16323000Y12989500D01*
X15220000Y15690000D02*
X15220000Y14092500D01*
X15220000Y14092500D02*
X15412500Y13900000D01*
D69*
%TO.N,Net-(D10-A)*%
X22425000Y20835000D02*
X22470000Y20790000D01*
X17640000Y18790000D02*
X19685000Y20835000D01*
X19960000Y20835000D02*
X22425000Y20835000D01*
X19685000Y20835000D02*
X19960000Y20835000D01*
D68*
%TO.N,/E-Ink display/PREVGH*%
X12600000Y22288000D02*
X12288000Y22600000D01*
X15220000Y19766841D02*
X15163000Y19823842D01*
X15220000Y18990000D02*
X15220000Y19766841D01*
X13157000Y21731000D02*
X12600000Y22288000D01*
X13852016Y21731000D02*
X13157000Y21731000D01*
X15163000Y19823842D02*
X15163000Y20420016D01*
X15163000Y20420016D02*
X13852016Y21731000D01*
X12288000Y22600000D02*
X9700000Y22600000D01*
%TO.N,/WAKEUP*%
X48702530Y10923000D02*
X50284765Y12505235D01*
X51810000Y18720000D02*
X51810000Y19465126D01*
X48115054Y18947000D02*
X48808042Y18947000D01*
X48115054Y10923000D02*
X48702530Y10923000D01*
X48808042Y18947000D02*
X49113663Y18641379D01*
X47900000Y18731946D02*
X47900000Y13538054D01*
X47903000Y11135054D02*
X48115054Y10923000D01*
X47903000Y13535054D02*
X47903000Y11135054D01*
X47900000Y13538054D02*
X47903000Y13535054D01*
X47900000Y18731946D02*
X48115054Y18947000D01*
X51810000Y19465126D02*
X51329231Y19945895D01*
%TO.N,+BATT*%
X47300000Y30282000D02*
X47300000Y30740002D01*
D67*
X63254648Y5186945D02*
X63254648Y2535352D01*
D68*
X64753000Y32115709D02*
X64753000Y33267000D01*
D67*
X75544000Y11663732D02*
X75544000Y13070709D01*
X71662974Y1387000D02*
X72455974Y2180000D01*
D68*
X45744000Y28726000D02*
X47300000Y30282000D01*
D67*
X65260000Y5620000D02*
X63594209Y5620000D01*
X65260000Y5620000D02*
X65675000Y5620000D01*
X73320000Y2648629D02*
X73320000Y3044026D01*
D68*
X40150000Y23132000D02*
X40150000Y20530000D01*
D67*
X72851371Y2180000D02*
X73320000Y2648629D01*
X63594209Y5620000D02*
X62330709Y6883500D01*
X72830000Y27550000D02*
X71430000Y27550000D01*
X65675000Y5620000D02*
X67195000Y4100000D01*
X63594209Y5620000D02*
X63594209Y5526506D01*
D68*
X48699000Y34520000D02*
X47280000Y33101000D01*
D67*
X75446000Y24934000D02*
X72830000Y27550000D01*
X72455974Y2180000D02*
X72851371Y2180000D01*
X63594209Y5526506D02*
X63254648Y5186945D01*
X74677000Y10796732D02*
X75544000Y11663732D01*
X63254648Y2535352D02*
X64403000Y1387000D01*
X65265000Y5625000D02*
X65260000Y5620000D01*
X75544000Y13070709D02*
X75446000Y13168710D01*
D68*
X67341709Y29527000D02*
X64753000Y32115709D01*
X45744000Y28726000D02*
X40150000Y23132000D01*
D67*
X74677000Y4081026D02*
X74677000Y10796732D01*
D68*
X71430000Y27550000D02*
X71430000Y29300000D01*
D67*
X73630000Y3034026D02*
X74677000Y4081026D01*
D68*
X63500000Y34520000D02*
X48699000Y34520000D01*
D67*
X75446000Y13168710D02*
X75446000Y24934000D01*
D68*
X64753000Y33267000D02*
X63500000Y34520000D01*
D67*
X64403000Y1387000D02*
X71662974Y1387000D01*
D68*
X71203000Y29527000D02*
X67341709Y29527000D01*
X71430000Y29300000D02*
X71203000Y29527000D01*
%TO.N,/BUTTON0*%
X57359000Y13209020D02*
X57359000Y12838326D01*
X2800000Y10860000D02*
X11864000Y1796000D01*
X49326770Y9235000D02*
X42435000Y9235000D01*
X56862342Y13705678D02*
X57359000Y13209020D01*
X57359000Y12838326D02*
X54096674Y9576000D01*
X54096674Y9576000D02*
X52576261Y9576000D01*
X52455261Y9697000D02*
X49788770Y9697000D01*
X31436000Y1796000D02*
X33181000Y3541000D01*
X41070000Y7230000D02*
X41070000Y7870000D01*
X11864000Y1796000D02*
X31436000Y1796000D01*
X2800000Y29600000D02*
X2800000Y10860000D01*
X41070000Y7870000D02*
X41580000Y8380000D01*
X35629187Y3541000D02*
X38771187Y6683000D01*
X40523000Y6683000D02*
X41070000Y7230000D01*
X49788770Y9697000D02*
X49326770Y9235000D01*
X42435000Y9235000D02*
X41580000Y8380000D01*
X52576261Y9576000D02*
X52455261Y9697000D01*
X38771187Y6683000D02*
X40523000Y6683000D01*
X33181000Y3541000D02*
X35629187Y3541000D01*
%TO.N,Net-(D2-A)*%
X35957774Y11661000D02*
X47189000Y11661000D01*
X30166774Y5870000D02*
X35957774Y11661000D01*
X23365000Y5870000D02*
X30166774Y5870000D01*
X47189000Y11661000D02*
X47380000Y11470000D01*
X22895000Y5400000D02*
X23365000Y5870000D01*
%TO.N,Net-(D4-A)*%
X47400000Y12620000D02*
X26540000Y12620000D01*
X26540000Y12620000D02*
X19320000Y5400000D01*
%TO.N,/E-Ink display/GDR*%
X11170000Y13100000D02*
X9700000Y13100000D01*
X13156159Y8873000D02*
X12223000Y8873000D01*
X14120659Y9837500D02*
X13156159Y8873000D01*
X11290000Y9806000D02*
X11290000Y12980000D01*
X12223000Y8873000D02*
X11290000Y9806000D01*
X11290000Y12980000D02*
X11170000Y13100000D01*
X14750000Y9837500D02*
X14120659Y9837500D01*
%TO.N,/E-Ink display/RESE*%
X13000000Y11900000D02*
X13000000Y9987500D01*
X11300000Y13600000D02*
X13000000Y11900000D01*
X9700000Y13600000D02*
X11300000Y13600000D01*
X13000000Y9987500D02*
X12850000Y9837500D01*
%TO.N,Net-(D7-K)*%
X64710000Y4127500D02*
X65967500Y4127500D01*
X65967500Y4127500D02*
X65980000Y4140000D01*
%TO.N,Net-(D8-K)*%
X72590000Y6137500D02*
X72590000Y7230000D01*
X72620000Y7260000D02*
X72590000Y7230000D01*
X72620000Y7500000D02*
X72620000Y7260000D01*
%TO.N,/SCLK*%
X31680000Y18558313D02*
X31680000Y18620000D01*
X11543000Y18647000D02*
X9747000Y18647000D01*
D71*
X18174790Y17724000D02*
X16324790Y17724000D01*
X16324790Y17724000D02*
X16223790Y17623000D01*
D68*
X31900000Y23060000D02*
X37740000Y28900000D01*
D71*
X12520632Y18647000D02*
X11543000Y18647000D01*
X19083171Y17744000D02*
X18194790Y17744000D01*
X19959171Y18620000D02*
X19083171Y17744000D01*
D68*
X9747000Y18647000D02*
X9700000Y18600000D01*
X47400000Y18400000D02*
X45553000Y16553000D01*
D71*
X13544632Y17623000D02*
X12520632Y18647000D01*
X18194790Y17744000D02*
X18174790Y17724000D01*
D68*
X33685313Y16553000D02*
X31680000Y18558313D01*
X31860000Y18800000D02*
X31860000Y19170000D01*
X31680000Y18620000D02*
X20630000Y18620000D01*
D71*
X16223790Y17623000D02*
X13544632Y17623000D01*
D68*
X45553000Y16553000D02*
X33685313Y16553000D01*
X31680000Y18620000D02*
X31860000Y18800000D01*
D71*
X20630000Y18620000D02*
X19959171Y18620000D01*
D68*
X31900000Y20400000D02*
X31900000Y23060000D01*
X37740000Y28900000D02*
X37740000Y29700000D01*
%TO.N,/MOSI*%
X12426842Y19100000D02*
X9700000Y19100000D01*
D71*
X15959094Y17886000D02*
X13640842Y17886000D01*
D68*
X33020000Y17680761D02*
X33020000Y19780000D01*
D71*
X20279582Y19780000D02*
X18497582Y17998000D01*
X16061094Y17988000D02*
X15959094Y17886000D01*
D68*
X45029999Y16880000D02*
X33820761Y16880000D01*
X33820761Y16880000D02*
X33020000Y17680761D01*
X38240000Y27567424D02*
X38240000Y29700000D01*
X47400000Y19250001D02*
X45029999Y16880000D01*
D71*
X18497582Y17998000D02*
X18089580Y17998000D01*
D68*
X47400000Y19570000D02*
X47400000Y19250001D01*
D71*
X13640842Y17886000D02*
X12426842Y19100000D01*
X18089580Y17998000D02*
X18079580Y17988000D01*
D68*
X33020000Y19780000D02*
X20279582Y19780000D01*
D71*
X18079580Y17988000D02*
X16061094Y17988000D01*
D68*
X33020000Y19780000D02*
X33020000Y22347424D01*
X33020000Y22347424D02*
X38240000Y27567424D01*
%TO.N,/PB7*%
X54180416Y31664341D02*
X47837346Y31664341D01*
X46965896Y31797000D02*
X43324896Y28156000D01*
X47704687Y31797000D02*
X46965896Y31797000D01*
X58276555Y21360109D02*
X59277000Y22360554D01*
X39740000Y28900000D02*
X39740000Y29700000D01*
X59277000Y26567757D02*
X54180416Y31664341D01*
X47837346Y31664341D02*
X47704687Y31797000D01*
X43324896Y28156000D02*
X40484000Y28156000D01*
X40484000Y28156000D02*
X39740000Y28900000D01*
X59277000Y22360554D02*
X59277000Y26567757D01*
%TO.N,/PB8*%
X58039385Y22799385D02*
X58950000Y23710000D01*
X43460344Y27829000D02*
X40311000Y27829000D01*
X47569239Y31470000D02*
X47101344Y31470000D01*
X57569449Y22067215D02*
X58039385Y22537151D01*
X40311000Y27829000D02*
X39240000Y28900000D01*
X47701898Y31337341D02*
X47569239Y31470000D01*
X58039385Y22537151D02*
X58039385Y22799385D01*
X58950000Y23710000D02*
X58950000Y26432309D01*
X58950000Y26432309D02*
X54044968Y31337341D01*
X47101344Y31470000D02*
X43460344Y27829000D01*
X39240000Y28900000D02*
X39240000Y29700000D01*
X54044968Y31337341D02*
X47701898Y31337341D01*
%TO.N,/BUTTON1*%
X53722126Y8274574D02*
X51867238Y8274574D01*
X58013000Y12895448D02*
X58013000Y12624552D01*
X58084000Y13898234D02*
X58084000Y12966448D01*
X58028361Y12609191D02*
X58028361Y12580809D01*
X58028361Y12580809D02*
X53722126Y8274574D01*
X39191758Y5847000D02*
X36231758Y2887000D01*
X51867238Y8274574D02*
X51788812Y8353000D01*
X45050000Y7870000D02*
X45560000Y8380000D01*
X45587000Y8353000D02*
X45560000Y8380000D01*
X45050000Y7230000D02*
X45050000Y7870000D01*
X32706709Y972000D02*
X8928000Y972000D01*
X36231758Y2887000D02*
X34621709Y2887000D01*
X57569449Y14412785D02*
X58084000Y13898234D01*
X8928000Y972000D02*
X2800000Y7100000D01*
X51788812Y8353000D02*
X45587000Y8353000D01*
X58013000Y12624552D02*
X58028361Y12609191D01*
X58084000Y12966448D02*
X58013000Y12895448D01*
X43667000Y5847000D02*
X39191758Y5847000D01*
X45050000Y7230000D02*
X43667000Y5847000D01*
X34621709Y2887000D02*
X32706709Y972000D01*
%TO.N,/BUTTON2*%
X35208972Y7230000D02*
X39080000Y7230000D01*
X7803000Y10684552D02*
X16224552Y2263000D01*
X40772000Y9562000D02*
X39590000Y8380000D01*
X7628552Y12225448D02*
X7464552Y12225448D01*
X39080000Y7870000D02*
X39590000Y8380000D01*
X49653322Y10024000D02*
X49191322Y9562000D01*
X30241972Y2263000D02*
X35208972Y7230000D01*
X56508788Y13352124D02*
X56508788Y12453497D01*
X56508788Y12453497D02*
X53958291Y9903000D01*
X52590709Y10024000D02*
X49653322Y10024000D01*
X4540000Y15150000D02*
X7464552Y12225448D01*
X49191322Y9562000D02*
X40772000Y9562000D01*
X52711709Y9903000D02*
X52590709Y10024000D01*
X7803000Y12051000D02*
X7628552Y12225448D01*
X53958291Y9903000D02*
X52711709Y9903000D01*
X4540000Y34320000D02*
X4540000Y15150000D01*
X16224552Y2263000D02*
X30241972Y2263000D01*
X7803000Y10684552D02*
X7803000Y12051000D01*
X39080000Y7230000D02*
X39080000Y7870000D01*
%TO.N,/BUTTON3*%
X78325000Y33195000D02*
X78325000Y30195000D01*
X39056310Y6174000D02*
X36096310Y3214000D01*
X76577000Y25752420D02*
X76377000Y25552420D01*
X43060000Y7870000D02*
X43570000Y8380000D01*
X54234104Y9249000D02*
X57686000Y12700896D01*
X600000Y30190000D02*
X600000Y33090000D01*
X33944000Y3214000D02*
X32029000Y1299000D01*
X52440813Y9249000D02*
X54234104Y9249000D01*
X43060000Y7230000D02*
X43060000Y6910000D01*
X44098000Y8908000D02*
X49462218Y8908000D01*
X42324000Y6174000D02*
X39056310Y6174000D01*
X57686000Y12700896D02*
X57686000Y13589126D01*
X2327000Y28463000D02*
X600000Y30190000D01*
X43060000Y7230000D02*
X43060000Y7870000D01*
X78325000Y30195000D02*
X76577000Y28447000D01*
X36096310Y3214000D02*
X33944000Y3214000D01*
X76377000Y25552420D02*
X76377000Y13516159D01*
X43060000Y6910000D02*
X42324000Y6174000D01*
X76377000Y13516159D02*
X76648000Y13245159D01*
X600000Y33090000D02*
X3610000Y36100000D01*
X76200000Y3866726D02*
X76200000Y2900000D01*
X78325000Y6699580D02*
X78325000Y5775000D01*
X76648000Y8376580D02*
X78325000Y6699580D01*
X78325000Y5775000D02*
X77750000Y5200000D01*
X77750000Y5200000D02*
X77533274Y5200000D01*
X3610000Y36100000D02*
X75420000Y36100000D01*
X76648000Y13245159D02*
X76648000Y8376580D01*
X75420000Y36100000D02*
X78325000Y33195000D01*
X52319813Y9370000D02*
X52440813Y9249000D01*
X2327000Y9303000D02*
X2327000Y28463000D01*
X49924218Y9370000D02*
X52319813Y9370000D01*
X32029000Y1299000D02*
X10331000Y1299000D01*
X43570000Y8380000D02*
X44098000Y8908000D01*
X10331000Y1299000D02*
X2327000Y9303000D01*
X77533274Y5200000D02*
X76200000Y3866726D01*
X49462218Y8908000D02*
X49924218Y9370000D01*
X76577000Y28447000D02*
X76577000Y25752420D01*
X57686000Y13589126D02*
X57215895Y14059231D01*
%TO.N,/SERIAL_TX*%
X52980613Y13942847D02*
X52768189Y13942847D01*
X47979606Y10596000D02*
X47652606Y10923000D01*
X47007000Y10923000D02*
X46596000Y11334000D01*
X49855342Y11030000D02*
X49271978Y11030000D01*
X48837978Y10596000D02*
X48788448Y10596000D01*
X5323000Y16219448D02*
X5323000Y29630552D01*
X49271978Y11030000D02*
X48837978Y10596000D01*
X48735448Y10543000D02*
X48144552Y10543000D01*
X48091552Y10596000D02*
X47979606Y10596000D01*
X29640000Y4720000D02*
X15767684Y4720000D01*
X8607000Y11880684D02*
X8607000Y12935448D01*
X9838436Y34145988D02*
X32768436Y34145988D01*
X48144552Y10543000D02*
X48091552Y10596000D01*
X5323000Y29630552D02*
X9838436Y34145988D01*
X8607000Y12935448D02*
X5323000Y16219448D01*
X15767684Y4720000D02*
X8607000Y11880684D01*
X48788448Y10596000D02*
X48735448Y10543000D01*
X41240000Y30500000D02*
X41240000Y29700000D01*
X32768436Y34145988D02*
X33026448Y34404000D01*
X37336000Y34404000D02*
X41240000Y30500000D01*
X53450551Y14412785D02*
X52980613Y13942847D01*
X46596000Y11334000D02*
X36254000Y11334000D01*
X52768189Y13942847D02*
X49855342Y11030000D01*
X47652606Y10923000D02*
X47007000Y10923000D01*
X33026448Y34404000D02*
X37336000Y34404000D01*
X36254000Y11334000D02*
X29640000Y4720000D01*
%TO.N,/LED0*%
X48420000Y12620000D02*
X49613049Y13813049D01*
X51436603Y13813049D02*
X52743445Y15119891D01*
X49613049Y13813049D02*
X51436603Y13813049D01*
%TO.N,/SERIAL_RX*%
X41740000Y29700000D02*
X41740000Y30286156D01*
X53334168Y13589294D02*
X53804105Y14059231D01*
X48923896Y10269000D02*
X48973426Y10269000D01*
X29280000Y2670000D02*
X30903000Y4293000D01*
X46224000Y10596000D02*
X47517158Y10596000D01*
X8280000Y12036448D02*
X8280000Y11070000D01*
X47844158Y10269000D02*
X47956104Y10269000D01*
X4996000Y15320448D02*
X8280000Y12036448D01*
X48009104Y10216000D02*
X48870896Y10216000D01*
X30903000Y4293000D02*
X30907656Y4293000D01*
X48973426Y10269000D02*
X49407426Y10703000D01*
X41573524Y30452632D02*
X41573524Y30946476D01*
X41740000Y30286156D02*
X41573524Y30452632D01*
X47517158Y10596000D02*
X47844158Y10269000D01*
X9532988Y34472988D02*
X4996000Y29936000D01*
X49990790Y10703000D02*
X52877084Y13589294D01*
X48870896Y10216000D02*
X48923896Y10269000D01*
X37789000Y34731000D02*
X32891000Y34731000D01*
X37621656Y11007000D02*
X45813000Y11007000D01*
X16680000Y2670000D02*
X29280000Y2670000D01*
X8280000Y11070000D02*
X16680000Y2670000D01*
X4996000Y29936000D02*
X4996000Y15320448D01*
X30907656Y4293000D02*
X37621656Y11007000D01*
X49407426Y10703000D02*
X49990790Y10703000D01*
X32891000Y34731000D02*
X32632988Y34472988D01*
X41573524Y30946476D02*
X37789000Y34731000D01*
X32632988Y34472988D02*
X9532988Y34472988D01*
X45813000Y11007000D02*
X46224000Y10596000D01*
X47956104Y10269000D02*
X48009104Y10216000D01*
X52877084Y13589294D02*
X53334168Y13589294D01*
%TO.N,/SWDCLK*%
X44780000Y4620000D02*
X47920000Y4620000D01*
X47920000Y4620000D02*
X51130000Y7830000D01*
%TO.N,/SWDIO*%
X49785725Y3820000D02*
X50470000Y3820000D01*
X48045725Y2080000D02*
X49785725Y3820000D01*
X48045725Y2080000D02*
X44780000Y2080000D01*
%TO.N,/LED1*%
X51816709Y13486049D02*
X53096998Y14766338D01*
X48400000Y11666281D02*
X50219768Y13486049D01*
X48400000Y11470000D02*
X48400000Y11666281D01*
X50219768Y13486049D02*
X51816709Y13486049D01*
%TO.N,/NRST*%
X55387000Y13765464D02*
X55387000Y15267000D01*
X52859827Y20536619D02*
X53652961Y20536619D01*
X39700000Y2080000D02*
X40927000Y3307000D01*
X42967709Y3307000D02*
X43021709Y3253000D01*
X55387000Y15267000D02*
X55506309Y15386309D01*
X53652961Y20536619D02*
X54315380Y21199038D01*
X55334702Y13713166D02*
X55387000Y13765464D01*
X55227002Y12797002D02*
X55334702Y12904702D01*
X55334702Y12904702D02*
X55334702Y13713166D01*
X52389891Y21006555D02*
X52859827Y20536619D01*
X48125000Y22365000D02*
X51069631Y22365000D01*
X43512291Y3307000D02*
X48105055Y3307000D01*
X55227002Y12235775D02*
X55227002Y12797002D01*
X43021709Y3253000D02*
X43458291Y3253000D01*
X40927000Y3307000D02*
X42967709Y3307000D01*
X47930000Y22170000D02*
X48125000Y22365000D01*
X43458291Y3253000D02*
X43512291Y3307000D01*
X54071227Y11080000D02*
X55227002Y12235775D01*
X51069631Y22365000D02*
X52389891Y21044740D01*
X55506309Y15386309D02*
X55506309Y20362659D01*
X52498055Y7700000D02*
X52610000Y7700000D01*
X48105055Y3307000D02*
X52498055Y7700000D01*
X53580000Y11080000D02*
X54071227Y11080000D01*
X52389891Y21044740D02*
X52389891Y21006555D01*
%TO.N,/Power/CC1*%
X74642000Y12272000D02*
X74642000Y16043000D01*
X74570000Y12200000D02*
X74642000Y12272000D01*
X73585000Y17100000D02*
X72765000Y17100000D01*
X74642000Y16043000D02*
X73585000Y17100000D01*
%TO.N,/Power/CC2*%
X72765000Y20100000D02*
X73699594Y20100000D01*
X74642000Y21042406D02*
X74642000Y24148000D01*
X74642000Y24148000D02*
X74360000Y24430000D01*
X73699594Y20100000D02*
X74642000Y21042406D01*
%TO.N,Net-(U3-~{STDBY})*%
X65980000Y3120000D02*
X66652000Y2448000D01*
X68078000Y2448000D02*
X68465000Y2835000D01*
X66652000Y2448000D02*
X68078000Y2448000D01*
X68465000Y2835000D02*
X68465000Y4100000D01*
%TO.N,Net-(U3-~{CHRG})*%
X73860000Y6770000D02*
X73640000Y6990000D01*
X71870000Y3249239D02*
X72250761Y3630000D01*
X73088946Y3630000D02*
X73860000Y4401054D01*
X69962000Y2448000D02*
X71525552Y2448000D01*
X71525552Y2448000D02*
X71870000Y2792448D01*
X73860000Y4401054D02*
X73860000Y6770000D01*
X69735000Y4100000D02*
X69735000Y2675000D01*
X69735000Y2675000D02*
X69962000Y2448000D01*
X72250761Y3630000D02*
X73088946Y3630000D01*
X71870000Y2792448D02*
X71870000Y3249239D01*
X73640000Y6990000D02*
X73640000Y7500000D01*
%TO.N,Net-(U3-TEMP)*%
X39505688Y19050000D02*
X40647000Y20191312D01*
X66060000Y22980000D02*
X66060000Y22630000D01*
X74421946Y25200000D02*
X74969000Y24652946D01*
X66060000Y22980000D02*
X64040000Y25000000D01*
X40647000Y20191312D02*
X40647000Y21957761D01*
X66060000Y22630000D02*
X66060000Y22060000D01*
X48460000Y29770761D02*
X48460000Y30687341D01*
X64040000Y25000000D02*
X64040000Y33340000D01*
X74969000Y24652946D02*
X74969000Y12632945D01*
X49275000Y33975000D02*
X48230000Y32930000D01*
X74858688Y11653000D02*
X72052000Y11653000D01*
X74969000Y12632945D02*
X75067000Y12534945D01*
X63405000Y33975000D02*
X49275000Y33975000D01*
X64040000Y33340000D02*
X63405000Y33975000D01*
X72052000Y11653000D02*
X71315000Y12390000D01*
X72600001Y25200000D02*
X74421946Y25200000D01*
X36576000Y19050000D02*
X39505688Y19050000D01*
X66060000Y22630000D02*
X70030001Y22630000D01*
X40647000Y21957761D02*
X48460000Y29770761D01*
X75067000Y12534945D02*
X75067000Y11861312D01*
X70030001Y22630000D02*
X72600001Y25200000D01*
X75067000Y11861312D02*
X74858688Y11653000D01*
%TO.N,/VBAT_MEAS*%
X50124020Y20444000D02*
X50975678Y19592342D01*
X46335000Y19799393D02*
X46979607Y20444000D01*
X46335000Y19740000D02*
X46335000Y19799393D01*
X44710000Y21365000D02*
X44710000Y21650000D01*
X46979607Y20444000D02*
X50124020Y20444000D01*
X46335000Y19740000D02*
X44710000Y21365000D01*
%TO.N,Net-(Q1-G)*%
X44200000Y19240000D02*
X44710000Y19750000D01*
X43245000Y18425000D02*
X44200000Y18425000D01*
X44200000Y18425000D02*
X44200000Y19240000D01*
%TO.N,Net-(Q1-D)*%
X42665000Y20530000D02*
X42835000Y20700000D01*
X41170000Y20530000D02*
X42665000Y20530000D01*
%TO.N,/VBAT_MEAS_EN*%
X49743912Y20117000D02*
X47115055Y20117000D01*
X46900000Y19901945D02*
X46900000Y19473055D01*
X47115055Y20117000D02*
X46900000Y19901945D01*
X46900000Y19473055D02*
X45851945Y18425000D01*
X50622124Y19238788D02*
X49743912Y20117000D01*
X45851945Y18425000D02*
X45220000Y18425000D01*
%TO.N,/VBUS_PRESENT*%
X54157658Y22774322D02*
X55080000Y21851980D01*
X59220832Y19475958D02*
X57429966Y19475958D01*
X55080000Y21851980D02*
X55080000Y21519998D01*
X61019376Y21576102D02*
X61686637Y22243363D01*
X61019376Y21170624D02*
X60915498Y21170624D01*
X57429966Y19475958D02*
X56053964Y20851960D01*
X59690769Y19945895D02*
X59220832Y19475958D01*
X61019376Y21170624D02*
X61019376Y21576102D01*
X60915498Y21170624D02*
X59690769Y19945895D01*
%TO.N,/Power/USB_IN_D+*%
X73665418Y19100000D02*
X73692418Y19127000D01*
X73641724Y18100000D02*
X73693000Y18048724D01*
X71758751Y18125000D02*
X71809999Y18125000D01*
X72765000Y18100000D02*
X73641724Y18100000D01*
X70040000Y17400000D02*
X71033751Y17400000D01*
X72765000Y19100000D02*
X73665418Y19100000D01*
X71809999Y18125000D02*
X71834999Y18100000D01*
X71834999Y18100000D02*
X72765000Y18100000D01*
X71033751Y17400000D02*
X71758751Y18125000D01*
%TO.N,/Power/USB_IN_D-*%
X74220000Y18269999D02*
X74220000Y17830000D01*
X73889999Y18600000D02*
X74220000Y18269999D01*
X73911724Y17521724D02*
X72843276Y17521724D01*
X74220000Y17830000D02*
X73911724Y17521724D01*
X72765000Y18600000D02*
X73889999Y18600000D01*
X71033751Y19300000D02*
X71758751Y18575000D01*
X71809999Y18575000D02*
X71834999Y18600000D01*
X72843276Y17521724D02*
X72765000Y17600000D01*
X71758751Y18575000D02*
X71809999Y18575000D01*
X71834999Y18600000D02*
X72765000Y18600000D01*
X70040000Y19300000D02*
X71033751Y19300000D01*
D71*
%TO.N,/USB_D-*%
X65948249Y18477000D02*
X60117628Y18477000D01*
X58373000Y17102606D02*
X58373000Y16611607D01*
X66771249Y19300000D02*
X65948249Y18477000D01*
X60117628Y18477000D02*
X60092425Y18451797D01*
X58983662Y16000945D02*
X58983662Y15826998D01*
X60092425Y18451797D02*
X59722191Y18451797D01*
X59722191Y18451797D02*
X58373000Y17102606D01*
X67765000Y19300000D02*
X66771249Y19300000D01*
X58373000Y16611607D02*
X58983662Y16000945D01*
D68*
X58983662Y15826998D02*
X58983662Y15862352D01*
D71*
%TO.N,/USB_D+*%
X58627000Y16716819D02*
X58627000Y16997394D01*
X59337215Y16180551D02*
X59163268Y16180551D01*
D68*
X59337215Y16180551D02*
X59301861Y16180551D01*
D71*
X59827423Y18197817D02*
X60197627Y18197817D01*
X59163268Y16180551D02*
X58627000Y16716819D01*
X66771249Y17400000D02*
X67765000Y17400000D01*
X65948249Y18223000D02*
X66771249Y17400000D01*
X60222810Y18223000D02*
X65948249Y18223000D01*
X60197627Y18197817D02*
X60222810Y18223000D01*
X58627000Y16997394D02*
X59827423Y18197817D01*
D68*
%TO.N,Net-(U1-PA5)*%
X51799169Y17428177D02*
X51162643Y18064703D01*
X51329231Y16534105D02*
X51799169Y17004043D01*
X51162643Y18064703D02*
X48755297Y18064703D01*
X48755297Y18064703D02*
X48420000Y18400000D01*
X51799169Y17004043D02*
X51799169Y17428177D01*
%TO.N,Net-(U1-PA4)*%
X48420000Y16060000D02*
X50148020Y16060000D01*
X50148020Y16060000D02*
X50975678Y16887658D01*
%TO.N,Net-(U1-PA7)*%
X50151703Y18391703D02*
X48973406Y19570000D01*
X52506276Y17183518D02*
X51298091Y18391703D01*
X51298091Y18391703D02*
X50151703Y18391703D01*
X52506276Y16296936D02*
X52506276Y17183518D01*
X48973406Y19570000D02*
X48420000Y19570000D01*
X52036338Y15826998D02*
X52506276Y16296936D01*
%TO.N,Net-(U1-PA3)*%
X48420000Y17230000D02*
X50610912Y17230000D01*
X50610912Y17230000D02*
X50622124Y17241212D01*
%TO.N,/BUSY_DBG*%
X8900000Y16600000D02*
X5664000Y19836000D01*
X32903884Y33818988D02*
X33161896Y34077000D01*
X12020000Y16600000D02*
X12570000Y16050000D01*
X5664000Y19836000D02*
X5664000Y22169104D01*
X5664000Y22169104D02*
X17313884Y33818988D01*
X9700000Y16600000D02*
X8900000Y16600000D01*
X9700000Y16600000D02*
X12020000Y16600000D01*
X33161896Y34077000D02*
X35717000Y34077000D01*
X17313884Y33818988D02*
X32903884Y33818988D01*
X35717000Y34077000D02*
X37240000Y32554000D01*
X37240000Y32554000D02*
X37240000Y29700000D01*
%TO.N,Net-(R29-Pad2)*%
X4957000Y35330000D02*
X4550000Y35330000D01*
X76200000Y33800000D02*
X74227000Y35773000D01*
X74227000Y35773000D02*
X5400000Y35773000D01*
X5400000Y35773000D02*
X4957000Y35330000D01*
%TO.N,Net-(D1-K)*%
X45560000Y10480000D02*
X45771000Y10269000D01*
X49059344Y9942000D02*
X49108874Y9942000D01*
X39590000Y10480000D02*
X41580000Y10480000D01*
X49006344Y9889000D02*
X49059344Y9942000D01*
X49108874Y9942000D02*
X49542874Y10376000D01*
X47873656Y9889000D02*
X49006344Y9889000D01*
X45771000Y10269000D02*
X47381710Y10269000D01*
X49542874Y10376000D02*
X50736470Y10376000D01*
X39440000Y10330000D02*
X39590000Y10480000D01*
X47820656Y9942000D02*
X47873656Y9889000D01*
X43570000Y10480000D02*
X45560000Y10480000D01*
X47381710Y10269000D02*
X47708710Y9942000D01*
X41580000Y10480000D02*
X43570000Y10480000D01*
X47708710Y9942000D02*
X47820656Y9942000D01*
X37840000Y10330000D02*
X39440000Y10330000D01*
X50736470Y10376000D02*
X51575235Y11214765D01*
%TO.N,Net-(U1-PA6)*%
X48420000Y14890000D02*
X50392234Y14890000D01*
X50392234Y14890000D02*
X51682785Y16180551D01*
%TO.N,Net-(U1-PA13)*%
X60160706Y15192870D02*
X60477650Y14875926D01*
X51200000Y5290000D02*
X50920000Y5290000D01*
X60477650Y14567650D02*
X51200000Y5290000D01*
X59690769Y16534105D02*
X60160706Y16064168D01*
X50920000Y5290000D02*
X50470000Y4840000D01*
X60477650Y14875926D02*
X60477650Y14567650D01*
X60160706Y16064168D02*
X60160706Y15192870D01*
D71*
%TO.N,Net-(U1-PA14)*%
X55685298Y14885298D02*
X55685298Y12710398D01*
D68*
X55825010Y12570686D02*
X55825010Y12239314D01*
X55825010Y12239314D02*
X54135696Y10550000D01*
D71*
X59568852Y18768852D02*
X55685298Y14885298D01*
D68*
X55685298Y12710398D02*
X55825010Y12570686D01*
X60397876Y19238788D02*
X59927940Y18768852D01*
X52034574Y8850000D02*
X52083000Y8801574D01*
X54135696Y10550000D02*
X52790000Y10550000D01*
X59927940Y18768852D02*
X59568852Y18768852D01*
X51130000Y8850000D02*
X52034574Y8850000D01*
%TO.N,/PB5*%
X60198000Y27302000D02*
X55181659Y32318341D01*
X47975583Y32451000D02*
X46695000Y32451000D01*
X43117000Y28873000D02*
X40767000Y28873000D01*
X40740000Y28900000D02*
X40740000Y29700000D01*
X40767000Y28873000D02*
X40740000Y28900000D01*
X55181659Y32318341D02*
X48108242Y32318341D01*
X60198000Y21867340D02*
X60198000Y27302000D01*
X58983662Y20653002D02*
X60198000Y21867340D01*
X48108242Y32318341D02*
X47975583Y32451000D01*
X46695000Y32451000D02*
X43117000Y28873000D01*
%TO.N,/PB6*%
X59604000Y21980446D02*
X59604000Y26730896D01*
X40240000Y28900000D02*
X40240000Y29700000D01*
X46830448Y32124000D02*
X43189448Y28483000D01*
X40657000Y28483000D02*
X40240000Y28900000D01*
X54343555Y31991341D02*
X47972794Y31991341D01*
X58630109Y21006555D02*
X59604000Y21980446D01*
X47840135Y32124000D02*
X46830448Y32124000D01*
X59604000Y26730896D02*
X54343555Y31991341D01*
X43189448Y28483000D02*
X40657000Y28483000D01*
X47972794Y31991341D02*
X47840135Y32124000D01*
D71*
%TO.N,/~{CS}*%
X13498422Y17310000D02*
X16140000Y17310000D01*
X13026417Y17782005D02*
X13498422Y17310000D01*
X19168381Y17470000D02*
X19558381Y17860000D01*
X17937500Y17367500D02*
X18040000Y17470000D01*
D68*
X38740000Y22560000D02*
X34150000Y17970000D01*
X9700000Y18100000D02*
X11110000Y18100000D01*
D71*
X18040000Y17470000D02*
X19168381Y17470000D01*
X11110000Y18100000D02*
X11427995Y17782005D01*
D68*
X34150000Y17970000D02*
X34150000Y17450000D01*
X38740000Y29700000D02*
X38740000Y22560000D01*
X20710000Y17860000D02*
X31727477Y17860000D01*
X46123768Y15953768D02*
X33633709Y15953768D01*
X47400000Y17230000D02*
X46123768Y15953768D01*
D71*
X16140000Y17310000D02*
X16197500Y17367500D01*
X11427995Y17782005D02*
X13026417Y17782005D01*
X19558381Y17860000D02*
X20710000Y17860000D01*
D68*
X31727477Y17860000D02*
X33633709Y15953768D01*
D71*
X16197500Y17367500D02*
X17937500Y17367500D01*
D69*
%TO.N,/E-Ink display/VCC*%
X16097000Y22468000D02*
X16439000Y22810000D01*
X9700000Y20100000D02*
X9700000Y19600000D01*
X16439000Y22810000D02*
X17000000Y22810000D01*
X15540000Y23025000D02*
X16097000Y22468000D01*
X10341738Y19600000D02*
X9700000Y19600000D01*
X17000000Y22810000D02*
X18040000Y22810000D01*
X15802936Y18263000D02*
X13797000Y18263000D01*
X16097000Y18557064D02*
X15802936Y18263000D01*
X12547000Y19513000D02*
X10428738Y19513000D01*
X13797000Y18263000D02*
X12547000Y19513000D01*
X16097000Y22468000D02*
X16097000Y18557064D01*
X10428738Y19513000D02*
X10341738Y19600000D01*
D68*
%TO.N,Net-(U1-PB0)*%
X51056495Y14140049D02*
X52389891Y15473445D01*
X48420000Y13850000D02*
X48710049Y14140049D01*
X48710049Y14140049D02*
X51056495Y14140049D01*
%TD*%
%TA.AperFunction,Conductor*%
%TO.N,+3V0*%
G36*
X54671035Y20398600D02*
G01*
X54703263Y20336608D01*
X54704805Y20326608D01*
X54720939Y20183409D01*
X54720940Y20183405D01*
X54780520Y20013136D01*
X54876494Y19860396D01*
X54878754Y19857562D01*
X54879643Y19855384D01*
X54880198Y19854501D01*
X54880043Y19854404D01*
X54905164Y19792876D01*
X54905809Y19780247D01*
X54905809Y15668422D01*
X54886124Y15601383D01*
X54880185Y15592936D01*
X54867188Y15575998D01*
X54862465Y15569845D01*
X54862465Y15569844D01*
X54801956Y15423763D01*
X54801955Y15423761D01*
X54781318Y15267002D01*
X54781318Y15267001D01*
X54785969Y15231674D01*
X54786500Y15223572D01*
X54786500Y15122520D01*
X54766815Y15055481D01*
X54714011Y15009726D01*
X54644853Y14999782D01*
X54587013Y15024144D01*
X54557537Y15046762D01*
X54509763Y15083421D01*
X54509760Y15083422D01*
X54503315Y15088368D01*
X54505181Y15090801D01*
X54482131Y15113868D01*
X54479690Y15111994D01*
X54405653Y15208479D01*
X54405646Y15208487D01*
X54246253Y15367880D01*
X54246244Y15367888D01*
X54149761Y15441923D01*
X54151627Y15444356D01*
X54128577Y15467422D01*
X54126136Y15465548D01*
X54052100Y15562032D01*
X54052093Y15562040D01*
X53892700Y15721433D01*
X53892691Y15721441D01*
X53796208Y15795476D01*
X53798074Y15797909D01*
X53775024Y15820975D01*
X53772583Y15819101D01*
X53718614Y15889434D01*
X53698548Y15915584D01*
X53698547Y15915585D01*
X53698540Y15915593D01*
X53539147Y16074986D01*
X53539138Y16074994D01*
X53442655Y16149029D01*
X53444521Y16151462D01*
X53421471Y16174528D01*
X53419030Y16172654D01*
X53344993Y16269139D01*
X53271465Y16342667D01*
X53185584Y16428548D01*
X53185579Y16428552D01*
X53155287Y16451797D01*
X53114086Y16508226D01*
X53106776Y16550171D01*
X53106776Y17140090D01*
X53107307Y17148192D01*
X53111958Y17183519D01*
X53111958Y17183520D01*
X53091320Y17340279D01*
X53091320Y17340280D01*
X53030812Y17486359D01*
X53016619Y17504856D01*
X52934558Y17611800D01*
X52906281Y17633498D01*
X52900180Y17638849D01*
X52464003Y18075026D01*
X52430518Y18136349D01*
X52435502Y18206041D01*
X52446691Y18228680D01*
X52535788Y18370476D01*
X52535789Y18370478D01*
X52595368Y18540745D01*
X52604775Y18624234D01*
X52615565Y18719997D01*
X52615565Y18720004D01*
X52595369Y18899250D01*
X52595366Y18899263D01*
X52551093Y19025788D01*
X52547531Y19095567D01*
X52582259Y19156194D01*
X52644253Y19188422D01*
X52682016Y19189963D01*
X52738565Y19183592D01*
X52817761Y19174668D01*
X52817764Y19174668D01*
X52817768Y19174668D01*
X52997013Y19194864D01*
X52997016Y19194865D01*
X52997019Y19194865D01*
X53167286Y19254444D01*
X53320026Y19350417D01*
X53447580Y19477971D01*
X53543553Y19630711D01*
X53603132Y19800978D01*
X53606384Y19829842D01*
X53633449Y19894253D01*
X53691043Y19933810D01*
X53713412Y19938896D01*
X53809723Y19951575D01*
X53955802Y20012083D01*
X53960539Y20015718D01*
X54081243Y20108337D01*
X54102944Y20136620D01*
X54108272Y20142697D01*
X54333915Y20368340D01*
X54395236Y20401823D01*
X54407691Y20403875D01*
X54494635Y20413670D01*
X54540632Y20429766D01*
X54610407Y20433328D01*
X54671035Y20398600D01*
G37*
%TD.AperFunction*%
%TD*%
M02*
