%TF.GenerationSoftware,KiCad,Pcbnew,7.0.8*%
%TF.CreationDate,2023-11-13T19:56:10+01:00*%
%TF.ProjectId,USB E-Paper thing,55534220-452d-4506-9170-657220746869,rev?*%
%TF.SameCoordinates,Original*%
%TF.FileFunction,Legend,Bot*%
%TF.FilePolarity,Positive*%
%FSLAX46Y46*%
G04 Gerber Fmt 4.6, Leading zero omitted, Abs format (unit mm)*
G04 Created by KiCad (PCBNEW 7.0.8) date 2023-11-13 19:56:10*
%MOMM*%
%LPD*%
G01*
G04 APERTURE LIST*
G04 Aperture macros list*
%AMRoundRect*
0 Rectangle with rounded corners*
0 $1 Rounding radius*
0 $2 $3 $4 $5 $6 $7 $8 $9 X,Y pos of 4 corners*
0 Add a 4 corners polygon primitive as box body*
4,1,4,$2,$3,$4,$5,$6,$7,$8,$9,$2,$3,0*
0 Add four circle primitives for the rounded corners*
1,1,$1+$1,$2,$3*
1,1,$1+$1,$4,$5*
1,1,$1+$1,$6,$7*
1,1,$1+$1,$8,$9*
0 Add four rect primitives between the rounded corners*
20,1,$1+$1,$2,$3,$4,$5,0*
20,1,$1+$1,$4,$5,$6,$7,0*
20,1,$1+$1,$6,$7,$8,$9,0*
20,1,$1+$1,$8,$9,$2,$3,0*%
G04 Aperture macros list end*
%ADD10C,0.950000*%
%ADD11C,1.600000*%
%ADD12C,0.800000*%
%ADD13R,1.700000X1.700000*%
%ADD14O,1.700000X1.700000*%
%ADD15C,0.650000*%
%ADD16O,2.100000X1.000000*%
%ADD17O,1.800000X1.000000*%
%ADD18RoundRect,0.250000X-0.350000X-0.625000X0.350000X-0.625000X0.350000X0.625000X-0.350000X0.625000X0*%
%ADD19O,1.200000X1.750000*%
G04 APERTURE END LIST*
%LPC*%
D10*
%TO.C,SW3*%
X77400000Y32800000D03*
X77400000Y30500000D03*
D11*
X77700000Y35400000D03*
X77700000Y27900000D03*
%TD*%
D12*
%TO.C,U3*%
X70410000Y8740000D03*
X69410000Y8740000D03*
X68410000Y8740000D03*
X70410000Y7740000D03*
X69410000Y7740000D03*
X68410000Y7740000D03*
%TD*%
D10*
%TO.C,SW4*%
X77400000Y6200000D03*
X77400000Y3900000D03*
D11*
X77700000Y8800000D03*
X77700000Y1300000D03*
%TD*%
D13*
%TO.C,J3*%
X44780000Y32560000D03*
D14*
X47320000Y32560000D03*
X49860000Y32560000D03*
X52400000Y32560000D03*
X54940000Y32560000D03*
X57480000Y32560000D03*
X60020000Y32560000D03*
X62560000Y32560000D03*
%TD*%
D10*
%TO.C,SW1*%
X1600000Y30500000D03*
X1600000Y32800000D03*
D11*
X1300000Y27900000D03*
X1300000Y35400000D03*
%TD*%
D10*
%TO.C,SW2*%
X1600000Y3900000D03*
X1600000Y6200000D03*
D11*
X1300000Y1300000D03*
X1300000Y8800000D03*
%TD*%
D15*
%TO.C,J6*%
X73885000Y15460000D03*
X73885000Y21240000D03*
D16*
X73365000Y14030000D03*
D17*
X77565000Y14030000D03*
D16*
X73365000Y22670000D03*
D17*
X77565000Y22670000D03*
%TD*%
D18*
%TO.C,J9*%
X22000000Y32560000D03*
D19*
X24000000Y32560000D03*
X26000000Y32560000D03*
X28000000Y32560000D03*
X30000000Y32560000D03*
X32000000Y32560000D03*
%TD*%
D13*
%TO.C,J8*%
X57480000Y4620000D03*
D14*
X54940000Y4620000D03*
%TD*%
D13*
%TO.C,J4*%
X34620000Y4620000D03*
D14*
X32080000Y4620000D03*
X29540000Y4620000D03*
X27000000Y4620000D03*
%TD*%
%LPD*%
M02*
