%TF.GenerationSoftware,KiCad,Pcbnew,7.0.5*%
%TF.CreationDate,2023-10-22T09:55:20+02:00*%
%TF.ProjectId,USB E-Ink thing,55534220-452d-4496-9e6b-207468696e67,rev?*%
%TF.SameCoordinates,Original*%
%TF.FileFunction,Copper,L1,Top*%
%TF.FilePolarity,Positive*%
%FSLAX46Y46*%
G04 Gerber Fmt 4.6, Leading zero omitted, Abs format (unit mm)*
G04 Created by KiCad (PCBNEW 7.0.5) date 2023-10-22 09:55:20*
%MOMM*%
%LPD*%
G01*
G04 APERTURE LIST*
G04 Aperture macros list*
%AMRoundRect*
0 Rectangle with rounded corners*
0 $1 Rounding radius*
0 $2 $3 $4 $5 $6 $7 $8 $9 X,Y pos of 4 corners*
0 Add a 4 corners polygon primitive as box body*
4,1,4,$2,$3,$4,$5,$6,$7,$8,$9,$2,$3,0*
0 Add four circle primitives for the rounded corners*
1,1,$1+$1,$2,$3*
1,1,$1+$1,$4,$5*
1,1,$1+$1,$6,$7*
1,1,$1+$1,$8,$9*
0 Add four rect primitives between the rounded corners*
20,1,$1+$1,$2,$3,$4,$5,0*
20,1,$1+$1,$4,$5,$6,$7,0*
20,1,$1+$1,$6,$7,$8,$9,0*
20,1,$1+$1,$8,$9,$2,$3,0*%
G04 Aperture macros list end*
%TA.AperFunction,SMDPad,CuDef*%
%ADD10RoundRect,0.135000X0.135000X0.185000X-0.135000X0.185000X-0.135000X-0.185000X0.135000X-0.185000X0*%
%TD*%
%TA.AperFunction,SMDPad,CuDef*%
%ADD11RoundRect,0.135000X-0.135000X-0.185000X0.135000X-0.185000X0.135000X0.185000X-0.135000X0.185000X0*%
%TD*%
%TA.AperFunction,ComponentPad*%
%ADD12C,1.600000*%
%TD*%
%TA.AperFunction,SMDPad,CuDef*%
%ADD13RoundRect,0.300000X-0.300000X-0.300000X0.300000X-0.300000X0.300000X0.300000X-0.300000X0.300000X0*%
%TD*%
%TA.AperFunction,SMDPad,CuDef*%
%ADD14RoundRect,0.300000X0.300000X0.300000X-0.300000X0.300000X-0.300000X-0.300000X0.300000X-0.300000X0*%
%TD*%
%TA.AperFunction,SMDPad,CuDef*%
%ADD15RoundRect,0.140000X-0.219203X-0.021213X-0.021213X-0.219203X0.219203X0.021213X0.021213X0.219203X0*%
%TD*%
%TA.AperFunction,SMDPad,CuDef*%
%ADD16RoundRect,0.140000X-0.140000X-0.170000X0.140000X-0.170000X0.140000X0.170000X-0.140000X0.170000X0*%
%TD*%
%TA.AperFunction,SMDPad,CuDef*%
%ADD17RoundRect,0.250000X0.650000X-0.325000X0.650000X0.325000X-0.650000X0.325000X-0.650000X-0.325000X0*%
%TD*%
%TA.AperFunction,SMDPad,CuDef*%
%ADD18RoundRect,0.225000X0.375000X-0.225000X0.375000X0.225000X-0.375000X0.225000X-0.375000X-0.225000X0*%
%TD*%
%TA.AperFunction,SMDPad,CuDef*%
%ADD19RoundRect,0.140000X0.219203X0.021213X0.021213X0.219203X-0.219203X-0.021213X-0.021213X-0.219203X0*%
%TD*%
%TA.AperFunction,SMDPad,CuDef*%
%ADD20RoundRect,0.075000X-0.521491X0.415425X0.415425X-0.521491X0.521491X-0.415425X-0.415425X0.521491X0*%
%TD*%
%TA.AperFunction,SMDPad,CuDef*%
%ADD21RoundRect,0.075000X-0.521491X-0.415425X-0.415425X-0.521491X0.521491X0.415425X0.415425X0.521491X0*%
%TD*%
%TA.AperFunction,SMDPad,CuDef*%
%ADD22RoundRect,0.140000X-0.170000X0.140000X-0.170000X-0.140000X0.170000X-0.140000X0.170000X0.140000X0*%
%TD*%
%TA.AperFunction,SMDPad,CuDef*%
%ADD23C,2.000000*%
%TD*%
%TA.AperFunction,SMDPad,CuDef*%
%ADD24R,1.000000X1.800000*%
%TD*%
%TA.AperFunction,SMDPad,CuDef*%
%ADD25RoundRect,0.150000X-0.150000X0.675000X-0.150000X-0.675000X0.150000X-0.675000X0.150000X0.675000X0*%
%TD*%
%TA.AperFunction,HeatsinkPad*%
%ADD26C,0.800000*%
%TD*%
%TA.AperFunction,SMDPad,CuDef*%
%ADD27R,3.292000X2.313000*%
%TD*%
%TA.AperFunction,SMDPad,CuDef*%
%ADD28RoundRect,0.135000X-0.226274X-0.035355X-0.035355X-0.226274X0.226274X0.035355X0.035355X0.226274X0*%
%TD*%
%TA.AperFunction,SMDPad,CuDef*%
%ADD29RoundRect,0.218750X-0.256250X0.218750X-0.256250X-0.218750X0.256250X-0.218750X0.256250X0.218750X0*%
%TD*%
%TA.AperFunction,SMDPad,CuDef*%
%ADD30RoundRect,0.150000X0.587500X0.150000X-0.587500X0.150000X-0.587500X-0.150000X0.587500X-0.150000X0*%
%TD*%
%TA.AperFunction,SMDPad,CuDef*%
%ADD31RoundRect,0.135000X0.226274X0.035355X0.035355X0.226274X-0.226274X-0.035355X-0.035355X-0.226274X0*%
%TD*%
%TA.AperFunction,SMDPad,CuDef*%
%ADD32RoundRect,0.150000X-0.150000X0.587500X-0.150000X-0.587500X0.150000X-0.587500X0.150000X0.587500X0*%
%TD*%
%TA.AperFunction,SMDPad,CuDef*%
%ADD33RoundRect,0.112500X-0.112500X0.187500X-0.112500X-0.187500X0.112500X-0.187500X0.112500X0.187500X0*%
%TD*%
%TA.AperFunction,SMDPad,CuDef*%
%ADD34RoundRect,0.140000X0.170000X-0.140000X0.170000X0.140000X-0.170000X0.140000X-0.170000X-0.140000X0*%
%TD*%
%TA.AperFunction,SMDPad,CuDef*%
%ADD35RoundRect,0.250000X0.262500X0.450000X-0.262500X0.450000X-0.262500X-0.450000X0.262500X-0.450000X0*%
%TD*%
%TA.AperFunction,SMDPad,CuDef*%
%ADD36RoundRect,0.135000X0.185000X-0.135000X0.185000X0.135000X-0.185000X0.135000X-0.185000X-0.135000X0*%
%TD*%
%TA.AperFunction,ComponentPad*%
%ADD37R,1.700000X1.700000*%
%TD*%
%TA.AperFunction,ComponentPad*%
%ADD38O,1.700000X1.700000*%
%TD*%
%TA.AperFunction,SMDPad,CuDef*%
%ADD39RoundRect,0.140000X0.140000X0.170000X-0.140000X0.170000X-0.140000X-0.170000X0.140000X-0.170000X0*%
%TD*%
%TA.AperFunction,SMDPad,CuDef*%
%ADD40R,1.000000X1.500000*%
%TD*%
%TA.AperFunction,SMDPad,CuDef*%
%ADD41RoundRect,0.140000X0.021213X-0.219203X0.219203X-0.021213X-0.021213X0.219203X-0.219203X0.021213X0*%
%TD*%
%TA.AperFunction,SMDPad,CuDef*%
%ADD42RoundRect,0.135000X-0.185000X0.135000X-0.185000X-0.135000X0.185000X-0.135000X0.185000X0.135000X0*%
%TD*%
%TA.AperFunction,SMDPad,CuDef*%
%ADD43RoundRect,0.225000X0.250000X-0.225000X0.250000X0.225000X-0.250000X0.225000X-0.250000X-0.225000X0*%
%TD*%
%TA.AperFunction,SMDPad,CuDef*%
%ADD44R,1.240000X0.600000*%
%TD*%
%TA.AperFunction,SMDPad,CuDef*%
%ADD45R,1.240000X0.300000*%
%TD*%
%TA.AperFunction,ComponentPad*%
%ADD46O,2.100000X1.000000*%
%TD*%
%TA.AperFunction,ComponentPad*%
%ADD47O,1.800000X1.000000*%
%TD*%
%TA.AperFunction,ComponentPad*%
%ADD48RoundRect,0.250000X-0.350000X-0.625000X0.350000X-0.625000X0.350000X0.625000X-0.350000X0.625000X0*%
%TD*%
%TA.AperFunction,ComponentPad*%
%ADD49O,1.200000X1.750000*%
%TD*%
%TA.AperFunction,SMDPad,CuDef*%
%ADD50RoundRect,0.250000X-0.503814X-0.132583X-0.132583X-0.503814X0.503814X0.132583X0.132583X0.503814X0*%
%TD*%
%TA.AperFunction,SMDPad,CuDef*%
%ADD51RoundRect,0.218750X-0.218750X-0.256250X0.218750X-0.256250X0.218750X0.256250X-0.218750X0.256250X0*%
%TD*%
%TA.AperFunction,SMDPad,CuDef*%
%ADD52RoundRect,0.225000X-0.375000X0.225000X-0.375000X-0.225000X0.375000X-0.225000X0.375000X0.225000X0*%
%TD*%
%TA.AperFunction,SMDPad,CuDef*%
%ADD53RoundRect,0.150000X0.512500X0.150000X-0.512500X0.150000X-0.512500X-0.150000X0.512500X-0.150000X0*%
%TD*%
%TA.AperFunction,SMDPad,CuDef*%
%ADD54RoundRect,0.218750X0.256250X-0.218750X0.256250X0.218750X-0.256250X0.218750X-0.256250X-0.218750X0*%
%TD*%
%TA.AperFunction,SMDPad,CuDef*%
%ADD55RoundRect,0.140000X-0.021213X0.219203X-0.219203X0.021213X0.021213X-0.219203X0.219203X-0.021213X0*%
%TD*%
%TA.AperFunction,SMDPad,CuDef*%
%ADD56R,2.000000X1.800000*%
%TD*%
%TA.AperFunction,SMDPad,CuDef*%
%ADD57R,1.200000X0.300000*%
%TD*%
%TA.AperFunction,SMDPad,CuDef*%
%ADD58RoundRect,0.218750X0.381250X-0.218750X0.381250X0.218750X-0.381250X0.218750X-0.381250X-0.218750X0*%
%TD*%
%TA.AperFunction,SMDPad,CuDef*%
%ADD59RoundRect,0.250000X0.250000X1.500000X-0.250000X1.500000X-0.250000X-1.500000X0.250000X-1.500000X0*%
%TD*%
%TA.AperFunction,SMDPad,CuDef*%
%ADD60RoundRect,0.250001X0.499999X1.449999X-0.499999X1.449999X-0.499999X-1.449999X0.499999X-1.449999X0*%
%TD*%
%TA.AperFunction,SMDPad,CuDef*%
%ADD61RoundRect,0.250000X-0.325000X-0.650000X0.325000X-0.650000X0.325000X0.650000X-0.325000X0.650000X0*%
%TD*%
%TA.AperFunction,SMDPad,CuDef*%
%ADD62RoundRect,0.112500X-0.187500X-0.112500X0.187500X-0.112500X0.187500X0.112500X-0.187500X0.112500X0*%
%TD*%
%TA.AperFunction,SMDPad,CuDef*%
%ADD63R,1.150000X1.000000*%
%TD*%
%TA.AperFunction,ViaPad*%
%ADD64C,0.600000*%
%TD*%
%TA.AperFunction,Conductor*%
%ADD65C,0.250000*%
%TD*%
%TA.AperFunction,Conductor*%
%ADD66C,0.300000*%
%TD*%
%TA.AperFunction,Conductor*%
%ADD67C,0.200000*%
%TD*%
%TA.AperFunction,Conductor*%
%ADD68C,0.500000*%
%TD*%
%TA.AperFunction,Conductor*%
%ADD69C,0.127000*%
%TD*%
G04 APERTURE END LIST*
%TA.AperFunction,EtchedComponent*%
%TO.C,JP1*%
G36*
X156620000Y-129390000D02*
G01*
X156120000Y-129390000D01*
X156120000Y-128990000D01*
X156620000Y-128990000D01*
X156620000Y-129390000D01*
G37*
%TD.AperFunction*%
%TA.AperFunction,EtchedComponent*%
G36*
X156620000Y-128590000D02*
G01*
X156120000Y-128590000D01*
X156120000Y-128190000D01*
X156620000Y-128190000D01*
X156620000Y-128590000D01*
G37*
%TD.AperFunction*%
%TD*%
D10*
%TO.P,R24,1*%
%TO.N,Net-(U1-PA5)*%
X148420000Y-118300000D03*
%TO.P,R24,2*%
%TO.N,/SCLK*%
X147400000Y-118300000D03*
%TD*%
%TO.P,R26,1*%
%TO.N,Net-(U1-PA7)*%
X148420000Y-117130000D03*
%TO.P,R26,2*%
%TO.N,/MOSI*%
X147400000Y-117130000D03*
%TD*%
D11*
%TO.P,R11,1*%
%TO.N,Net-(Q1-G)*%
X144200000Y-118275000D03*
%TO.P,R11,2*%
%TO.N,/VBAT_MEAS_EN*%
X145220000Y-118275000D03*
%TD*%
D12*
%TO.P,SW3,*%
%TO.N,*%
X177700000Y-101300000D03*
X177700000Y-108800000D03*
D13*
%TO.P,SW3,1,1*%
%TO.N,+3V0*%
X176100000Y-107150000D03*
D14*
%TO.P,SW3,2,2*%
%TO.N,Net-(R29-Pad2)*%
X176100000Y-102950000D03*
%TD*%
D11*
%TO.P,R3,1*%
%TO.N,/BUTTON1*%
X145050000Y-129470000D03*
%TO.P,R3,2*%
%TO.N,GND*%
X146070000Y-129470000D03*
%TD*%
D10*
%TO.P,R15,1*%
%TO.N,/Power/CC1*%
X174570000Y-124500000D03*
%TO.P,R15,2*%
%TO.N,GND*%
X173550000Y-124500000D03*
%TD*%
D15*
%TO.P,C5,1*%
%TO.N,+3V0*%
X157560589Y-112300589D03*
%TO.P,C5,2*%
%TO.N,GND*%
X158239411Y-112979411D03*
%TD*%
D16*
%TO.P,C16,1*%
%TO.N,/E-Ink display/VDD*%
X112600000Y-116600000D03*
%TO.P,C16,2*%
%TO.N,GND*%
X113560000Y-116600000D03*
%TD*%
%TO.P,C6,1*%
%TO.N,+3V0*%
X149250000Y-115010000D03*
%TO.P,C6,2*%
%TO.N,GND*%
X150210000Y-115010000D03*
%TD*%
D17*
%TO.P,TH1,1*%
%TO.N,GND*%
X136880000Y-118665000D03*
%TO.P,TH1,2*%
%TO.N,Net-(U3-TEMP)*%
X136880000Y-115715000D03*
%TD*%
D18*
%TO.P,D11,1,K*%
%TO.N,Net-(D10-A)*%
X119960000Y-115865000D03*
%TO.P,D11,2,A*%
%TO.N,/E-Ink display/PREVGL*%
X119960000Y-112565000D03*
%TD*%
D19*
%TO.P,C2,1*%
%TO.N,Net-(U1-PH1)*%
X147910000Y-112460000D03*
%TO.P,C2,2*%
%TO.N,GND*%
X147231178Y-111781178D03*
%TD*%
D20*
%TO.P,U1,1,VLCD*%
%TO.N,+3V0*%
X154511212Y-113572124D03*
%TO.P,U1,2,PC13*%
%TO.N,/VBUS_PRESENT*%
X154157658Y-113925678D03*
%TO.P,U1,3,PC14*%
%TO.N,Net-(U1-PC14)*%
X153804105Y-114279231D03*
%TO.P,U1,4,PC15*%
%TO.N,Net-(U1-PC15)*%
X153450551Y-114632785D03*
%TO.P,U1,5,PH0*%
%TO.N,Net-(U1-PH0)*%
X153096998Y-114986338D03*
%TO.P,U1,6,PH1*%
%TO.N,Net-(U1-PH1)*%
X152743445Y-115339891D03*
%TO.P,U1,7,NRST*%
%TO.N,/NRST*%
X152389891Y-115693445D03*
%TO.P,U1,8,VSSA*%
%TO.N,GND*%
X152036338Y-116046998D03*
%TO.P,U1,9,VDDA*%
%TO.N,+3V0*%
X151682785Y-116400551D03*
%TO.P,U1,10,PA0*%
%TO.N,/WAKEUP*%
X151329231Y-116754105D03*
%TO.P,U1,11,PA1*%
%TO.N,/VBAT_MEAS*%
X150975678Y-117107658D03*
%TO.P,U1,12,PA2*%
%TO.N,/VBAT_MEAS_EN*%
X150622124Y-117461212D03*
D21*
%TO.P,U1,13,PA3*%
%TO.N,Net-(U1-PA3)*%
X150622124Y-119458788D03*
%TO.P,U1,14,PA4*%
%TO.N,Net-(U1-PA4)*%
X150975678Y-119812342D03*
%TO.P,U1,15,PA5*%
%TO.N,Net-(U1-PA5)*%
X151329231Y-120165895D03*
%TO.P,U1,16,PA6*%
%TO.N,Net-(U1-PA6)*%
X151682785Y-120519449D03*
%TO.P,U1,17,PA7*%
%TO.N,Net-(U1-PA7)*%
X152036338Y-120873002D03*
%TO.P,U1,18,PB0*%
%TO.N,Net-(U1-PB0)*%
X152389891Y-121226555D03*
%TO.P,U1,19,PB1*%
%TO.N,/LED0*%
X152743445Y-121580109D03*
%TO.P,U1,20,PB2*%
%TO.N,/LED1*%
X153096998Y-121933662D03*
%TO.P,U1,21,PB10*%
%TO.N,/SERIAL_TX*%
X153450551Y-122287215D03*
%TO.P,U1,22,PB11*%
%TO.N,/SERIAL_RX*%
X153804105Y-122640769D03*
%TO.P,U1,23,VSS*%
%TO.N,GND*%
X154157658Y-122994322D03*
%TO.P,U1,24,VDD*%
%TO.N,+3V0*%
X154511212Y-123347876D03*
D20*
%TO.P,U1,25,PB12*%
%TO.N,/BUTTON2*%
X156508788Y-123347876D03*
%TO.P,U1,26,PB13*%
%TO.N,/BUTTON0*%
X156862342Y-122994322D03*
%TO.P,U1,27,PB14*%
%TO.N,/BUTTON3*%
X157215895Y-122640769D03*
%TO.P,U1,28,PB15*%
%TO.N,/BUTTON1*%
X157569449Y-122287215D03*
%TO.P,U1,29,PA8*%
%TO.N,unconnected-(U1-PA8-Pad29)*%
X157923002Y-121933662D03*
%TO.P,U1,30,PA9*%
%TO.N,unconnected-(U1-PA9-Pad30)*%
X158276555Y-121580109D03*
%TO.P,U1,31,PA10*%
%TO.N,unconnected-(U1-PA10-Pad31)*%
X158630109Y-121226555D03*
%TO.P,U1,32,PA11*%
%TO.N,/USB_D-*%
X158983662Y-120873002D03*
%TO.P,U1,33,PA12*%
%TO.N,/USB_D+*%
X159337215Y-120519449D03*
%TO.P,U1,34,PA13*%
%TO.N,Net-(U1-PA13)*%
X159690769Y-120165895D03*
%TO.P,U1,35,VSS*%
%TO.N,GND*%
X160044322Y-119812342D03*
%TO.P,U1,36,VDD*%
%TO.N,+3V0*%
X160397876Y-119458788D03*
D21*
%TO.P,U1,37,PA14*%
%TO.N,Net-(U1-PA14)*%
X160397876Y-117461212D03*
%TO.P,U1,38,PA15*%
%TO.N,/PA15*%
X160044322Y-117107658D03*
%TO.P,U1,39,PB3*%
%TO.N,/VBUS_PRESENT*%
X159690769Y-116754105D03*
%TO.P,U1,40,PB4*%
%TO.N,/PB4*%
X159337215Y-116400551D03*
%TO.P,U1,41,PB5*%
%TO.N,/PB5*%
X158983662Y-116046998D03*
%TO.P,U1,42,PB6*%
%TO.N,/PB6*%
X158630109Y-115693445D03*
%TO.P,U1,43,PB7*%
%TO.N,/PB7*%
X158276555Y-115339891D03*
%TO.P,U1,44,BOOT0*%
%TO.N,GND*%
X157923002Y-114986338D03*
%TO.P,U1,45,PB8*%
%TO.N,/PB8*%
X157569449Y-114632785D03*
%TO.P,U1,46,PB9*%
%TO.N,unconnected-(U1-PB9-Pad46)*%
X157215895Y-114279231D03*
%TO.P,U1,47,VSS*%
%TO.N,GND*%
X156862342Y-113925678D03*
%TO.P,U1,48,VDD*%
%TO.N,+3V0*%
X156508788Y-113572124D03*
%TD*%
D22*
%TO.P,C25,1*%
%TO.N,/E-Ink display/VCC*%
X118040000Y-113890000D03*
%TO.P,C25,2*%
%TO.N,GND*%
X118040000Y-114850000D03*
%TD*%
D23*
%TO.P,J5,1,Pin_1*%
%TO.N,+3V0*%
X139700000Y-132080000D03*
%TO.P,J5,2,Pin_2*%
%TO.N,GND*%
X142240000Y-132080000D03*
%TO.P,J5,3,Pin_3*%
%TO.N,/SWDCLK*%
X144780000Y-132080000D03*
%TO.P,J5,4,Pin_4*%
%TO.N,/SWDIO*%
X144780000Y-134620000D03*
%TO.P,J5,5,Pin_5*%
%TO.N,unconnected-(J5-Pin_5-Pad5)*%
X142240000Y-134620000D03*
%TO.P,J5,6,Pin_6*%
%TO.N,/NRST*%
X139700000Y-134620000D03*
%TD*%
D24*
%TO.P,Y2,1,1*%
%TO.N,Net-(U1-PC15)*%
X151849411Y-109199411D03*
%TO.P,Y2,2,2*%
%TO.N,Net-(U1-PC14)*%
X154349411Y-109199411D03*
%TD*%
D19*
%TO.P,C7,1*%
%TO.N,+3V0*%
X153709411Y-124789411D03*
%TO.P,C7,2*%
%TO.N,GND*%
X153030589Y-124110589D03*
%TD*%
D25*
%TO.P,U3,1,TEMP*%
%TO.N,Net-(U3-TEMP)*%
X171315000Y-125835000D03*
%TO.P,U3,2,PROG*%
%TO.N,Net-(U3-PROG)*%
X170045000Y-125835000D03*
%TO.P,U3,3,GND*%
%TO.N,GND*%
X168775000Y-125835000D03*
%TO.P,U3,4,VCC*%
%TO.N,/VBUS*%
X167505000Y-125835000D03*
%TO.P,U3,5,BAT*%
%TO.N,+BATT*%
X167505000Y-131085000D03*
%TO.P,U3,6,~{STDBY}*%
%TO.N,Net-(U3-~{STDBY})*%
X168775000Y-131085000D03*
%TO.P,U3,7,~{CHRG}*%
%TO.N,Net-(U3-~{CHRG})*%
X170045000Y-131085000D03*
%TO.P,U3,8,CE*%
%TO.N,/VBUS*%
X171315000Y-131085000D03*
D26*
%TO.P,U3,9,THERMAL*%
%TO.N,GND*%
X170410000Y-127960000D03*
X169410000Y-127960000D03*
X168410000Y-127960000D03*
D27*
X169410000Y-128460000D03*
D26*
X170410000Y-128960000D03*
X169410000Y-128960000D03*
X168410000Y-128960000D03*
%TD*%
D28*
%TO.P,R14,1*%
%TO.N,/VBUS_PRESENT*%
X161719376Y-114849376D03*
%TO.P,R14,2*%
%TO.N,GND*%
X162440624Y-115570624D03*
%TD*%
D29*
%TO.P,D8,1,K*%
%TO.N,Net-(D8-K)*%
X171450000Y-132962500D03*
%TO.P,D8,2,A*%
%TO.N,/VBUS*%
X171450000Y-134537500D03*
%TD*%
D30*
%TO.P,Q1,1,G*%
%TO.N,Net-(Q1-G)*%
X144710000Y-116950000D03*
%TO.P,Q1,2,S*%
%TO.N,/VBAT_MEAS*%
X144710000Y-115050000D03*
%TO.P,Q1,3,D*%
%TO.N,Net-(Q1-D)*%
X142835000Y-116000000D03*
%TD*%
D12*
%TO.P,SW4,*%
%TO.N,*%
X177700000Y-127900000D03*
X177700000Y-135400000D03*
D13*
%TO.P,SW4,1,1*%
%TO.N,/BUTTON3*%
X176100000Y-133750000D03*
D14*
%TO.P,SW4,2,2*%
%TO.N,+3V0*%
X176100000Y-129550000D03*
%TD*%
D31*
%TO.P,R13,1*%
%TO.N,/VBUS*%
X161740624Y-116250624D03*
%TO.P,R13,2*%
%TO.N,/VBUS_PRESENT*%
X161019376Y-115529376D03*
%TD*%
D32*
%TO.P,U4,1,IN*%
%TO.N,Net-(D9-K)*%
X162400000Y-132592500D03*
%TO.P,U4,2,OUT*%
%TO.N,Net-(J8-Pin_1)*%
X160500000Y-132592500D03*
%TO.P,U4,3,GND*%
%TO.N,GND*%
X161450000Y-134467500D03*
%TD*%
D33*
%TO.P,D6,1,K*%
%TO.N,Net-(D1-K)*%
X143570000Y-126220000D03*
%TO.P,D6,2,A*%
%TO.N,/BUTTON3*%
X143570000Y-128320000D03*
%TD*%
D34*
%TO.P,C12,1*%
%TO.N,Net-(J8-Pin_1)*%
X160280000Y-130340000D03*
%TO.P,C12,2*%
%TO.N,GND*%
X160280000Y-129380000D03*
%TD*%
D10*
%TO.P,R27,1*%
%TO.N,Net-(U1-PA4)*%
X148420000Y-120640000D03*
%TO.P,R27,2*%
%TO.N,/D{slash}~{C}*%
X147400000Y-120640000D03*
%TD*%
%TO.P,R5,1*%
%TO.N,/LED0*%
X148420000Y-124080000D03*
%TO.P,R5,2*%
%TO.N,Net-(D4-A)*%
X147400000Y-124080000D03*
%TD*%
D34*
%TO.P,C4,1*%
%TO.N,Net-(U1-PC15)*%
X151849411Y-107460000D03*
%TO.P,C4,2*%
%TO.N,GND*%
X151849411Y-106500000D03*
%TD*%
D35*
%TO.P,R23,1*%
%TO.N,GND*%
X114825000Y-124800000D03*
%TO.P,R23,2*%
%TO.N,/E-Ink display/RESE*%
X113000000Y-124800000D03*
%TD*%
D36*
%TO.P,R17,1*%
%TO.N,Net-(D7-K)*%
X168770000Y-133700000D03*
%TO.P,R17,2*%
%TO.N,Net-(U3-~{STDBY})*%
X168770000Y-132680000D03*
%TD*%
%TO.P,R29,1*%
%TO.N,/BUTTON2*%
X104540000Y-102380000D03*
%TO.P,R29,2*%
%TO.N,Net-(R29-Pad2)*%
X104540000Y-101360000D03*
%TD*%
D37*
%TO.P,J3,1,Pin_1*%
%TO.N,+3V0*%
X144780000Y-104140000D03*
D38*
%TO.P,J3,2,Pin_2*%
%TO.N,/PB8*%
X147320000Y-104140000D03*
%TO.P,J3,3,Pin_3*%
%TO.N,/PB7*%
X149860000Y-104140000D03*
%TO.P,J3,4,Pin_4*%
%TO.N,/PB6*%
X152400000Y-104140000D03*
%TO.P,J3,5,Pin_5*%
%TO.N,/PB5*%
X154940000Y-104140000D03*
%TO.P,J3,6,Pin_6*%
%TO.N,/PB4*%
X157480000Y-104140000D03*
%TO.P,J3,7,Pin_7*%
%TO.N,/PA15*%
X160020000Y-104140000D03*
%TO.P,J3,8,Pin_8*%
%TO.N,GND*%
X162560000Y-104140000D03*
%TD*%
D11*
%TO.P,R6,1*%
%TO.N,/BUTTON2*%
X139080000Y-129470000D03*
%TO.P,R6,2*%
%TO.N,GND*%
X140100000Y-129470000D03*
%TD*%
D22*
%TO.P,C24,1*%
%TO.N,/E-Ink display/VCC*%
X117000000Y-113890000D03*
%TO.P,C24,2*%
%TO.N,GND*%
X117000000Y-114850000D03*
%TD*%
D34*
%TO.P,C3,1*%
%TO.N,Net-(U1-PC14)*%
X154349411Y-107460000D03*
%TO.P,C3,2*%
%TO.N,GND*%
X154349411Y-106500000D03*
%TD*%
D11*
%TO.P,R28,1*%
%TO.N,/BUSY_DBG*%
X111690000Y-120400000D03*
%TO.P,R28,2*%
%TO.N,/BUSY*%
X112710000Y-120400000D03*
%TD*%
D39*
%TO.P,C11,1*%
%TO.N,Net-(D9-K)*%
X162520000Y-125690000D03*
%TO.P,C11,2*%
%TO.N,GND*%
X161560000Y-125690000D03*
%TD*%
D12*
%TO.P,SW1,*%
%TO.N,*%
X101300000Y-108800000D03*
X101300000Y-101300000D03*
D14*
%TO.P,SW1,1,1*%
%TO.N,+3V0*%
X102900000Y-102950000D03*
D13*
%TO.P,SW1,2,2*%
%TO.N,/BUTTON0*%
X102900000Y-107150000D03*
%TD*%
D16*
%TO.P,C20,1*%
%TO.N,/E-Ink display/VGL*%
X112600000Y-123200000D03*
%TO.P,C20,2*%
%TO.N,GND*%
X113560000Y-123200000D03*
%TD*%
D10*
%TO.P,R16,1*%
%TO.N,/Power/CC2*%
X174360000Y-112270000D03*
%TO.P,R16,2*%
%TO.N,GND*%
X173340000Y-112270000D03*
%TD*%
D40*
%TO.P,JP1,1,A*%
%TO.N,Net-(J8-Pin_1)*%
X157020000Y-128790000D03*
%TO.P,JP1,2,B*%
%TO.N,+3V0*%
X155720000Y-128790000D03*
%TD*%
D36*
%TO.P,R12,1*%
%TO.N,+3V0*%
X147930000Y-115550000D03*
%TO.P,R12,2*%
%TO.N,/NRST*%
X147930000Y-114530000D03*
%TD*%
D41*
%TO.P,C26,1*%
%TO.N,+3V0*%
X155030000Y-112720000D03*
%TO.P,C26,2*%
%TO.N,GND*%
X155708822Y-112041178D03*
%TD*%
D16*
%TO.P,C15,1*%
%TO.N,/E-Ink display/VSH*%
X112600000Y-115506000D03*
%TO.P,C15,2*%
%TO.N,GND*%
X113560000Y-115506000D03*
%TD*%
D10*
%TO.P,R25,1*%
%TO.N,Net-(U1-PA6)*%
X148420000Y-121810000D03*
%TO.P,R25,2*%
%TO.N,/~{RES}*%
X147400000Y-121810000D03*
%TD*%
D12*
%TO.P,SW2,*%
%TO.N,*%
X101300000Y-135400000D03*
X101300000Y-127900000D03*
D14*
%TO.P,SW2,1,1*%
%TO.N,/BUTTON1*%
X102900000Y-129550000D03*
D13*
%TO.P,SW2,2,2*%
%TO.N,+3V0*%
X102900000Y-133750000D03*
%TD*%
D36*
%TO.P,R20,1*%
%TO.N,/VBUS*%
X166060000Y-115660000D03*
%TO.P,R20,2*%
%TO.N,Net-(U3-TEMP)*%
X166060000Y-114640000D03*
%TD*%
D11*
%TO.P,R10,1*%
%TO.N,GND*%
X142225000Y-118275000D03*
%TO.P,R10,2*%
%TO.N,Net-(Q1-G)*%
X143245000Y-118275000D03*
%TD*%
D10*
%TO.P,R22,1*%
%TO.N,/VBUS*%
X167310000Y-123880000D03*
%TO.P,R22,2*%
%TO.N,GND*%
X166290000Y-123880000D03*
%TD*%
D11*
%TO.P,R7,1*%
%TO.N,+BATT*%
X140150000Y-116170000D03*
%TO.P,R7,2*%
%TO.N,Net-(Q1-D)*%
X141170000Y-116170000D03*
%TD*%
D17*
%TO.P,C21,1*%
%TO.N,Net-(D12-A)*%
X117640000Y-120860000D03*
%TO.P,C21,2*%
%TO.N,Net-(D10-A)*%
X117640000Y-117910000D03*
%TD*%
D42*
%TO.P,R32,1*%
%TO.N,Net-(U1-PA13)*%
X150470000Y-131860000D03*
%TO.P,R32,2*%
%TO.N,/SWDIO*%
X150470000Y-132880000D03*
%TD*%
%TO.P,R33,1*%
%TO.N,Net-(U1-PA14)*%
X151130000Y-127850000D03*
%TO.P,R33,2*%
%TO.N,/SWDCLK*%
X151130000Y-128870000D03*
%TD*%
D29*
%TO.P,D7,1,K*%
%TO.N,Net-(D7-K)*%
X167430000Y-132982500D03*
%TO.P,D7,2,A*%
%TO.N,/VBUS*%
X167430000Y-134557500D03*
%TD*%
D43*
%TO.P,C10,1*%
%TO.N,+BATT*%
X165570000Y-131090000D03*
%TO.P,C10,2*%
%TO.N,GND*%
X165570000Y-129540000D03*
%TD*%
D44*
%TO.P,J6,A1,GND*%
%TO.N,GND*%
X172765000Y-121550000D03*
%TO.P,J6,A4,VBUS*%
%TO.N,/VBUS*%
X172765000Y-120750000D03*
D45*
%TO.P,J6,A5,CC1*%
%TO.N,/Power/CC1*%
X172765000Y-119600000D03*
%TO.P,J6,A6,D+*%
%TO.N,/Power/USB_IN_D+*%
X172765000Y-118600000D03*
%TO.P,J6,A7,D-*%
%TO.N,/Power/USB_IN_D-*%
X172765000Y-118100000D03*
%TO.P,J6,A8,SBU1*%
%TO.N,unconnected-(J6-SBU1-PadA8)*%
X172765000Y-117100000D03*
D44*
%TO.P,J6,A9,VBUS*%
%TO.N,/VBUS*%
X172765000Y-115950000D03*
%TO.P,J6,A12,GND*%
%TO.N,GND*%
X172765000Y-115150000D03*
%TO.P,J6,B1,GND*%
X172765000Y-115150000D03*
%TO.P,J6,B4,VBUS*%
%TO.N,/VBUS*%
X172765000Y-115950000D03*
D45*
%TO.P,J6,B5,CC2*%
%TO.N,/Power/CC2*%
X172765000Y-116600000D03*
%TO.P,J6,B6,D+*%
%TO.N,/Power/USB_IN_D+*%
X172765000Y-117600000D03*
%TO.P,J6,B7,D-*%
%TO.N,/Power/USB_IN_D-*%
X172765000Y-119100000D03*
%TO.P,J6,B8,SBU2*%
%TO.N,unconnected-(J6-SBU2-PadB8)*%
X172765000Y-120100000D03*
D44*
%TO.P,J6,B9,VBUS*%
%TO.N,/VBUS*%
X172765000Y-120750000D03*
%TO.P,J6,B12,GND*%
%TO.N,GND*%
X172765000Y-121550000D03*
D46*
%TO.P,J6,S1,SHIELD*%
X173365000Y-122670000D03*
D47*
X177565000Y-122670000D03*
D46*
X173365000Y-114030000D03*
D47*
X177565000Y-114030000D03*
%TD*%
D11*
%TO.P,R1,1*%
%TO.N,/BUTTON0*%
X141070000Y-129470000D03*
%TO.P,R1,2*%
%TO.N,GND*%
X142090000Y-129470000D03*
%TD*%
D16*
%TO.P,C13,1*%
%TO.N,/E-Ink display/VCOM*%
X112590000Y-111130000D03*
%TO.P,C13,2*%
%TO.N,GND*%
X113550000Y-111130000D03*
%TD*%
D10*
%TO.P,R2,1*%
%TO.N,/LED1*%
X148400000Y-125230000D03*
%TO.P,R2,2*%
%TO.N,Net-(D2-A)*%
X147380000Y-125230000D03*
%TD*%
D32*
%TO.P,Q3,1,G*%
%TO.N,/E-Ink display/GDR*%
X114750000Y-126862500D03*
%TO.P,Q3,2,S*%
%TO.N,/E-Ink display/RESE*%
X112850000Y-126862500D03*
%TO.P,Q3,3,D*%
%TO.N,Net-(D12-A)*%
X113800000Y-128737500D03*
%TD*%
D33*
%TO.P,D1,1,K*%
%TO.N,Net-(D1-K)*%
X141580000Y-126220000D03*
%TO.P,D1,2,A*%
%TO.N,/BUTTON0*%
X141580000Y-128320000D03*
%TD*%
D36*
%TO.P,R21,1*%
%TO.N,Net-(U3-TEMP)*%
X166060000Y-113720000D03*
%TO.P,R21,2*%
%TO.N,GND*%
X166060000Y-112700000D03*
%TD*%
%TO.P,R18,1*%
%TO.N,Net-(D8-K)*%
X170050000Y-133720000D03*
%TO.P,R18,2*%
%TO.N,Net-(U3-~{CHRG})*%
X170050000Y-132700000D03*
%TD*%
D16*
%TO.P,C14,1*%
%TO.N,/E-Ink display/VSL*%
X112600000Y-113318000D03*
%TO.P,C14,2*%
%TO.N,GND*%
X113560000Y-113318000D03*
%TD*%
D48*
%TO.P,J9,1,Pin_1*%
%TO.N,/MOSI*%
X122000000Y-104140000D03*
D49*
%TO.P,J9,2,Pin_2*%
%TO.N,/SCLK*%
X124000000Y-104140000D03*
%TO.P,J9,3,Pin_3*%
%TO.N,/BUSY_DBG*%
X126000000Y-104140000D03*
%TO.P,J9,4,Pin_4*%
%TO.N,/D{slash}~{C}*%
X128000000Y-104140000D03*
%TO.P,J9,5,Pin_5*%
%TO.N,/~{RES}*%
X130000000Y-104140000D03*
%TO.P,J9,6,Pin_6*%
%TO.N,GND*%
X132000000Y-104140000D03*
%TD*%
D37*
%TO.P,J8,1,Pin_1*%
%TO.N,Net-(J8-Pin_1)*%
X157480000Y-132080000D03*
D38*
%TO.P,J8,2,Pin_2*%
%TO.N,+3V0*%
X154940000Y-132080000D03*
%TD*%
D50*
%TO.P,R30,1*%
%TO.N,/WAKEUP*%
X150284765Y-124194765D03*
%TO.P,R30,2*%
%TO.N,Net-(D1-K)*%
X151575235Y-125485235D03*
%TD*%
D51*
%TO.P,L1,1,1*%
%TO.N,Net-(D12-A)*%
X115412500Y-122800000D03*
%TO.P,L1,2,2*%
%TO.N,/E-Ink display/VCI*%
X116987500Y-122800000D03*
%TD*%
D33*
%TO.P,D5,1,K*%
%TO.N,Net-(D1-K)*%
X139590000Y-126220000D03*
%TO.P,D5,2,A*%
%TO.N,/BUTTON2*%
X139590000Y-128320000D03*
%TD*%
D36*
%TO.P,R19,1*%
%TO.N,Net-(U3-PROG)*%
X170040000Y-124160000D03*
%TO.P,R19,2*%
%TO.N,GND*%
X170040000Y-123140000D03*
%TD*%
D52*
%TO.P,D10,1,K*%
%TO.N,GND*%
X122470000Y-112610000D03*
%TO.P,D10,2,A*%
%TO.N,Net-(D10-A)*%
X122470000Y-115910000D03*
%TD*%
D16*
%TO.P,C19,1*%
%TO.N,/E-Ink display/PREVGL*%
X112600000Y-112224000D03*
%TO.P,C19,2*%
%TO.N,GND*%
X113560000Y-112224000D03*
%TD*%
D11*
%TO.P,R9,1*%
%TO.N,/BUTTON3*%
X143060000Y-129470000D03*
%TO.P,R9,2*%
%TO.N,GND*%
X144080000Y-129470000D03*
%TD*%
D53*
%TO.P,U2,1,I/O1*%
%TO.N,/Power/USB_IN_D+*%
X170040000Y-119300000D03*
%TO.P,U2,2,GND*%
%TO.N,GND*%
X170040000Y-118350000D03*
%TO.P,U2,3,I/O2*%
%TO.N,/Power/USB_IN_D-*%
X170040000Y-117400000D03*
%TO.P,U2,4,I/O2*%
%TO.N,/USB_D-*%
X167765000Y-117400000D03*
%TO.P,U2,5,VBUS*%
%TO.N,/VBUS*%
X167765000Y-118350000D03*
%TO.P,U2,6,I/O1*%
%TO.N,/USB_D+*%
X167765000Y-119300000D03*
%TD*%
D37*
%TO.P,J4,1,Pin_1*%
%TO.N,+3V0*%
X134620000Y-132080000D03*
D38*
%TO.P,J4,2,Pin_2*%
%TO.N,/SERIAL_RX*%
X132080000Y-132080000D03*
%TO.P,J4,3,Pin_3*%
%TO.N,/SERIAL_TX*%
X129540000Y-132080000D03*
%TO.P,J4,4,Pin_4*%
%TO.N,GND*%
X127000000Y-132080000D03*
%TD*%
D54*
%TO.P,D2,1,K*%
%TO.N,GND*%
X122895000Y-132875000D03*
%TO.P,D2,2,A*%
%TO.N,Net-(D2-A)*%
X122895000Y-131300000D03*
%TD*%
D55*
%TO.P,C8,1*%
%TO.N,+3V0*%
X161670000Y-120490000D03*
%TO.P,C8,2*%
%TO.N,GND*%
X160991178Y-121168822D03*
%TD*%
D19*
%TO.P,C1,1*%
%TO.N,Net-(U1-PH0)*%
X150110000Y-110060000D03*
%TO.P,C1,2*%
%TO.N,GND*%
X149431178Y-109381178D03*
%TD*%
D56*
%TO.P,DS1,*%
%TO.N,*%
X106550000Y-110950000D03*
X106550000Y-125750000D03*
D57*
%TO.P,DS1,1,NC*%
%TO.N,unconnected-(DS1-NC-Pad1)*%
X109700000Y-124100000D03*
%TO.P,DS1,2,GDR*%
%TO.N,/E-Ink display/GDR*%
X109700000Y-123600000D03*
%TO.P,DS1,3,RESE*%
%TO.N,/E-Ink display/RESE*%
X109700000Y-123100000D03*
%TO.P,DS1,4,VGL*%
%TO.N,/E-Ink display/VGL*%
X109700000Y-122600000D03*
%TO.P,DS1,5,VGH*%
%TO.N,/E-Ink display/VGH*%
X109700000Y-122100000D03*
%TO.P,DS1,6,TSCL*%
%TO.N,/E-Ink display/TSCL*%
X109700000Y-121600000D03*
%TO.P,DS1,7,TSDA*%
%TO.N,/E-Ink display/TSDA*%
X109700000Y-121100000D03*
%TO.P,DS1,8,BS1*%
%TO.N,GND*%
X109700000Y-120600000D03*
%TO.P,DS1,9,BUSY*%
%TO.N,/BUSY_DBG*%
X109700000Y-120100000D03*
%TO.P,DS1,10,RES#*%
%TO.N,/~{RES}*%
X109700000Y-119600000D03*
%TO.P,DS1,11,D/C#*%
%TO.N,/D{slash}~{C}*%
X109700000Y-119100000D03*
%TO.P,DS1,12,CS#*%
%TO.N,/~{CS}*%
X109700000Y-118600000D03*
%TO.P,DS1,13,D0*%
%TO.N,/SCLK*%
X109700000Y-118100000D03*
%TO.P,DS1,14,D1*%
%TO.N,/MOSI*%
X109700000Y-117600000D03*
%TO.P,DS1,15,VDDIO*%
%TO.N,/E-Ink display/VCC*%
X109700000Y-117100000D03*
%TO.P,DS1,16,VCI*%
X109700000Y-116600000D03*
%TO.P,DS1,17,VSS*%
%TO.N,GND*%
X109700000Y-116100000D03*
%TO.P,DS1,18,VDD*%
%TO.N,/E-Ink display/VDD*%
X109700000Y-115600000D03*
%TO.P,DS1,19,VPP*%
%TO.N,/E-Ink display/VPP*%
X109700000Y-115100000D03*
%TO.P,DS1,20,VSH*%
%TO.N,/E-Ink display/VSH*%
X109700000Y-114600000D03*
%TO.P,DS1,21,PREVGH*%
%TO.N,/E-Ink display/PREVGH*%
X109700000Y-114100000D03*
%TO.P,DS1,22,VSL*%
%TO.N,/E-Ink display/VSL*%
X109700000Y-113600000D03*
%TO.P,DS1,23,PREVGL*%
%TO.N,/E-Ink display/PREVGL*%
X109700000Y-113100000D03*
%TO.P,DS1,24,VCOM*%
%TO.N,/E-Ink display/VCOM*%
X109700000Y-112600000D03*
%TD*%
D58*
%TO.P,FB1,1*%
%TO.N,/E-Ink display/VCC*%
X115540000Y-113675000D03*
%TO.P,FB1,2*%
%TO.N,+3V0*%
X115540000Y-111550000D03*
%TD*%
D33*
%TO.P,D3,1,K*%
%TO.N,Net-(D1-K)*%
X145560000Y-126220000D03*
%TO.P,D3,2,A*%
%TO.N,/BUTTON1*%
X145560000Y-128320000D03*
%TD*%
D16*
%TO.P,C17,1*%
%TO.N,/E-Ink display/VCI*%
X119880000Y-124800000D03*
%TO.P,C17,2*%
%TO.N,GND*%
X120840000Y-124800000D03*
%TD*%
%TO.P,C18,1*%
%TO.N,/E-Ink display/VGH*%
X112600000Y-122200000D03*
%TO.P,C18,2*%
%TO.N,GND*%
X113560000Y-122200000D03*
%TD*%
D59*
%TO.P,BT1,1,+*%
%TO.N,+BATT*%
X171430000Y-109150000D03*
%TO.P,BT1,2,-*%
%TO.N,GND*%
X169430000Y-109150000D03*
D60*
%TO.P,BT1,MP*%
%TO.N,N/C*%
X173780000Y-103400000D03*
X167080000Y-103400000D03*
%TD*%
D52*
%TO.P,D12,1,K*%
%TO.N,/E-Ink display/PREVGH*%
X115220000Y-117710000D03*
%TO.P,D12,2,A*%
%TO.N,Net-(D12-A)*%
X115220000Y-121010000D03*
%TD*%
D10*
%TO.P,R31,1*%
%TO.N,Net-(U1-PB0)*%
X148420000Y-122850000D03*
%TO.P,R31,2*%
%TO.N,/BUSY*%
X147400000Y-122850000D03*
%TD*%
D32*
%TO.P,Q2,1,G*%
%TO.N,/VBUS*%
X163590709Y-127951500D03*
%TO.P,Q2,2,S*%
%TO.N,Net-(D9-K)*%
X161690709Y-127951500D03*
%TO.P,Q2,3,D*%
%TO.N,+BATT*%
X162640709Y-129826500D03*
%TD*%
D61*
%TO.P,C22,1*%
%TO.N,/E-Ink display/VCI*%
X118895000Y-122860000D03*
%TO.P,C22,2*%
%TO.N,GND*%
X121845000Y-122860000D03*
%TD*%
D62*
%TO.P,D9,1,K*%
%TO.N,Net-(D9-K)*%
X163660000Y-125710000D03*
%TO.P,D9,2,A*%
%TO.N,/VBUS*%
X165760000Y-125710000D03*
%TD*%
D10*
%TO.P,R34,1*%
%TO.N,Net-(U1-PA3)*%
X148420000Y-119470000D03*
%TO.P,R34,2*%
%TO.N,/~{CS}*%
X147400000Y-119470000D03*
%TD*%
D42*
%TO.P,R4,1*%
%TO.N,Net-(D1-K)*%
X137840000Y-126370000D03*
%TO.P,R4,2*%
%TO.N,GND*%
X137840000Y-127390000D03*
%TD*%
D54*
%TO.P,D4,1,K*%
%TO.N,GND*%
X119320000Y-132875000D03*
%TO.P,D4,2,A*%
%TO.N,Net-(D4-A)*%
X119320000Y-131300000D03*
%TD*%
D63*
%TO.P,Y1,1,1*%
%TO.N,Net-(U1-PH1)*%
X149435000Y-113160000D03*
%TO.P,Y1,2*%
%TO.N,unconnected-(Y1-Pad2)*%
X151185000Y-113160000D03*
%TO.P,Y1,3,3*%
%TO.N,Net-(U1-PH0)*%
X151185000Y-111760000D03*
%TO.P,Y1,4*%
%TO.N,unconnected-(Y1-Pad4)*%
X149435000Y-111760000D03*
%TD*%
D16*
%TO.P,C23,1*%
%TO.N,/E-Ink display/PREVGH*%
X112600000Y-114412000D03*
%TO.P,C23,2*%
%TO.N,GND*%
X113560000Y-114412000D03*
%TD*%
D36*
%TO.P,R8,1*%
%TO.N,/VBAT_MEAS*%
X146335000Y-116960000D03*
%TO.P,R8,2*%
%TO.N,GND*%
X146335000Y-115940000D03*
%TD*%
D39*
%TO.P,C9,1*%
%TO.N,/VBUS*%
X168470000Y-120620000D03*
%TO.P,C9,2*%
%TO.N,GND*%
X167510000Y-120620000D03*
%TD*%
D64*
%TO.N,GND*%
X158423000Y-112433248D03*
X170930000Y-122240000D03*
X140470000Y-128610000D03*
X170040000Y-122670000D03*
X156250000Y-111480000D03*
X117580000Y-115560000D03*
X152510000Y-124660000D03*
X114300000Y-113860000D03*
X158668790Y-114086501D03*
X160760000Y-134460000D03*
X115787009Y-124780000D03*
X111150000Y-116200000D03*
X168420000Y-109130000D03*
X170920000Y-121520000D03*
X114170000Y-122620000D03*
X153500000Y-106490000D03*
X141570000Y-118260000D03*
X171610000Y-121530000D03*
X160820000Y-125690000D03*
X146340000Y-115290000D03*
X177550000Y-113000000D03*
X170970000Y-114420000D03*
X156189110Y-114719401D03*
X160280000Y-128580000D03*
X172810000Y-124500000D03*
X171610000Y-115150000D03*
X165580013Y-128529987D03*
X147720000Y-111290000D03*
X166720000Y-112700000D03*
X166280000Y-123160000D03*
X138350000Y-118670000D03*
X121860000Y-124700000D03*
X111180000Y-121220000D03*
X162920000Y-115090000D03*
X172562646Y-112282646D03*
X170980000Y-115160000D03*
X177600000Y-123730000D03*
X161433000Y-121630000D03*
X170900026Y-118339974D03*
X121110000Y-132940000D03*
X123590000Y-112630000D03*
X114310000Y-111600000D03*
X152817764Y-116719767D03*
X167520000Y-121400000D03*
X114217354Y-116122646D03*
X148890000Y-109910000D03*
X137870000Y-128070000D03*
X150999340Y-115010000D03*
X146850000Y-129480000D03*
X152690000Y-106490000D03*
X144550000Y-128470000D03*
X143240000Y-132920000D03*
X142550000Y-128440000D03*
%TO.N,+3V0*%
X154700002Y-124245934D03*
X157470000Y-126290000D03*
X134625070Y-134554223D03*
%TO.N,/WAKEUP*%
X151810000Y-117980000D03*
X149113663Y-118058621D03*
%TO.N,/NRST*%
X155506309Y-116337341D03*
X154315380Y-115500962D03*
X153580000Y-125620000D03*
X152610000Y-129000000D03*
%TO.N,/VBUS_PRESENT*%
X156053964Y-115848040D03*
X155080000Y-115180002D03*
%TO.N,/Power/USB_IN_D+*%
X173693000Y-118651276D03*
X173692418Y-117573000D03*
%TO.N,Net-(U1-PA14)*%
X152083000Y-127898426D03*
X152790000Y-126150000D03*
%TD*%
D65*
%TO.N,Net-(U1-PH0)*%
X151185000Y-111135000D02*
X150110000Y-110060000D01*
X152085000Y-113974340D02*
X152085000Y-111835000D01*
X152010000Y-111760000D02*
X151185000Y-111760000D01*
X152085000Y-111835000D02*
X152010000Y-111760000D01*
X153096998Y-114986338D02*
X152085000Y-113974340D01*
X151185000Y-111760000D02*
X151185000Y-111135000D01*
D66*
%TO.N,GND*%
X117580000Y-114850000D02*
X117580000Y-115560000D01*
D67*
X157923002Y-114986338D02*
X157923002Y-114832289D01*
D68*
X168330000Y-129540000D02*
X169410000Y-128460000D01*
X147720000Y-111080000D02*
X148890000Y-109910000D01*
X173550000Y-122855000D02*
X173365000Y-122670000D01*
D67*
X111050000Y-116100000D02*
X111150000Y-116200000D01*
D68*
X170970000Y-114420000D02*
X170970000Y-115150000D01*
X167510000Y-120620000D02*
X167510000Y-121450000D01*
X149418822Y-109381178D02*
X148890000Y-109910000D01*
D67*
X113560000Y-113860000D02*
X114300000Y-113860000D01*
D68*
X170920000Y-121520000D02*
X170920000Y-122230000D01*
D67*
X109700000Y-116100000D02*
X111050000Y-116100000D01*
X156189110Y-114598910D02*
X156189110Y-114719401D01*
X141525000Y-118275000D02*
X141540000Y-118260000D01*
X157923002Y-114832289D02*
X158668790Y-114086501D01*
X136880000Y-118665000D02*
X138345000Y-118665000D01*
X160280000Y-129380000D02*
X160280000Y-128580000D01*
X170040000Y-123140000D02*
X170040000Y-122670000D01*
X109700000Y-120600000D02*
X110560000Y-120600000D01*
X113550000Y-111130000D02*
X113550000Y-111600000D01*
X142225000Y-118275000D02*
X141525000Y-118275000D01*
D68*
X147231178Y-111778822D02*
X147720000Y-111290000D01*
D67*
X120840000Y-124800000D02*
X121760000Y-124800000D01*
X113550000Y-111600000D02*
X113550000Y-112214000D01*
X113550000Y-112214000D02*
X113560000Y-112224000D01*
X154157658Y-122994322D02*
X154146856Y-122994322D01*
X144080000Y-128940000D02*
X144550000Y-128470000D01*
X157808609Y-112979411D02*
X156862342Y-113925678D01*
X119385000Y-132940000D02*
X119320000Y-132875000D01*
D68*
X171610000Y-115150000D02*
X170990000Y-115150000D01*
X171630000Y-121550000D02*
X171610000Y-121530000D01*
X170970000Y-115150000D02*
X170980000Y-115160000D01*
X170930000Y-122240000D02*
X170930000Y-122210000D01*
X173550000Y-124500000D02*
X172810000Y-124500000D01*
X168410000Y-126200000D02*
X168775000Y-125835000D01*
D67*
X113560000Y-113860000D02*
X113560000Y-114412000D01*
X114825000Y-124800000D02*
X115767009Y-124800000D01*
D66*
X160991178Y-120759198D02*
X160044322Y-119812342D01*
D67*
X158300589Y-112979411D02*
X158423000Y-112857000D01*
X121760000Y-124800000D02*
X121860000Y-124700000D01*
X150999340Y-115010000D02*
X150210000Y-115010000D01*
X152719767Y-116719767D02*
X152817764Y-116719767D01*
D68*
X173340000Y-112270000D02*
X172575292Y-112270000D01*
X170040000Y-118350000D02*
X170890000Y-118350000D01*
X171660000Y-121550000D02*
X171630000Y-121550000D01*
D67*
X154146856Y-122994322D02*
X153030589Y-124110589D01*
X121175000Y-132875000D02*
X121110000Y-132940000D01*
D68*
X168410000Y-127960000D02*
X168410000Y-126200000D01*
X153500000Y-106490000D02*
X154339411Y-106490000D01*
X171610000Y-121530000D02*
X170930000Y-121530000D01*
D66*
X117580000Y-114850000D02*
X118040000Y-114850000D01*
D68*
X173340000Y-114005000D02*
X173365000Y-114030000D01*
D67*
X153030589Y-124139411D02*
X152510000Y-124660000D01*
D66*
X117000000Y-114850000D02*
X117580000Y-114850000D01*
D67*
X143080000Y-132920000D02*
X143240000Y-132920000D01*
X137840000Y-127390000D02*
X137840000Y-128040000D01*
D68*
X165570000Y-128540000D02*
X165580013Y-128529987D01*
D67*
X142090000Y-128900000D02*
X142550000Y-128440000D01*
X146840000Y-129470000D02*
X146850000Y-129480000D01*
D68*
X165570000Y-129540000D02*
X165570000Y-128540000D01*
D67*
X152046998Y-116046998D02*
X152719767Y-116719767D01*
D68*
X166290000Y-123170000D02*
X166280000Y-123160000D01*
D67*
X155708822Y-112021178D02*
X156250000Y-111480000D01*
D68*
X177565000Y-122670000D02*
X177565000Y-123695000D01*
X177565000Y-114030000D02*
X177565000Y-113015000D01*
D67*
X113560000Y-122200000D02*
X113560000Y-122570000D01*
X121110000Y-132940000D02*
X119385000Y-132940000D01*
D68*
X154339411Y-106490000D02*
X154349411Y-106500000D01*
X171640000Y-115150000D02*
X171610000Y-115150000D01*
X170890000Y-118350000D02*
X170900026Y-118339974D01*
D67*
X114120000Y-122570000D02*
X114170000Y-122620000D01*
X113550000Y-111600000D02*
X114310000Y-111600000D01*
X160991178Y-121168822D02*
X161433000Y-121610644D01*
D68*
X161560000Y-125690000D02*
X160820000Y-125690000D01*
D67*
X113560000Y-122570000D02*
X113560000Y-123200000D01*
X169430000Y-109150000D02*
X168440000Y-109150000D01*
D68*
X165570000Y-129540000D02*
X168330000Y-129540000D01*
D67*
X166060000Y-112700000D02*
X166720000Y-112700000D01*
X113560000Y-122570000D02*
X114120000Y-122570000D01*
X142090000Y-129470000D02*
X142090000Y-128900000D01*
X113560000Y-116050000D02*
X114144708Y-116050000D01*
D68*
X166290000Y-123880000D02*
X166290000Y-123170000D01*
X170990000Y-115150000D02*
X170980000Y-115160000D01*
D67*
X110560000Y-120600000D02*
X111180000Y-121220000D01*
D68*
X167510000Y-121410000D02*
X167520000Y-121400000D01*
X147231178Y-111781178D02*
X147231178Y-111778822D01*
D66*
X123570000Y-112610000D02*
X123590000Y-112630000D01*
D67*
X141540000Y-118260000D02*
X141570000Y-118260000D01*
X140100000Y-129470000D02*
X140100000Y-128980000D01*
D68*
X173550000Y-124500000D02*
X173550000Y-122855000D01*
X172575292Y-112270000D02*
X172562646Y-112282646D01*
D67*
X146335000Y-115940000D02*
X146335000Y-115295000D01*
D66*
X122470000Y-112610000D02*
X123570000Y-112610000D01*
D68*
X147720000Y-111290000D02*
X147720000Y-111080000D01*
X151849411Y-106500000D02*
X152680000Y-106500000D01*
X152680000Y-106500000D02*
X152690000Y-106490000D01*
D67*
X146070000Y-129470000D02*
X146840000Y-129470000D01*
D68*
X171610000Y-115060000D02*
X170970000Y-114420000D01*
D67*
X122895000Y-132875000D02*
X121175000Y-132875000D01*
X114144708Y-116050000D02*
X114217354Y-116122646D01*
X142240000Y-132080000D02*
X143080000Y-132920000D01*
X153030589Y-124110589D02*
X153030589Y-124139411D01*
D68*
X177565000Y-113015000D02*
X177550000Y-113000000D01*
D67*
X140100000Y-128980000D02*
X140470000Y-128610000D01*
D68*
X173340000Y-112270000D02*
X173340000Y-114005000D01*
X149431178Y-109381178D02*
X149418822Y-109381178D01*
D67*
X137840000Y-128040000D02*
X137870000Y-128070000D01*
D68*
X171610000Y-115150000D02*
X171610000Y-115060000D01*
X177565000Y-123695000D02*
X177600000Y-123730000D01*
X170920000Y-122230000D02*
X170930000Y-122240000D01*
D67*
X115767009Y-124800000D02*
X115787009Y-124780000D01*
X158239411Y-112979411D02*
X157808609Y-112979411D01*
X138345000Y-118665000D02*
X138350000Y-118670000D01*
D68*
X160767500Y-134467500D02*
X160760000Y-134460000D01*
D67*
X113560000Y-116050000D02*
X113560000Y-116600000D01*
D68*
X172765000Y-121550000D02*
X171660000Y-121550000D01*
X152690000Y-106490000D02*
X153500000Y-106490000D01*
D67*
X113560000Y-115506000D02*
X113560000Y-116050000D01*
X161433000Y-121610644D02*
X161433000Y-121630000D01*
D68*
X170930000Y-122210000D02*
X171610000Y-121530000D01*
D67*
X162440624Y-115569376D02*
X162920000Y-115090000D01*
X152036338Y-116046998D02*
X150999340Y-115010000D01*
X121845000Y-124685000D02*
X121860000Y-124700000D01*
X155708822Y-112041178D02*
X155708822Y-112021178D01*
X152036338Y-116046998D02*
X152046998Y-116046998D01*
D66*
X160991178Y-121168822D02*
X160991178Y-120759198D01*
D68*
X167510000Y-121450000D02*
X167510000Y-121410000D01*
D67*
X156862342Y-113925678D02*
X156189110Y-114598910D01*
X168440000Y-109150000D02*
X168420000Y-109130000D01*
D68*
X161450000Y-134467500D02*
X160767500Y-134467500D01*
X172765000Y-115150000D02*
X171640000Y-115150000D01*
D67*
X162440624Y-115570624D02*
X162440624Y-115569376D01*
X121845000Y-122800000D02*
X121845000Y-124685000D01*
X158423000Y-112857000D02*
X158423000Y-112433248D01*
X146335000Y-115295000D02*
X146340000Y-115290000D01*
X144080000Y-129470000D02*
X144080000Y-128940000D01*
X158239411Y-112979411D02*
X158300589Y-112979411D01*
X113560000Y-113318000D02*
X113560000Y-113860000D01*
D65*
%TO.N,Net-(U1-PH1)*%
X152743445Y-115339891D02*
X151386554Y-113983000D01*
X151386554Y-113983000D02*
X150258000Y-113983000D01*
X149435000Y-113160000D02*
X148610000Y-113160000D01*
X148610000Y-113160000D02*
X147910000Y-112460000D01*
X150258000Y-113983000D02*
X149435000Y-113160000D01*
%TO.N,Net-(U1-PC14)*%
X153236167Y-110312655D02*
X154349411Y-109199411D01*
X153804105Y-114279231D02*
X153236167Y-113711293D01*
X154349411Y-109199411D02*
X154349411Y-107460000D01*
X153236167Y-113711293D02*
X153236167Y-110312655D01*
%TO.N,Net-(U1-PC15)*%
X152786167Y-110136167D02*
X151849411Y-109199411D01*
X153450551Y-114632785D02*
X152786167Y-113968401D01*
X152786167Y-113968401D02*
X152786167Y-110136167D01*
X151849411Y-109199411D02*
X151849411Y-107460000D01*
D67*
%TO.N,+3V0*%
X134625070Y-134554223D02*
X133147793Y-136031500D01*
X151081645Y-115799411D02*
X151682785Y-116400551D01*
D66*
X155550000Y-113572124D02*
X155550000Y-114843998D01*
D68*
X153709411Y-124789411D02*
X154252888Y-124245934D01*
X176100000Y-110750000D02*
X176100000Y-107150000D01*
D67*
X149250000Y-115010000D02*
X148470000Y-115010000D01*
D66*
X176171000Y-123850000D02*
X176171000Y-123511000D01*
D67*
X157560589Y-112520323D02*
X156508788Y-113572124D01*
X105031500Y-136031500D02*
X102800000Y-133800000D01*
X148179411Y-115799411D02*
X149990589Y-115799411D01*
X137710000Y-135847000D02*
X151173000Y-135847000D01*
D66*
X176171000Y-123511000D02*
X175973000Y-123313000D01*
D67*
X135917847Y-135847000D02*
X137710000Y-135847000D01*
D68*
X163694000Y-101404000D02*
X146166000Y-101404000D01*
X172440000Y-135900000D02*
X172440000Y-135852577D01*
X154940000Y-132080000D02*
X158810000Y-135950000D01*
D67*
X155060000Y-122799088D02*
X154511212Y-123347876D01*
D66*
X152400000Y-117117766D02*
X152400000Y-118050000D01*
D68*
X176100000Y-132192577D02*
X176100000Y-129550000D01*
D67*
X133147793Y-136031500D02*
X105031500Y-136031500D01*
D66*
X154511212Y-113572124D02*
X155550000Y-113572124D01*
D67*
X161670000Y-120490000D02*
X161429088Y-120490000D01*
D68*
X175890000Y-110960000D02*
X176100000Y-110750000D01*
D67*
X133570000Y-101310000D02*
X105490000Y-101310000D01*
D66*
X161429088Y-120490000D02*
X160397876Y-119458788D01*
D68*
X158810000Y-135950000D02*
X166618270Y-135950000D01*
X154252888Y-124245934D02*
X154700002Y-124245934D01*
D66*
X155550000Y-113572124D02*
X156508788Y-113572124D01*
D68*
X155720000Y-128040000D02*
X159611102Y-124148898D01*
X154940000Y-132080000D02*
X154940000Y-129570000D01*
X159611102Y-124148898D02*
X160141102Y-124148898D01*
D67*
X137710000Y-134070000D02*
X137710000Y-135847000D01*
X103980000Y-101870000D02*
X102900000Y-102950000D01*
D66*
X175973000Y-111043000D02*
X175890000Y-110960000D01*
D67*
X151682785Y-116400551D02*
X152152722Y-116870488D01*
D66*
X115540000Y-111550000D02*
X126105266Y-111550000D01*
D68*
X144780000Y-102790000D02*
X144780000Y-104140000D01*
X166320289Y-105477000D02*
X165230000Y-104386711D01*
D66*
X152152722Y-116870488D02*
X152400000Y-117117766D01*
X133570000Y-104085266D02*
X133570000Y-101310000D01*
X146072000Y-101310000D02*
X146166000Y-101404000D01*
D68*
X155720000Y-128790000D02*
X155720000Y-128040000D01*
D67*
X147930000Y-115550000D02*
X148179411Y-115799411D01*
D66*
X175973000Y-123313000D02*
X175973000Y-111043000D01*
D68*
X154252888Y-124245934D02*
X154252888Y-123644382D01*
D67*
X155060000Y-120710000D02*
X155060000Y-122799088D01*
D68*
X154252888Y-123644382D02*
X154530303Y-123366967D01*
X176100000Y-129550000D02*
X176171000Y-129479000D01*
X172440000Y-135852577D02*
X176100000Y-132192577D01*
D67*
X149990589Y-115799411D02*
X151081645Y-115799411D01*
X148470000Y-115010000D02*
X147930000Y-115550000D01*
D66*
X154511212Y-113238788D02*
X155030000Y-112720000D01*
X153830000Y-119480000D02*
X155060000Y-120710000D01*
D68*
X176171000Y-129479000D02*
X176171000Y-123850000D01*
D66*
X166618270Y-135950000D02*
X172390000Y-135950000D01*
X155279002Y-115807000D02*
X155119397Y-115807000D01*
X155657000Y-115429002D02*
X155279002Y-115807000D01*
D67*
X104930000Y-101870000D02*
X103980000Y-101870000D01*
X139700000Y-132080000D02*
X137710000Y-134070000D01*
D66*
X155657000Y-114950998D02*
X155657000Y-115429002D01*
D68*
X165230000Y-104386711D02*
X165230000Y-102940000D01*
D66*
X153830000Y-117096397D02*
X153830000Y-119480000D01*
D68*
X162110000Y-120930000D02*
X161670000Y-120490000D01*
D66*
X126105266Y-111550000D02*
X133570000Y-104085266D01*
D68*
X146166000Y-101404000D02*
X144780000Y-102790000D01*
X154940000Y-129570000D02*
X155720000Y-128790000D01*
X165230000Y-102940000D02*
X163694000Y-101404000D01*
D66*
X133570000Y-101310000D02*
X146072000Y-101310000D01*
X172390000Y-135950000D02*
X172440000Y-135900000D01*
D68*
X160141102Y-124148898D02*
X162110000Y-122180000D01*
D66*
X155119397Y-115807000D02*
X153830000Y-117096397D01*
D68*
X174427000Y-105477000D02*
X166320289Y-105477000D01*
D66*
X152400000Y-118050000D02*
X153830000Y-119480000D01*
D67*
X157560589Y-112300589D02*
X157560589Y-112520323D01*
X151173000Y-135847000D02*
X154940000Y-132080000D01*
D66*
X154511212Y-113572124D02*
X154511212Y-113238788D01*
D68*
X176100000Y-107150000D02*
X174427000Y-105477000D01*
D67*
X105490000Y-101310000D02*
X104930000Y-101870000D01*
D66*
X155550000Y-114843998D02*
X155657000Y-114950998D01*
D67*
X134625070Y-134554223D02*
X135917847Y-135847000D01*
D68*
X162110000Y-122180000D02*
X162110000Y-120930000D01*
%TO.N,/VBUS*%
X168910000Y-117122209D02*
X168910000Y-117830000D01*
X165760000Y-125710000D02*
X167380000Y-125710000D01*
X168810000Y-119477791D02*
X168810000Y-118770000D01*
D67*
X167808159Y-130030000D02*
X166194225Y-130030000D01*
X166050000Y-116250624D02*
X166060000Y-116240624D01*
X172152000Y-131922000D02*
X171315000Y-131085000D01*
D68*
X168470000Y-124569709D02*
X167505000Y-125534709D01*
D67*
X166050000Y-116250624D02*
X168038415Y-116250624D01*
D68*
X165760000Y-125710000D02*
X165760000Y-125782209D01*
D67*
X164904500Y-130217000D02*
X163590709Y-128903209D01*
X166728000Y-133855500D02*
X166728000Y-132579114D01*
D68*
X168810000Y-119477791D02*
X168810000Y-120280000D01*
D67*
X163590709Y-128903209D02*
X163590709Y-127951500D01*
X166728000Y-132579114D02*
X167170114Y-132137000D01*
D68*
X168470000Y-120620000D02*
X168470000Y-121550000D01*
D67*
X167430000Y-134557500D02*
X171430000Y-134557500D01*
D68*
X167380000Y-125710000D02*
X167505000Y-125835000D01*
X165760000Y-125782209D02*
X163590709Y-127951500D01*
X168390000Y-118350000D02*
X167765000Y-118350000D01*
X168910000Y-117830000D02*
X168390000Y-118350000D01*
D67*
X161740624Y-116250624D02*
X166050000Y-116250624D01*
D68*
X168470000Y-121550000D02*
X168470000Y-124569709D01*
X172765000Y-115950000D02*
X170082209Y-115950000D01*
D67*
X167430000Y-134557500D02*
X166728000Y-133855500D01*
X172152000Y-133835500D02*
X172152000Y-131922000D01*
D68*
X167780291Y-123880000D02*
X168470000Y-124569709D01*
X170082209Y-115950000D02*
X168910000Y-117122209D01*
D67*
X168038415Y-116250624D02*
X168910000Y-117122209D01*
X167811159Y-132137000D02*
X168032000Y-131916159D01*
D68*
X167505000Y-125534709D02*
X167505000Y-125835000D01*
D67*
X166060000Y-116240624D02*
X166060000Y-115660000D01*
X167170114Y-132137000D02*
X167811159Y-132137000D01*
D68*
X167310000Y-123880000D02*
X167780291Y-123880000D01*
D67*
X166194225Y-130030000D02*
X166007225Y-130217000D01*
X166007225Y-130217000D02*
X164904500Y-130217000D01*
X171450000Y-134537500D02*
X172152000Y-133835500D01*
D68*
X170082209Y-120750000D02*
X168810000Y-119477791D01*
X168810000Y-120280000D02*
X168470000Y-120620000D01*
D67*
X171430000Y-134557500D02*
X171450000Y-134537500D01*
D68*
X168810000Y-118770000D02*
X168390000Y-118350000D01*
D67*
X168032000Y-131916159D02*
X168032000Y-130253841D01*
D68*
X172765000Y-120750000D02*
X170082209Y-120750000D01*
D67*
X168032000Y-130253841D02*
X167808159Y-130030000D01*
D68*
%TO.N,Net-(D9-K)*%
X163660000Y-125710000D02*
X162540000Y-125710000D01*
X161013709Y-127145708D02*
X161779417Y-126380000D01*
X162140000Y-126380000D02*
X162520000Y-126000000D01*
X162640709Y-129826500D02*
X162640709Y-125810709D01*
X162400000Y-132592500D02*
X161013709Y-131206209D01*
X162540000Y-125710000D02*
X162520000Y-125690000D01*
X161779417Y-126380000D02*
X162140000Y-126380000D01*
X161013709Y-131206209D02*
X161013709Y-127145708D01*
X162520000Y-126000000D02*
X162520000Y-125690000D01*
X162640709Y-125810709D02*
X162520000Y-125690000D01*
%TO.N,Net-(J8-Pin_1)*%
X157480000Y-129250000D02*
X157020000Y-128790000D01*
X160500000Y-132592500D02*
X157992500Y-132592500D01*
X157480000Y-132080000D02*
X157480000Y-129250000D01*
X157992500Y-132592500D02*
X157480000Y-132080000D01*
X160280000Y-132372500D02*
X160500000Y-132592500D01*
X160280000Y-130340000D02*
X160280000Y-132372500D01*
D67*
%TO.N,/E-Ink display/VCOM*%
X111320000Y-112600000D02*
X109700000Y-112600000D01*
X112590000Y-111130000D02*
X112590000Y-111330000D01*
X112590000Y-111330000D02*
X111320000Y-112600000D01*
%TO.N,/E-Ink display/VSL*%
X112318000Y-113600000D02*
X109700000Y-113600000D01*
X112600000Y-113318000D02*
X112318000Y-113600000D01*
%TO.N,/E-Ink display/VSH*%
X112600000Y-115506000D02*
X111694000Y-114600000D01*
X111694000Y-114600000D02*
X109700000Y-114600000D01*
%TO.N,/E-Ink display/VDD*%
X111600000Y-115600000D02*
X109700000Y-115600000D01*
X112600000Y-116600000D02*
X111600000Y-115600000D01*
%TO.N,/E-Ink display/VCI*%
X118895000Y-123815000D02*
X119880000Y-124800000D01*
X116987500Y-122800000D02*
X118895000Y-122800000D01*
X118895000Y-122800000D02*
X118895000Y-123815000D01*
%TO.N,/E-Ink display/VGH*%
X109700000Y-122100000D02*
X112500000Y-122100000D01*
X112500000Y-122100000D02*
X112600000Y-122200000D01*
%TO.N,/E-Ink display/PREVGL*%
X116071000Y-112761000D02*
X113137000Y-112761000D01*
X111724000Y-113100000D02*
X109700000Y-113100000D01*
X116071000Y-112761000D02*
X116267000Y-112565000D01*
X112600000Y-112224000D02*
X111724000Y-113100000D01*
X116267000Y-112565000D02*
X119960000Y-112565000D01*
X113137000Y-112761000D02*
X112600000Y-112224000D01*
D69*
%TO.N,/BUSY*%
X116807539Y-120094500D02*
X118451082Y-120094500D01*
X114590774Y-120400000D02*
X114838774Y-120152000D01*
X118487582Y-120058000D02*
X119949582Y-121520000D01*
X116750039Y-120152000D02*
X116807539Y-120094500D01*
D67*
X119949582Y-121520000D02*
X122495104Y-121520000D01*
X112710000Y-120400000D02*
X114590774Y-120400000D01*
D69*
X118451082Y-120094500D02*
X118487582Y-120058000D01*
X114838774Y-120152000D02*
X116750039Y-120152000D01*
D67*
X122495104Y-121520000D02*
X123825104Y-122850000D01*
X123825104Y-122850000D02*
X147400000Y-122850000D01*
%TO.N,/~{RES}*%
X117633000Y-101964000D02*
X107777000Y-111820000D01*
X120320000Y-120570000D02*
X120290000Y-120600000D01*
X112360104Y-119795000D02*
X112293104Y-119728000D01*
X130000000Y-103590000D02*
X128374000Y-101964000D01*
X144747372Y-121910000D02*
X128120000Y-121910000D01*
X107777000Y-111944028D02*
X107730000Y-111991028D01*
D69*
X116644829Y-119898000D02*
X113259580Y-119898000D01*
X113156580Y-119795000D02*
X112360104Y-119795000D01*
X119430420Y-119740420D02*
X119430420Y-119738000D01*
D67*
X109062448Y-119600000D02*
X109700000Y-119600000D01*
D69*
X116702329Y-119840500D02*
X116644829Y-119898000D01*
X118250420Y-119738000D02*
X118147920Y-119840500D01*
D67*
X147400000Y-121810000D02*
X147290500Y-121919500D01*
X107730000Y-111991028D02*
X107730000Y-118267552D01*
X110300000Y-119600000D02*
X109700000Y-119600000D01*
X126780000Y-120570000D02*
X120320000Y-120570000D01*
X128120000Y-121910000D02*
X126780000Y-120570000D01*
X112293104Y-119728000D02*
X110428000Y-119728000D01*
X107730000Y-118267552D02*
X109062448Y-119600000D01*
X110428000Y-119728000D02*
X110300000Y-119600000D01*
D69*
X118147920Y-119840500D02*
X116702329Y-119840500D01*
D67*
X107777000Y-111820000D02*
X107777000Y-111944028D01*
D69*
X119430420Y-119738000D02*
X118250420Y-119738000D01*
D67*
X147290500Y-121919500D02*
X144756872Y-121919500D01*
D69*
X144756872Y-121919500D02*
X144747372Y-121910000D01*
D67*
X128374000Y-101964000D02*
X117633000Y-101964000D01*
D69*
X113259580Y-119898000D02*
X113156580Y-119795000D01*
X120290000Y-120600000D02*
X119430420Y-119740420D01*
D67*
%TO.N,/D{slash}~{C}*%
X147400000Y-120640000D02*
X146870000Y-121170000D01*
D69*
X113364790Y-119644000D02*
X116539619Y-119644000D01*
D67*
X130260500Y-119447500D02*
X120482500Y-119447500D01*
X109100000Y-119100000D02*
X109700000Y-119100000D01*
X111095709Y-119401000D02*
X110794709Y-119100000D01*
D69*
X113188790Y-119468000D02*
X113364790Y-119644000D01*
D67*
X120482500Y-119447500D02*
X120480000Y-119450000D01*
D69*
X120446000Y-119484000D02*
X120480000Y-119450000D01*
X116539619Y-119644000D02*
X116597119Y-119586500D01*
D67*
X117869000Y-102291000D02*
X108104000Y-112056000D01*
X112495552Y-119468000D02*
X112428552Y-119401000D01*
X112428552Y-119401000D02*
X111095709Y-119401000D01*
X108104000Y-112056000D02*
X108104000Y-112079476D01*
D69*
X118042710Y-119586500D02*
X118145210Y-119484000D01*
D67*
X108100000Y-112083476D02*
X108100000Y-118100000D01*
X128000000Y-103590000D02*
X126701000Y-102291000D01*
X126701000Y-102291000D02*
X117869000Y-102291000D01*
D69*
X116597119Y-119586500D02*
X118042710Y-119586500D01*
X118145210Y-119484000D02*
X120446000Y-119484000D01*
D67*
X108100000Y-118100000D02*
X109100000Y-119100000D01*
X108104000Y-112079476D02*
X108100000Y-112083476D01*
X146870000Y-121170000D02*
X131983000Y-121170000D01*
X110794709Y-119100000D02*
X109700000Y-119100000D01*
X131983000Y-121170000D02*
X130260500Y-119447500D01*
D69*
X112495552Y-119468000D02*
X113188790Y-119468000D01*
D67*
%TO.N,/E-Ink display/VGL*%
X109700000Y-122600000D02*
X112000000Y-122600000D01*
X112000000Y-122600000D02*
X112600000Y-123200000D01*
%TO.N,Net-(D12-A)*%
X116323000Y-123710500D02*
X115412500Y-122800000D01*
X113800000Y-128737500D02*
X114145659Y-128737500D01*
X114145659Y-128737500D02*
X116323000Y-126560159D01*
X117640000Y-120860000D02*
X115370000Y-120860000D01*
X115370000Y-120860000D02*
X115220000Y-121010000D01*
X116323000Y-126560159D02*
X116323000Y-123710500D01*
X115220000Y-121010000D02*
X115220000Y-122607500D01*
X115220000Y-122607500D02*
X115412500Y-122800000D01*
D66*
%TO.N,Net-(D10-A)*%
X122425000Y-115865000D02*
X122470000Y-115910000D01*
X117640000Y-117910000D02*
X119685000Y-115865000D01*
X119960000Y-115865000D02*
X122425000Y-115865000D01*
X119685000Y-115865000D02*
X119960000Y-115865000D01*
D67*
%TO.N,/E-Ink display/PREVGH*%
X112600000Y-114412000D02*
X112288000Y-114100000D01*
X115220000Y-116933159D02*
X115163000Y-116876158D01*
X115220000Y-117710000D02*
X115220000Y-116933159D01*
X113157000Y-114969000D02*
X112600000Y-114412000D01*
X113852016Y-114969000D02*
X113157000Y-114969000D01*
X115163000Y-116876158D02*
X115163000Y-116279984D01*
X115163000Y-116279984D02*
X113852016Y-114969000D01*
X112288000Y-114100000D02*
X109700000Y-114100000D01*
%TO.N,/WAKEUP*%
X148702530Y-125777000D02*
X150284765Y-124194765D01*
X151810000Y-117980000D02*
X151810000Y-117234874D01*
X148115054Y-117753000D02*
X148808042Y-117753000D01*
X148115054Y-125777000D02*
X148702530Y-125777000D01*
X148808042Y-117753000D02*
X149113663Y-118058621D01*
X147900000Y-117968054D02*
X147900000Y-123161946D01*
X147903000Y-125564946D02*
X148115054Y-125777000D01*
X147903000Y-123164946D02*
X147903000Y-125564946D01*
X147900000Y-123161946D02*
X147903000Y-123164946D01*
X147900000Y-117968054D02*
X148115054Y-117753000D01*
X151810000Y-117234874D02*
X151329231Y-116754105D01*
%TO.N,+BATT*%
X171430000Y-108725420D02*
X171430000Y-109150000D01*
X136032420Y-116517000D02*
X135753000Y-116237580D01*
X167341709Y-107173000D02*
X169877580Y-107173000D01*
X145863000Y-105082420D02*
X145863000Y-102904552D01*
X139803000Y-116517000D02*
X136032420Y-116517000D01*
D68*
X162421418Y-131090000D02*
X161690709Y-130359291D01*
D67*
X135753000Y-116237580D02*
X135753000Y-115192420D01*
X145863000Y-102904552D02*
X146587552Y-102180000D01*
D68*
X172710000Y-109030000D02*
X171550000Y-109030000D01*
D67*
X169877580Y-107173000D02*
X171430000Y-108725420D01*
D68*
X165570000Y-131090000D02*
X165570000Y-134015018D01*
X161690709Y-130359291D02*
X161690709Y-127951500D01*
X175446000Y-123531290D02*
X175446000Y-111766000D01*
D67*
X164753000Y-104584291D02*
X167341709Y-107173000D01*
X164753000Y-103433000D02*
X164753000Y-104584291D01*
D68*
X173070000Y-127506526D02*
X175544000Y-125032526D01*
X175446000Y-111766000D02*
X172710000Y-109030000D01*
X166926982Y-135372000D02*
X171933018Y-135372000D01*
D67*
X135753000Y-115192420D02*
X145863000Y-105082420D01*
D68*
X165575000Y-131085000D02*
X165570000Y-131090000D01*
D67*
X140150000Y-116170000D02*
X139803000Y-116517000D01*
D68*
X175544000Y-125032526D02*
X175544000Y-123629291D01*
X175544000Y-123629291D02*
X175446000Y-123531290D01*
X171550000Y-109030000D02*
X171430000Y-109150000D01*
X167505000Y-131085000D02*
X165575000Y-131085000D01*
X173070000Y-134235018D02*
X173070000Y-127506526D01*
D67*
X146587552Y-102180000D02*
X163500000Y-102180000D01*
D68*
X165570000Y-134015018D02*
X166926982Y-135372000D01*
X165570000Y-131090000D02*
X162421418Y-131090000D01*
X171933018Y-135372000D02*
X173070000Y-134235018D01*
D67*
X163500000Y-102180000D02*
X164753000Y-103433000D01*
%TO.N,/BUTTON0*%
X157359000Y-123490980D02*
X157359000Y-123861674D01*
X140523000Y-130017000D02*
X138771187Y-130017000D01*
X131650000Y-134690000D02*
X118019392Y-134690000D01*
X149326770Y-127465000D02*
X142435000Y-127465000D01*
X156862342Y-122994322D02*
X157359000Y-123490980D01*
X157359000Y-123861674D02*
X154096674Y-127124000D01*
X154096674Y-127124000D02*
X152576261Y-127124000D01*
X152455261Y-127003000D02*
X149788770Y-127003000D01*
X135629187Y-133159000D02*
X133181000Y-133159000D01*
X133181000Y-133159000D02*
X131650000Y-134690000D01*
X118019392Y-134690000D02*
X113604696Y-130275304D01*
X141070000Y-129470000D02*
X140523000Y-130017000D01*
X141070000Y-129470000D02*
X141070000Y-128830000D01*
X141070000Y-128830000D02*
X141580000Y-128320000D01*
X138771187Y-130017000D02*
X135629187Y-133159000D01*
X149788770Y-127003000D02*
X149326770Y-127465000D01*
X104029995Y-120700603D02*
X113622392Y-130293000D01*
X142435000Y-127465000D02*
X141580000Y-128320000D01*
X102800000Y-119470608D02*
X104029995Y-120700603D01*
X152576261Y-127124000D02*
X152455261Y-127003000D01*
X102800000Y-107100000D02*
X102800000Y-119470608D01*
%TO.N,Net-(D2-A)*%
X135957774Y-125039000D02*
X147189000Y-125039000D01*
X130166774Y-130830000D02*
X135957774Y-125039000D01*
X123365000Y-130830000D02*
X130166774Y-130830000D01*
X147189000Y-125039000D02*
X147380000Y-125230000D01*
X122895000Y-131300000D02*
X123365000Y-130830000D01*
%TO.N,Net-(D4-A)*%
X147400000Y-124080000D02*
X126540000Y-124080000D01*
X126540000Y-124080000D02*
X119320000Y-131300000D01*
%TO.N,/E-Ink display/GDR*%
X111170000Y-123600000D02*
X109700000Y-123600000D01*
X113156159Y-127827000D02*
X112223000Y-127827000D01*
X114120659Y-126862500D02*
X113156159Y-127827000D01*
X111290000Y-126894000D02*
X111290000Y-123720000D01*
X112223000Y-127827000D02*
X111290000Y-126894000D01*
X111290000Y-123720000D02*
X111170000Y-123600000D01*
X114750000Y-126862500D02*
X114120659Y-126862500D01*
%TO.N,/E-Ink display/RESE*%
X113000000Y-124800000D02*
X113000000Y-126712500D01*
X111300000Y-123100000D02*
X113000000Y-124800000D01*
X109700000Y-123100000D02*
X111300000Y-123100000D01*
X113000000Y-126712500D02*
X112850000Y-126862500D01*
%TO.N,Net-(D7-K)*%
X168147500Y-133700000D02*
X167430000Y-132982500D01*
X168770000Y-133700000D02*
X168147500Y-133700000D01*
%TO.N,Net-(D8-K)*%
X170050000Y-133720000D02*
X170692500Y-133720000D01*
X170692500Y-133720000D02*
X171450000Y-132962500D01*
%TO.N,/SCLK*%
X118148524Y-102618000D02*
X108450000Y-112316524D01*
X108450000Y-112316524D02*
X108450000Y-117453000D01*
X111543000Y-118053000D02*
X109747000Y-118053000D01*
X133950000Y-120350000D02*
X131680000Y-118080000D01*
D69*
X118174790Y-118976000D02*
X116324790Y-118976000D01*
X116324790Y-118976000D02*
X116223790Y-119077000D01*
D67*
X123028000Y-102618000D02*
X118148524Y-102618000D01*
X108450000Y-117453000D02*
X109097000Y-118100000D01*
D69*
X112520632Y-118053000D02*
X111543000Y-118053000D01*
D67*
X146520000Y-120350000D02*
X133950000Y-120350000D01*
D69*
X119083171Y-118956000D02*
X118194790Y-118956000D01*
X119959171Y-118080000D02*
X119083171Y-118956000D01*
D67*
X109747000Y-118053000D02*
X109700000Y-118100000D01*
D69*
X113544632Y-119077000D02*
X112520632Y-118053000D01*
X118194790Y-118956000D02*
X118174790Y-118976000D01*
D67*
X109097000Y-118100000D02*
X109700000Y-118100000D01*
X131680000Y-118080000D02*
X120630000Y-118080000D01*
X146520000Y-120350000D02*
X146520000Y-119180000D01*
D69*
X116223790Y-119077000D02*
X113544632Y-119077000D01*
D67*
X124000000Y-103590000D02*
X123028000Y-102618000D01*
D69*
X120630000Y-118080000D02*
X119959171Y-118080000D01*
D67*
X146520000Y-119180000D02*
X147400000Y-118300000D01*
%TO.N,/MOSI*%
X109100000Y-117600000D02*
X109700000Y-117600000D01*
X145980000Y-118609393D02*
X147400000Y-117189393D01*
X145980000Y-119720000D02*
X145980000Y-118609393D01*
X112426842Y-117600000D02*
X109700000Y-117600000D01*
D69*
X115959094Y-118814000D02*
X113640842Y-118814000D01*
D67*
X108873000Y-117373000D02*
X109100000Y-117600000D01*
D69*
X120279582Y-116920000D02*
X118497582Y-118702000D01*
X116061094Y-118712000D02*
X115959094Y-118814000D01*
D67*
X145980000Y-119720000D02*
X135820000Y-119720000D01*
X147400000Y-117189393D02*
X147400000Y-117130000D01*
X108873000Y-112355972D02*
X108873000Y-117373000D01*
D69*
X118497582Y-118702000D02*
X118089580Y-118702000D01*
X113640842Y-118814000D02*
X112426842Y-117600000D01*
D67*
X135820000Y-119720000D02*
X133020000Y-116920000D01*
X117638972Y-103590000D02*
X108873000Y-112355972D01*
D69*
X118089580Y-118702000D02*
X118079580Y-118712000D01*
D67*
X133020000Y-116920000D02*
X120279582Y-116920000D01*
X122000000Y-103590000D02*
X117638972Y-103590000D01*
D69*
X118079580Y-118712000D02*
X116061094Y-118712000D01*
D67*
%TO.N,/PB7*%
X154686448Y-105544000D02*
X151264000Y-105544000D01*
X159277000Y-110134552D02*
X154686448Y-105544000D01*
X151264000Y-105544000D02*
X149860000Y-104140000D01*
X159277000Y-114339446D02*
X159277000Y-110134552D01*
X158276555Y-115339891D02*
X159277000Y-114339446D01*
%TO.N,/PB8*%
X158950000Y-112990000D02*
X158950000Y-110270000D01*
X158039385Y-114162849D02*
X158039385Y-113900615D01*
X157569449Y-114632785D02*
X158039385Y-114162849D01*
X149051000Y-105871000D02*
X147320000Y-104140000D01*
X158950000Y-110270000D02*
X154551000Y-105871000D01*
X154551000Y-105871000D02*
X149051000Y-105871000D01*
X158039385Y-113900615D02*
X158950000Y-112990000D01*
%TO.N,/BUTTON1*%
X153722126Y-128425426D02*
X151867238Y-128425426D01*
X158013000Y-123804552D02*
X158013000Y-124075448D01*
X158084000Y-122801766D02*
X158084000Y-123733552D01*
X158028361Y-124090809D02*
X158028361Y-124119191D01*
X158028361Y-124119191D02*
X153722126Y-128425426D01*
X151867238Y-128425426D02*
X151788812Y-128347000D01*
X145050000Y-128830000D02*
X145560000Y-128320000D01*
X134621709Y-133813000D02*
X132730209Y-135704500D01*
X145587000Y-128347000D02*
X145560000Y-128320000D01*
X145050000Y-129470000D02*
X145050000Y-128830000D01*
X145050000Y-129470000D02*
X143667000Y-130853000D01*
X157569449Y-122287215D02*
X158084000Y-122801766D01*
X143667000Y-130853000D02*
X139191758Y-130853000D01*
X151788812Y-128347000D02*
X145587000Y-128347000D01*
X136231758Y-133813000D02*
X134621709Y-133813000D01*
X158013000Y-124075448D02*
X158028361Y-124090809D01*
X132730209Y-135704500D02*
X108904500Y-135704500D01*
X158084000Y-123733552D02*
X158013000Y-123804552D01*
X139191758Y-130853000D02*
X136231758Y-133813000D01*
X108904500Y-135704500D02*
X102800000Y-129600000D01*
%TO.N,/BUTTON2*%
X126177208Y-133157000D02*
X132583000Y-133157000D01*
X133543000Y-132197000D02*
X133543000Y-131135972D01*
X104540000Y-102380000D02*
X104430000Y-102490000D01*
X118091840Y-134300000D02*
X125034208Y-134300000D01*
X140772000Y-127138000D02*
X139590000Y-128320000D01*
X139080000Y-128830000D02*
X139590000Y-128320000D01*
X149653322Y-126676000D02*
X149191322Y-127138000D01*
X133543000Y-131135972D02*
X135208972Y-129470000D01*
X156508788Y-123347876D02*
X156508788Y-124246503D01*
X132583000Y-133157000D02*
X133543000Y-132197000D01*
X156508788Y-124246503D02*
X153958291Y-126797000D01*
X152590709Y-126676000D02*
X149653322Y-126676000D01*
X104430000Y-120638160D02*
X118091840Y-134300000D01*
X149191322Y-127138000D02*
X140772000Y-127138000D01*
X125034208Y-134300000D02*
X126177208Y-133157000D01*
X152711709Y-126797000D02*
X152590709Y-126676000D01*
X153958291Y-126797000D02*
X152711709Y-126797000D01*
X135208972Y-129470000D02*
X139080000Y-129470000D01*
X139080000Y-129470000D02*
X139080000Y-128830000D01*
X104430000Y-102490000D02*
X104430000Y-120638160D01*
%TO.N,/BUTTON3*%
X176577000Y-108253000D02*
X176577000Y-110947580D01*
X177750000Y-131500000D02*
X177533274Y-131500000D01*
X143060000Y-128830000D02*
X143570000Y-128320000D01*
X154234104Y-127451000D02*
X157686000Y-123999104D01*
X176200000Y-132833274D02*
X176200000Y-133800000D01*
X152440813Y-127451000D02*
X154234104Y-127451000D01*
X110202831Y-135272831D02*
X102327000Y-127397000D01*
X144098000Y-127792000D02*
X149462218Y-127792000D01*
X176648000Y-128323420D02*
X178325000Y-130000420D01*
X178325000Y-130925000D02*
X177750000Y-131500000D01*
X157686000Y-123999104D02*
X157686000Y-123110874D01*
X178325000Y-106505000D02*
X176577000Y-108253000D01*
X143060000Y-129470000D02*
X143060000Y-128830000D01*
X139056310Y-130526000D02*
X136096310Y-133486000D01*
X102327000Y-127397000D02*
X102327000Y-108237000D01*
X176377000Y-111147580D02*
X176377000Y-123183841D01*
X175420000Y-100600000D02*
X178325000Y-103505000D01*
X103610000Y-100600000D02*
X175420000Y-100600000D01*
X143060000Y-129470000D02*
X143060000Y-129790000D01*
X102327000Y-108237000D02*
X100600000Y-106510000D01*
X178325000Y-130000420D02*
X178325000Y-130925000D01*
X136096310Y-133486000D02*
X133944000Y-133486000D01*
X152319813Y-127330000D02*
X152440813Y-127451000D01*
X149924218Y-127330000D02*
X152319813Y-127330000D01*
X132157169Y-135272831D02*
X110202831Y-135272831D01*
X176648000Y-123454841D02*
X176648000Y-128323420D01*
X178325000Y-103505000D02*
X178325000Y-106505000D01*
X176577000Y-110947580D02*
X176377000Y-111147580D01*
X143570000Y-128320000D02*
X144098000Y-127792000D01*
X176377000Y-123183841D02*
X176648000Y-123454841D01*
X100600000Y-103610000D02*
X103610000Y-100600000D01*
X177533274Y-131500000D02*
X176200000Y-132833274D01*
X149462218Y-127792000D02*
X149924218Y-127330000D01*
X100600000Y-106510000D02*
X100600000Y-103610000D01*
X143060000Y-129790000D02*
X142324000Y-130526000D01*
X133944000Y-133486000D02*
X132157169Y-135272831D01*
X157686000Y-123110874D02*
X157215895Y-122640769D01*
X142324000Y-130526000D02*
X139056310Y-130526000D01*
%TO.N,/PA15*%
X160143959Y-117107658D02*
X161680000Y-115571617D01*
X162320000Y-114951617D02*
X162320000Y-106440000D01*
X160044322Y-117107658D02*
X160143959Y-117107658D01*
X162320000Y-106440000D02*
X160020000Y-104140000D01*
X161680000Y-115571617D02*
X161700000Y-115571617D01*
X161700000Y-115571617D02*
X162320000Y-114951617D01*
%TO.N,/SERIAL_TX*%
X152980613Y-122757153D02*
X152768189Y-122757153D01*
X147979606Y-126104000D02*
X147652606Y-125777000D01*
X147007000Y-125777000D02*
X146596000Y-125366000D01*
X149855342Y-125670000D02*
X149271978Y-125670000D01*
X148837978Y-126104000D02*
X148788448Y-126104000D01*
X149271978Y-125670000D02*
X148837978Y-126104000D01*
X148735448Y-126157000D02*
X148144552Y-126157000D01*
X148091552Y-126104000D02*
X147979606Y-126104000D01*
X148144552Y-126157000D02*
X148091552Y-126104000D01*
X148788448Y-126104000D02*
X148735448Y-126157000D01*
X153450551Y-122287215D02*
X152980613Y-122757153D01*
X146596000Y-125366000D02*
X136254000Y-125366000D01*
X152768189Y-122757153D02*
X149855342Y-125670000D01*
X147652606Y-125777000D02*
X147007000Y-125777000D01*
X136254000Y-125366000D02*
X129540000Y-132080000D01*
%TO.N,/LED0*%
X148420000Y-124080000D02*
X149613049Y-122886951D01*
X151436603Y-122886951D02*
X152743445Y-121580109D01*
X149613049Y-122886951D02*
X151436603Y-122886951D01*
%TO.N,/SERIAL_RX*%
X153804105Y-122640769D02*
X153334168Y-123110706D01*
X148973426Y-126431000D02*
X148923896Y-126431000D01*
X145813000Y-125693000D02*
X137621656Y-125693000D01*
X148870896Y-126484000D02*
X148009104Y-126484000D01*
X147956104Y-126431000D02*
X147844158Y-126431000D01*
X149990790Y-125997000D02*
X149407426Y-125997000D01*
X146224000Y-126104000D02*
X145813000Y-125693000D01*
X147844158Y-126431000D02*
X147517158Y-126104000D01*
X148923896Y-126431000D02*
X148870896Y-126484000D01*
X148009104Y-126484000D02*
X147956104Y-126431000D01*
X149407426Y-125997000D02*
X148973426Y-126431000D01*
X147517158Y-126104000D02*
X146224000Y-126104000D01*
X152877084Y-123110706D02*
X149990790Y-125997000D01*
X132080000Y-131234656D02*
X132080000Y-132080000D01*
X137621656Y-125693000D02*
X132080000Y-131234656D01*
X153334168Y-123110706D02*
X152877084Y-123110706D01*
%TO.N,/SWDCLK*%
X144780000Y-132080000D02*
X147920000Y-132080000D01*
X147920000Y-132080000D02*
X151130000Y-128870000D01*
%TO.N,/SWDIO*%
X149785725Y-132880000D02*
X150470000Y-132880000D01*
X148045725Y-134620000D02*
X149785725Y-132880000D01*
X148045725Y-134620000D02*
X144780000Y-134620000D01*
%TO.N,/LED1*%
X151816709Y-123213951D02*
X153096998Y-121933662D01*
X148400000Y-125033719D02*
X150219768Y-123213951D01*
X148400000Y-125230000D02*
X148400000Y-125033719D01*
X150219768Y-123213951D02*
X151816709Y-123213951D01*
%TO.N,/NRST*%
X155387000Y-122934536D02*
X155387000Y-121433000D01*
X152859827Y-116163381D02*
X153652961Y-116163381D01*
X139700000Y-134620000D02*
X140927000Y-133393000D01*
X142967709Y-133393000D02*
X143021709Y-133447000D01*
X155387000Y-121433000D02*
X155506309Y-121313691D01*
X153652961Y-116163381D02*
X154315380Y-115500962D01*
X155334702Y-122986834D02*
X155387000Y-122934536D01*
X155227002Y-123902998D02*
X155334702Y-123795298D01*
X155334702Y-123795298D02*
X155334702Y-122986834D01*
X152389891Y-115693445D02*
X152859827Y-116163381D01*
X148125000Y-114335000D02*
X151069631Y-114335000D01*
X143512291Y-133393000D02*
X148105055Y-133393000D01*
X155227002Y-124464225D02*
X155227002Y-123902998D01*
X143021709Y-133447000D02*
X143458291Y-133447000D01*
X140927000Y-133393000D02*
X142967709Y-133393000D01*
X147930000Y-114530000D02*
X148125000Y-114335000D01*
X143458291Y-133447000D02*
X143512291Y-133393000D01*
X154071227Y-125620000D02*
X155227002Y-124464225D01*
X151069631Y-114335000D02*
X152389891Y-115655260D01*
X155506309Y-121313691D02*
X155506309Y-116337341D01*
X152498055Y-129000000D02*
X152610000Y-129000000D01*
X148105055Y-133393000D02*
X152498055Y-129000000D01*
X153580000Y-125620000D02*
X154071227Y-125620000D01*
X152389891Y-115655260D02*
X152389891Y-115693445D01*
%TO.N,/Power/CC1*%
X174560000Y-121519594D02*
X174560000Y-120575000D01*
X173585000Y-119600000D02*
X172765000Y-119600000D01*
X174570000Y-124500000D02*
X174642000Y-124428000D01*
X174483000Y-121596594D02*
X174560000Y-121519594D01*
X174483000Y-122205448D02*
X174483000Y-121596594D01*
X174560000Y-120575000D02*
X173585000Y-119600000D01*
X174642000Y-122364448D02*
X174483000Y-122205448D01*
X174642000Y-124428000D02*
X174642000Y-122364448D01*
%TO.N,/Power/CC2*%
X172765000Y-116600000D02*
X173699594Y-116600000D01*
X174642000Y-115657594D02*
X174642000Y-112552000D01*
X174642000Y-112552000D02*
X174360000Y-112270000D01*
X173699594Y-116600000D02*
X174642000Y-115657594D01*
%TO.N,Net-(U3-~{STDBY})*%
X168770000Y-131090000D02*
X168775000Y-131085000D01*
X168770000Y-132680000D02*
X168770000Y-131090000D01*
%TO.N,Net-(U3-~{CHRG})*%
X170050000Y-132700000D02*
X170050000Y-131090000D01*
X170050000Y-131090000D02*
X170045000Y-131085000D01*
%TO.N,Net-(U3-PROG)*%
X170045000Y-124165000D02*
X170040000Y-124160000D01*
X170045000Y-125835000D02*
X170045000Y-124165000D01*
%TO.N,Net-(U3-TEMP)*%
X174421946Y-111500000D02*
X174969000Y-112047054D01*
X166060000Y-113720000D02*
X166060000Y-114070000D01*
X166060000Y-113720000D02*
X164040000Y-111700000D01*
X146186000Y-108154000D02*
X140266000Y-114074000D01*
X166060000Y-114070000D02*
X166060000Y-114640000D01*
X174066946Y-125835000D02*
X171315000Y-125835000D01*
X146190000Y-103170000D02*
X146190000Y-108154000D01*
X164040000Y-111700000D02*
X164040000Y-103360000D01*
X175067000Y-124834946D02*
X174066946Y-125835000D01*
X163310000Y-102630000D02*
X146730000Y-102630000D01*
X172600001Y-111500000D02*
X174421946Y-111500000D01*
X175067000Y-124165055D02*
X175067000Y-124834946D01*
X164040000Y-103360000D02*
X163310000Y-102630000D01*
X174969000Y-124067055D02*
X175067000Y-124165055D01*
X146730000Y-102630000D02*
X146190000Y-103170000D01*
X166060000Y-114070000D02*
X170030001Y-114070000D01*
X170030001Y-114070000D02*
X172600001Y-111500000D01*
X174969000Y-112047054D02*
X174969000Y-124067055D01*
X140266000Y-114074000D02*
X138521000Y-114074000D01*
X138521000Y-114074000D02*
X136880000Y-115715000D01*
X146190000Y-108154000D02*
X146186000Y-108154000D01*
%TO.N,/VBAT_MEAS*%
X150124020Y-116256000D02*
X150975678Y-117107658D01*
X146335000Y-116900607D02*
X146979607Y-116256000D01*
X146335000Y-116960000D02*
X146335000Y-116900607D01*
X144710000Y-115335000D02*
X144710000Y-115050000D01*
X146979607Y-116256000D02*
X150124020Y-116256000D01*
X146335000Y-116960000D02*
X144710000Y-115335000D01*
%TO.N,Net-(Q1-G)*%
X144200000Y-117460000D02*
X144710000Y-116950000D01*
X143245000Y-118275000D02*
X144200000Y-118275000D01*
X144200000Y-118275000D02*
X144200000Y-117460000D01*
%TO.N,Net-(Q1-D)*%
X142665000Y-116170000D02*
X142835000Y-116000000D01*
X141170000Y-116170000D02*
X142665000Y-116170000D01*
%TO.N,/VBAT_MEAS_EN*%
X149743912Y-116583000D02*
X147115055Y-116583000D01*
X146900000Y-116798055D02*
X146900000Y-117226945D01*
X147115055Y-116583000D02*
X146900000Y-116798055D01*
X146900000Y-117226945D02*
X145851945Y-118275000D01*
X150622124Y-117461212D02*
X149743912Y-116583000D01*
X145851945Y-118275000D02*
X145220000Y-118275000D01*
%TO.N,/VBUS_PRESENT*%
X154157658Y-113925678D02*
X155080000Y-114848020D01*
X159220832Y-117224042D02*
X157429966Y-117224042D01*
X155080000Y-114848020D02*
X155080000Y-115180002D01*
X161019376Y-115529376D02*
X160915498Y-115529376D01*
X161699376Y-114849376D02*
X161019376Y-115529376D01*
X161719376Y-114849376D02*
X161699376Y-114849376D01*
X157429966Y-117224042D02*
X156053964Y-115848040D01*
X159690769Y-116754105D02*
X159220832Y-117224042D01*
X160915498Y-115529376D02*
X159690769Y-116754105D01*
%TO.N,/Power/USB_IN_D+*%
X173665418Y-117600000D02*
X173692418Y-117573000D01*
X173641724Y-118600000D02*
X173693000Y-118651276D01*
X171758751Y-118575000D02*
X171809999Y-118575000D01*
X172765000Y-118600000D02*
X173641724Y-118600000D01*
X170040000Y-119300000D02*
X171033751Y-119300000D01*
X172765000Y-117600000D02*
X173665418Y-117600000D01*
X171809999Y-118575000D02*
X171834999Y-118600000D01*
X171834999Y-118600000D02*
X172765000Y-118600000D01*
X171033751Y-119300000D02*
X171758751Y-118575000D01*
%TO.N,/Power/USB_IN_D-*%
X174220000Y-118430001D02*
X174220000Y-118870000D01*
X173889999Y-118100000D02*
X174220000Y-118430001D01*
X173911724Y-119178276D02*
X172843276Y-119178276D01*
X174220000Y-118870000D02*
X173911724Y-119178276D01*
X172765000Y-118100000D02*
X173889999Y-118100000D01*
X171033751Y-117400000D02*
X171758751Y-118125000D01*
X171809999Y-118125000D02*
X171834999Y-118100000D01*
X172843276Y-119178276D02*
X172765000Y-119100000D01*
X171758751Y-118125000D02*
X171809999Y-118125000D01*
X171834999Y-118100000D02*
X172765000Y-118100000D01*
X170040000Y-117400000D02*
X171033751Y-117400000D01*
D69*
%TO.N,/USB_D-*%
X165948249Y-118223000D02*
X160117628Y-118223000D01*
X158373000Y-119597394D02*
X158373000Y-120088393D01*
X166771249Y-117400000D02*
X165948249Y-118223000D01*
X160117628Y-118223000D02*
X160092425Y-118248203D01*
X158983662Y-120699055D02*
X158983662Y-120873002D01*
X160092425Y-118248203D02*
X159722191Y-118248203D01*
X159722191Y-118248203D02*
X158373000Y-119597394D01*
X167765000Y-117400000D02*
X166771249Y-117400000D01*
X158373000Y-120088393D02*
X158983662Y-120699055D01*
D67*
X158983662Y-120873002D02*
X158983662Y-120837648D01*
D69*
%TO.N,/USB_D+*%
X158627000Y-119983181D02*
X158627000Y-119702606D01*
X159337215Y-120519449D02*
X159163268Y-120519449D01*
D67*
X159337215Y-120519449D02*
X159301861Y-120519449D01*
D69*
X159827423Y-118502183D02*
X160197627Y-118502183D01*
X159163268Y-120519449D02*
X158627000Y-119983181D01*
X166771249Y-119300000D02*
X167765000Y-119300000D01*
X165948249Y-118477000D02*
X166771249Y-119300000D01*
X160222810Y-118477000D02*
X165948249Y-118477000D01*
X160197627Y-118502183D02*
X160222810Y-118477000D01*
X158627000Y-119702606D02*
X159827423Y-118502183D01*
D67*
%TO.N,Net-(U1-PA5)*%
X151799169Y-119271823D02*
X151162643Y-118635297D01*
X151329231Y-120165895D02*
X151799169Y-119695957D01*
X151162643Y-118635297D02*
X148755297Y-118635297D01*
X148755297Y-118635297D02*
X148420000Y-118300000D01*
X151799169Y-119695957D02*
X151799169Y-119271823D01*
%TO.N,Net-(U1-PA4)*%
X148420000Y-120640000D02*
X150148020Y-120640000D01*
X150148020Y-120640000D02*
X150975678Y-119812342D01*
%TO.N,Net-(U1-PA7)*%
X150151703Y-118308297D02*
X148973406Y-117130000D01*
X152506276Y-119516482D02*
X151298091Y-118308297D01*
X151298091Y-118308297D02*
X150151703Y-118308297D01*
X152506276Y-120403064D02*
X152506276Y-119516482D01*
X148973406Y-117130000D02*
X148420000Y-117130000D01*
X152036338Y-120873002D02*
X152506276Y-120403064D01*
%TO.N,Net-(U1-PA3)*%
X148420000Y-119470000D02*
X150610912Y-119470000D01*
X150610912Y-119470000D02*
X150622124Y-119458788D01*
%TO.N,/BUSY_DBG*%
X130817000Y-101637000D02*
X130827000Y-101647000D01*
X111390000Y-120100000D02*
X111690000Y-120400000D01*
X112703000Y-101637000D02*
X130817000Y-101637000D01*
X109700000Y-120100000D02*
X109100000Y-120100000D01*
X127652000Y-105242000D02*
X126000000Y-103590000D01*
X130827000Y-101647000D02*
X130827000Y-104757556D01*
X130342556Y-105242000D02*
X127652000Y-105242000D01*
X109700000Y-120100000D02*
X111390000Y-120100000D01*
X104860000Y-109480000D02*
X112703000Y-101637000D01*
X109100000Y-120100000D02*
X104860000Y-115860000D01*
X130827000Y-104757556D02*
X130342556Y-105242000D01*
X104860000Y-115860000D02*
X104860000Y-109480000D01*
%TO.N,Net-(R29-Pad2)*%
X104957000Y-101370000D02*
X104550000Y-101370000D01*
X176200000Y-102900000D02*
X174227000Y-100927000D01*
X174227000Y-100927000D02*
X105400000Y-100927000D01*
X105400000Y-100927000D02*
X104957000Y-101370000D01*
%TO.N,Net-(D1-K)*%
X145560000Y-126220000D02*
X145771000Y-126431000D01*
X149059344Y-126758000D02*
X149108874Y-126758000D01*
X139590000Y-126220000D02*
X141580000Y-126220000D01*
X149006344Y-126811000D02*
X149059344Y-126758000D01*
X149108874Y-126758000D02*
X149542874Y-126324000D01*
X147873656Y-126811000D02*
X149006344Y-126811000D01*
X145771000Y-126431000D02*
X147381710Y-126431000D01*
X149542874Y-126324000D02*
X150736470Y-126324000D01*
X139440000Y-126370000D02*
X139590000Y-126220000D01*
X147820656Y-126758000D02*
X147873656Y-126811000D01*
X143570000Y-126220000D02*
X145560000Y-126220000D01*
X147381710Y-126431000D02*
X147708710Y-126758000D01*
X141580000Y-126220000D02*
X143570000Y-126220000D01*
X147708710Y-126758000D02*
X147820656Y-126758000D01*
X137840000Y-126370000D02*
X139440000Y-126370000D01*
X150736470Y-126324000D02*
X151575235Y-125485235D01*
%TO.N,Net-(U1-PA6)*%
X148420000Y-121810000D02*
X150392234Y-121810000D01*
X150392234Y-121810000D02*
X151682785Y-120519449D01*
%TO.N,Net-(U1-PA13)*%
X160160706Y-121507130D02*
X160477650Y-121824074D01*
X151200000Y-131410000D02*
X150920000Y-131410000D01*
X160477650Y-122132350D02*
X151200000Y-131410000D01*
X159690769Y-120165895D02*
X160160706Y-120635832D01*
X150920000Y-131410000D02*
X150470000Y-131860000D01*
X160477650Y-121824074D02*
X160477650Y-122132350D01*
X160160706Y-120635832D02*
X160160706Y-121507130D01*
D69*
%TO.N,Net-(U1-PA14)*%
X155685298Y-121814702D02*
X155685298Y-123989602D01*
D67*
X155825010Y-124129314D02*
X155825010Y-124460686D01*
X155825010Y-124460686D02*
X154135696Y-126150000D01*
D69*
X159568852Y-117931148D02*
X155685298Y-121814702D01*
D67*
X155685298Y-123989602D02*
X155825010Y-124129314D01*
X160397876Y-117461212D02*
X159927940Y-117931148D01*
X152034574Y-127850000D02*
X152083000Y-127898426D01*
X154135696Y-126150000D02*
X152790000Y-126150000D01*
X159927940Y-117931148D02*
X159568852Y-117931148D01*
X151130000Y-127850000D02*
X152034574Y-127850000D01*
%TO.N,/PB4*%
X159337215Y-116400551D02*
X161174000Y-114563766D01*
X161174000Y-107834000D02*
X157480000Y-104140000D01*
X161174000Y-114563766D02*
X161174000Y-107834000D01*
%TO.N,/PB5*%
X158983662Y-116046998D02*
X160847000Y-114183660D01*
X160847000Y-114183660D02*
X160847000Y-110047000D01*
X160847000Y-110047000D02*
X154940000Y-104140000D01*
%TO.N,/PB6*%
X158630109Y-115693445D02*
X159604000Y-114719554D01*
X153477000Y-105217000D02*
X152400000Y-104140000D01*
X154851896Y-105217000D02*
X153477000Y-105217000D01*
X159604000Y-114719554D02*
X159604000Y-109969104D01*
X159604000Y-109969104D02*
X154851896Y-105217000D01*
D69*
%TO.N,/~{CS}*%
X113498422Y-119390000D02*
X116140000Y-119390000D01*
X113026417Y-118917995D02*
X113498422Y-119390000D01*
X119168381Y-119230000D02*
X119558381Y-118840000D01*
X117937500Y-119332500D02*
X118040000Y-119230000D01*
D67*
X109700000Y-118600000D02*
X111110000Y-118600000D01*
X120710000Y-118840000D02*
X130970000Y-118840000D01*
X130970000Y-118840000D02*
X132807000Y-120677000D01*
D69*
X118040000Y-119230000D02*
X119168381Y-119230000D01*
X111110000Y-118600000D02*
X111427995Y-118917995D01*
D67*
X146656000Y-120677000D02*
X146903000Y-120430000D01*
X146903000Y-120430000D02*
X146903000Y-119967000D01*
D69*
X116140000Y-119390000D02*
X116197500Y-119332500D01*
X111427995Y-118917995D02*
X113026417Y-118917995D01*
X119558381Y-118840000D02*
X120710000Y-118840000D01*
D67*
X132807000Y-120677000D02*
X146656000Y-120677000D01*
D69*
X116197500Y-119332500D02*
X117937500Y-119332500D01*
D67*
X146903000Y-119967000D02*
X147400000Y-119470000D01*
D66*
%TO.N,/E-Ink display/VCC*%
X116097000Y-114232000D02*
X116439000Y-113890000D01*
X109700000Y-116600000D02*
X109700000Y-117100000D01*
X116439000Y-113890000D02*
X117000000Y-113890000D01*
X115540000Y-113675000D02*
X116097000Y-114232000D01*
X110341738Y-117100000D02*
X109700000Y-117100000D01*
X117000000Y-113890000D02*
X118040000Y-113890000D01*
X115802936Y-118437000D02*
X113797000Y-118437000D01*
X116097000Y-118142936D02*
X115802936Y-118437000D01*
X112547000Y-117187000D02*
X110428738Y-117187000D01*
X113797000Y-118437000D02*
X112547000Y-117187000D01*
X116097000Y-114232000D02*
X116097000Y-118142936D01*
X110428738Y-117187000D02*
X110341738Y-117100000D01*
D67*
%TO.N,Net-(U1-PB0)*%
X151056495Y-122559951D02*
X152389891Y-121226555D01*
X148420000Y-122850000D02*
X148710049Y-122559951D01*
X148710049Y-122559951D02*
X151056495Y-122559951D01*
%TD*%
%TA.AperFunction,Conductor*%
%TO.N,+3V0*%
G36*
X154671035Y-116301400D02*
G01*
X154703263Y-116363392D01*
X154704805Y-116373392D01*
X154720939Y-116516591D01*
X154720940Y-116516595D01*
X154780520Y-116686864D01*
X154876494Y-116839605D01*
X154878759Y-116842445D01*
X154879648Y-116844625D01*
X154880198Y-116845499D01*
X154880044Y-116845595D01*
X154905164Y-116907133D01*
X154905808Y-116919753D01*
X154905808Y-121031578D01*
X154886123Y-121098617D01*
X154880189Y-121107058D01*
X154867192Y-121123998D01*
X154862464Y-121130159D01*
X154801956Y-121276237D01*
X154801955Y-121276239D01*
X154781318Y-121432998D01*
X154781318Y-121432999D01*
X154785969Y-121468326D01*
X154786500Y-121476428D01*
X154786500Y-121577480D01*
X154766815Y-121644519D01*
X154714011Y-121690274D01*
X154644853Y-121700218D01*
X154587013Y-121675856D01*
X154557537Y-121653238D01*
X154509763Y-121616579D01*
X154509760Y-121616578D01*
X154503315Y-121611632D01*
X154505181Y-121609199D01*
X154482131Y-121586132D01*
X154479690Y-121588006D01*
X154405653Y-121491521D01*
X154405646Y-121491513D01*
X154246253Y-121332120D01*
X154246244Y-121332112D01*
X154149761Y-121258077D01*
X154151627Y-121255644D01*
X154128577Y-121232578D01*
X154126136Y-121234452D01*
X154052100Y-121137968D01*
X154052093Y-121137960D01*
X153892700Y-120978567D01*
X153892691Y-120978559D01*
X153796208Y-120904524D01*
X153798074Y-120902091D01*
X153775024Y-120879025D01*
X153772583Y-120880899D01*
X153718614Y-120810566D01*
X153698548Y-120784416D01*
X153698547Y-120784415D01*
X153698540Y-120784407D01*
X153539147Y-120625014D01*
X153539138Y-120625006D01*
X153442655Y-120550971D01*
X153444521Y-120548538D01*
X153421471Y-120525472D01*
X153419030Y-120527346D01*
X153344993Y-120430861D01*
X153271465Y-120357333D01*
X153185584Y-120271452D01*
X153185579Y-120271448D01*
X153155287Y-120248203D01*
X153114086Y-120191774D01*
X153106776Y-120149829D01*
X153106776Y-119559910D01*
X153107307Y-119551808D01*
X153111958Y-119516481D01*
X153111958Y-119516480D01*
X153091320Y-119359721D01*
X153091320Y-119359720D01*
X153030812Y-119213641D01*
X153030811Y-119213640D01*
X153030811Y-119213639D01*
X153016619Y-119195144D01*
X152934558Y-119088200D01*
X152906281Y-119066502D01*
X152900180Y-119061151D01*
X152464003Y-118624974D01*
X152430518Y-118563651D01*
X152435502Y-118493959D01*
X152446691Y-118471320D01*
X152535788Y-118329524D01*
X152535789Y-118329522D01*
X152595368Y-118159255D01*
X152604775Y-118075766D01*
X152615565Y-117980003D01*
X152615565Y-117979996D01*
X152595369Y-117800750D01*
X152595366Y-117800737D01*
X152551093Y-117674212D01*
X152547531Y-117604433D01*
X152582259Y-117543806D01*
X152644253Y-117511578D01*
X152682016Y-117510037D01*
X152738565Y-117516408D01*
X152817761Y-117525332D01*
X152817764Y-117525332D01*
X152817768Y-117525332D01*
X152997013Y-117505136D01*
X152997016Y-117505135D01*
X152997019Y-117505135D01*
X153167286Y-117445556D01*
X153320026Y-117349583D01*
X153447580Y-117222029D01*
X153543553Y-117069289D01*
X153603132Y-116899022D01*
X153606384Y-116870158D01*
X153633449Y-116805747D01*
X153691043Y-116766190D01*
X153713412Y-116761104D01*
X153809723Y-116748425D01*
X153955802Y-116687917D01*
X153966933Y-116679376D01*
X154081243Y-116591663D01*
X154102944Y-116563380D01*
X154108272Y-116557303D01*
X154333915Y-116331660D01*
X154395236Y-116298177D01*
X154407691Y-116296125D01*
X154494635Y-116286330D01*
X154540632Y-116270234D01*
X154610407Y-116266672D01*
X154671035Y-116301400D01*
G37*
%TD.AperFunction*%
%TD*%
M02*
