M48
; DRILL file {KiCad 7.0.5} date Sun Oct 22 09:55:20 2023
; FORMAT={-:-/ absolute / inch / decimal}
; #@! TF.CreationDate,2023-10-22T09:55:20+02:00
; #@! TF.GenerationSoftware,Kicad,Pcbnew,7.0.5
; #@! TF.FileFunction,Plated,1,2,PTH
FMAT,2
INCH
; #@! TA.AperFunction,Plated,PTH,ViaDrill
T1C0.0118
; #@! TA.AperFunction,Plated,PTH,ComponentDrill
T2C0.0197
; #@! TA.AperFunction,Plated,PTH,ComponentDrill
T3C0.0236
; #@! TA.AperFunction,Plated,PTH,ComponentDrill
T4C0.0295
; #@! TA.AperFunction,Plated,PTH,ComponentDrill
T5C0.0394
; #@! TA.AperFunction,Plated,PTH,ComponentDrill
T6C0.0394
%
G90
G05
T1
X4.376Y-4.5748
X4.3772Y-4.7724
X4.4949Y-4.8276
X4.4967Y-4.5718
X4.5Y-4.4827
X4.5004Y-4.3937
X4.5585Y-4.9126
X4.6291Y-4.5496
X4.7681Y-5.2339
X4.7976Y-4.9094
X4.8657Y-4.4343
X5.3002Y-5.2974
X5.428Y-5.0421
X5.4469Y-4.672
X5.5303Y-5.0634
X5.5736Y-4.6559
X5.6122Y-5.0567
X5.6394Y-5.2331
X5.6909Y-5.0579
X5.7614Y-4.539
X5.7815Y-5.0976
X5.8157Y-4.3815
X5.8618Y-4.3272
X5.8706Y-4.648
X5.9449Y-4.528
X5.9768Y-4.6449
X5.9875Y-5.0354
X6.0043Y-4.9079
X6.0083Y-5.0787
X6.0114Y-4.1925
X6.0154Y-4.9665
X6.0164Y-4.5953
X6.0433Y-4.1925
X6.0465Y-4.9457
X6.0754Y-4.5473
X6.0906Y-4.8916
X6.1055Y-4.5346
X6.1223Y-4.5802
X6.1439Y-4.5609
X6.1492Y-4.5165
X6.1516Y-4.389
X6.1996Y-4.972
X6.2371Y-4.4265
X6.2468Y-4.4916
X6.3102Y-5.0622
X6.3291Y-5.2937
X6.3315Y-4.9484
X6.3556Y-4.7886
X6.4142Y-4.5311
X6.5189Y-5.0602
X6.5465Y-4.8488
X6.5638Y-4.437
X6.5953Y-4.7795
X6.6307Y-4.2965
X6.6945Y-4.8295
X6.7283Y-4.6591
X6.7291Y-4.7843
X6.7295Y-4.8126
X6.7311Y-4.5047
X6.7315Y-4.5339
X6.7563Y-4.5335
X6.7563Y-4.7846
X6.7938Y-4.4206
X6.8035Y-4.9016
X6.8383Y-4.6289
X6.8383Y-4.6713
X6.9902Y-4.4488
X6.9921Y-4.8713
T2
X6.6303Y-5.0378
X6.6303Y-5.0772
X6.6697Y-5.0378
X6.6697Y-5.0772
X6.7091Y-5.0378
X6.7091Y-5.0772
T4
X4.8031Y-4.1
X4.8819Y-4.1
X4.9606Y-4.1
X5.0394Y-4.1
X5.1181Y-4.1
X5.1969Y-4.1
T5
X3.9882Y-3.9882
X3.9882Y-4.2835
X3.9882Y-5.0354
X3.9882Y-5.3307
X6.9961Y-3.9882
X6.9961Y-4.2835
X6.9961Y-5.0354
X6.9961Y-5.3307
T6
X5.0Y-5.2
X5.1Y-5.2
X5.2Y-5.2
X5.3Y-5.2
X5.7Y-4.1
X5.8Y-4.1
X5.9Y-4.1
X6.0Y-4.1
X6.1Y-4.1
X6.1Y-5.2
X6.2Y-4.1
X6.2Y-5.2
X6.3Y-4.1
X6.4Y-4.1
T3
G00X6.8037Y-4.4894
M15
G01X6.847Y-4.4894
M16
G05
G00X6.8037Y-4.8295
M15
G01X6.847Y-4.8295
M16
G05
G00X6.975Y-4.4894
M15
G01X7.0065Y-4.4894
M16
G05
G00X6.975Y-4.8295
M15
G01X7.0065Y-4.8295
M16
G05
T0
M30
