M48
; DRILL file {KiCad 7.0.8} date Mon Nov 13 19:56:10 2023
; FORMAT={-:-/ absolute / inch / decimal}
; #@! TF.CreationDate,2023-11-13T19:56:10+01:00
; #@! TF.GenerationSoftware,Kicad,Pcbnew,7.0.8
; #@! TF.FileFunction,Plated,1,2,PTH
FMAT,2
INCH
; #@! TA.AperFunction,Plated,PTH,ViaDrill
T1C0.0118
; #@! TA.AperFunction,Plated,PTH,ComponentDrill
T2C0.0197
; #@! TA.AperFunction,Plated,PTH,ComponentDrill
T3C0.0236
; #@! TA.AperFunction,Plated,PTH,ComponentDrill
T4C0.0295
; #@! TA.AperFunction,Plated,PTH,ComponentDrill
T5C0.0394
; #@! TA.AperFunction,Plated,PTH,ComponentDrill
T6C0.0394
%
G90
G05
T1
X0.439Y0.8071
X0.4402Y0.6094
X0.5579Y0.5543
X0.5597Y0.8101
X0.563Y0.8992
X0.5634Y0.9882
X0.6215Y0.4693
X0.6921Y0.8323
X0.8311Y0.148
X0.8606Y0.4724
X0.9287Y0.9476
X1.3632Y0.0845
X1.4909Y0.3398
X1.5098Y0.7098
X1.5933Y0.3185
X1.6366Y0.726
X1.6752Y0.3252
X1.7024Y0.1488
X1.7539Y0.324
X1.8244Y0.8429
X1.8268Y1.0169
X1.8445Y0.2843
X1.8728Y1.0713
X1.9336Y0.7339
X2.0078Y0.8539
X2.0398Y0.737
X2.0505Y0.3465
X2.0673Y0.474
X2.0713Y0.3031
X2.0744Y1.1894
X2.0783Y0.4154
X2.0794Y0.7866
X2.1063Y1.1894
X2.1094Y0.4362
X2.1384Y0.8346
X2.1535Y0.4903
X2.1685Y0.8472
X2.1853Y0.8017
X2.2068Y0.8209
X2.2122Y0.8654
X2.2146Y0.9929
X2.2626Y0.4098
X2.3001Y0.9554
X2.3098Y0.8903
X2.3732Y0.3197
X2.3921Y0.0882
X2.3945Y0.4335
X2.4186Y0.5933
X2.4772Y0.8508
X2.5819Y0.3217
X2.6094Y0.5331
X2.6268Y0.9449
X2.6583Y0.6024
X2.6937Y1.0854
X2.7575Y0.5524
X2.7913Y0.7228
X2.7921Y0.5976
X2.7925Y0.5693
X2.7941Y0.8772
X2.7945Y0.848
X2.8193Y0.8484
X2.8193Y0.5972
X2.8568Y0.9613
X2.8665Y0.4803
X2.9013Y0.753
X2.9013Y0.7106
X3.0531Y0.9331
X3.0551Y0.5106
T2
X2.6933Y0.3441
X2.6933Y0.3047
X2.7327Y0.3441
X2.7327Y0.3047
X2.772Y0.3441
X2.772Y0.3047
T4
X0.8661Y1.2819
X0.9449Y1.2819
X1.0236Y1.2819
X1.1024Y1.2819
X1.1811Y1.2819
X1.2598Y1.2819
T5
X0.0512Y1.3937
X0.0512Y1.0984
X0.0512Y0.3465
X0.0512Y0.0512
X3.0591Y1.3937
X3.0591Y1.0984
X3.0591Y0.3465
X3.0591Y0.0512
T6
X1.063Y0.1819
X1.163Y0.1819
X1.263Y0.1819
X1.363Y0.1819
X1.763Y1.2819
X1.863Y1.2819
X1.963Y1.2819
X2.063Y1.2819
X2.163Y1.2819
X2.163Y0.1819
X2.263Y1.2819
X2.263Y0.1819
X2.363Y1.2819
X2.463Y1.2819
T3
G00X2.8667Y0.8925
M15
G01X2.91Y0.8925
M16
G05
G00X2.8667Y0.5524
M15
G01X2.91Y0.5524
M16
G05
G00X3.038Y0.8925
M15
G01X3.0695Y0.8925
M16
G05
G00X3.038Y0.5524
M15
G01X3.0695Y0.5524
M16
G05
T0
M30
