%TF.GenerationSoftware,KiCad,Pcbnew,7.0.5*%
%TF.CreationDate,2023-10-22T09:55:20+02:00*%
%TF.ProjectId,USB E-Ink thing,55534220-452d-4496-9e6b-207468696e67,rev?*%
%TF.SameCoordinates,Original*%
%TF.FileFunction,Copper,L2,Bot*%
%TF.FilePolarity,Positive*%
%FSLAX46Y46*%
G04 Gerber Fmt 4.6, Leading zero omitted, Abs format (unit mm)*
G04 Created by KiCad (PCBNEW 7.0.5) date 2023-10-22 09:55:20*
%MOMM*%
%LPD*%
G01*
G04 APERTURE LIST*
G04 Aperture macros list*
%AMRoundRect*
0 Rectangle with rounded corners*
0 $1 Rounding radius*
0 $2 $3 $4 $5 $6 $7 $8 $9 X,Y pos of 4 corners*
0 Add a 4 corners polygon primitive as box body*
4,1,4,$2,$3,$4,$5,$6,$7,$8,$9,$2,$3,0*
0 Add four circle primitives for the rounded corners*
1,1,$1+$1,$2,$3*
1,1,$1+$1,$4,$5*
1,1,$1+$1,$6,$7*
1,1,$1+$1,$8,$9*
0 Add four rect primitives between the rounded corners*
20,1,$1+$1,$2,$3,$4,$5,0*
20,1,$1+$1,$4,$5,$6,$7,0*
20,1,$1+$1,$6,$7,$8,$9,0*
20,1,$1+$1,$8,$9,$2,$3,0*%
G04 Aperture macros list end*
%TA.AperFunction,ComponentPad*%
%ADD10C,1.600000*%
%TD*%
%TA.AperFunction,HeatsinkPad*%
%ADD11C,0.800000*%
%TD*%
%TA.AperFunction,SMDPad,CuDef*%
%ADD12R,3.292000X2.313000*%
%TD*%
%TA.AperFunction,ComponentPad*%
%ADD13R,1.700000X1.700000*%
%TD*%
%TA.AperFunction,ComponentPad*%
%ADD14O,1.700000X1.700000*%
%TD*%
%TA.AperFunction,ComponentPad*%
%ADD15O,2.100000X1.000000*%
%TD*%
%TA.AperFunction,ComponentPad*%
%ADD16O,1.800000X1.000000*%
%TD*%
%TA.AperFunction,ComponentPad*%
%ADD17RoundRect,0.250000X-0.350000X-0.625000X0.350000X-0.625000X0.350000X0.625000X-0.350000X0.625000X0*%
%TD*%
%TA.AperFunction,ComponentPad*%
%ADD18O,1.200000X1.750000*%
%TD*%
%TA.AperFunction,ViaPad*%
%ADD19C,0.600000*%
%TD*%
%TA.AperFunction,Conductor*%
%ADD20C,0.500000*%
%TD*%
%TA.AperFunction,Conductor*%
%ADD21C,0.200000*%
%TD*%
G04 APERTURE END LIST*
D10*
%TO.P,SW3,*%
%TO.N,*%
X177700000Y-101300000D03*
X177700000Y-108800000D03*
%TD*%
D11*
%TO.P,U3,9,THERMAL*%
%TO.N,GND*%
X170410000Y-127960000D03*
X169410000Y-127960000D03*
X168410000Y-127960000D03*
D12*
X169410000Y-128460000D03*
D11*
X170410000Y-128960000D03*
X169410000Y-128960000D03*
X168410000Y-128960000D03*
%TD*%
D10*
%TO.P,SW4,*%
%TO.N,*%
X177700000Y-127900000D03*
X177700000Y-135400000D03*
%TD*%
D13*
%TO.P,J3,1,Pin_1*%
%TO.N,+3V0*%
X144780000Y-104140000D03*
D14*
%TO.P,J3,2,Pin_2*%
%TO.N,/PB8*%
X147320000Y-104140000D03*
%TO.P,J3,3,Pin_3*%
%TO.N,/PB7*%
X149860000Y-104140000D03*
%TO.P,J3,4,Pin_4*%
%TO.N,/PB6*%
X152400000Y-104140000D03*
%TO.P,J3,5,Pin_5*%
%TO.N,/PB5*%
X154940000Y-104140000D03*
%TO.P,J3,6,Pin_6*%
%TO.N,/PB4*%
X157480000Y-104140000D03*
%TO.P,J3,7,Pin_7*%
%TO.N,/PA15*%
X160020000Y-104140000D03*
%TO.P,J3,8,Pin_8*%
%TO.N,GND*%
X162560000Y-104140000D03*
%TD*%
D10*
%TO.P,SW1,*%
%TO.N,*%
X101300000Y-108800000D03*
X101300000Y-101300000D03*
%TD*%
%TO.P,SW2,*%
%TO.N,*%
X101300000Y-135400000D03*
X101300000Y-127900000D03*
%TD*%
D15*
%TO.P,J6,S1,SHIELD*%
%TO.N,GND*%
X173365000Y-122670000D03*
D16*
X177565000Y-122670000D03*
D15*
X173365000Y-114030000D03*
D16*
X177565000Y-114030000D03*
%TD*%
D17*
%TO.P,J9,1,Pin_1*%
%TO.N,/MOSI*%
X122000000Y-104140000D03*
D18*
%TO.P,J9,2,Pin_2*%
%TO.N,/SCLK*%
X124000000Y-104140000D03*
%TO.P,J9,3,Pin_3*%
%TO.N,/BUSY_DBG*%
X126000000Y-104140000D03*
%TO.P,J9,4,Pin_4*%
%TO.N,/D{slash}~{C}*%
X128000000Y-104140000D03*
%TO.P,J9,5,Pin_5*%
%TO.N,/~{RES}*%
X130000000Y-104140000D03*
%TO.P,J9,6,Pin_6*%
%TO.N,GND*%
X132000000Y-104140000D03*
%TD*%
D13*
%TO.P,J8,1,Pin_1*%
%TO.N,Net-(J8-Pin_1)*%
X157480000Y-132080000D03*
D14*
%TO.P,J8,2,Pin_2*%
%TO.N,+3V0*%
X154940000Y-132080000D03*
%TD*%
D13*
%TO.P,J4,1,Pin_1*%
%TO.N,+3V0*%
X134620000Y-132080000D03*
D14*
%TO.P,J4,2,Pin_2*%
%TO.N,/SERIAL_RX*%
X132080000Y-132080000D03*
%TO.P,J4,3,Pin_3*%
%TO.N,/SERIAL_TX*%
X129540000Y-132080000D03*
%TO.P,J4,4,Pin_4*%
%TO.N,GND*%
X127000000Y-132080000D03*
%TD*%
D19*
%TO.N,GND*%
X158423000Y-112433248D03*
X170930000Y-122240000D03*
X140470000Y-128610000D03*
X170040000Y-122670000D03*
X156250000Y-111480000D03*
X117580000Y-115560000D03*
X152510000Y-124660000D03*
X114300000Y-113860000D03*
X158668790Y-114086501D03*
X160760000Y-134460000D03*
X115787009Y-124780000D03*
X111150000Y-116200000D03*
X168420000Y-109130000D03*
X170920000Y-121520000D03*
X114170000Y-122620000D03*
X153500000Y-106490000D03*
X141570000Y-118260000D03*
X171610000Y-121530000D03*
X160820000Y-125690000D03*
X146340000Y-115290000D03*
X177550000Y-113000000D03*
X170970000Y-114420000D03*
X156189110Y-114719401D03*
X160280000Y-128580000D03*
X172810000Y-124500000D03*
X171610000Y-115150000D03*
X165580013Y-128529987D03*
X147720000Y-111290000D03*
X166720000Y-112700000D03*
X166280000Y-123160000D03*
X138350000Y-118670000D03*
X121860000Y-124700000D03*
X111180000Y-121220000D03*
X162920000Y-115090000D03*
X172562646Y-112282646D03*
X170980000Y-115160000D03*
X177600000Y-123730000D03*
X161433000Y-121630000D03*
X170900026Y-118339974D03*
X121110000Y-132940000D03*
X123590000Y-112630000D03*
X114310000Y-111600000D03*
X152817764Y-116719767D03*
X167520000Y-121400000D03*
X114217354Y-116122646D03*
X148890000Y-109910000D03*
X137870000Y-128070000D03*
X150999340Y-115010000D03*
X146850000Y-129480000D03*
X152690000Y-106490000D03*
X144550000Y-128470000D03*
X143240000Y-132920000D03*
X142550000Y-128440000D03*
%TO.N,+3V0*%
X154700002Y-124245934D03*
X157470000Y-126290000D03*
X134625070Y-134554223D03*
%TO.N,/WAKEUP*%
X151810000Y-117980000D03*
X149113663Y-118058621D03*
%TO.N,/NRST*%
X155506309Y-116337341D03*
X154315380Y-115500962D03*
X153580000Y-125620000D03*
X152610000Y-129000000D03*
%TO.N,/VBUS_PRESENT*%
X156053964Y-115848040D03*
X155080000Y-115180002D03*
%TO.N,/Power/USB_IN_D+*%
X173693000Y-118651276D03*
X173692418Y-117573000D03*
%TO.N,Net-(U1-PA14)*%
X152083000Y-127898426D03*
X152790000Y-126150000D03*
%TD*%
D20*
%TO.N,+3V0*%
X155425934Y-124245934D02*
X154700002Y-124245934D01*
D21*
X134625070Y-134554223D02*
X134620000Y-134549153D01*
X134620000Y-134549153D02*
X134620000Y-132080000D01*
D20*
X157470000Y-126290000D02*
X155425934Y-124245934D01*
D21*
%TO.N,/WAKEUP*%
X149113663Y-118058621D02*
X151731379Y-118058621D01*
X151731379Y-118058621D02*
X151810000Y-117980000D01*
%TO.N,/NRST*%
X153350000Y-125850000D02*
X153350000Y-126390000D01*
X153350000Y-126390000D02*
X152610000Y-127130000D01*
X153580000Y-125620000D02*
X153350000Y-125850000D01*
X154315380Y-115500962D02*
X155151759Y-116337341D01*
X152610000Y-127130000D02*
X152610000Y-129000000D01*
X155151759Y-116337341D02*
X155506309Y-116337341D01*
%TO.N,/VBUS_PRESENT*%
X155385926Y-115180002D02*
X155080000Y-115180002D01*
X156053964Y-115848040D02*
X155385926Y-115180002D01*
%TO.N,/Power/USB_IN_D+*%
X173692418Y-118650694D02*
X173693000Y-118651276D01*
X173692418Y-117573000D02*
X173692418Y-118650694D01*
%TO.N,Net-(U1-PA14)*%
X152790000Y-126150000D02*
X152279000Y-126150000D01*
X152279000Y-126150000D02*
X152083000Y-126346000D01*
X152083000Y-126346000D02*
X152083000Y-127898426D01*
%TD*%
%TA.AperFunction,Conductor*%
%TO.N,GND*%
G36*
X176510268Y-100520185D02*
G01*
X176556023Y-100572989D01*
X176565967Y-100642147D01*
X176555611Y-100676905D01*
X176473262Y-100853502D01*
X176473258Y-100853511D01*
X176414366Y-101073302D01*
X176414364Y-101073313D01*
X176394532Y-101299998D01*
X176394532Y-101300001D01*
X176414364Y-101526686D01*
X176414366Y-101526697D01*
X176473258Y-101746488D01*
X176473261Y-101746497D01*
X176569431Y-101952732D01*
X176569432Y-101952734D01*
X176699954Y-102139141D01*
X176860858Y-102300045D01*
X176860861Y-102300047D01*
X177047266Y-102430568D01*
X177253504Y-102526739D01*
X177473308Y-102585635D01*
X177635230Y-102599801D01*
X177699998Y-102605468D01*
X177700000Y-102605468D01*
X177700002Y-102605468D01*
X177756673Y-102600509D01*
X177926692Y-102585635D01*
X178146496Y-102526739D01*
X178323095Y-102444388D01*
X178392171Y-102433897D01*
X178455955Y-102462417D01*
X178494195Y-102520893D01*
X178499499Y-102556771D01*
X178499499Y-107543228D01*
X178479814Y-107610267D01*
X178427010Y-107656022D01*
X178357852Y-107665966D01*
X178323094Y-107655610D01*
X178225855Y-107610267D01*
X178146496Y-107573261D01*
X178146492Y-107573260D01*
X178146488Y-107573258D01*
X177926697Y-107514366D01*
X177926693Y-107514365D01*
X177926692Y-107514365D01*
X177926691Y-107514364D01*
X177926686Y-107514364D01*
X177700002Y-107494532D01*
X177699998Y-107494532D01*
X177473313Y-107514364D01*
X177473302Y-107514366D01*
X177253511Y-107573258D01*
X177253502Y-107573261D01*
X177047267Y-107669431D01*
X177047265Y-107669432D01*
X176860858Y-107799954D01*
X176699954Y-107960858D01*
X176569432Y-108147265D01*
X176569431Y-108147267D01*
X176473261Y-108353502D01*
X176473258Y-108353511D01*
X176414366Y-108573302D01*
X176414364Y-108573313D01*
X176394532Y-108799998D01*
X176394532Y-108800001D01*
X176414364Y-109026686D01*
X176414366Y-109026697D01*
X176473258Y-109246488D01*
X176473261Y-109246497D01*
X176569431Y-109452732D01*
X176569432Y-109452734D01*
X176699954Y-109639141D01*
X176860858Y-109800045D01*
X176860861Y-109800047D01*
X177047266Y-109930568D01*
X177253504Y-110026739D01*
X177473308Y-110085635D01*
X177635230Y-110099801D01*
X177699998Y-110105468D01*
X177700000Y-110105468D01*
X177700002Y-110105468D01*
X177756673Y-110100509D01*
X177926692Y-110085635D01*
X178146496Y-110026739D01*
X178323095Y-109944388D01*
X178392171Y-109933897D01*
X178455955Y-109962417D01*
X178494195Y-110020893D01*
X178499499Y-110056771D01*
X178499499Y-112983033D01*
X178479814Y-113050072D01*
X178427010Y-113095827D01*
X178357852Y-113105771D01*
X178326600Y-113096984D01*
X178265909Y-113070940D01*
X178066690Y-113030000D01*
X177815000Y-113030000D01*
X177815000Y-113730000D01*
X177315000Y-113730000D01*
X177315000Y-113030000D01*
X177114287Y-113030000D01*
X176962661Y-113045418D01*
X176768618Y-113106299D01*
X176768608Y-113106304D01*
X176590784Y-113205005D01*
X176590783Y-113205005D01*
X176436469Y-113337478D01*
X176436468Y-113337479D01*
X176311981Y-113498304D01*
X176222411Y-113680906D01*
X176196754Y-113780000D01*
X176998889Y-113780000D01*
X176959390Y-113804457D01*
X176891799Y-113893962D01*
X176861105Y-114001840D01*
X176871454Y-114113521D01*
X176921448Y-114213922D01*
X176993931Y-114280000D01*
X176191634Y-114280000D01*
X176191931Y-114281946D01*
X176191933Y-114281952D01*
X176262562Y-114472657D01*
X176262565Y-114472664D01*
X176370149Y-114645267D01*
X176510264Y-114792668D01*
X176510266Y-114792669D01*
X176677195Y-114908856D01*
X176864092Y-114989059D01*
X177063310Y-115030000D01*
X177315000Y-115030000D01*
X177315000Y-114330000D01*
X177815000Y-114330000D01*
X177815000Y-115030000D01*
X178015713Y-115030000D01*
X178167338Y-115014581D01*
X178338378Y-114960917D01*
X178408236Y-114959629D01*
X178467700Y-114996314D01*
X178497891Y-115059325D01*
X178499499Y-115079230D01*
X178499499Y-121623033D01*
X178479814Y-121690072D01*
X178427010Y-121735827D01*
X178357852Y-121745771D01*
X178326600Y-121736984D01*
X178265909Y-121710940D01*
X178066690Y-121670000D01*
X177815000Y-121670000D01*
X177815000Y-122370000D01*
X177315000Y-122370000D01*
X177315000Y-121670000D01*
X177114287Y-121670000D01*
X176962661Y-121685418D01*
X176768618Y-121746299D01*
X176768608Y-121746304D01*
X176590784Y-121845005D01*
X176590783Y-121845005D01*
X176436469Y-121977478D01*
X176436468Y-121977479D01*
X176311981Y-122138304D01*
X176222411Y-122320906D01*
X176196754Y-122420000D01*
X176998889Y-122420000D01*
X176959390Y-122444457D01*
X176891799Y-122533962D01*
X176861105Y-122641840D01*
X176871454Y-122753521D01*
X176921448Y-122853922D01*
X176993931Y-122920000D01*
X176191634Y-122920000D01*
X176191931Y-122921946D01*
X176191933Y-122921952D01*
X176262562Y-123112657D01*
X176262565Y-123112664D01*
X176370149Y-123285267D01*
X176510264Y-123432668D01*
X176510266Y-123432669D01*
X176677195Y-123548856D01*
X176864092Y-123629059D01*
X177063310Y-123670000D01*
X177315000Y-123670000D01*
X177315000Y-122970000D01*
X177815000Y-122970000D01*
X177815000Y-123670000D01*
X178015713Y-123670000D01*
X178167338Y-123654581D01*
X178338378Y-123600917D01*
X178408236Y-123599629D01*
X178467700Y-123636314D01*
X178497891Y-123699325D01*
X178499499Y-123719230D01*
X178499499Y-126643228D01*
X178479814Y-126710267D01*
X178427010Y-126756022D01*
X178357852Y-126765966D01*
X178323094Y-126755610D01*
X178188485Y-126692841D01*
X178146496Y-126673261D01*
X178146492Y-126673260D01*
X178146488Y-126673258D01*
X177926697Y-126614366D01*
X177926693Y-126614365D01*
X177926692Y-126614365D01*
X177926691Y-126614364D01*
X177926686Y-126614364D01*
X177700002Y-126594532D01*
X177699998Y-126594532D01*
X177473313Y-126614364D01*
X177473302Y-126614366D01*
X177253511Y-126673258D01*
X177253502Y-126673261D01*
X177047267Y-126769431D01*
X177047265Y-126769432D01*
X176860858Y-126899954D01*
X176699954Y-127060858D01*
X176569432Y-127247265D01*
X176569431Y-127247267D01*
X176473261Y-127453502D01*
X176473258Y-127453511D01*
X176414366Y-127673302D01*
X176414364Y-127673313D01*
X176394532Y-127899998D01*
X176394532Y-127900001D01*
X176414364Y-128126686D01*
X176414366Y-128126697D01*
X176473258Y-128346488D01*
X176473261Y-128346497D01*
X176569431Y-128552732D01*
X176569432Y-128552734D01*
X176699954Y-128739141D01*
X176860858Y-128900045D01*
X176860861Y-128900047D01*
X177047266Y-129030568D01*
X177253504Y-129126739D01*
X177473308Y-129185635D01*
X177635230Y-129199801D01*
X177699998Y-129205468D01*
X177700000Y-129205468D01*
X177700002Y-129205468D01*
X177756673Y-129200509D01*
X177926692Y-129185635D01*
X178146496Y-129126739D01*
X178323095Y-129044388D01*
X178392171Y-129033897D01*
X178455955Y-129062417D01*
X178494195Y-129120893D01*
X178499499Y-129156771D01*
X178499499Y-134143228D01*
X178479814Y-134210267D01*
X178427010Y-134256022D01*
X178357852Y-134265966D01*
X178323094Y-134255610D01*
X178213919Y-134204701D01*
X178146496Y-134173261D01*
X178146492Y-134173260D01*
X178146488Y-134173258D01*
X177926697Y-134114366D01*
X177926693Y-134114365D01*
X177926692Y-134114365D01*
X177926691Y-134114364D01*
X177926686Y-134114364D01*
X177700002Y-134094532D01*
X177699998Y-134094532D01*
X177473313Y-134114364D01*
X177473302Y-134114366D01*
X177253511Y-134173258D01*
X177253502Y-134173261D01*
X177047267Y-134269431D01*
X177047265Y-134269432D01*
X176860858Y-134399954D01*
X176699954Y-134560858D01*
X176569432Y-134747265D01*
X176569431Y-134747267D01*
X176473261Y-134953502D01*
X176473258Y-134953511D01*
X176414366Y-135173302D01*
X176414364Y-135173313D01*
X176394532Y-135399998D01*
X176394532Y-135400001D01*
X176414364Y-135626686D01*
X176414366Y-135626697D01*
X176473258Y-135846488D01*
X176473260Y-135846492D01*
X176473261Y-135846496D01*
X176553334Y-136018213D01*
X176555611Y-136023095D01*
X176566103Y-136092173D01*
X176537583Y-136155957D01*
X176479107Y-136194196D01*
X176443229Y-136199500D01*
X102556771Y-136199500D01*
X102489732Y-136179815D01*
X102443977Y-136127011D01*
X102434033Y-136057853D01*
X102444389Y-136023095D01*
X102445195Y-136021365D01*
X102526739Y-135846496D01*
X102585635Y-135626692D01*
X102605468Y-135400000D01*
X102585635Y-135173308D01*
X102526739Y-134953504D01*
X102430568Y-134747266D01*
X102300047Y-134560861D01*
X102300045Y-134560858D01*
X102139141Y-134399954D01*
X101952734Y-134269432D01*
X101952732Y-134269431D01*
X101746497Y-134173261D01*
X101746488Y-134173258D01*
X101526697Y-134114366D01*
X101526693Y-134114365D01*
X101526692Y-134114365D01*
X101526691Y-134114364D01*
X101526686Y-134114364D01*
X101300002Y-134094532D01*
X101299998Y-134094532D01*
X101073313Y-134114364D01*
X101073302Y-134114366D01*
X100853511Y-134173258D01*
X100853504Y-134173260D01*
X100853504Y-134173261D01*
X100786081Y-134204701D01*
X100676905Y-134255611D01*
X100607827Y-134266103D01*
X100544043Y-134237583D01*
X100505804Y-134179107D01*
X100500500Y-134143229D01*
X100500500Y-132842469D01*
X100870796Y-132842469D01*
X100870797Y-132842471D01*
X100900245Y-133009485D01*
X100900246Y-133009488D01*
X100900247Y-133009492D01*
X100967421Y-133165219D01*
X101068698Y-133301258D01*
X101198617Y-133410273D01*
X101350175Y-133486388D01*
X101515201Y-133525500D01*
X101515203Y-133525500D01*
X101642249Y-133525500D01*
X101642256Y-133525500D01*
X101768451Y-133510750D01*
X101927820Y-133452744D01*
X102069517Y-133359549D01*
X102185902Y-133236188D01*
X102270701Y-133089312D01*
X102319342Y-132926839D01*
X102329203Y-132757529D01*
X102299753Y-132590508D01*
X102232579Y-132434781D01*
X102154573Y-132330000D01*
X125669364Y-132330000D01*
X125726567Y-132543486D01*
X125726570Y-132543492D01*
X125826399Y-132757578D01*
X125961894Y-132951082D01*
X126128917Y-133118105D01*
X126322421Y-133253600D01*
X126536507Y-133353429D01*
X126536516Y-133353433D01*
X126750000Y-133410634D01*
X126750000Y-132515501D01*
X126857685Y-132564680D01*
X126964237Y-132580000D01*
X127035763Y-132580000D01*
X127142315Y-132564680D01*
X127250000Y-132515501D01*
X127250000Y-133410633D01*
X127463483Y-133353433D01*
X127463492Y-133353429D01*
X127677578Y-133253600D01*
X127871082Y-133118105D01*
X128038105Y-132951082D01*
X128168119Y-132765405D01*
X128222696Y-132721781D01*
X128292195Y-132714588D01*
X128354549Y-132746110D01*
X128371269Y-132765405D01*
X128501505Y-132951401D01*
X128668599Y-133118495D01*
X128765384Y-133186265D01*
X128862165Y-133254032D01*
X128862167Y-133254033D01*
X128862170Y-133254035D01*
X129076337Y-133353903D01*
X129304592Y-133415063D01*
X129481034Y-133430500D01*
X129539999Y-133435659D01*
X129540000Y-133435659D01*
X129540001Y-133435659D01*
X129598966Y-133430500D01*
X129775408Y-133415063D01*
X130003663Y-133353903D01*
X130217830Y-133254035D01*
X130411401Y-133118495D01*
X130578495Y-132951401D01*
X130708424Y-132765842D01*
X130763002Y-132722217D01*
X130832500Y-132715023D01*
X130894855Y-132746546D01*
X130911575Y-132765842D01*
X131041500Y-132951395D01*
X131041505Y-132951401D01*
X131208599Y-133118495D01*
X131305384Y-133186265D01*
X131402165Y-133254032D01*
X131402167Y-133254033D01*
X131402170Y-133254035D01*
X131616337Y-133353903D01*
X131844592Y-133415063D01*
X132021034Y-133430500D01*
X132079999Y-133435659D01*
X132080000Y-133435659D01*
X132080001Y-133435659D01*
X132138966Y-133430500D01*
X132315408Y-133415063D01*
X132543663Y-133353903D01*
X132757830Y-133254035D01*
X132951401Y-133118495D01*
X133073329Y-132996566D01*
X133134648Y-132963084D01*
X133204340Y-132968068D01*
X133260274Y-133009939D01*
X133277189Y-133040917D01*
X133326202Y-133172328D01*
X133326206Y-133172335D01*
X133412452Y-133287544D01*
X133412455Y-133287547D01*
X133527664Y-133373793D01*
X133527671Y-133373797D01*
X133572618Y-133390560D01*
X133662517Y-133424091D01*
X133722127Y-133430500D01*
X133895499Y-133430499D01*
X133962538Y-133450183D01*
X134008293Y-133502987D01*
X134019499Y-133554499D01*
X134019500Y-133978168D01*
X133999816Y-134045207D01*
X133997251Y-134048783D01*
X133899281Y-134204699D01*
X133839701Y-134374968D01*
X133839700Y-134374973D01*
X133819505Y-134554219D01*
X133819505Y-134554226D01*
X133839700Y-134733472D01*
X133839701Y-134733477D01*
X133899281Y-134903746D01*
X133930551Y-134953511D01*
X133995254Y-135056485D01*
X134122808Y-135184039D01*
X134275548Y-135280012D01*
X134445814Y-135339591D01*
X134445815Y-135339591D01*
X134445820Y-135339592D01*
X134625066Y-135359788D01*
X134625070Y-135359788D01*
X134625074Y-135359788D01*
X134804319Y-135339592D01*
X134804322Y-135339591D01*
X134804325Y-135339591D01*
X134974592Y-135280012D01*
X135127332Y-135184039D01*
X135254886Y-135056485D01*
X135350859Y-134903745D01*
X135410438Y-134733478D01*
X135429887Y-134560861D01*
X135430635Y-134554226D01*
X135430635Y-134554219D01*
X135410439Y-134374973D01*
X135410438Y-134374968D01*
X135372344Y-134266103D01*
X135350859Y-134204701D01*
X135254886Y-134051961D01*
X135254881Y-134051956D01*
X135250545Y-134046518D01*
X135252106Y-134045272D01*
X135223329Y-133992550D01*
X135220500Y-133966212D01*
X135220500Y-133554499D01*
X135240185Y-133487460D01*
X135292989Y-133441705D01*
X135344500Y-133430499D01*
X135517871Y-133430499D01*
X135517872Y-133430499D01*
X135577483Y-133424091D01*
X135712331Y-133373796D01*
X135827546Y-133287546D01*
X135913796Y-133172331D01*
X135964091Y-133037483D01*
X135970500Y-132977873D01*
X135970499Y-132080000D01*
X153584341Y-132080000D01*
X153604936Y-132315403D01*
X153604938Y-132315413D01*
X153666094Y-132543655D01*
X153666096Y-132543659D01*
X153666097Y-132543663D01*
X153687942Y-132590509D01*
X153765965Y-132757830D01*
X153765967Y-132757834D01*
X153825230Y-132842469D01*
X153901505Y-132951401D01*
X154068599Y-133118495D01*
X154165384Y-133186265D01*
X154262165Y-133254032D01*
X154262167Y-133254033D01*
X154262170Y-133254035D01*
X154476337Y-133353903D01*
X154704592Y-133415063D01*
X154881034Y-133430500D01*
X154939999Y-133435659D01*
X154940000Y-133435659D01*
X154940001Y-133435659D01*
X154998966Y-133430500D01*
X155175408Y-133415063D01*
X155403663Y-133353903D01*
X155617830Y-133254035D01*
X155811401Y-133118495D01*
X155933329Y-132996566D01*
X155994648Y-132963084D01*
X156064340Y-132968068D01*
X156120274Y-133009939D01*
X156137189Y-133040917D01*
X156186202Y-133172328D01*
X156186206Y-133172335D01*
X156272452Y-133287544D01*
X156272455Y-133287547D01*
X156387664Y-133373793D01*
X156387671Y-133373797D01*
X156522517Y-133424091D01*
X156522516Y-133424091D01*
X156529444Y-133424835D01*
X156582127Y-133430500D01*
X158377872Y-133430499D01*
X158437483Y-133424091D01*
X158572331Y-133373796D01*
X158687546Y-133287546D01*
X158773796Y-133172331D01*
X158824091Y-133037483D01*
X158830500Y-132977873D01*
X158830500Y-132842469D01*
X176670796Y-132842469D01*
X176670797Y-132842471D01*
X176700245Y-133009485D01*
X176700246Y-133009488D01*
X176700247Y-133009492D01*
X176767421Y-133165219D01*
X176868698Y-133301258D01*
X176998617Y-133410273D01*
X177150175Y-133486388D01*
X177315201Y-133525500D01*
X177315203Y-133525500D01*
X177442249Y-133525500D01*
X177442256Y-133525500D01*
X177568451Y-133510750D01*
X177727820Y-133452744D01*
X177869517Y-133359549D01*
X177985902Y-133236188D01*
X178070701Y-133089312D01*
X178119342Y-132926839D01*
X178129203Y-132757529D01*
X178099753Y-132590508D01*
X178032579Y-132434781D01*
X177931302Y-132298742D01*
X177801383Y-132189727D01*
X177800066Y-132189065D01*
X177649828Y-132113613D01*
X177649826Y-132113612D01*
X177649825Y-132113612D01*
X177484799Y-132074500D01*
X177357744Y-132074500D01*
X177247323Y-132087406D01*
X177231548Y-132089250D01*
X177072181Y-132147255D01*
X177007607Y-132189726D01*
X176930483Y-132240451D01*
X176930482Y-132240451D01*
X176930482Y-132240452D01*
X176814098Y-132363810D01*
X176729300Y-132510685D01*
X176680658Y-132673159D01*
X176680657Y-132673165D01*
X176670796Y-132842469D01*
X158830500Y-132842469D01*
X158830499Y-131182128D01*
X158824091Y-131122517D01*
X158822810Y-131119083D01*
X158773797Y-130987671D01*
X158773793Y-130987664D01*
X158687547Y-130872455D01*
X158687544Y-130872452D01*
X158572335Y-130786206D01*
X158572328Y-130786202D01*
X158437482Y-130735908D01*
X158437483Y-130735908D01*
X158377883Y-130729501D01*
X158377881Y-130729500D01*
X158377873Y-130729500D01*
X158377864Y-130729500D01*
X156582129Y-130729500D01*
X156582123Y-130729501D01*
X156522516Y-130735908D01*
X156387671Y-130786202D01*
X156387664Y-130786206D01*
X156272455Y-130872452D01*
X156272452Y-130872455D01*
X156186206Y-130987664D01*
X156186203Y-130987669D01*
X156137189Y-131119083D01*
X156095317Y-131175016D01*
X156029853Y-131199433D01*
X155961580Y-131184581D01*
X155933326Y-131163430D01*
X155811402Y-131041506D01*
X155811395Y-131041501D01*
X155617834Y-130905967D01*
X155617830Y-130905965D01*
X155617829Y-130905964D01*
X155403663Y-130806097D01*
X155403659Y-130806096D01*
X155403655Y-130806094D01*
X155175413Y-130744938D01*
X155175403Y-130744936D01*
X154940001Y-130724341D01*
X154939999Y-130724341D01*
X154704596Y-130744936D01*
X154704586Y-130744938D01*
X154476344Y-130806094D01*
X154476335Y-130806098D01*
X154262171Y-130905964D01*
X154262169Y-130905965D01*
X154068597Y-131041505D01*
X153901505Y-131208597D01*
X153765965Y-131402169D01*
X153765964Y-131402171D01*
X153666098Y-131616335D01*
X153666094Y-131616344D01*
X153604938Y-131844586D01*
X153604936Y-131844596D01*
X153584341Y-132079999D01*
X153584341Y-132080000D01*
X135970499Y-132080000D01*
X135970499Y-131182128D01*
X135964091Y-131122517D01*
X135962810Y-131119083D01*
X135913797Y-130987671D01*
X135913793Y-130987664D01*
X135827547Y-130872455D01*
X135827544Y-130872452D01*
X135712335Y-130786206D01*
X135712328Y-130786202D01*
X135577482Y-130735908D01*
X135577483Y-130735908D01*
X135517883Y-130729501D01*
X135517881Y-130729500D01*
X135517873Y-130729500D01*
X135517864Y-130729500D01*
X133722129Y-130729500D01*
X133722123Y-130729501D01*
X133662516Y-130735908D01*
X133527671Y-130786202D01*
X133527664Y-130786206D01*
X133412455Y-130872452D01*
X133412452Y-130872455D01*
X133326206Y-130987664D01*
X133326203Y-130987669D01*
X133277189Y-131119083D01*
X133235317Y-131175016D01*
X133169853Y-131199433D01*
X133101580Y-131184581D01*
X133073326Y-131163430D01*
X132951402Y-131041506D01*
X132951395Y-131041501D01*
X132757834Y-130905967D01*
X132757830Y-130905965D01*
X132757828Y-130905964D01*
X132543663Y-130806097D01*
X132543659Y-130806096D01*
X132543655Y-130806094D01*
X132315413Y-130744938D01*
X132315403Y-130744936D01*
X132080001Y-130724341D01*
X132079999Y-130724341D01*
X131844596Y-130744936D01*
X131844586Y-130744938D01*
X131616344Y-130806094D01*
X131616335Y-130806098D01*
X131402171Y-130905964D01*
X131402169Y-130905965D01*
X131208597Y-131041505D01*
X131041505Y-131208597D01*
X130911575Y-131394158D01*
X130856998Y-131437783D01*
X130787500Y-131444977D01*
X130725145Y-131413454D01*
X130708425Y-131394158D01*
X130578494Y-131208597D01*
X130411402Y-131041506D01*
X130411395Y-131041501D01*
X130217834Y-130905967D01*
X130217830Y-130905965D01*
X130217829Y-130905964D01*
X130003663Y-130806097D01*
X130003659Y-130806096D01*
X130003655Y-130806094D01*
X129775413Y-130744938D01*
X129775403Y-130744936D01*
X129540001Y-130724341D01*
X129539999Y-130724341D01*
X129304596Y-130744936D01*
X129304586Y-130744938D01*
X129076344Y-130806094D01*
X129076335Y-130806098D01*
X128862171Y-130905964D01*
X128862169Y-130905965D01*
X128668597Y-131041505D01*
X128501508Y-131208594D01*
X128371269Y-131394595D01*
X128316692Y-131438219D01*
X128247193Y-131445412D01*
X128184839Y-131413890D01*
X128168119Y-131394594D01*
X128038113Y-131208926D01*
X128038108Y-131208920D01*
X127871082Y-131041894D01*
X127677578Y-130906399D01*
X127463492Y-130806570D01*
X127463486Y-130806567D01*
X127250000Y-130749364D01*
X127250000Y-131644498D01*
X127142315Y-131595320D01*
X127035763Y-131580000D01*
X126964237Y-131580000D01*
X126857685Y-131595320D01*
X126750000Y-131644498D01*
X126750000Y-130749364D01*
X126749999Y-130749364D01*
X126536513Y-130806567D01*
X126536507Y-130806570D01*
X126322422Y-130906399D01*
X126322420Y-130906400D01*
X126128926Y-131041886D01*
X126128920Y-131041891D01*
X125961891Y-131208920D01*
X125961886Y-131208926D01*
X125826400Y-131402420D01*
X125826399Y-131402422D01*
X125726570Y-131616507D01*
X125726567Y-131616513D01*
X125669364Y-131829999D01*
X125669364Y-131830000D01*
X126566314Y-131830000D01*
X126540507Y-131870156D01*
X126500000Y-132008111D01*
X126500000Y-132151889D01*
X126540507Y-132289844D01*
X126566314Y-132330000D01*
X125669364Y-132330000D01*
X102154573Y-132330000D01*
X102131302Y-132298742D01*
X102001383Y-132189727D01*
X102000066Y-132189065D01*
X101849828Y-132113613D01*
X101849826Y-132113612D01*
X101849825Y-132113612D01*
X101684799Y-132074500D01*
X101557744Y-132074500D01*
X101447323Y-132087406D01*
X101431548Y-132089250D01*
X101272181Y-132147255D01*
X101207607Y-132189726D01*
X101130483Y-132240451D01*
X101130482Y-132240451D01*
X101130482Y-132240452D01*
X101014098Y-132363810D01*
X100929300Y-132510685D01*
X100880658Y-132673159D01*
X100880657Y-132673165D01*
X100870796Y-132842469D01*
X100500500Y-132842469D01*
X100500500Y-130542469D01*
X100870796Y-130542469D01*
X100870797Y-130542471D01*
X100900245Y-130709485D01*
X100900246Y-130709488D01*
X100900247Y-130709492D01*
X100967421Y-130865219D01*
X101068698Y-131001258D01*
X101198617Y-131110273D01*
X101350175Y-131186388D01*
X101515201Y-131225500D01*
X101515203Y-131225500D01*
X101642249Y-131225500D01*
X101642256Y-131225500D01*
X101768451Y-131210750D01*
X101927820Y-131152744D01*
X102069517Y-131059549D01*
X102185902Y-130936188D01*
X102270701Y-130789312D01*
X102319342Y-130626839D01*
X102324256Y-130542469D01*
X176670796Y-130542469D01*
X176670797Y-130542471D01*
X176700245Y-130709485D01*
X176700246Y-130709488D01*
X176700247Y-130709492D01*
X176767421Y-130865219D01*
X176868698Y-131001258D01*
X176998617Y-131110273D01*
X177150175Y-131186388D01*
X177315201Y-131225500D01*
X177315203Y-131225500D01*
X177442249Y-131225500D01*
X177442256Y-131225500D01*
X177568451Y-131210750D01*
X177727820Y-131152744D01*
X177869517Y-131059549D01*
X177985902Y-130936188D01*
X178070701Y-130789312D01*
X178119342Y-130626839D01*
X178129203Y-130457529D01*
X178099753Y-130290508D01*
X178032579Y-130134781D01*
X177931302Y-129998742D01*
X177801383Y-129889727D01*
X177739376Y-129858586D01*
X177649828Y-129813613D01*
X177649826Y-129813612D01*
X177649825Y-129813612D01*
X177484799Y-129774500D01*
X177357744Y-129774500D01*
X177247323Y-129787406D01*
X177231548Y-129789250D01*
X177072181Y-129847255D01*
X177007607Y-129889726D01*
X176930483Y-129940451D01*
X176930482Y-129940451D01*
X176930482Y-129940452D01*
X176814098Y-130063810D01*
X176729300Y-130210685D01*
X176680658Y-130373159D01*
X176680657Y-130373165D01*
X176670796Y-130542469D01*
X102324256Y-130542469D01*
X102329203Y-130457529D01*
X102299753Y-130290508D01*
X102232579Y-130134781D01*
X102131302Y-129998742D01*
X102001383Y-129889727D01*
X101939376Y-129858586D01*
X101849828Y-129813613D01*
X101849826Y-129813612D01*
X101849825Y-129813612D01*
X101684799Y-129774500D01*
X101557744Y-129774500D01*
X101447323Y-129787406D01*
X101431548Y-129789250D01*
X101272181Y-129847255D01*
X101207607Y-129889726D01*
X101130483Y-129940451D01*
X101130482Y-129940451D01*
X101130482Y-129940452D01*
X101014098Y-130063810D01*
X100929300Y-130210685D01*
X100880658Y-130373159D01*
X100880657Y-130373165D01*
X100870796Y-130542469D01*
X100500500Y-130542469D01*
X100500500Y-129156771D01*
X100520185Y-129089732D01*
X100572989Y-129043977D01*
X100642147Y-129034033D01*
X100676905Y-129044389D01*
X100853504Y-129126739D01*
X101073308Y-129185635D01*
X101235230Y-129199801D01*
X101299998Y-129205468D01*
X101300000Y-129205468D01*
X101300002Y-129205468D01*
X101356673Y-129200509D01*
X101526692Y-129185635D01*
X101746496Y-129126739D01*
X101952734Y-129030568D01*
X102139139Y-128900047D01*
X102300047Y-128739139D01*
X102430568Y-128552734D01*
X102526739Y-128346496D01*
X102585635Y-128126692D01*
X102605468Y-127900000D01*
X102605331Y-127898429D01*
X151277435Y-127898429D01*
X151297630Y-128077675D01*
X151297631Y-128077680D01*
X151357211Y-128247949D01*
X151453184Y-128400688D01*
X151580738Y-128528242D01*
X151619714Y-128552732D01*
X151733479Y-128624216D01*
X151758912Y-128633115D01*
X151815689Y-128673836D01*
X151841437Y-128738788D01*
X151835001Y-128791111D01*
X151824631Y-128820747D01*
X151804435Y-128999996D01*
X151804435Y-129000003D01*
X151824630Y-129179249D01*
X151824631Y-129179254D01*
X151884211Y-129349523D01*
X151980184Y-129502261D01*
X151980184Y-129502262D01*
X152107738Y-129629816D01*
X152260478Y-129725789D01*
X152342164Y-129754372D01*
X152430745Y-129785368D01*
X152430750Y-129785369D01*
X152609996Y-129805565D01*
X152610000Y-129805565D01*
X152610004Y-129805565D01*
X152789249Y-129785369D01*
X152789252Y-129785368D01*
X152789255Y-129785368D01*
X152959522Y-129725789D01*
X153112262Y-129629816D01*
X153239816Y-129502262D01*
X153335789Y-129349522D01*
X153395368Y-129179255D01*
X153395369Y-129179249D01*
X153415565Y-129000003D01*
X153415565Y-128999996D01*
X153395369Y-128820750D01*
X153395368Y-128820745D01*
X153381027Y-128779760D01*
X153356617Y-128710000D01*
X167264000Y-128710000D01*
X167264000Y-129664344D01*
X167270401Y-129723872D01*
X167270403Y-129723879D01*
X167320645Y-129858586D01*
X167320649Y-129858593D01*
X167406809Y-129973687D01*
X167406812Y-129973690D01*
X167521906Y-130059850D01*
X167521913Y-130059854D01*
X167656620Y-130110096D01*
X167656627Y-130110098D01*
X167716155Y-130116499D01*
X167716172Y-130116500D01*
X169160000Y-130116500D01*
X169660000Y-130116500D01*
X171103828Y-130116500D01*
X171103844Y-130116499D01*
X171163372Y-130110098D01*
X171163379Y-130110096D01*
X171298086Y-130059854D01*
X171298093Y-130059850D01*
X171413187Y-129973690D01*
X171413190Y-129973687D01*
X171499350Y-129858593D01*
X171499354Y-129858586D01*
X171549596Y-129723879D01*
X171549598Y-129723872D01*
X171555999Y-129664344D01*
X171556000Y-129664327D01*
X171556000Y-128710000D01*
X171013552Y-128710000D01*
X170604189Y-129119363D01*
X170645495Y-129057545D01*
X170664898Y-128960000D01*
X170645495Y-128862455D01*
X170590240Y-128779760D01*
X170507545Y-128724505D01*
X170434624Y-128710000D01*
X170385376Y-128710000D01*
X170312455Y-128724505D01*
X170229760Y-128779760D01*
X170174505Y-128862455D01*
X170155102Y-128960000D01*
X170174505Y-129057545D01*
X170229760Y-129140240D01*
X170312455Y-129195495D01*
X170385376Y-129210000D01*
X170434624Y-129210000D01*
X170507545Y-129195495D01*
X170569363Y-129154189D01*
X170410000Y-129313553D01*
X169997681Y-129725871D01*
X169936358Y-129759356D01*
X169866666Y-129754372D01*
X169822319Y-129725871D01*
X169660000Y-129563552D01*
X169660000Y-130116500D01*
X169160000Y-130116500D01*
X169160000Y-129563552D01*
X169159999Y-129563551D01*
X168997680Y-129725871D01*
X168936357Y-129759356D01*
X168866665Y-129754372D01*
X168822318Y-129725871D01*
X168250635Y-129154188D01*
X168312455Y-129195495D01*
X168385376Y-129210000D01*
X168434624Y-129210000D01*
X168507545Y-129195495D01*
X168590240Y-129140240D01*
X168645495Y-129057545D01*
X168664898Y-128960000D01*
X168763553Y-128960000D01*
X168910000Y-129106446D01*
X169056447Y-128960000D01*
X169155102Y-128960000D01*
X169174505Y-129057545D01*
X169229760Y-129140240D01*
X169312455Y-129195495D01*
X169385376Y-129210000D01*
X169434624Y-129210000D01*
X169507545Y-129195495D01*
X169590240Y-129140240D01*
X169645495Y-129057545D01*
X169664898Y-128960000D01*
X169664898Y-128959999D01*
X169763553Y-128959999D01*
X169910000Y-129106446D01*
X170056446Y-128960001D01*
X170056446Y-128960000D01*
X169910000Y-128813553D01*
X169763553Y-128959999D01*
X169664898Y-128959999D01*
X169645495Y-128862455D01*
X169590240Y-128779760D01*
X169507545Y-128724505D01*
X169434624Y-128710000D01*
X169385376Y-128710000D01*
X169312455Y-128724505D01*
X169229760Y-128779760D01*
X169174505Y-128862455D01*
X169155102Y-128960000D01*
X169056447Y-128960000D01*
X168910000Y-128813553D01*
X168763553Y-128960000D01*
X168664898Y-128960000D01*
X168645495Y-128862455D01*
X168590240Y-128779760D01*
X168507545Y-128724505D01*
X168434624Y-128710000D01*
X168385376Y-128710000D01*
X168312455Y-128724505D01*
X168229760Y-128779760D01*
X168174505Y-128862455D01*
X168155102Y-128960000D01*
X168174505Y-129057545D01*
X168215811Y-129119364D01*
X167806447Y-128710000D01*
X167264000Y-128710000D01*
X153356617Y-128710000D01*
X153335789Y-128650478D01*
X153319287Y-128624216D01*
X153239813Y-128497734D01*
X153237550Y-128494896D01*
X153236659Y-128492715D01*
X153236111Y-128491842D01*
X153236264Y-128491745D01*
X153211144Y-128430209D01*
X153210500Y-128417587D01*
X153210500Y-128210000D01*
X167264000Y-128210000D01*
X167806447Y-128210000D01*
X167806447Y-128209999D01*
X168215811Y-127800634D01*
X168174505Y-127862455D01*
X168155102Y-127960000D01*
X168174505Y-128057545D01*
X168229760Y-128140240D01*
X168312455Y-128195495D01*
X168385376Y-128210000D01*
X168434624Y-128210000D01*
X168507545Y-128195495D01*
X168590240Y-128140240D01*
X168645495Y-128057545D01*
X168664898Y-127960000D01*
X168664898Y-127959999D01*
X168763553Y-127959999D01*
X168910000Y-128106446D01*
X169056446Y-127960001D01*
X169056446Y-127960000D01*
X169155102Y-127960000D01*
X169174505Y-128057545D01*
X169229760Y-128140240D01*
X169312455Y-128195495D01*
X169385376Y-128210000D01*
X169434624Y-128210000D01*
X169507545Y-128195495D01*
X169590240Y-128140240D01*
X169645495Y-128057545D01*
X169664898Y-127960000D01*
X169664898Y-127959999D01*
X169763553Y-127959999D01*
X169910000Y-128106446D01*
X170056447Y-127960000D01*
X170056447Y-127959999D01*
X169910000Y-127813553D01*
X169763553Y-127959999D01*
X169664898Y-127959999D01*
X169645495Y-127862455D01*
X169590240Y-127779760D01*
X169507545Y-127724505D01*
X169434624Y-127710000D01*
X169385376Y-127710000D01*
X169312455Y-127724505D01*
X169229760Y-127779760D01*
X169174505Y-127862455D01*
X169155102Y-127960000D01*
X169056446Y-127960000D01*
X168910000Y-127813553D01*
X168763553Y-127959999D01*
X168664898Y-127959999D01*
X168645495Y-127862455D01*
X168590240Y-127779760D01*
X168507545Y-127724505D01*
X168434624Y-127710000D01*
X168385376Y-127710000D01*
X168312455Y-127724505D01*
X168250634Y-127765811D01*
X168410000Y-127606447D01*
X168822318Y-127194128D01*
X168883641Y-127160643D01*
X168953332Y-127165627D01*
X168997680Y-127194128D01*
X169159999Y-127356447D01*
X169160000Y-127356446D01*
X169160000Y-126803500D01*
X169660000Y-126803500D01*
X169660000Y-127356447D01*
X169822319Y-127194128D01*
X169883642Y-127160643D01*
X169953333Y-127165627D01*
X169997681Y-127194128D01*
X170569364Y-127765811D01*
X170507545Y-127724505D01*
X170434624Y-127710000D01*
X170385376Y-127710000D01*
X170312455Y-127724505D01*
X170229760Y-127779760D01*
X170174505Y-127862455D01*
X170155102Y-127960000D01*
X170174505Y-128057545D01*
X170229760Y-128140240D01*
X170312455Y-128195495D01*
X170385376Y-128210000D01*
X170434624Y-128210000D01*
X170507545Y-128195495D01*
X170590240Y-128140240D01*
X170645495Y-128057545D01*
X170664898Y-127960000D01*
X170645495Y-127862455D01*
X170604188Y-127800635D01*
X171013553Y-128210000D01*
X171556000Y-128210000D01*
X171556000Y-127255672D01*
X171555999Y-127255655D01*
X171549598Y-127196127D01*
X171549596Y-127196120D01*
X171499354Y-127061413D01*
X171499350Y-127061406D01*
X171413190Y-126946312D01*
X171413187Y-126946309D01*
X171298093Y-126860149D01*
X171298086Y-126860145D01*
X171163379Y-126809903D01*
X171163372Y-126809901D01*
X171103844Y-126803500D01*
X169660000Y-126803500D01*
X169160000Y-126803500D01*
X167716155Y-126803500D01*
X167656627Y-126809901D01*
X167656620Y-126809903D01*
X167521913Y-126860145D01*
X167521906Y-126860149D01*
X167406812Y-126946309D01*
X167406809Y-126946312D01*
X167320649Y-127061406D01*
X167320645Y-127061413D01*
X167270403Y-127196120D01*
X167270401Y-127196127D01*
X167264000Y-127255655D01*
X167264000Y-128210000D01*
X153210500Y-128210000D01*
X153210500Y-127430096D01*
X153230185Y-127363057D01*
X153246819Y-127342415D01*
X153493669Y-127095565D01*
X153743914Y-126845319D01*
X153749999Y-126839983D01*
X153778282Y-126818282D01*
X153874536Y-126692841D01*
X153935044Y-126546762D01*
X153950500Y-126429361D01*
X153955682Y-126390000D01*
X153956743Y-126381942D01*
X153960228Y-126382400D01*
X153975367Y-126330844D01*
X154013711Y-126292889D01*
X154018315Y-126289996D01*
X154082262Y-126249816D01*
X154209816Y-126122262D01*
X154305789Y-125969522D01*
X154365368Y-125799255D01*
X154370231Y-125756096D01*
X154385565Y-125620003D01*
X154385565Y-125619996D01*
X154365369Y-125440750D01*
X154365368Y-125440745D01*
X154365367Y-125440745D01*
X154305789Y-125270478D01*
X154241105Y-125167534D01*
X154222105Y-125100297D01*
X154242473Y-125033462D01*
X154295740Y-124988248D01*
X154364997Y-124979010D01*
X154387054Y-124984521D01*
X154520739Y-125031300D01*
X154520745Y-125031301D01*
X154520747Y-125031302D01*
X154520748Y-125031302D01*
X154520752Y-125031303D01*
X154699998Y-125051499D01*
X154700002Y-125051499D01*
X154700006Y-125051499D01*
X154879251Y-125031303D01*
X154879254Y-125031302D01*
X154879257Y-125031302D01*
X154959019Y-125003391D01*
X154999974Y-124996434D01*
X155063704Y-124996434D01*
X155130743Y-125016119D01*
X155151385Y-125032753D01*
X156716692Y-126598060D01*
X156739356Y-126634129D01*
X156741188Y-126633247D01*
X156744207Y-126639516D01*
X156777714Y-126692842D01*
X156840184Y-126792262D01*
X156967738Y-126919816D01*
X157120478Y-127015789D01*
X157250844Y-127061406D01*
X157290745Y-127075368D01*
X157290750Y-127075369D01*
X157469996Y-127095565D01*
X157470000Y-127095565D01*
X157470004Y-127095565D01*
X157649249Y-127075369D01*
X157649252Y-127075368D01*
X157649255Y-127075368D01*
X157819522Y-127015789D01*
X157972262Y-126919816D01*
X158099816Y-126792262D01*
X158195789Y-126639522D01*
X158255368Y-126469255D01*
X158255369Y-126469249D01*
X158275565Y-126290003D01*
X158275565Y-126289996D01*
X158255369Y-126110750D01*
X158255368Y-126110745D01*
X158195788Y-125940476D01*
X158156582Y-125878080D01*
X158099816Y-125787738D01*
X157972262Y-125660184D01*
X157819522Y-125564211D01*
X157819518Y-125564209D01*
X157813244Y-125561188D01*
X157814125Y-125559358D01*
X157778059Y-125536692D01*
X156001663Y-123760295D01*
X155989883Y-123746664D01*
X155982416Y-123736635D01*
X155975546Y-123727406D01*
X155975544Y-123727404D01*
X155935521Y-123693820D01*
X155931546Y-123690178D01*
X155928624Y-123687256D01*
X155925713Y-123684344D01*
X155900670Y-123664543D01*
X155899272Y-123663404D01*
X155841148Y-123614632D01*
X155835114Y-123610663D01*
X155835146Y-123610614D01*
X155828787Y-123606562D01*
X155828756Y-123606613D01*
X155822614Y-123602825D01*
X155822612Y-123602824D01*
X155822611Y-123602823D01*
X155753806Y-123570738D01*
X155752186Y-123569953D01*
X155710177Y-123548856D01*
X155684367Y-123535894D01*
X155684365Y-123535893D01*
X155684364Y-123535893D01*
X155677579Y-123533423D01*
X155677599Y-123533367D01*
X155670483Y-123530893D01*
X155670465Y-123530949D01*
X155663608Y-123528677D01*
X155589262Y-123513325D01*
X155587503Y-123512935D01*
X155513652Y-123495433D01*
X155506481Y-123494595D01*
X155506487Y-123494535D01*
X155498989Y-123493769D01*
X155498984Y-123493829D01*
X155491794Y-123493199D01*
X155415902Y-123495408D01*
X155414099Y-123495434D01*
X154999974Y-123495434D01*
X154959019Y-123488476D01*
X154879256Y-123460565D01*
X154879251Y-123460564D01*
X154700006Y-123440369D01*
X154699998Y-123440369D01*
X154520752Y-123460564D01*
X154520747Y-123460565D01*
X154350478Y-123520145D01*
X154197739Y-123616118D01*
X154070186Y-123743671D01*
X153974213Y-123896410D01*
X153914633Y-124066679D01*
X153914632Y-124066684D01*
X153894437Y-124245930D01*
X153894437Y-124245937D01*
X153914632Y-124425183D01*
X153914633Y-124425188D01*
X153974213Y-124595457D01*
X154038896Y-124698399D01*
X154057896Y-124765636D01*
X154037528Y-124832471D01*
X153984260Y-124877685D01*
X153915004Y-124886922D01*
X153892947Y-124881412D01*
X153759262Y-124834633D01*
X153759249Y-124834630D01*
X153580004Y-124814435D01*
X153579996Y-124814435D01*
X153400750Y-124834630D01*
X153400745Y-124834631D01*
X153230476Y-124894211D01*
X153077737Y-124990184D01*
X152950184Y-125117737D01*
X152854212Y-125270475D01*
X152851193Y-125276746D01*
X152848982Y-125275681D01*
X152814905Y-125323181D01*
X152752482Y-125348661D01*
X152610749Y-125364630D01*
X152610745Y-125364631D01*
X152440476Y-125424211D01*
X152287738Y-125520184D01*
X152282295Y-125524525D01*
X152280707Y-125522534D01*
X152229673Y-125550381D01*
X152219538Y-125552146D01*
X152122238Y-125564956D01*
X152122237Y-125564956D01*
X151976157Y-125625464D01*
X151850719Y-125721716D01*
X151829019Y-125749994D01*
X151823668Y-125756096D01*
X151689096Y-125890668D01*
X151682994Y-125896019D01*
X151654718Y-125917717D01*
X151654717Y-125917718D01*
X151558323Y-126043339D01*
X151557682Y-126045044D01*
X151497957Y-126189234D01*
X151497955Y-126189239D01*
X151477318Y-126345998D01*
X151477318Y-126345999D01*
X151481969Y-126381326D01*
X151482500Y-126389428D01*
X151482500Y-127316013D01*
X151462815Y-127383052D01*
X151455450Y-127393322D01*
X151453186Y-127396160D01*
X151357211Y-127548902D01*
X151297631Y-127719171D01*
X151297630Y-127719176D01*
X151277435Y-127898422D01*
X151277435Y-127898429D01*
X102605331Y-127898429D01*
X102585635Y-127673308D01*
X102526739Y-127453504D01*
X102430568Y-127247266D01*
X102300047Y-127060861D01*
X102300045Y-127060858D01*
X102139141Y-126899954D01*
X101952734Y-126769432D01*
X101952732Y-126769431D01*
X101746497Y-126673261D01*
X101746488Y-126673258D01*
X101526697Y-126614366D01*
X101526687Y-126614364D01*
X101400020Y-126603282D01*
X101334951Y-126577829D01*
X101293973Y-126521238D01*
X101288090Y-126462109D01*
X101291260Y-126440058D01*
X101292498Y-126433779D01*
X101302938Y-126392262D01*
X101300547Y-126331400D01*
X101300500Y-126328978D01*
X101300500Y-122920000D01*
X171841634Y-122920000D01*
X171841931Y-122921946D01*
X171841933Y-122921952D01*
X171912562Y-123112657D01*
X171912565Y-123112664D01*
X172020149Y-123285267D01*
X172160264Y-123432668D01*
X172160266Y-123432669D01*
X172327195Y-123548856D01*
X172514092Y-123629059D01*
X172713310Y-123670000D01*
X173115000Y-123670000D01*
X173115000Y-122970000D01*
X173615000Y-122970000D01*
X173615000Y-123670000D01*
X173965713Y-123670000D01*
X174117338Y-123654581D01*
X174311381Y-123593700D01*
X174311391Y-123593695D01*
X174489215Y-123494994D01*
X174489216Y-123494994D01*
X174643530Y-123362521D01*
X174643531Y-123362520D01*
X174768018Y-123201695D01*
X174857588Y-123019093D01*
X174883246Y-122920000D01*
X174081111Y-122920000D01*
X174120610Y-122895543D01*
X174188201Y-122806038D01*
X174218895Y-122698160D01*
X174208546Y-122586479D01*
X174158552Y-122486078D01*
X174086069Y-122420000D01*
X174888366Y-122420000D01*
X174888068Y-122418053D01*
X174888066Y-122418047D01*
X174817437Y-122227342D01*
X174817434Y-122227335D01*
X174709850Y-122054732D01*
X174569735Y-121907331D01*
X174569733Y-121907330D01*
X174402806Y-121791144D01*
X174387401Y-121784534D01*
X174333558Y-121740007D01*
X174312335Y-121673438D01*
X174330471Y-121605963D01*
X174337920Y-121595103D01*
X174387698Y-121530233D01*
X174445687Y-121390236D01*
X174465466Y-121240000D01*
X174445687Y-121089764D01*
X174387698Y-120949767D01*
X174295451Y-120829549D01*
X174175233Y-120737302D01*
X174175229Y-120737300D01*
X174111801Y-120711027D01*
X174035236Y-120679313D01*
X174021171Y-120677461D01*
X173922727Y-120664500D01*
X173922720Y-120664500D01*
X173847280Y-120664500D01*
X173847272Y-120664500D01*
X173734764Y-120679313D01*
X173734763Y-120679313D01*
X173594770Y-120737300D01*
X173474549Y-120829549D01*
X173382300Y-120949770D01*
X173324313Y-121089763D01*
X173324312Y-121089765D01*
X173304534Y-121239999D01*
X173304534Y-121240000D01*
X173324312Y-121390234D01*
X173324313Y-121390236D01*
X173369177Y-121498547D01*
X173376646Y-121568017D01*
X173345371Y-121630496D01*
X173285282Y-121666148D01*
X173254616Y-121670000D01*
X172764287Y-121670000D01*
X172612661Y-121685418D01*
X172418618Y-121746299D01*
X172418608Y-121746304D01*
X172240784Y-121845005D01*
X172240783Y-121845005D01*
X172086469Y-121977478D01*
X172086468Y-121977479D01*
X171961981Y-122138304D01*
X171872411Y-122320906D01*
X171846754Y-122420000D01*
X172648889Y-122420000D01*
X172609390Y-122444457D01*
X172541799Y-122533962D01*
X172511105Y-122641840D01*
X172521454Y-122753521D01*
X172571448Y-122853922D01*
X172643931Y-122920000D01*
X171841634Y-122920000D01*
X101300500Y-122920000D01*
X101300500Y-118058624D01*
X148308098Y-118058624D01*
X148328293Y-118237870D01*
X148328294Y-118237875D01*
X148387874Y-118408144D01*
X148428011Y-118472021D01*
X148483847Y-118560883D01*
X148611401Y-118688437D01*
X148701743Y-118745203D01*
X148733832Y-118765366D01*
X148764141Y-118784410D01*
X148895947Y-118830531D01*
X148934408Y-118843989D01*
X148934413Y-118843990D01*
X149113659Y-118864186D01*
X149113663Y-118864186D01*
X149113667Y-118864186D01*
X149292912Y-118843990D01*
X149292915Y-118843989D01*
X149292918Y-118843989D01*
X149463185Y-118784410D01*
X149615925Y-118688437D01*
X149615930Y-118688431D01*
X149618760Y-118686176D01*
X149620938Y-118685286D01*
X149621821Y-118684732D01*
X149621918Y-118684886D01*
X149683446Y-118659766D01*
X149696075Y-118659121D01*
X151350482Y-118659121D01*
X151416454Y-118678127D01*
X151460477Y-118705789D01*
X151460481Y-118705790D01*
X151630737Y-118765366D01*
X151630743Y-118765367D01*
X151630745Y-118765368D01*
X151630746Y-118765368D01*
X151630750Y-118765369D01*
X151809996Y-118785565D01*
X151810000Y-118785565D01*
X151810004Y-118785565D01*
X151989249Y-118765369D01*
X151989252Y-118765368D01*
X151989255Y-118765368D01*
X152159522Y-118705789D01*
X152312262Y-118609816D01*
X152439816Y-118482262D01*
X152535789Y-118329522D01*
X152595368Y-118159255D01*
X152596522Y-118149014D01*
X152615565Y-117980003D01*
X152615565Y-117979996D01*
X152595369Y-117800750D01*
X152595368Y-117800745D01*
X152578400Y-117752254D01*
X152535789Y-117630478D01*
X152499675Y-117573003D01*
X172886853Y-117573003D01*
X172907048Y-117752249D01*
X172907049Y-117752254D01*
X172966629Y-117922523D01*
X173044610Y-118046629D01*
X173063610Y-118113866D01*
X173044610Y-118178573D01*
X172967211Y-118301752D01*
X172907631Y-118472021D01*
X172907630Y-118472026D01*
X172887435Y-118651272D01*
X172887435Y-118651279D01*
X172907630Y-118830525D01*
X172907631Y-118830530D01*
X172967211Y-119000799D01*
X173063183Y-119153538D01*
X173063184Y-119153538D01*
X173190738Y-119281092D01*
X173343478Y-119377065D01*
X173513745Y-119436643D01*
X173513745Y-119436644D01*
X173513750Y-119436645D01*
X173692996Y-119456841D01*
X173693000Y-119456841D01*
X173693004Y-119456841D01*
X173872249Y-119436645D01*
X173872252Y-119436644D01*
X173872255Y-119436644D01*
X174042522Y-119377065D01*
X174195262Y-119281092D01*
X174322816Y-119153538D01*
X174418789Y-119000798D01*
X174478368Y-118830531D01*
X174478369Y-118830525D01*
X174498565Y-118651279D01*
X174498565Y-118651272D01*
X174478369Y-118472026D01*
X174478368Y-118472021D01*
X174456016Y-118408143D01*
X174418789Y-118301754D01*
X174340806Y-118177646D01*
X174321807Y-118110411D01*
X174340807Y-118045703D01*
X174382091Y-117980000D01*
X174418207Y-117922522D01*
X174477786Y-117752255D01*
X174477787Y-117752249D01*
X174497983Y-117573003D01*
X174497983Y-117572996D01*
X174477787Y-117393750D01*
X174477786Y-117393745D01*
X174435624Y-117273253D01*
X174418207Y-117223478D01*
X174322234Y-117070738D01*
X174194680Y-116943184D01*
X174106356Y-116887686D01*
X174041941Y-116847211D01*
X173871672Y-116787631D01*
X173871667Y-116787630D01*
X173692422Y-116767435D01*
X173692414Y-116767435D01*
X173513168Y-116787630D01*
X173513163Y-116787631D01*
X173342894Y-116847211D01*
X173190155Y-116943184D01*
X173062602Y-117070737D01*
X172966629Y-117223476D01*
X172907049Y-117393745D01*
X172907048Y-117393750D01*
X172886853Y-117572996D01*
X172886853Y-117573003D01*
X152499675Y-117573003D01*
X152439816Y-117477738D01*
X152312262Y-117350184D01*
X152312261Y-117350183D01*
X152159523Y-117254211D01*
X151989254Y-117194631D01*
X151989249Y-117194630D01*
X151810004Y-117174435D01*
X151809996Y-117174435D01*
X151630750Y-117194630D01*
X151630745Y-117194631D01*
X151460476Y-117254211D01*
X151307737Y-117350184D01*
X151236120Y-117421802D01*
X151174797Y-117455287D01*
X151148439Y-117458121D01*
X149696075Y-117458121D01*
X149629036Y-117438436D01*
X149618760Y-117431066D01*
X149615926Y-117428806D01*
X149615926Y-117428805D01*
X149615925Y-117428805D01*
X149490801Y-117350184D01*
X149463186Y-117332832D01*
X149292917Y-117273252D01*
X149292912Y-117273251D01*
X149113667Y-117253056D01*
X149113659Y-117253056D01*
X148934413Y-117273251D01*
X148934408Y-117273252D01*
X148764139Y-117332832D01*
X148611400Y-117428805D01*
X148483847Y-117556358D01*
X148387874Y-117709097D01*
X148328294Y-117879366D01*
X148328293Y-117879371D01*
X148308098Y-118058617D01*
X148308098Y-118058624D01*
X101300500Y-118058624D01*
X101300500Y-115500965D01*
X153509815Y-115500965D01*
X153530010Y-115680211D01*
X153530011Y-115680216D01*
X153589591Y-115850485D01*
X153602136Y-115870450D01*
X153685564Y-116003224D01*
X153813118Y-116130778D01*
X153965858Y-116226751D01*
X154136125Y-116286330D01*
X154223049Y-116296123D01*
X154287460Y-116323188D01*
X154296845Y-116331662D01*
X154696428Y-116731245D01*
X154701779Y-116737346D01*
X154723477Y-116765623D01*
X154819890Y-116839603D01*
X154848918Y-116861877D01*
X154848923Y-116861879D01*
X154911227Y-116887686D01*
X154951456Y-116914566D01*
X155004047Y-116967157D01*
X155156787Y-117063130D01*
X155327053Y-117122708D01*
X155327054Y-117122709D01*
X155327059Y-117122710D01*
X155506305Y-117142906D01*
X155506309Y-117142906D01*
X155506313Y-117142906D01*
X155685558Y-117122710D01*
X155685561Y-117122709D01*
X155685564Y-117122709D01*
X155855831Y-117063130D01*
X156008571Y-116967157D01*
X156136125Y-116839603D01*
X156232098Y-116686863D01*
X156233532Y-116682763D01*
X156274252Y-116625987D01*
X156309619Y-116606673D01*
X156403486Y-116573829D01*
X156556226Y-116477856D01*
X156683780Y-116350302D01*
X156779753Y-116197562D01*
X156839332Y-116027295D01*
X156846610Y-115962699D01*
X156859529Y-115848043D01*
X156859529Y-115848036D01*
X156839333Y-115668790D01*
X156839332Y-115668785D01*
X156780608Y-115500962D01*
X156779753Y-115498518D01*
X156683780Y-115345778D01*
X156556226Y-115218224D01*
X156482099Y-115171647D01*
X156403485Y-115122250D01*
X156233213Y-115062670D01*
X156146294Y-115052877D01*
X156081880Y-115025810D01*
X156072497Y-115017338D01*
X155964015Y-114908856D01*
X155841246Y-114786087D01*
X155835906Y-114779997D01*
X155814208Y-114751720D01*
X155688767Y-114655466D01*
X155688765Y-114655465D01*
X155686727Y-114653901D01*
X155680631Y-114648555D01*
X155582262Y-114550186D01*
X155458887Y-114472664D01*
X155429523Y-114454213D01*
X155259254Y-114394633D01*
X155259249Y-114394632D01*
X155080004Y-114374437D01*
X155079996Y-114374437D01*
X154900750Y-114394632D01*
X154900745Y-114394633D01*
X154730476Y-114454213D01*
X154577739Y-114550185D01*
X154462889Y-114665035D01*
X154401566Y-114698519D01*
X154361325Y-114700573D01*
X154315384Y-114695397D01*
X154315376Y-114695397D01*
X154136130Y-114715592D01*
X154136125Y-114715593D01*
X153965856Y-114775173D01*
X153813117Y-114871146D01*
X153685564Y-114998699D01*
X153589591Y-115151438D01*
X153530011Y-115321707D01*
X153530010Y-115321712D01*
X153509815Y-115500958D01*
X153509815Y-115500965D01*
X101300500Y-115500965D01*
X101300500Y-114280000D01*
X171841634Y-114280000D01*
X171841931Y-114281946D01*
X171841933Y-114281952D01*
X171912562Y-114472657D01*
X171912565Y-114472664D01*
X172020149Y-114645267D01*
X172160264Y-114792668D01*
X172160266Y-114792669D01*
X172327195Y-114908856D01*
X172514092Y-114989059D01*
X172713310Y-115030000D01*
X173254616Y-115030000D01*
X173321655Y-115049685D01*
X173367410Y-115102489D01*
X173377354Y-115171647D01*
X173369177Y-115201453D01*
X173324313Y-115309763D01*
X173324312Y-115309765D01*
X173304534Y-115459999D01*
X173304534Y-115460000D01*
X173324312Y-115610234D01*
X173324313Y-115610236D01*
X173382302Y-115750233D01*
X173474549Y-115870451D01*
X173594767Y-115962698D01*
X173734764Y-116020687D01*
X173847280Y-116035500D01*
X173847287Y-116035500D01*
X173922713Y-116035500D01*
X173922720Y-116035500D01*
X174035236Y-116020687D01*
X174175233Y-115962698D01*
X174295451Y-115870451D01*
X174387698Y-115750233D01*
X174445687Y-115610236D01*
X174465466Y-115460000D01*
X174445687Y-115309764D01*
X174387698Y-115169767D01*
X174387697Y-115169765D01*
X174336187Y-115102637D01*
X174310992Y-115037468D01*
X174325030Y-114969023D01*
X174373844Y-114919033D01*
X174374385Y-114918731D01*
X174489211Y-114854997D01*
X174489216Y-114854994D01*
X174643530Y-114722521D01*
X174643531Y-114722520D01*
X174768018Y-114561695D01*
X174857588Y-114379093D01*
X174883246Y-114280000D01*
X174081111Y-114280000D01*
X174120610Y-114255543D01*
X174188201Y-114166038D01*
X174218895Y-114058160D01*
X174208546Y-113946479D01*
X174158552Y-113846078D01*
X174086069Y-113780000D01*
X174888366Y-113780000D01*
X174888068Y-113778053D01*
X174888066Y-113778047D01*
X174817437Y-113587342D01*
X174817434Y-113587335D01*
X174709850Y-113414732D01*
X174569735Y-113267331D01*
X174569733Y-113267330D01*
X174402804Y-113151143D01*
X174215907Y-113070940D01*
X174016690Y-113030000D01*
X173615000Y-113030000D01*
X173615000Y-113730000D01*
X173115000Y-113730000D01*
X173115000Y-113030000D01*
X172764287Y-113030000D01*
X172612661Y-113045418D01*
X172418618Y-113106299D01*
X172418608Y-113106304D01*
X172240784Y-113205005D01*
X172240783Y-113205005D01*
X172086469Y-113337478D01*
X172086468Y-113337479D01*
X171961981Y-113498304D01*
X171872411Y-113680906D01*
X171846754Y-113780000D01*
X172648889Y-113780000D01*
X172609390Y-113804457D01*
X172541799Y-113893962D01*
X172511105Y-114001840D01*
X172521454Y-114113521D01*
X172571448Y-114213922D01*
X172643931Y-114280000D01*
X171841634Y-114280000D01*
X101300500Y-114280000D01*
X101300500Y-110369658D01*
X101300537Y-110367529D01*
X101301283Y-110345799D01*
X101302676Y-110305269D01*
X101298569Y-110289268D01*
X101292378Y-110265145D01*
X101291061Y-110258552D01*
X101288091Y-110237896D01*
X101298032Y-110168737D01*
X101343785Y-110115932D01*
X101400019Y-110096717D01*
X101526692Y-110085635D01*
X101746496Y-110026739D01*
X101952734Y-109930568D01*
X102139139Y-109800047D01*
X102300047Y-109639139D01*
X102430568Y-109452734D01*
X102526739Y-109246496D01*
X102585635Y-109026692D01*
X102605468Y-108800000D01*
X102585635Y-108573308D01*
X102526739Y-108353504D01*
X102430568Y-108147266D01*
X102300047Y-107960861D01*
X102300045Y-107960858D01*
X102139141Y-107799954D01*
X101952734Y-107669432D01*
X101952732Y-107669431D01*
X101746497Y-107573261D01*
X101746488Y-107573258D01*
X101526697Y-107514366D01*
X101526693Y-107514365D01*
X101526692Y-107514365D01*
X101526691Y-107514364D01*
X101526686Y-107514364D01*
X101300002Y-107494532D01*
X101299998Y-107494532D01*
X101073313Y-107514364D01*
X101073302Y-107514366D01*
X100853511Y-107573258D01*
X100853502Y-107573262D01*
X100676905Y-107655611D01*
X100607827Y-107666103D01*
X100544043Y-107637583D01*
X100505804Y-107579107D01*
X100500500Y-107543229D01*
X100500500Y-106242469D01*
X100870796Y-106242469D01*
X100870797Y-106242471D01*
X100900245Y-106409485D01*
X100900246Y-106409488D01*
X100900247Y-106409492D01*
X100967421Y-106565219D01*
X101068698Y-106701258D01*
X101198617Y-106810273D01*
X101350175Y-106886388D01*
X101515201Y-106925500D01*
X101515203Y-106925500D01*
X101642249Y-106925500D01*
X101642256Y-106925500D01*
X101768451Y-106910750D01*
X101927820Y-106852744D01*
X102069517Y-106759549D01*
X102185902Y-106636188D01*
X102270701Y-106489312D01*
X102319342Y-106326839D01*
X102324256Y-106242469D01*
X176670796Y-106242469D01*
X176670797Y-106242471D01*
X176700245Y-106409485D01*
X176700246Y-106409488D01*
X176700247Y-106409492D01*
X176767421Y-106565219D01*
X176868698Y-106701258D01*
X176998617Y-106810273D01*
X177150175Y-106886388D01*
X177315201Y-106925500D01*
X177315203Y-106925500D01*
X177442249Y-106925500D01*
X177442256Y-106925500D01*
X177568451Y-106910750D01*
X177727820Y-106852744D01*
X177869517Y-106759549D01*
X177985902Y-106636188D01*
X178070701Y-106489312D01*
X178119342Y-106326839D01*
X178129203Y-106157529D01*
X178099753Y-105990508D01*
X178032579Y-105834781D01*
X177931302Y-105698742D01*
X177801383Y-105589727D01*
X177800066Y-105589065D01*
X177649828Y-105513613D01*
X177649826Y-105513612D01*
X177649825Y-105513612D01*
X177484799Y-105474500D01*
X177357744Y-105474500D01*
X177247323Y-105487406D01*
X177231548Y-105489250D01*
X177072181Y-105547255D01*
X177007607Y-105589726D01*
X176930483Y-105640451D01*
X176930482Y-105640451D01*
X176930482Y-105640452D01*
X176814098Y-105763810D01*
X176729300Y-105910685D01*
X176680658Y-106073159D01*
X176680657Y-106073165D01*
X176670796Y-106242469D01*
X102324256Y-106242469D01*
X102329203Y-106157529D01*
X102299753Y-105990508D01*
X102232579Y-105834781D01*
X102131302Y-105698742D01*
X102001383Y-105589727D01*
X102000066Y-105589065D01*
X101849828Y-105513613D01*
X101849826Y-105513612D01*
X101849825Y-105513612D01*
X101684799Y-105474500D01*
X101557744Y-105474500D01*
X101447323Y-105487406D01*
X101431548Y-105489250D01*
X101272181Y-105547255D01*
X101207607Y-105589726D01*
X101130483Y-105640451D01*
X101130482Y-105640451D01*
X101130482Y-105640452D01*
X101014098Y-105763810D01*
X100929300Y-105910685D01*
X100880658Y-106073159D01*
X100880657Y-106073165D01*
X100870796Y-106242469D01*
X100500500Y-106242469D01*
X100500500Y-104815001D01*
X120899500Y-104815001D01*
X120899501Y-104815018D01*
X120910000Y-104917796D01*
X120910001Y-104917799D01*
X120965185Y-105084331D01*
X120965187Y-105084336D01*
X120973848Y-105098378D01*
X121057288Y-105233656D01*
X121181344Y-105357712D01*
X121330666Y-105449814D01*
X121497203Y-105504999D01*
X121599991Y-105515500D01*
X122400008Y-105515499D01*
X122400016Y-105515498D01*
X122400019Y-105515498D01*
X122461143Y-105509254D01*
X122502797Y-105504999D01*
X122669334Y-105449814D01*
X122818656Y-105357712D01*
X122942712Y-105233656D01*
X122981815Y-105170258D01*
X123033761Y-105123535D01*
X123102723Y-105112312D01*
X123166806Y-105140155D01*
X123184824Y-105158705D01*
X123199907Y-105177885D01*
X123199909Y-105177887D01*
X123358746Y-105315521D01*
X123540750Y-105420601D01*
X123540752Y-105420601D01*
X123540756Y-105420604D01*
X123739367Y-105489344D01*
X123947398Y-105519254D01*
X124157330Y-105509254D01*
X124361576Y-105459704D01*
X124448200Y-105420144D01*
X124552743Y-105372401D01*
X124552746Y-105372399D01*
X124552753Y-105372396D01*
X124723952Y-105250486D01*
X124724317Y-105250104D01*
X124868986Y-105098378D01*
X124878010Y-105084336D01*
X124895540Y-105057058D01*
X124948343Y-105011303D01*
X125017502Y-105001359D01*
X125081058Y-105030383D01*
X125097326Y-105047444D01*
X125199909Y-105177887D01*
X125358746Y-105315521D01*
X125540750Y-105420601D01*
X125540752Y-105420601D01*
X125540756Y-105420604D01*
X125739367Y-105489344D01*
X125947398Y-105519254D01*
X126157330Y-105509254D01*
X126361576Y-105459704D01*
X126448200Y-105420144D01*
X126552743Y-105372401D01*
X126552746Y-105372399D01*
X126552753Y-105372396D01*
X126723952Y-105250486D01*
X126724317Y-105250104D01*
X126868986Y-105098378D01*
X126878010Y-105084336D01*
X126895540Y-105057058D01*
X126948343Y-105011303D01*
X127017502Y-105001359D01*
X127081058Y-105030383D01*
X127097326Y-105047444D01*
X127199909Y-105177887D01*
X127358746Y-105315521D01*
X127540750Y-105420601D01*
X127540752Y-105420601D01*
X127540756Y-105420604D01*
X127739367Y-105489344D01*
X127947398Y-105519254D01*
X128157330Y-105509254D01*
X128361576Y-105459704D01*
X128448200Y-105420144D01*
X128552743Y-105372401D01*
X128552746Y-105372399D01*
X128552753Y-105372396D01*
X128723952Y-105250486D01*
X128724317Y-105250104D01*
X128868986Y-105098378D01*
X128878010Y-105084336D01*
X128895540Y-105057058D01*
X128948343Y-105011303D01*
X129017502Y-105001359D01*
X129081058Y-105030383D01*
X129097326Y-105047444D01*
X129199909Y-105177887D01*
X129358746Y-105315521D01*
X129540750Y-105420601D01*
X129540752Y-105420601D01*
X129540756Y-105420604D01*
X129739367Y-105489344D01*
X129947398Y-105519254D01*
X130157330Y-105509254D01*
X130361576Y-105459704D01*
X130448200Y-105420144D01*
X130552743Y-105372401D01*
X130552746Y-105372399D01*
X130552753Y-105372396D01*
X130723952Y-105250486D01*
X130724317Y-105250104D01*
X130868986Y-105098378D01*
X130878010Y-105084336D01*
X130895826Y-105056613D01*
X130948629Y-105010858D01*
X131017788Y-105000914D01*
X131081344Y-105029938D01*
X131097612Y-105047000D01*
X131200268Y-105177537D01*
X131200271Y-105177540D01*
X131359030Y-105315105D01*
X131359041Y-105315114D01*
X131540960Y-105420144D01*
X131540967Y-105420147D01*
X131739487Y-105488856D01*
X131750000Y-105490367D01*
X131750000Y-104420617D01*
X131819052Y-104474363D01*
X131937424Y-104515000D01*
X132031073Y-104515000D01*
X132123446Y-104499586D01*
X132233514Y-104440019D01*
X132249999Y-104422110D01*
X132249999Y-105486257D01*
X132361409Y-105459229D01*
X132552507Y-105371959D01*
X132723619Y-105250110D01*
X132723625Y-105250104D01*
X132868592Y-105098067D01*
X132907278Y-105037870D01*
X143429500Y-105037870D01*
X143429501Y-105037876D01*
X143435908Y-105097483D01*
X143486202Y-105232328D01*
X143486206Y-105232335D01*
X143572452Y-105347544D01*
X143572455Y-105347547D01*
X143687664Y-105433793D01*
X143687671Y-105433797D01*
X143822517Y-105484091D01*
X143822516Y-105484091D01*
X143829444Y-105484835D01*
X143882127Y-105490500D01*
X145677872Y-105490499D01*
X145737483Y-105484091D01*
X145872331Y-105433796D01*
X145987546Y-105347546D01*
X146073796Y-105232331D01*
X146122810Y-105100916D01*
X146164681Y-105044984D01*
X146230145Y-105020566D01*
X146298418Y-105035417D01*
X146326673Y-105056569D01*
X146448599Y-105178495D01*
X146545384Y-105246265D01*
X146642165Y-105314032D01*
X146642167Y-105314033D01*
X146642170Y-105314035D01*
X146856337Y-105413903D01*
X146856343Y-105413904D01*
X146856344Y-105413905D01*
X146881346Y-105420604D01*
X147084592Y-105475063D01*
X147261034Y-105490500D01*
X147319999Y-105495659D01*
X147320000Y-105495659D01*
X147320001Y-105495659D01*
X147378966Y-105490500D01*
X147555408Y-105475063D01*
X147783663Y-105413903D01*
X147997830Y-105314035D01*
X148191401Y-105178495D01*
X148358495Y-105011401D01*
X148488424Y-104825842D01*
X148543002Y-104782217D01*
X148612500Y-104775023D01*
X148674855Y-104806546D01*
X148691575Y-104825842D01*
X148821281Y-105011082D01*
X148821505Y-105011401D01*
X148988599Y-105178495D01*
X149085384Y-105246265D01*
X149182165Y-105314032D01*
X149182167Y-105314033D01*
X149182170Y-105314035D01*
X149396337Y-105413903D01*
X149396343Y-105413904D01*
X149396344Y-105413905D01*
X149421346Y-105420604D01*
X149624592Y-105475063D01*
X149801034Y-105490500D01*
X149859999Y-105495659D01*
X149860000Y-105495659D01*
X149860001Y-105495659D01*
X149918966Y-105490500D01*
X150095408Y-105475063D01*
X150323663Y-105413903D01*
X150537830Y-105314035D01*
X150731401Y-105178495D01*
X150898495Y-105011401D01*
X151028424Y-104825842D01*
X151083002Y-104782217D01*
X151152500Y-104775023D01*
X151214855Y-104806546D01*
X151231575Y-104825842D01*
X151361281Y-105011082D01*
X151361505Y-105011401D01*
X151528599Y-105178495D01*
X151625384Y-105246265D01*
X151722165Y-105314032D01*
X151722167Y-105314033D01*
X151722170Y-105314035D01*
X151936337Y-105413903D01*
X151936343Y-105413904D01*
X151936344Y-105413905D01*
X151961346Y-105420604D01*
X152164592Y-105475063D01*
X152341034Y-105490500D01*
X152399999Y-105495659D01*
X152400000Y-105495659D01*
X152400001Y-105495659D01*
X152458966Y-105490500D01*
X152635408Y-105475063D01*
X152863663Y-105413903D01*
X153077830Y-105314035D01*
X153271401Y-105178495D01*
X153438495Y-105011401D01*
X153568424Y-104825842D01*
X153623002Y-104782217D01*
X153692500Y-104775023D01*
X153754855Y-104806546D01*
X153771575Y-104825842D01*
X153901281Y-105011082D01*
X153901505Y-105011401D01*
X154068599Y-105178495D01*
X154165384Y-105246265D01*
X154262165Y-105314032D01*
X154262167Y-105314033D01*
X154262170Y-105314035D01*
X154476337Y-105413903D01*
X154476343Y-105413904D01*
X154476344Y-105413905D01*
X154501346Y-105420604D01*
X154704592Y-105475063D01*
X154881034Y-105490500D01*
X154939999Y-105495659D01*
X154940000Y-105495659D01*
X154940001Y-105495659D01*
X154998966Y-105490500D01*
X155175408Y-105475063D01*
X155403663Y-105413903D01*
X155617830Y-105314035D01*
X155811401Y-105178495D01*
X155978495Y-105011401D01*
X156108424Y-104825842D01*
X156163002Y-104782217D01*
X156232500Y-104775023D01*
X156294855Y-104806546D01*
X156311575Y-104825842D01*
X156441281Y-105011082D01*
X156441505Y-105011401D01*
X156608599Y-105178495D01*
X156705384Y-105246265D01*
X156802165Y-105314032D01*
X156802167Y-105314033D01*
X156802170Y-105314035D01*
X157016337Y-105413903D01*
X157016343Y-105413904D01*
X157016344Y-105413905D01*
X157041346Y-105420604D01*
X157244592Y-105475063D01*
X157421034Y-105490500D01*
X157479999Y-105495659D01*
X157480000Y-105495659D01*
X157480001Y-105495659D01*
X157538966Y-105490500D01*
X157715408Y-105475063D01*
X157943663Y-105413903D01*
X158157830Y-105314035D01*
X158351401Y-105178495D01*
X158518495Y-105011401D01*
X158648424Y-104825842D01*
X158703002Y-104782217D01*
X158772500Y-104775023D01*
X158834855Y-104806546D01*
X158851575Y-104825842D01*
X158981281Y-105011082D01*
X158981505Y-105011401D01*
X159148599Y-105178495D01*
X159245384Y-105246264D01*
X159342165Y-105314032D01*
X159342167Y-105314033D01*
X159342170Y-105314035D01*
X159556337Y-105413903D01*
X159556343Y-105413904D01*
X159556344Y-105413905D01*
X159581346Y-105420604D01*
X159784592Y-105475063D01*
X159961034Y-105490500D01*
X160019999Y-105495659D01*
X160020000Y-105495659D01*
X160020001Y-105495659D01*
X160078966Y-105490500D01*
X160255408Y-105475063D01*
X160483663Y-105413903D01*
X160697830Y-105314035D01*
X160891401Y-105178495D01*
X161058495Y-105011401D01*
X161188730Y-104825405D01*
X161243307Y-104781781D01*
X161312805Y-104774587D01*
X161375160Y-104806110D01*
X161391879Y-104825405D01*
X161521890Y-105011078D01*
X161688917Y-105178105D01*
X161882421Y-105313600D01*
X162096507Y-105413429D01*
X162096516Y-105413433D01*
X162310000Y-105470634D01*
X162310000Y-104575501D01*
X162417685Y-104624680D01*
X162524237Y-104640000D01*
X162595763Y-104640000D01*
X162702315Y-104624680D01*
X162810000Y-104575501D01*
X162810000Y-105470633D01*
X163023483Y-105413433D01*
X163023492Y-105413429D01*
X163237578Y-105313600D01*
X163431082Y-105178105D01*
X163598105Y-105011082D01*
X163733600Y-104817578D01*
X163833429Y-104603492D01*
X163833432Y-104603486D01*
X163890636Y-104390000D01*
X162993686Y-104390000D01*
X163019493Y-104349844D01*
X163060000Y-104211889D01*
X163060000Y-104068111D01*
X163023108Y-103942469D01*
X176670796Y-103942469D01*
X176670797Y-103942471D01*
X176700245Y-104109485D01*
X176700246Y-104109488D01*
X176700247Y-104109492D01*
X176767421Y-104265219D01*
X176868698Y-104401258D01*
X176998617Y-104510273D01*
X177150175Y-104586388D01*
X177315201Y-104625500D01*
X177315203Y-104625500D01*
X177442249Y-104625500D01*
X177442256Y-104625500D01*
X177568451Y-104610750D01*
X177727820Y-104552744D01*
X177869517Y-104459549D01*
X177985902Y-104336188D01*
X178070701Y-104189312D01*
X178119342Y-104026839D01*
X178129203Y-103857529D01*
X178099753Y-103690508D01*
X178032579Y-103534781D01*
X177931302Y-103398742D01*
X177801383Y-103289727D01*
X177759304Y-103268594D01*
X177649828Y-103213613D01*
X177649826Y-103213612D01*
X177649825Y-103213612D01*
X177484799Y-103174500D01*
X177357744Y-103174500D01*
X177247323Y-103187406D01*
X177231548Y-103189250D01*
X177072181Y-103247255D01*
X177023830Y-103279056D01*
X176930483Y-103340451D01*
X176930482Y-103340451D01*
X176930482Y-103340452D01*
X176814098Y-103463810D01*
X176729300Y-103610685D01*
X176680658Y-103773159D01*
X176680657Y-103773165D01*
X176670796Y-103942469D01*
X163023108Y-103942469D01*
X163019493Y-103930156D01*
X162993686Y-103890000D01*
X163890636Y-103890000D01*
X163890635Y-103889999D01*
X163833432Y-103676513D01*
X163833429Y-103676507D01*
X163733600Y-103462422D01*
X163733599Y-103462420D01*
X163598113Y-103268926D01*
X163598108Y-103268920D01*
X163431082Y-103101894D01*
X163237578Y-102966399D01*
X163023492Y-102866570D01*
X163023486Y-102866567D01*
X162810000Y-102809364D01*
X162810000Y-103704498D01*
X162702315Y-103655320D01*
X162595763Y-103640000D01*
X162524237Y-103640000D01*
X162417685Y-103655320D01*
X162310000Y-103704498D01*
X162310000Y-102809364D01*
X162309999Y-102809364D01*
X162096513Y-102866567D01*
X162096507Y-102866570D01*
X161882422Y-102966399D01*
X161882420Y-102966400D01*
X161688926Y-103101886D01*
X161688920Y-103101891D01*
X161521891Y-103268920D01*
X161521890Y-103268922D01*
X161391880Y-103454595D01*
X161337303Y-103498219D01*
X161267804Y-103505412D01*
X161205450Y-103473890D01*
X161188730Y-103454594D01*
X161058494Y-103268597D01*
X160891402Y-103101506D01*
X160891395Y-103101501D01*
X160697834Y-102965967D01*
X160697830Y-102965965D01*
X160694641Y-102964478D01*
X160483663Y-102866097D01*
X160483659Y-102866096D01*
X160483655Y-102866094D01*
X160255413Y-102804938D01*
X160255403Y-102804936D01*
X160020001Y-102784341D01*
X160019999Y-102784341D01*
X159784596Y-102804936D01*
X159784586Y-102804938D01*
X159556344Y-102866094D01*
X159556335Y-102866098D01*
X159342171Y-102965964D01*
X159342169Y-102965965D01*
X159148597Y-103101505D01*
X158981505Y-103268597D01*
X158851575Y-103454158D01*
X158796998Y-103497783D01*
X158727500Y-103504977D01*
X158665145Y-103473454D01*
X158648425Y-103454158D01*
X158518494Y-103268597D01*
X158351402Y-103101506D01*
X158351395Y-103101501D01*
X158157834Y-102965967D01*
X158157830Y-102965965D01*
X158154641Y-102964478D01*
X157943663Y-102866097D01*
X157943659Y-102866096D01*
X157943655Y-102866094D01*
X157715413Y-102804938D01*
X157715403Y-102804936D01*
X157480001Y-102784341D01*
X157479999Y-102784341D01*
X157244596Y-102804936D01*
X157244586Y-102804938D01*
X157016344Y-102866094D01*
X157016335Y-102866098D01*
X156802171Y-102965964D01*
X156802169Y-102965965D01*
X156608597Y-103101505D01*
X156441508Y-103268594D01*
X156311574Y-103454159D01*
X156256997Y-103497784D01*
X156187498Y-103504976D01*
X156125144Y-103473454D01*
X156108424Y-103454158D01*
X155978494Y-103268597D01*
X155811402Y-103101506D01*
X155811395Y-103101501D01*
X155617834Y-102965967D01*
X155617830Y-102965965D01*
X155614641Y-102964478D01*
X155403663Y-102866097D01*
X155403659Y-102866096D01*
X155403655Y-102866094D01*
X155175413Y-102804938D01*
X155175403Y-102804936D01*
X154940001Y-102784341D01*
X154939999Y-102784341D01*
X154704596Y-102804936D01*
X154704586Y-102804938D01*
X154476344Y-102866094D01*
X154476335Y-102866098D01*
X154262171Y-102965964D01*
X154262169Y-102965965D01*
X154068597Y-103101505D01*
X153901505Y-103268597D01*
X153771575Y-103454158D01*
X153716998Y-103497783D01*
X153647500Y-103504977D01*
X153585145Y-103473454D01*
X153568425Y-103454158D01*
X153438494Y-103268597D01*
X153271402Y-103101506D01*
X153271395Y-103101501D01*
X153077834Y-102965967D01*
X153077830Y-102965965D01*
X153074641Y-102964478D01*
X152863663Y-102866097D01*
X152863659Y-102866096D01*
X152863655Y-102866094D01*
X152635413Y-102804938D01*
X152635403Y-102804936D01*
X152400001Y-102784341D01*
X152399999Y-102784341D01*
X152164596Y-102804936D01*
X152164586Y-102804938D01*
X151936344Y-102866094D01*
X151936335Y-102866098D01*
X151722171Y-102965964D01*
X151722169Y-102965965D01*
X151528597Y-103101505D01*
X151361505Y-103268597D01*
X151231575Y-103454158D01*
X151176998Y-103497783D01*
X151107500Y-103504977D01*
X151045145Y-103473454D01*
X151028425Y-103454158D01*
X150898494Y-103268597D01*
X150731402Y-103101506D01*
X150731395Y-103101501D01*
X150537834Y-102965967D01*
X150537830Y-102965965D01*
X150534641Y-102964478D01*
X150323663Y-102866097D01*
X150323659Y-102866096D01*
X150323655Y-102866094D01*
X150095413Y-102804938D01*
X150095403Y-102804936D01*
X149860001Y-102784341D01*
X149859999Y-102784341D01*
X149624596Y-102804936D01*
X149624586Y-102804938D01*
X149396344Y-102866094D01*
X149396335Y-102866098D01*
X149182171Y-102965964D01*
X149182169Y-102965965D01*
X148988597Y-103101505D01*
X148821505Y-103268597D01*
X148691575Y-103454158D01*
X148636998Y-103497783D01*
X148567500Y-103504977D01*
X148505145Y-103473454D01*
X148488425Y-103454158D01*
X148358494Y-103268597D01*
X148191402Y-103101506D01*
X148191395Y-103101501D01*
X147997834Y-102965967D01*
X147997830Y-102965965D01*
X147994641Y-102964478D01*
X147783663Y-102866097D01*
X147783659Y-102866096D01*
X147783655Y-102866094D01*
X147555413Y-102804938D01*
X147555403Y-102804936D01*
X147320001Y-102784341D01*
X147319999Y-102784341D01*
X147084596Y-102804936D01*
X147084586Y-102804938D01*
X146856344Y-102866094D01*
X146856335Y-102866098D01*
X146642171Y-102965964D01*
X146642169Y-102965965D01*
X146448600Y-103101503D01*
X146326673Y-103223430D01*
X146265350Y-103256914D01*
X146195658Y-103251930D01*
X146139725Y-103210058D01*
X146122810Y-103179081D01*
X146073797Y-103047671D01*
X146073793Y-103047664D01*
X145987547Y-102932455D01*
X145987544Y-102932452D01*
X145872335Y-102846206D01*
X145872328Y-102846202D01*
X145737482Y-102795908D01*
X145737483Y-102795908D01*
X145677883Y-102789501D01*
X145677881Y-102789500D01*
X145677873Y-102789500D01*
X145677864Y-102789500D01*
X143882129Y-102789500D01*
X143882123Y-102789501D01*
X143822516Y-102795908D01*
X143687671Y-102846202D01*
X143687664Y-102846206D01*
X143572455Y-102932452D01*
X143572452Y-102932455D01*
X143486206Y-103047664D01*
X143486202Y-103047671D01*
X143435908Y-103182517D01*
X143429501Y-103242116D01*
X143429500Y-103242135D01*
X143429500Y-105037870D01*
X132907278Y-105037870D01*
X132982166Y-104921342D01*
X133060244Y-104726314D01*
X133100000Y-104520037D01*
X133100000Y-104390000D01*
X132279560Y-104390000D01*
X132318278Y-104347941D01*
X132368551Y-104233330D01*
X132378886Y-104108605D01*
X132348163Y-103987281D01*
X132284606Y-103890000D01*
X133100000Y-103890000D01*
X133100000Y-103812601D01*
X133085034Y-103655877D01*
X133085033Y-103655873D01*
X133025850Y-103454313D01*
X132929586Y-103267585D01*
X132799731Y-103102462D01*
X132799728Y-103102459D01*
X132640969Y-102964894D01*
X132640958Y-102964885D01*
X132459039Y-102859855D01*
X132459032Y-102859852D01*
X132260516Y-102791144D01*
X132249999Y-102789632D01*
X132249999Y-103859382D01*
X132180948Y-103805637D01*
X132062576Y-103765000D01*
X131968927Y-103765000D01*
X131876554Y-103780414D01*
X131766486Y-103839981D01*
X131750000Y-103857889D01*
X131750000Y-102793740D01*
X131749999Y-102793740D01*
X131638594Y-102820768D01*
X131638582Y-102820772D01*
X131447497Y-102908037D01*
X131447496Y-102908038D01*
X131276380Y-103029889D01*
X131276374Y-103029895D01*
X131131408Y-103181932D01*
X131104784Y-103223359D01*
X131051979Y-103269113D01*
X130982821Y-103279056D01*
X130919265Y-103250030D01*
X130902999Y-103232970D01*
X130887776Y-103213613D01*
X130860620Y-103179081D01*
X130800094Y-103102116D01*
X130800090Y-103102112D01*
X130641253Y-102964478D01*
X130459249Y-102859398D01*
X130459245Y-102859396D01*
X130459244Y-102859396D01*
X130260633Y-102790656D01*
X130052602Y-102760746D01*
X130052598Y-102760746D01*
X129842672Y-102770745D01*
X129638421Y-102820296D01*
X129638417Y-102820298D01*
X129447256Y-102907598D01*
X129447251Y-102907601D01*
X129276046Y-103029515D01*
X129276040Y-103029520D01*
X129131016Y-103181618D01*
X129104458Y-103222943D01*
X129051653Y-103268697D01*
X128982494Y-103278640D01*
X128918939Y-103249614D01*
X128902673Y-103232554D01*
X128800094Y-103102116D01*
X128800090Y-103102112D01*
X128641253Y-102964478D01*
X128459249Y-102859398D01*
X128459245Y-102859396D01*
X128459244Y-102859396D01*
X128260633Y-102790656D01*
X128052602Y-102760746D01*
X128052598Y-102760746D01*
X127842672Y-102770745D01*
X127638421Y-102820296D01*
X127638417Y-102820298D01*
X127447256Y-102907598D01*
X127447251Y-102907601D01*
X127276046Y-103029515D01*
X127276040Y-103029520D01*
X127131016Y-103181618D01*
X127104458Y-103222943D01*
X127051653Y-103268697D01*
X126982494Y-103278640D01*
X126918939Y-103249614D01*
X126902673Y-103232554D01*
X126800094Y-103102116D01*
X126800090Y-103102112D01*
X126641253Y-102964478D01*
X126459249Y-102859398D01*
X126459245Y-102859396D01*
X126459244Y-102859396D01*
X126260633Y-102790656D01*
X126052602Y-102760746D01*
X126052598Y-102760746D01*
X125842672Y-102770745D01*
X125638421Y-102820296D01*
X125638417Y-102820298D01*
X125447256Y-102907598D01*
X125447251Y-102907601D01*
X125276046Y-103029515D01*
X125276040Y-103029520D01*
X125131016Y-103181618D01*
X125104458Y-103222943D01*
X125051653Y-103268697D01*
X124982494Y-103278640D01*
X124918939Y-103249614D01*
X124902673Y-103232554D01*
X124800094Y-103102116D01*
X124800090Y-103102112D01*
X124641253Y-102964478D01*
X124459249Y-102859398D01*
X124459245Y-102859396D01*
X124459244Y-102859396D01*
X124260633Y-102790656D01*
X124052602Y-102760746D01*
X124052598Y-102760746D01*
X123842672Y-102770745D01*
X123638421Y-102820296D01*
X123638417Y-102820298D01*
X123447256Y-102907598D01*
X123447251Y-102907601D01*
X123276046Y-103029515D01*
X123276045Y-103029515D01*
X123178249Y-103132082D01*
X123117740Y-103167017D01*
X123047949Y-103163692D01*
X122991035Y-103123164D01*
X122982967Y-103111608D01*
X122943526Y-103047664D01*
X122942712Y-103046344D01*
X122818656Y-102922288D01*
X122717431Y-102859852D01*
X122669336Y-102830187D01*
X122669331Y-102830185D01*
X122606497Y-102809364D01*
X122502797Y-102775001D01*
X122502795Y-102775000D01*
X122400010Y-102764500D01*
X121599998Y-102764500D01*
X121599980Y-102764501D01*
X121497203Y-102775000D01*
X121497200Y-102775001D01*
X121330668Y-102830185D01*
X121330663Y-102830187D01*
X121181342Y-102922289D01*
X121057289Y-103046342D01*
X120965187Y-103195663D01*
X120965185Y-103195668D01*
X120946542Y-103251930D01*
X120910001Y-103362203D01*
X120910001Y-103362204D01*
X120910000Y-103362204D01*
X120899500Y-103464983D01*
X120899500Y-104815001D01*
X100500500Y-104815001D01*
X100500500Y-103942469D01*
X100870796Y-103942469D01*
X100870797Y-103942471D01*
X100900245Y-104109485D01*
X100900246Y-104109488D01*
X100900247Y-104109492D01*
X100967421Y-104265219D01*
X101068698Y-104401258D01*
X101198617Y-104510273D01*
X101350175Y-104586388D01*
X101515201Y-104625500D01*
X101515203Y-104625500D01*
X101642249Y-104625500D01*
X101642256Y-104625500D01*
X101768451Y-104610750D01*
X101927820Y-104552744D01*
X102069517Y-104459549D01*
X102185902Y-104336188D01*
X102270701Y-104189312D01*
X102319342Y-104026839D01*
X102329203Y-103857529D01*
X102299753Y-103690508D01*
X102232579Y-103534781D01*
X102131302Y-103398742D01*
X102001383Y-103289727D01*
X101959304Y-103268594D01*
X101849828Y-103213613D01*
X101849826Y-103213612D01*
X101849825Y-103213612D01*
X101684799Y-103174500D01*
X101557744Y-103174500D01*
X101447323Y-103187406D01*
X101431548Y-103189250D01*
X101272181Y-103247255D01*
X101223830Y-103279056D01*
X101130483Y-103340451D01*
X101130482Y-103340451D01*
X101130482Y-103340452D01*
X101014098Y-103463810D01*
X100929300Y-103610685D01*
X100880658Y-103773159D01*
X100880657Y-103773165D01*
X100870796Y-103942469D01*
X100500500Y-103942469D01*
X100500500Y-102556771D01*
X100520185Y-102489732D01*
X100572989Y-102443977D01*
X100642147Y-102434033D01*
X100676905Y-102444389D01*
X100853504Y-102526739D01*
X101073308Y-102585635D01*
X101235230Y-102599801D01*
X101299998Y-102605468D01*
X101300000Y-102605468D01*
X101300002Y-102605468D01*
X101356673Y-102600509D01*
X101526692Y-102585635D01*
X101746496Y-102526739D01*
X101952734Y-102430568D01*
X102139139Y-102300047D01*
X102300047Y-102139139D01*
X102430568Y-101952734D01*
X102526739Y-101746496D01*
X102585635Y-101526692D01*
X102605468Y-101300000D01*
X102585635Y-101073308D01*
X102526739Y-100853504D01*
X102444389Y-100676905D01*
X102433897Y-100607827D01*
X102462417Y-100544043D01*
X102520893Y-100505804D01*
X102556771Y-100500500D01*
X176443229Y-100500500D01*
X176510268Y-100520185D01*
G37*
%TD.AperFunction*%
%TD*%
M02*
